<?xml version="1.0" encoding="utf-8"?>
<svg xmlns="http://www.w3.org/2000/svg" xmlns:xlink="http://www.w3.org/1999/xlink" width="600" height="400" viewBox="0 0 2400 1600">
<defs>
  <clipPath id="clip150">
    <rect x="0" y="0" width="2400" height="1600"/>
  </clipPath>
</defs>
<path clip-path="url(#clip150)" d="M0 1600 L2400 1600 L2400 0 L0 0  Z" fill="#ffffff" fill-rule="evenodd" fill-opacity="1"/>
<defs>
  <clipPath id="clip151">
    <rect x="480" y="0" width="1681" height="1600"/>
  </clipPath>
</defs>
<path clip-path="url(#clip150)" d="M202.227 1423.18 L2352.76 1423.18 L2352.76 47.2441 L202.227 47.2441  Z" fill="#ffffff" fill-rule="evenodd" fill-opacity="1"/>
<defs>
  <clipPath id="clip152">
    <rect x="202" y="47" width="2152" height="1377"/>
  </clipPath>
</defs>
<polyline clip-path="url(#clip152)" style="stroke:#000000; stroke-linecap:round; stroke-linejoin:round; stroke-width:2; stroke-opacity:0.1; fill:none" points="563.095,1423.18 563.095,47.2441 "/>
<polyline clip-path="url(#clip152)" style="stroke:#000000; stroke-linecap:round; stroke-linejoin:round; stroke-width:2; stroke-opacity:0.1; fill:none" points="941.321,1423.18 941.321,47.2441 "/>
<polyline clip-path="url(#clip152)" style="stroke:#000000; stroke-linecap:round; stroke-linejoin:round; stroke-width:2; stroke-opacity:0.1; fill:none" points="1319.55,1423.18 1319.55,47.2441 "/>
<polyline clip-path="url(#clip152)" style="stroke:#000000; stroke-linecap:round; stroke-linejoin:round; stroke-width:2; stroke-opacity:0.1; fill:none" points="1697.77,1423.18 1697.77,47.2441 "/>
<polyline clip-path="url(#clip152)" style="stroke:#000000; stroke-linecap:round; stroke-linejoin:round; stroke-width:2; stroke-opacity:0.1; fill:none" points="2076,1423.18 2076,47.2441 "/>
<polyline clip-path="url(#clip150)" style="stroke:#000000; stroke-linecap:round; stroke-linejoin:round; stroke-width:4; stroke-opacity:1; fill:none" points="202.227,1423.18 2352.76,1423.18 "/>
<polyline clip-path="url(#clip150)" style="stroke:#000000; stroke-linecap:round; stroke-linejoin:round; stroke-width:4; stroke-opacity:1; fill:none" points="563.095,1423.18 563.095,1404.28 "/>
<polyline clip-path="url(#clip150)" style="stroke:#000000; stroke-linecap:round; stroke-linejoin:round; stroke-width:4; stroke-opacity:1; fill:none" points="941.321,1423.18 941.321,1404.28 "/>
<polyline clip-path="url(#clip150)" style="stroke:#000000; stroke-linecap:round; stroke-linejoin:round; stroke-width:4; stroke-opacity:1; fill:none" points="1319.55,1423.18 1319.55,1404.28 "/>
<polyline clip-path="url(#clip150)" style="stroke:#000000; stroke-linecap:round; stroke-linejoin:round; stroke-width:4; stroke-opacity:1; fill:none" points="1697.77,1423.18 1697.77,1404.28 "/>
<polyline clip-path="url(#clip150)" style="stroke:#000000; stroke-linecap:round; stroke-linejoin:round; stroke-width:4; stroke-opacity:1; fill:none" points="2076,1423.18 2076,1404.28 "/>
<path clip-path="url(#clip150)" d="M526.787 1481.64 L543.107 1481.64 L543.107 1485.58 L521.163 1485.58 L521.163 1481.64 Q523.825 1478.89 528.408 1474.26 Q533.014 1469.61 534.195 1468.27 Q536.44 1465.74 537.32 1464.01 Q538.223 1462.25 538.223 1460.56 Q538.223 1457.8 536.278 1456.07 Q534.357 1454.33 531.255 1454.33 Q529.056 1454.33 526.602 1455.09 Q524.172 1455.86 521.394 1457.41 L521.394 1452.69 Q524.218 1451.55 526.672 1450.97 Q529.125 1450.39 531.162 1450.39 Q536.533 1450.39 539.727 1453.08 Q542.922 1455.77 542.922 1460.26 Q542.922 1462.39 542.111 1464.31 Q541.324 1466.2 539.218 1468.8 Q538.639 1469.47 535.537 1472.69 Q532.436 1475.88 526.787 1481.64 Z" fill="#000000" fill-rule="nonzero" fill-opacity="1" /><path clip-path="url(#clip150)" d="M552.968 1451.02 L571.324 1451.02 L571.324 1454.96 L557.25 1454.96 L557.25 1463.43 Q558.269 1463.08 559.287 1462.92 Q560.306 1462.73 561.324 1462.73 Q567.111 1462.73 570.491 1465.9 Q573.871 1469.08 573.871 1474.49 Q573.871 1480.07 570.398 1483.17 Q566.926 1486.25 560.607 1486.25 Q558.431 1486.25 556.162 1485.88 Q553.917 1485.51 551.51 1484.77 L551.51 1480.07 Q553.593 1481.2 555.815 1481.76 Q558.037 1482.32 560.514 1482.32 Q564.519 1482.32 566.857 1480.21 Q569.195 1478.1 569.195 1474.49 Q569.195 1470.88 566.857 1468.77 Q564.519 1466.67 560.514 1466.67 Q558.639 1466.67 556.764 1467.08 Q554.912 1467.5 552.968 1468.38 L552.968 1451.02 Z" fill="#000000" fill-rule="nonzero" fill-opacity="1" /><path clip-path="url(#clip150)" d="M593.083 1454.1 Q589.472 1454.1 587.644 1457.66 Q585.838 1461.2 585.838 1468.33 Q585.838 1475.44 587.644 1479.01 Q589.472 1482.55 593.083 1482.55 Q596.718 1482.55 598.523 1479.01 Q600.352 1475.44 600.352 1468.33 Q600.352 1461.2 598.523 1457.66 Q596.718 1454.1 593.083 1454.1 M593.083 1450.39 Q598.894 1450.39 601.949 1455 Q605.028 1459.58 605.028 1468.33 Q605.028 1477.06 601.949 1481.67 Q598.894 1486.25 593.083 1486.25 Q587.273 1486.25 584.195 1481.67 Q581.139 1477.06 581.139 1468.33 Q581.139 1459.58 584.195 1455 Q587.273 1450.39 593.083 1450.39 Z" fill="#000000" fill-rule="nonzero" fill-opacity="1" /><path clip-path="url(#clip150)" d="M900.94 1451.02 L919.296 1451.02 L919.296 1454.96 L905.222 1454.96 L905.222 1463.43 Q906.241 1463.08 907.259 1462.92 Q908.278 1462.73 909.296 1462.73 Q915.083 1462.73 918.463 1465.9 Q921.842 1469.08 921.842 1474.49 Q921.842 1480.07 918.37 1483.17 Q914.898 1486.25 908.579 1486.25 Q906.403 1486.25 904.134 1485.88 Q901.889 1485.51 899.481 1484.77 L899.481 1480.07 Q901.565 1481.2 903.787 1481.76 Q906.009 1482.32 908.486 1482.32 Q912.491 1482.32 914.829 1480.21 Q917.166 1478.1 917.166 1474.49 Q917.166 1470.88 914.829 1468.77 Q912.491 1466.67 908.486 1466.67 Q906.611 1466.67 904.736 1467.08 Q902.884 1467.5 900.94 1468.38 L900.94 1451.02 Z" fill="#000000" fill-rule="nonzero" fill-opacity="1" /><path clip-path="url(#clip150)" d="M941.055 1454.1 Q937.444 1454.1 935.615 1457.66 Q933.81 1461.2 933.81 1468.33 Q933.81 1475.44 935.615 1479.01 Q937.444 1482.55 941.055 1482.55 Q944.689 1482.55 946.495 1479.01 Q948.324 1475.44 948.324 1468.33 Q948.324 1461.2 946.495 1457.66 Q944.689 1454.1 941.055 1454.1 M941.055 1450.39 Q946.865 1450.39 949.921 1455 Q953 1459.58 953 1468.33 Q953 1477.06 949.921 1481.67 Q946.865 1486.25 941.055 1486.25 Q935.245 1486.25 932.166 1481.67 Q929.111 1477.06 929.111 1468.33 Q929.111 1459.58 932.166 1455 Q935.245 1450.39 941.055 1450.39 Z" fill="#000000" fill-rule="nonzero" fill-opacity="1" /><path clip-path="url(#clip150)" d="M971.217 1454.1 Q967.606 1454.1 965.777 1457.66 Q963.972 1461.2 963.972 1468.33 Q963.972 1475.44 965.777 1479.01 Q967.606 1482.55 971.217 1482.55 Q974.851 1482.55 976.657 1479.01 Q978.486 1475.44 978.486 1468.33 Q978.486 1461.2 976.657 1457.66 Q974.851 1454.1 971.217 1454.1 M971.217 1450.39 Q977.027 1450.39 980.083 1455 Q983.162 1459.58 983.162 1468.33 Q983.162 1477.06 980.083 1481.67 Q977.027 1486.25 971.217 1486.25 Q965.407 1486.25 962.328 1481.67 Q959.273 1477.06 959.273 1468.33 Q959.273 1459.58 962.328 1455 Q965.407 1450.39 971.217 1450.39 Z" fill="#000000" fill-rule="nonzero" fill-opacity="1" /><path clip-path="url(#clip150)" d="M1277.82 1451.02 L1300.05 1451.02 L1300.05 1453.01 L1287.5 1485.58 L1282.62 1485.58 L1294.42 1454.96 L1277.82 1454.96 L1277.82 1451.02 Z" fill="#000000" fill-rule="nonzero" fill-opacity="1" /><path clip-path="url(#clip150)" d="M1309.21 1451.02 L1327.57 1451.02 L1327.57 1454.96 L1313.49 1454.96 L1313.49 1463.43 Q1314.51 1463.08 1315.53 1462.92 Q1316.55 1462.73 1317.57 1462.73 Q1323.36 1462.73 1326.74 1465.9 Q1330.11 1469.08 1330.11 1474.49 Q1330.11 1480.07 1326.64 1483.17 Q1323.17 1486.25 1316.85 1486.25 Q1314.68 1486.25 1312.41 1485.88 Q1310.16 1485.51 1307.75 1484.77 L1307.75 1480.07 Q1309.84 1481.2 1312.06 1481.76 Q1314.28 1482.32 1316.76 1482.32 Q1320.76 1482.32 1323.1 1480.21 Q1325.44 1478.1 1325.44 1474.49 Q1325.44 1470.88 1323.1 1468.77 Q1320.76 1466.67 1316.76 1466.67 Q1314.88 1466.67 1313.01 1467.08 Q1311.16 1467.5 1309.21 1468.38 L1309.21 1451.02 Z" fill="#000000" fill-rule="nonzero" fill-opacity="1" /><path clip-path="url(#clip150)" d="M1349.33 1454.1 Q1345.72 1454.1 1343.89 1457.66 Q1342.08 1461.2 1342.08 1468.33 Q1342.08 1475.44 1343.89 1479.01 Q1345.72 1482.55 1349.33 1482.55 Q1352.96 1482.55 1354.77 1479.01 Q1356.6 1475.44 1356.6 1468.33 Q1356.6 1461.2 1354.77 1457.66 Q1352.96 1454.1 1349.33 1454.1 M1349.33 1450.39 Q1355.14 1450.39 1358.19 1455 Q1361.27 1459.58 1361.27 1468.33 Q1361.27 1477.06 1358.19 1481.67 Q1355.14 1486.25 1349.33 1486.25 Q1343.52 1486.25 1340.44 1481.67 Q1337.38 1477.06 1337.38 1468.33 Q1337.38 1459.58 1340.44 1455 Q1343.52 1450.39 1349.33 1450.39 Z" fill="#000000" fill-rule="nonzero" fill-opacity="1" /><path clip-path="url(#clip150)" d="M1642.3 1481.64 L1649.94 1481.64 L1649.94 1455.28 L1641.63 1456.95 L1641.63 1452.69 L1649.89 1451.02 L1654.57 1451.02 L1654.57 1481.64 L1662.21 1481.64 L1662.21 1485.58 L1642.3 1485.58 L1642.3 1481.64 Z" fill="#000000" fill-rule="nonzero" fill-opacity="1" /><path clip-path="url(#clip150)" d="M1681.65 1454.1 Q1678.04 1454.1 1676.21 1457.66 Q1674.41 1461.2 1674.41 1468.33 Q1674.41 1475.44 1676.21 1479.01 Q1678.04 1482.55 1681.65 1482.55 Q1685.29 1482.55 1687.09 1479.01 Q1688.92 1475.44 1688.92 1468.33 Q1688.92 1461.2 1687.09 1457.66 Q1685.29 1454.1 1681.65 1454.1 M1681.65 1450.39 Q1687.46 1450.39 1690.52 1455 Q1693.6 1459.58 1693.6 1468.33 Q1693.6 1477.06 1690.52 1481.67 Q1687.46 1486.25 1681.65 1486.25 Q1675.84 1486.25 1672.76 1481.67 Q1669.71 1477.06 1669.71 1468.33 Q1669.71 1459.58 1672.76 1455 Q1675.84 1450.39 1681.65 1450.39 Z" fill="#000000" fill-rule="nonzero" fill-opacity="1" /><path clip-path="url(#clip150)" d="M1711.81 1454.1 Q1708.2 1454.1 1706.37 1457.66 Q1704.57 1461.2 1704.57 1468.33 Q1704.57 1475.44 1706.37 1479.01 Q1708.2 1482.55 1711.81 1482.55 Q1715.45 1482.55 1717.25 1479.01 Q1719.08 1475.44 1719.08 1468.33 Q1719.08 1461.2 1717.25 1457.66 Q1715.45 1454.1 1711.81 1454.1 M1711.81 1450.39 Q1717.62 1450.39 1720.68 1455 Q1723.76 1459.58 1723.76 1468.33 Q1723.76 1477.06 1720.68 1481.67 Q1717.62 1486.25 1711.81 1486.25 Q1706 1486.25 1702.92 1481.67 Q1699.87 1477.06 1699.87 1468.33 Q1699.87 1459.58 1702.92 1455 Q1706 1450.39 1711.81 1450.39 Z" fill="#000000" fill-rule="nonzero" fill-opacity="1" /><path clip-path="url(#clip150)" d="M1741.98 1454.1 Q1738.36 1454.1 1736.54 1457.66 Q1734.73 1461.2 1734.73 1468.33 Q1734.73 1475.44 1736.54 1479.01 Q1738.36 1482.55 1741.98 1482.55 Q1745.61 1482.55 1747.41 1479.01 Q1749.24 1475.44 1749.24 1468.33 Q1749.24 1461.2 1747.41 1457.66 Q1745.61 1454.1 1741.98 1454.1 M1741.98 1450.39 Q1747.79 1450.39 1750.84 1455 Q1753.92 1459.58 1753.92 1468.33 Q1753.92 1477.06 1750.84 1481.67 Q1747.79 1486.25 1741.98 1486.25 Q1736.17 1486.25 1733.09 1481.67 Q1730.03 1477.06 1730.03 1468.33 Q1730.03 1459.58 1733.09 1455 Q1736.17 1450.39 1741.98 1450.39 Z" fill="#000000" fill-rule="nonzero" fill-opacity="1" /><path clip-path="url(#clip150)" d="M2020.53 1481.64 L2028.16 1481.64 L2028.16 1455.28 L2019.85 1456.95 L2019.85 1452.69 L2028.12 1451.02 L2032.79 1451.02 L2032.79 1481.64 L2040.43 1481.64 L2040.43 1485.58 L2020.53 1485.58 L2020.53 1481.64 Z" fill="#000000" fill-rule="nonzero" fill-opacity="1" /><path clip-path="url(#clip150)" d="M2053.91 1481.64 L2070.22 1481.64 L2070.22 1485.58 L2048.28 1485.58 L2048.28 1481.64 Q2050.94 1478.89 2055.53 1474.26 Q2060.13 1469.61 2061.31 1468.27 Q2063.56 1465.74 2064.44 1464.01 Q2065.34 1462.25 2065.34 1460.56 Q2065.34 1457.8 2063.4 1456.07 Q2061.47 1454.33 2058.37 1454.33 Q2056.17 1454.33 2053.72 1455.09 Q2051.29 1455.86 2048.51 1457.41 L2048.51 1452.69 Q2051.34 1451.55 2053.79 1450.97 Q2056.24 1450.39 2058.28 1450.39 Q2063.65 1450.39 2066.85 1453.08 Q2070.04 1455.77 2070.04 1460.26 Q2070.04 1462.39 2069.23 1464.31 Q2068.44 1466.2 2066.34 1468.8 Q2065.76 1469.47 2062.66 1472.69 Q2059.55 1475.88 2053.91 1481.64 Z" fill="#000000" fill-rule="nonzero" fill-opacity="1" /><path clip-path="url(#clip150)" d="M2080.09 1451.02 L2098.44 1451.02 L2098.44 1454.96 L2084.37 1454.96 L2084.37 1463.43 Q2085.39 1463.08 2086.41 1462.92 Q2087.42 1462.73 2088.44 1462.73 Q2094.23 1462.73 2097.61 1465.9 Q2100.99 1469.08 2100.99 1474.49 Q2100.99 1480.07 2097.52 1483.17 Q2094.04 1486.25 2087.72 1486.25 Q2085.55 1486.25 2083.28 1485.88 Q2081.04 1485.51 2078.63 1484.77 L2078.63 1480.07 Q2080.71 1481.2 2082.93 1481.76 Q2085.16 1482.32 2087.63 1482.32 Q2091.64 1482.32 2093.97 1480.21 Q2096.31 1478.1 2096.31 1474.49 Q2096.31 1470.88 2093.97 1468.77 Q2091.64 1466.67 2087.63 1466.67 Q2085.76 1466.67 2083.88 1467.08 Q2082.03 1467.5 2080.09 1468.38 L2080.09 1451.02 Z" fill="#000000" fill-rule="nonzero" fill-opacity="1" /><path clip-path="url(#clip150)" d="M2120.2 1454.1 Q2116.59 1454.1 2114.76 1457.66 Q2112.96 1461.2 2112.96 1468.33 Q2112.96 1475.44 2114.76 1479.01 Q2116.59 1482.55 2120.2 1482.55 Q2123.84 1482.55 2125.64 1479.01 Q2127.47 1475.44 2127.47 1468.33 Q2127.47 1461.2 2125.64 1457.66 Q2123.84 1454.1 2120.2 1454.1 M2120.2 1450.39 Q2126.01 1450.39 2129.07 1455 Q2132.15 1459.58 2132.15 1468.33 Q2132.15 1477.06 2129.07 1481.67 Q2126.01 1486.25 2120.2 1486.25 Q2114.39 1486.25 2111.31 1481.67 Q2108.26 1477.06 2108.26 1468.33 Q2108.26 1459.58 2111.31 1455 Q2114.39 1450.39 2120.2 1450.39 Z" fill="#000000" fill-rule="nonzero" fill-opacity="1" /><path clip-path="url(#clip150)" d="M1182.95 1524.18 L1182.95 1530.96 Q1179.7 1527.94 1176.01 1526.44 Q1172.35 1524.95 1168.21 1524.95 Q1160.06 1524.95 1155.73 1529.95 Q1151.4 1534.91 1151.4 1544.33 Q1151.4 1553.72 1155.73 1558.72 Q1160.06 1563.68 1168.21 1563.68 Q1172.35 1563.68 1176.01 1562.19 Q1179.7 1560.69 1182.95 1557.67 L1182.95 1564.38 Q1179.57 1566.68 1175.78 1567.82 Q1172.03 1568.97 1167.83 1568.97 Q1157.04 1568.97 1150.83 1562.38 Q1144.62 1555.76 1144.62 1544.33 Q1144.62 1532.87 1150.83 1526.28 Q1157.04 1519.66 1167.83 1519.66 Q1172.09 1519.66 1175.85 1520.81 Q1179.63 1521.92 1182.95 1524.18 Z" fill="#000000" fill-rule="nonzero" fill-opacity="1" /><path clip-path="url(#clip150)" d="M1190.36 1548.09 L1194.05 1548.09 L1194.05 1568.04 L1190.36 1568.04 L1190.36 1548.09 M1190.36 1540.32 L1194.05 1540.32 L1194.05 1544.46 L1190.36 1544.46 L1190.36 1540.32 Z" fill="#000000" fill-rule="nonzero" fill-opacity="1" /><path clip-path="url(#clip150)" d="M1239.06 1518.58 Q1234.79 1525.9 1232.72 1533.06 Q1230.66 1540.23 1230.66 1547.58 Q1230.66 1554.93 1232.72 1562.16 Q1234.83 1569.35 1239.06 1576.64 L1233.97 1576.64 Q1229.19 1569.16 1226.8 1561.93 Q1224.45 1554.71 1224.45 1547.58 Q1224.45 1540.48 1226.8 1533.29 Q1229.16 1526.09 1233.97 1518.58 L1239.06 1518.58 Z" fill="#000000" fill-rule="nonzero" fill-opacity="1" /><path clip-path="url(#clip150)" d="M1256.09 1562.7 L1256.09 1581.6 L1250.2 1581.6 L1250.2 1532.4 L1256.09 1532.4 L1256.09 1537.81 Q1257.93 1534.62 1260.73 1533.1 Q1263.57 1531.54 1267.48 1531.54 Q1273.97 1531.54 1278.02 1536.69 Q1282.09 1541.85 1282.09 1550.25 Q1282.09 1558.65 1278.02 1563.81 Q1273.97 1568.97 1267.48 1568.97 Q1263.57 1568.97 1260.73 1567.44 Q1257.93 1565.88 1256.09 1562.7 M1276.01 1550.25 Q1276.01 1543.79 1273.34 1540.13 Q1270.7 1536.44 1266.05 1536.44 Q1261.4 1536.44 1258.73 1540.13 Q1256.09 1543.79 1256.09 1550.25 Q1256.09 1556.71 1258.73 1560.4 Q1261.4 1564.07 1266.05 1564.07 Q1270.7 1564.07 1273.34 1560.4 Q1276.01 1556.71 1276.01 1550.25 Z" fill="#000000" fill-rule="nonzero" fill-opacity="1" /><path clip-path="url(#clip150)" d="M1297.46 1562.7 L1297.46 1581.6 L1291.58 1581.6 L1291.58 1532.4 L1297.46 1532.4 L1297.46 1537.81 Q1299.31 1534.62 1302.11 1533.1 Q1304.94 1531.54 1308.86 1531.54 Q1315.35 1531.54 1319.39 1536.69 Q1323.47 1541.85 1323.47 1550.25 Q1323.47 1558.65 1319.39 1563.81 Q1315.35 1568.97 1308.86 1568.97 Q1304.94 1568.97 1302.11 1567.44 Q1299.31 1565.88 1297.46 1562.7 M1317.39 1550.25 Q1317.39 1543.79 1314.72 1540.13 Q1312.07 1536.44 1307.43 1536.44 Q1302.78 1536.44 1300.11 1540.13 Q1297.46 1543.79 1297.46 1550.25 Q1297.46 1556.71 1300.11 1560.4 Q1302.78 1564.07 1307.43 1564.07 Q1312.07 1564.07 1314.72 1560.4 Q1317.39 1556.71 1317.39 1550.25 Z" fill="#000000" fill-rule="nonzero" fill-opacity="1" /><path clip-path="url(#clip150)" d="M1360.93 1539.24 Q1363.13 1535.29 1366.18 1533.41 Q1369.24 1531.54 1373.38 1531.54 Q1378.95 1531.54 1381.97 1535.45 Q1384.99 1539.33 1384.99 1546.53 L1384.99 1568.04 L1379.1 1568.04 L1379.1 1546.72 Q1379.1 1541.59 1377.29 1539.11 Q1375.48 1536.63 1371.75 1536.63 Q1367.2 1536.63 1364.56 1539.65 Q1361.92 1542.68 1361.92 1547.9 L1361.92 1568.04 L1356.03 1568.04 L1356.03 1546.72 Q1356.03 1541.56 1354.21 1539.11 Q1352.4 1536.63 1348.61 1536.63 Q1344.12 1536.63 1341.48 1539.68 Q1338.84 1542.71 1338.84 1547.9 L1338.84 1568.04 L1332.95 1568.04 L1332.95 1532.4 L1338.84 1532.4 L1338.84 1537.93 Q1340.85 1534.66 1343.65 1533.1 Q1346.45 1531.54 1350.3 1531.54 Q1354.18 1531.54 1356.89 1533.51 Q1359.63 1535.48 1360.93 1539.24 Z" fill="#000000" fill-rule="nonzero" fill-opacity="1" /><path clip-path="url(#clip150)" d="M1395.75 1518.58 L1400.84 1518.58 Q1405.62 1526.09 1407.97 1533.29 Q1410.36 1540.48 1410.36 1547.58 Q1410.36 1554.71 1407.97 1561.93 Q1405.62 1569.16 1400.84 1576.64 L1395.75 1576.64 Q1399.98 1569.35 1402.05 1562.16 Q1404.15 1554.93 1404.15 1547.58 Q1404.15 1540.23 1402.05 1533.06 Q1399.98 1525.9 1395.75 1518.58 Z" fill="#000000" fill-rule="nonzero" fill-opacity="1" /><polyline clip-path="url(#clip152)" style="stroke:#000000; stroke-linecap:round; stroke-linejoin:round; stroke-width:2; stroke-opacity:0.1; fill:none" points="202.227,1368.62 2352.76,1368.62 "/>
<polyline clip-path="url(#clip152)" style="stroke:#000000; stroke-linecap:round; stroke-linejoin:round; stroke-width:2; stroke-opacity:0.1; fill:none" points="202.227,979.462 2352.76,979.462 "/>
<polyline clip-path="url(#clip152)" style="stroke:#000000; stroke-linecap:round; stroke-linejoin:round; stroke-width:2; stroke-opacity:0.1; fill:none" points="202.227,590.301 2352.76,590.301 "/>
<polyline clip-path="url(#clip152)" style="stroke:#000000; stroke-linecap:round; stroke-linejoin:round; stroke-width:2; stroke-opacity:0.1; fill:none" points="202.227,201.14 2352.76,201.14 "/>
<polyline clip-path="url(#clip150)" style="stroke:#000000; stroke-linecap:round; stroke-linejoin:round; stroke-width:4; stroke-opacity:1; fill:none" points="202.227,1423.18 202.227,47.2441 "/>
<polyline clip-path="url(#clip150)" style="stroke:#000000; stroke-linecap:round; stroke-linejoin:round; stroke-width:4; stroke-opacity:1; fill:none" points="202.227,1368.62 221.125,1368.62 "/>
<polyline clip-path="url(#clip150)" style="stroke:#000000; stroke-linecap:round; stroke-linejoin:round; stroke-width:4; stroke-opacity:1; fill:none" points="202.227,979.462 221.125,979.462 "/>
<polyline clip-path="url(#clip150)" style="stroke:#000000; stroke-linecap:round; stroke-linejoin:round; stroke-width:4; stroke-opacity:1; fill:none" points="202.227,590.301 221.125,590.301 "/>
<polyline clip-path="url(#clip150)" style="stroke:#000000; stroke-linecap:round; stroke-linejoin:round; stroke-width:4; stroke-opacity:1; fill:none" points="202.227,201.14 221.125,201.14 "/>
<path clip-path="url(#clip150)" d="M154.283 1354.42 Q150.672 1354.42 148.843 1357.99 Q147.038 1361.53 147.038 1368.66 Q147.038 1375.76 148.843 1379.33 Q150.672 1382.87 154.283 1382.87 Q157.917 1382.87 159.723 1379.33 Q161.552 1375.76 161.552 1368.66 Q161.552 1361.53 159.723 1357.99 Q157.917 1354.42 154.283 1354.42 M154.283 1350.72 Q160.093 1350.72 163.149 1355.32 Q166.227 1359.91 166.227 1368.66 Q166.227 1377.38 163.149 1381.99 Q160.093 1386.57 154.283 1386.57 Q148.473 1386.57 145.394 1381.99 Q142.339 1377.38 142.339 1368.66 Q142.339 1359.91 145.394 1355.32 Q148.473 1350.72 154.283 1350.72 Z" fill="#000000" fill-rule="nonzero" fill-opacity="1" /><path clip-path="url(#clip150)" d="M145.325 962.182 L163.681 962.182 L163.681 966.117 L149.607 966.117 L149.607 974.589 Q150.626 974.242 151.644 974.08 Q152.663 973.895 153.681 973.895 Q159.468 973.895 162.848 977.066 Q166.227 980.237 166.227 985.654 Q166.227 991.233 162.755 994.334 Q159.283 997.413 152.964 997.413 Q150.788 997.413 148.519 997.043 Q146.274 996.672 143.866 995.932 L143.866 991.233 Q145.95 992.367 148.172 992.922 Q150.394 993.478 152.871 993.478 Q156.876 993.478 159.214 991.371 Q161.552 989.265 161.552 985.654 Q161.552 982.043 159.214 979.936 Q156.876 977.83 152.871 977.83 Q150.996 977.83 149.121 978.246 Q147.269 978.663 145.325 979.543 L145.325 962.182 Z" fill="#000000" fill-rule="nonzero" fill-opacity="1" /><path clip-path="url(#clip150)" d="M114.931 603.646 L122.57 603.646 L122.57 577.28 L114.26 578.947 L114.26 574.687 L122.524 573.021 L127.2 573.021 L127.2 603.646 L134.839 603.646 L134.839 607.581 L114.931 607.581 L114.931 603.646 Z" fill="#000000" fill-rule="nonzero" fill-opacity="1" /><path clip-path="url(#clip150)" d="M154.283 576.1 Q150.672 576.1 148.843 579.664 Q147.038 583.206 147.038 590.336 Q147.038 597.442 148.843 601.007 Q150.672 604.548 154.283 604.548 Q157.917 604.548 159.723 601.007 Q161.552 597.442 161.552 590.336 Q161.552 583.206 159.723 579.664 Q157.917 576.1 154.283 576.1 M154.283 572.396 Q160.093 572.396 163.149 577.002 Q166.227 581.586 166.227 590.336 Q166.227 599.062 163.149 603.669 Q160.093 608.252 154.283 608.252 Q148.473 608.252 145.394 603.669 Q142.339 599.062 142.339 590.336 Q142.339 581.586 145.394 577.002 Q148.473 572.396 154.283 572.396 Z" fill="#000000" fill-rule="nonzero" fill-opacity="1" /><path clip-path="url(#clip150)" d="M115.927 214.485 L123.566 214.485 L123.566 188.119 L115.256 189.786 L115.256 185.527 L123.519 183.86 L128.195 183.86 L128.195 214.485 L135.834 214.485 L135.834 218.42 L115.927 218.42 L115.927 214.485 Z" fill="#000000" fill-rule="nonzero" fill-opacity="1" /><path clip-path="url(#clip150)" d="M145.325 183.86 L163.681 183.86 L163.681 187.795 L149.607 187.795 L149.607 196.267 Q150.626 195.92 151.644 195.758 Q152.663 195.573 153.681 195.573 Q159.468 195.573 162.848 198.744 Q166.227 201.915 166.227 207.332 Q166.227 212.911 162.755 216.013 Q159.283 219.091 152.964 219.091 Q150.788 219.091 148.519 218.721 Q146.274 218.35 143.866 217.61 L143.866 212.911 Q145.95 214.045 148.172 214.6 Q150.394 215.156 152.871 215.156 Q156.876 215.156 159.214 213.05 Q161.552 210.943 161.552 207.332 Q161.552 203.721 159.214 201.614 Q156.876 199.508 152.871 199.508 Q150.996 199.508 149.121 199.925 Q147.269 200.341 145.325 201.221 L145.325 183.86 Z" fill="#000000" fill-rule="nonzero" fill-opacity="1" /><path clip-path="url(#clip150)" d="M22.818 979.942 L46.4666 988.663 L46.4666 971.189 L22.818 979.942 M16.4842 983.57 L16.4842 976.281 L64.0042 958.171 L64.0042 964.855 L51.8138 969.184 L51.8138 990.604 L64.0042 994.933 L64.0042 1001.71 L16.4842 983.57 Z" fill="#000000" fill-rule="nonzero" fill-opacity="1" /><path clip-path="url(#clip150)" d="M14.5426 916.698 Q21.8632 920.963 29.0246 923.032 Q36.186 925.101 43.5384 925.101 Q50.8908 925.101 58.1159 923.032 Q65.3091 920.931 72.5979 916.698 L72.5979 921.791 Q65.1182 926.565 57.8931 928.952 Q50.668 931.308 43.5384 931.308 Q36.4406 931.308 29.2474 928.952 Q22.0542 926.597 14.5426 921.791 L14.5426 916.698 Z" fill="#000000" fill-rule="nonzero" fill-opacity="1" /><path clip-path="url(#clip150)" d="M77.5631 905.94 L28.3562 905.94 L28.3562 900.084 L50.5089 900.084 Q55.124 900.084 57.4793 897.888 Q59.8346 895.691 59.8346 891.395 Q59.8346 886.684 57.161 884.329 Q54.4874 881.942 49.1402 881.942 L28.3562 881.942 L28.3562 876.085 L55.7924 876.085 Q57.7021 876.085 58.6251 875.544 Q59.5163 874.971 59.5163 873.793 Q59.5163 873.507 59.3572 872.998 Q59.1662 872.488 58.7843 871.597 L63.4949 871.597 Q64.227 872.902 64.5771 874.08 Q64.9272 875.226 64.9272 876.34 Q64.9272 878.536 63.6859 879.841 Q62.4446 881.146 59.8983 881.623 Q62.4127 883.215 63.6859 885.538 Q64.9272 887.83 64.9272 890.949 Q64.9272 894.195 63.6859 896.487 Q62.4446 898.747 59.9619 900.084 L77.5631 900.084 L77.5631 905.94 Z" fill="#000000" fill-rule="nonzero" fill-opacity="1" /><path clip-path="url(#clip150)" d="M35.1993 836.108 Q31.2526 833.912 29.3747 830.857 Q27.4968 827.801 27.4968 823.663 Q27.4968 818.093 31.4117 815.07 Q35.2948 812.046 42.4881 812.046 L64.0042 812.046 L64.0042 817.934 L42.679 817.934 Q37.5546 817.934 35.072 819.749 Q32.5894 821.563 32.5894 825.287 Q32.5894 829.838 35.6131 832.48 Q38.6368 835.122 43.8567 835.122 L64.0042 835.122 L64.0042 841.01 L42.679 841.01 Q37.5228 841.01 35.072 842.824 Q32.5894 844.638 32.5894 848.426 Q32.5894 852.914 35.6449 855.556 Q38.6686 858.197 43.8567 858.197 L64.0042 858.197 L64.0042 864.086 L28.3562 864.086 L28.3562 858.197 L33.8944 858.197 Q30.616 856.192 29.0564 853.391 Q27.4968 850.59 27.4968 846.739 Q27.4968 842.856 29.4702 840.151 Q31.4436 837.413 35.1993 836.108 Z" fill="#000000" fill-rule="nonzero" fill-opacity="1" /><path clip-path="url(#clip150)" d="M32.4621 786.551 Q32.4621 791.262 36.1542 793.999 Q39.8145 796.737 46.212 796.737 Q52.6095 796.737 56.3017 794.031 Q59.9619 791.294 59.9619 786.551 Q59.9619 781.873 56.2698 779.135 Q52.5777 776.398 46.212 776.398 Q39.8781 776.398 36.186 779.135 Q32.4621 781.873 32.4621 786.551 M27.4968 786.551 Q27.4968 778.913 32.4621 774.552 Q37.4273 770.192 46.212 770.192 Q54.9649 770.192 59.9619 774.552 Q64.9272 778.913 64.9272 786.551 Q64.9272 794.222 59.9619 798.583 Q54.9649 802.911 46.212 802.911 Q37.4273 802.911 32.4621 798.583 Q27.4968 794.222 27.4968 786.551 Z" fill="#000000" fill-rule="nonzero" fill-opacity="1" /><path clip-path="url(#clip150)" d="M14.479 760.484 L14.479 754.627 L64.0042 754.627 L64.0042 760.484 L14.479 760.484 Z" fill="#000000" fill-rule="nonzero" fill-opacity="1" /><path clip-path="url(#clip150)" d="M35.1993 693.899 Q31.2526 691.702 29.3747 688.647 Q27.4968 685.591 27.4968 681.454 Q27.4968 675.884 31.4117 672.86 Q35.2948 669.836 42.4881 669.836 L64.0042 669.836 L64.0042 675.724 L42.679 675.724 Q37.5546 675.724 35.072 677.539 Q32.5894 679.353 32.5894 683.077 Q32.5894 687.628 35.6131 690.27 Q38.6368 692.912 43.8567 692.912 L64.0042 692.912 L64.0042 698.8 L42.679 698.8 Q37.5228 698.8 35.072 700.614 Q32.5894 702.429 32.5894 706.216 Q32.5894 710.704 35.6449 713.346 Q38.6686 715.988 43.8567 715.988 L64.0042 715.988 L64.0042 721.876 L28.3562 721.876 L28.3562 715.988 L33.8944 715.988 Q30.616 713.982 29.0564 711.181 Q27.4968 708.381 27.4968 704.529 Q27.4968 700.646 29.4702 697.941 Q31.4436 695.204 35.1993 693.899 Z" fill="#000000" fill-rule="nonzero" fill-opacity="1" /><path clip-path="url(#clip150)" d="M29.7885 659.937 L29.7885 634.252 L32.8122 634.252 L32.8122 659.937 L29.7885 659.937 Z" fill="#000000" fill-rule="nonzero" fill-opacity="1" /><path clip-path="url(#clip150)" d="M39.1142 621.361 L39.1142 607.866 L42.7427 607.866 L42.7427 626.899 L39.2416 626.899 Q38.2549 625.817 36.4725 623.812 Q26.7648 612.863 23.7729 612.863 Q21.6722 612.863 20.3991 614.518 Q19.0941 616.173 19.0941 618.879 Q19.0941 620.534 19.667 622.475 Q20.2081 624.417 21.3221 626.708 L17.4072 626.708 Q16.516 624.258 16.0704 622.157 Q15.6248 620.025 15.6248 618.21 Q15.6248 613.595 17.7255 610.826 Q19.8262 608.057 23.2636 608.057 Q27.6878 608.057 36.7271 618.592 Q38.2549 620.375 39.1142 621.361 Z" fill="#000000" fill-rule="nonzero" fill-opacity="1" /><path clip-path="url(#clip150)" d="M29.4065 554.171 L34.9447 554.171 Q33.6716 556.654 33.035 559.327 Q32.3984 562.001 32.3984 564.866 Q32.3984 569.226 33.7352 571.422 Q35.072 573.587 37.7456 573.587 Q39.7826 573.587 40.9603 572.027 Q42.1061 570.467 43.1565 565.757 L43.6021 563.752 Q44.9389 557.513 47.3897 554.903 Q49.8086 552.262 54.1691 552.262 Q59.1344 552.262 62.0308 556.208 Q64.9272 560.123 64.9272 566.998 Q64.9272 569.863 64.3543 572.982 Q63.8132 576.069 62.6992 579.507 L56.6518 579.507 Q58.3387 576.26 59.198 573.109 Q60.0256 569.958 60.0256 566.871 Q60.0256 562.733 58.6251 560.505 Q57.1929 558.277 54.6147 558.277 Q52.2276 558.277 50.9545 559.9 Q49.6813 561.492 48.5037 566.935 L48.0262 568.972 Q46.8804 574.414 44.5251 576.833 Q42.138 579.252 38.0002 579.252 Q32.9713 579.252 30.2341 575.687 Q27.4968 572.123 27.4968 565.566 Q27.4968 562.319 27.9743 559.455 Q28.4517 556.59 29.4065 554.171 Z" fill="#000000" fill-rule="nonzero" fill-opacity="1" /><path clip-path="url(#clip150)" d="M29.7885 544.718 L29.7885 519.033 L32.8122 519.033 L32.8122 544.718 L29.7885 544.718 Z" fill="#000000" fill-rule="nonzero" fill-opacity="1" /><path clip-path="url(#clip150)" d="M39.2416 509.707 L39.2416 503.214 L19.7943 503.214 L21.0993 510.312 L17.4072 510.312 L16.1659 502.991 L16.1659 498.63 L39.2416 498.63 L39.2416 492.106 L42.7427 492.106 L42.7427 509.707 L39.2416 509.707 Z" fill="#000000" fill-rule="nonzero" fill-opacity="1" /><path clip-path="url(#clip150)" d="M14.5426 483.321 L14.5426 478.228 Q22.0542 473.454 29.2474 471.099 Q36.4406 468.712 43.5384 468.712 Q50.668 468.712 57.8931 471.099 Q65.1182 473.454 72.5979 478.228 L72.5979 483.321 Q65.3091 479.088 58.1159 477.019 Q50.8908 474.918 43.5384 474.918 Q36.186 474.918 29.0246 477.019 Q21.8632 479.088 14.5426 483.321 Z" fill="#000000" fill-rule="nonzero" fill-opacity="1" /><circle clip-path="url(#clip152)" cx="476.726" cy="841.322" r="14.4" fill="#009af9" fill-rule="evenodd" fill-opacity="1" stroke="#000000" stroke-opacity="1" stroke-width="3.2"/>
<circle clip-path="url(#clip152)" cx="477.87" cy="832.459" r="14.4" fill="#009af9" fill-rule="evenodd" fill-opacity="1" stroke="#000000" stroke-opacity="1" stroke-width="3.2"/>
<circle clip-path="url(#clip152)" cx="419.989" cy="934.73" r="14.4" fill="#009af9" fill-rule="evenodd" fill-opacity="1" stroke="#000000" stroke-opacity="1" stroke-width="3.2"/>
<circle clip-path="url(#clip152)" cx="421.257" cy="932.162" r="14.4" fill="#009af9" fill-rule="evenodd" fill-opacity="1" stroke="#000000" stroke-opacity="1" stroke-width="3.2"/>
<circle clip-path="url(#clip152)" cx="356.058" cy="1101.92" r="14.4" fill="#009af9" fill-rule="evenodd" fill-opacity="1" stroke="#000000" stroke-opacity="1" stroke-width="3.2"/>
<circle clip-path="url(#clip152)" cx="355.152" cy="1102.52" r="14.4" fill="#009af9" fill-rule="evenodd" fill-opacity="1" stroke="#000000" stroke-opacity="1" stroke-width="3.2"/>
<circle clip-path="url(#clip152)" cx="295.053" cy="1296.06" r="14.4" fill="#009af9" fill-rule="evenodd" fill-opacity="1" stroke="#000000" stroke-opacity="1" stroke-width="3.2"/>
<circle clip-path="url(#clip152)" cx="295.408" cy="1294.49" r="14.4" fill="#009af9" fill-rule="evenodd" fill-opacity="1" stroke="#000000" stroke-opacity="1" stroke-width="3.2"/>
<circle clip-path="url(#clip152)" cx="263.099" cy="1380.89" r="14.4" fill="#009af9" fill-rule="evenodd" fill-opacity="1" stroke="#000000" stroke-opacity="1" stroke-width="3.2"/>
<circle clip-path="url(#clip152)" cx="263.091" cy="1380.43" r="14.4" fill="#009af9" fill-rule="evenodd" fill-opacity="1" stroke="#000000" stroke-opacity="1" stroke-width="3.2"/>
<circle clip-path="url(#clip152)" cx="505.155" cy="774.08" r="14.4" fill="#009af9" fill-rule="evenodd" fill-opacity="1" stroke="#000000" stroke-opacity="1" stroke-width="3.2"/>
<circle clip-path="url(#clip152)" cx="502.684" cy="774.497" r="14.4" fill="#009af9" fill-rule="evenodd" fill-opacity="1" stroke="#000000" stroke-opacity="1" stroke-width="3.2"/>
<circle clip-path="url(#clip152)" cx="502.753" cy="774.271" r="14.4" fill="#009af9" fill-rule="evenodd" fill-opacity="1" stroke="#000000" stroke-opacity="1" stroke-width="3.2"/>
<circle clip-path="url(#clip152)" cx="502.466" cy="772.018" r="14.4" fill="#009af9" fill-rule="evenodd" fill-opacity="1" stroke="#000000" stroke-opacity="1" stroke-width="3.2"/>
<circle clip-path="url(#clip152)" cx="663.806" cy="425.461" r="14.4" fill="#009af9" fill-rule="evenodd" fill-opacity="1" stroke="#000000" stroke-opacity="1" stroke-width="3.2"/>
<circle clip-path="url(#clip152)" cx="662.708" cy="421.035" r="14.4" fill="#009af9" fill-rule="evenodd" fill-opacity="1" stroke="#000000" stroke-opacity="1" stroke-width="3.2"/>
<circle clip-path="url(#clip152)" cx="867.413" cy="244.227" r="14.4" fill="#009af9" fill-rule="evenodd" fill-opacity="1" stroke="#000000" stroke-opacity="1" stroke-width="3.2"/>
<circle clip-path="url(#clip152)" cx="863.49" cy="241.286" r="14.4" fill="#009af9" fill-rule="evenodd" fill-opacity="1" stroke="#000000" stroke-opacity="1" stroke-width="3.2"/>
<circle clip-path="url(#clip152)" cx="1054.92" cy="165.429" r="14.4" fill="#009af9" fill-rule="evenodd" fill-opacity="1" stroke="#000000" stroke-opacity="1" stroke-width="3.2"/>
<circle clip-path="url(#clip152)" cx="1048.55" cy="172.295" r="14.4" fill="#009af9" fill-rule="evenodd" fill-opacity="1" stroke="#000000" stroke-opacity="1" stroke-width="3.2"/>
<circle clip-path="url(#clip152)" cx="1243.97" cy="120.219" r="14.4" fill="#009af9" fill-rule="evenodd" fill-opacity="1" stroke="#000000" stroke-opacity="1" stroke-width="3.2"/>
<circle clip-path="url(#clip152)" cx="1237.48" cy="122.681" r="14.4" fill="#009af9" fill-rule="evenodd" fill-opacity="1" stroke="#000000" stroke-opacity="1" stroke-width="3.2"/>
<circle clip-path="url(#clip152)" cx="1497.48" cy="104.558" r="14.4" fill="#009af9" fill-rule="evenodd" fill-opacity="1" stroke="#000000" stroke-opacity="1" stroke-width="3.2"/>
<circle clip-path="url(#clip152)" cx="1497.04" cy="107.329" r="14.4" fill="#009af9" fill-rule="evenodd" fill-opacity="1" stroke="#000000" stroke-opacity="1" stroke-width="3.2"/>
<circle clip-path="url(#clip152)" cx="1799.15" cy="86.1857" r="14.4" fill="#009af9" fill-rule="evenodd" fill-opacity="1" stroke="#000000" stroke-opacity="1" stroke-width="3.2"/>
<circle clip-path="url(#clip152)" cx="1802.07" cy="88.9277" r="14.4" fill="#009af9" fill-rule="evenodd" fill-opacity="1" stroke="#000000" stroke-opacity="1" stroke-width="3.2"/>
<circle clip-path="url(#clip152)" cx="2110.98" cy="126.546" r="14.4" fill="#009af9" fill-rule="evenodd" fill-opacity="1" stroke="#000000" stroke-opacity="1" stroke-width="3.2"/>
<circle clip-path="url(#clip152)" cx="2112.03" cy="127.792" r="14.4" fill="#009af9" fill-rule="evenodd" fill-opacity="1" stroke="#000000" stroke-opacity="1" stroke-width="3.2"/>
<circle clip-path="url(#clip152)" cx="2291.89" cy="105.305" r="14.4" fill="#009af9" fill-rule="evenodd" fill-opacity="1" stroke="#000000" stroke-opacity="1" stroke-width="3.2"/>
<circle clip-path="url(#clip152)" cx="2281.25" cy="87.7143" r="14.4" fill="#009af9" fill-rule="evenodd" fill-opacity="1" stroke="#000000" stroke-opacity="1" stroke-width="3.2"/>
<polyline clip-path="url(#clip152)" style="stroke:#e26f46; stroke-linecap:round; stroke-linejoin:round; stroke-width:4; stroke-opacity:1; fill:none" points="263.091,1384.12 263.099,1384.24 295.053,1287.96 295.408,1286.92 355.152,1119.55 356.058,1116.6 419.989,952.315 421.257,949.104 476.726,819.037 477.87,816.439 502.466,761.052 502.684,760.645 502.753,760.562 505.155,755.235 662.708,443.164 663.806,441.225 863.49,246.244 867.413,243.958 1048.55,170.881 1054.92,168.755 1237.48,119.163 1243.97,117.671 1497.04,104.291 1497.48,104.239 1799.15,104.212 1802.07,104.159 2110.98,104.371 2112.03,104.371 2281.25,104.318 2291.89,104.397 "/>
<path clip-path="url(#clip150)" d="M1060.21 1377.32 L2281.07 1377.32 L2281.07 1221.8 L1060.21 1221.8  Z" fill="#ffffff" fill-rule="evenodd" fill-opacity="1"/>
<polyline clip-path="url(#clip150)" style="stroke:#000000; stroke-linecap:round; stroke-linejoin:round; stroke-width:4; stroke-opacity:1; fill:none" points="1060.21,1377.32 2281.07,1377.32 2281.07,1221.8 1060.21,1221.8 1060.21,1377.32 "/>
<circle clip-path="url(#clip150)" cx="1155.79" cy="1273.64" r="20.48" fill="#009af9" fill-rule="evenodd" fill-opacity="1" stroke="#000000" stroke-opacity="1" stroke-width="4.55111"/>
<path clip-path="url(#clip150)" d="M1251.37 1256.36 L1258.34 1256.36 L1267.16 1279.87 L1276.02 1256.36 L1282.99 1256.36 L1282.99 1290.92 L1278.43 1290.92 L1278.43 1260.57 L1269.52 1284.27 L1264.82 1284.27 L1255.91 1260.57 L1255.91 1290.92 L1251.37 1290.92 L1251.37 1256.36 Z" fill="#000000" fill-rule="nonzero" fill-opacity="1" /><path clip-path="url(#clip150)" d="M1314.27 1276.89 L1314.27 1278.97 L1294.68 1278.97 Q1294.96 1283.37 1297.32 1285.68 Q1299.71 1287.98 1303.94 1287.98 Q1306.39 1287.98 1308.69 1287.37 Q1311 1286.77 1313.27 1285.57 L1313.27 1289.6 Q1310.98 1290.57 1308.57 1291.08 Q1306.16 1291.59 1303.69 1291.59 Q1297.48 1291.59 1293.85 1287.98 Q1290.24 1284.36 1290.24 1278.21 Q1290.24 1271.84 1293.66 1268.11 Q1297.11 1264.36 1302.95 1264.36 Q1308.18 1264.36 1311.21 1267.74 Q1314.27 1271.1 1314.27 1276.89 M1310.01 1275.64 Q1309.96 1272.14 1308.04 1270.06 Q1306.14 1267.98 1302.99 1267.98 Q1299.43 1267.98 1297.27 1269.99 Q1295.14 1272 1294.82 1275.66 L1310.01 1275.64 Z" fill="#000000" fill-rule="nonzero" fill-opacity="1" /><path clip-path="url(#clip150)" d="M1333.04 1277.88 Q1327.88 1277.88 1325.89 1279.06 Q1323.89 1280.24 1323.89 1283.09 Q1323.89 1285.36 1325.38 1286.7 Q1326.88 1288.02 1329.45 1288.02 Q1332.99 1288.02 1335.12 1285.52 Q1337.27 1283 1337.27 1278.83 L1337.27 1277.88 L1333.04 1277.88 M1341.53 1276.12 L1341.53 1290.92 L1337.27 1290.92 L1337.27 1286.98 Q1335.82 1289.34 1333.64 1290.48 Q1331.46 1291.59 1328.32 1291.59 Q1324.33 1291.59 1321.97 1289.36 Q1319.64 1287.12 1319.64 1283.37 Q1319.64 1278.99 1322.55 1276.77 Q1325.49 1274.55 1331.3 1274.55 L1337.27 1274.55 L1337.27 1274.13 Q1337.27 1271.19 1335.33 1269.6 Q1333.41 1267.98 1329.91 1267.98 Q1327.69 1267.98 1325.58 1268.51 Q1323.48 1269.04 1321.53 1270.11 L1321.53 1266.17 Q1323.87 1265.27 1326.07 1264.83 Q1328.27 1264.36 1330.35 1264.36 Q1335.98 1264.36 1338.76 1267.28 Q1341.53 1270.2 1341.53 1276.12 Z" fill="#000000" fill-rule="nonzero" fill-opacity="1" /><path clip-path="url(#clip150)" d="M1366.83 1265.75 L1366.83 1269.78 Q1365.03 1268.86 1363.08 1268.39 Q1361.14 1267.93 1359.06 1267.93 Q1355.89 1267.93 1354.29 1268.9 Q1352.71 1269.87 1352.71 1271.82 Q1352.71 1273.3 1353.85 1274.16 Q1354.98 1274.99 1358.41 1275.75 L1359.87 1276.08 Q1364.4 1277.05 1366.3 1278.83 Q1368.22 1280.59 1368.22 1283.76 Q1368.22 1287.37 1365.35 1289.48 Q1362.51 1291.59 1357.51 1291.59 Q1355.42 1291.59 1353.15 1291.17 Q1350.91 1290.78 1348.41 1289.97 L1348.41 1285.57 Q1350.77 1286.79 1353.06 1287.42 Q1355.35 1288.02 1357.6 1288.02 Q1360.61 1288.02 1362.23 1287 Q1363.85 1285.96 1363.85 1284.09 Q1363.85 1282.35 1362.67 1281.42 Q1361.51 1280.5 1357.55 1279.64 L1356.07 1279.3 Q1352.11 1278.46 1350.35 1276.75 Q1348.59 1275.01 1348.59 1272 Q1348.59 1268.35 1351.19 1266.36 Q1353.78 1264.36 1358.55 1264.36 Q1360.91 1264.36 1362.99 1264.71 Q1365.08 1265.06 1366.83 1265.75 Z" fill="#000000" fill-rule="nonzero" fill-opacity="1" /><path clip-path="url(#clip150)" d="M1374.57 1280.68 L1374.57 1264.99 L1378.83 1264.99 L1378.83 1280.52 Q1378.83 1284.2 1380.26 1286.05 Q1381.7 1287.88 1384.57 1287.88 Q1388.01 1287.88 1390.01 1285.68 Q1392.02 1283.48 1392.02 1279.69 L1392.02 1264.99 L1396.28 1264.99 L1396.28 1290.92 L1392.02 1290.92 L1392.02 1286.93 Q1390.47 1289.29 1388.41 1290.45 Q1386.37 1291.59 1383.66 1291.59 Q1379.2 1291.59 1376.88 1288.81 Q1374.57 1286.03 1374.57 1280.68 M1385.28 1264.36 L1385.28 1264.36 Z" fill="#000000" fill-rule="nonzero" fill-opacity="1" /><path clip-path="url(#clip150)" d="M1420.07 1268.97 Q1419.36 1268.55 1418.5 1268.37 Q1417.67 1268.16 1416.65 1268.16 Q1413.04 1268.16 1411.09 1270.52 Q1409.17 1272.86 1409.17 1277.26 L1409.17 1290.92 L1404.89 1290.92 L1404.89 1264.99 L1409.17 1264.99 L1409.17 1269.02 Q1410.51 1266.66 1412.67 1265.52 Q1414.82 1264.36 1417.9 1264.36 Q1418.34 1264.36 1418.87 1264.43 Q1419.4 1264.48 1420.05 1264.6 L1420.07 1268.97 Z" fill="#000000" fill-rule="nonzero" fill-opacity="1" /><path clip-path="url(#clip150)" d="M1445.68 1276.89 L1445.68 1278.97 L1426.09 1278.97 Q1426.37 1283.37 1428.73 1285.68 Q1431.12 1287.98 1435.35 1287.98 Q1437.81 1287.98 1440.1 1287.37 Q1442.41 1286.77 1444.68 1285.57 L1444.68 1289.6 Q1442.39 1290.57 1439.98 1291.08 Q1437.57 1291.59 1435.1 1291.59 Q1428.89 1291.59 1425.26 1287.98 Q1421.65 1284.36 1421.65 1278.21 Q1421.65 1271.84 1425.07 1268.11 Q1428.52 1264.36 1434.36 1264.36 Q1439.59 1264.36 1442.62 1267.74 Q1445.68 1271.1 1445.68 1276.89 M1441.42 1275.64 Q1441.37 1272.14 1439.45 1270.06 Q1437.55 1267.98 1434.4 1267.98 Q1430.84 1267.98 1428.69 1269.99 Q1426.56 1272 1426.23 1275.66 L1441.42 1275.64 Z" fill="#000000" fill-rule="nonzero" fill-opacity="1" /><path clip-path="url(#clip150)" d="M1469.73 1268.92 L1469.73 1254.9 L1473.99 1254.9 L1473.99 1290.92 L1469.73 1290.92 L1469.73 1287.03 Q1468.38 1289.34 1466.32 1290.48 Q1464.29 1291.59 1461.42 1291.59 Q1456.72 1291.59 1453.76 1287.84 Q1450.82 1284.09 1450.82 1277.98 Q1450.82 1271.86 1453.76 1268.11 Q1456.72 1264.36 1461.42 1264.36 Q1464.29 1264.36 1466.32 1265.5 Q1468.38 1266.61 1469.73 1268.92 M1455.21 1277.98 Q1455.21 1282.67 1457.13 1285.36 Q1459.08 1288.02 1462.46 1288.02 Q1465.84 1288.02 1467.78 1285.36 Q1469.73 1282.67 1469.73 1277.98 Q1469.73 1273.28 1467.78 1270.61 Q1465.84 1267.93 1462.46 1267.93 Q1459.08 1267.93 1457.13 1270.61 Q1455.21 1273.28 1455.21 1277.98 Z" fill="#000000" fill-rule="nonzero" fill-opacity="1" /><polyline clip-path="url(#clip150)" style="stroke:#e26f46; stroke-linecap:round; stroke-linejoin:round; stroke-width:4; stroke-opacity:1; fill:none" points="1084.11,1325.48 1227.48,1325.48 "/>
<path clip-path="url(#clip150)" d="M1273.62 1309.33 L1273.62 1313.89 Q1270.96 1312.62 1268.59 1311.99 Q1266.23 1311.37 1264.03 1311.37 Q1260.21 1311.37 1258.13 1312.85 Q1256.07 1314.33 1256.07 1317.06 Q1256.07 1319.35 1257.44 1320.53 Q1258.83 1321.69 1262.67 1322.41 L1265.49 1322.99 Q1270.72 1323.98 1273.2 1326.51 Q1275.7 1329.01 1275.7 1333.22 Q1275.7 1338.24 1272.32 1340.83 Q1268.96 1343.43 1262.46 1343.43 Q1260.01 1343.43 1257.23 1342.87 Q1254.47 1342.32 1251.51 1341.23 L1251.51 1336.41 Q1254.36 1338.01 1257.09 1338.82 Q1259.82 1339.63 1262.46 1339.63 Q1266.46 1339.63 1268.64 1338.06 Q1270.82 1336.48 1270.82 1333.57 Q1270.82 1331.02 1269.24 1329.58 Q1267.69 1328.15 1264.13 1327.43 L1261.28 1326.88 Q1256.05 1325.83 1253.71 1323.61 Q1251.37 1321.39 1251.37 1317.43 Q1251.37 1312.85 1254.59 1310.21 Q1257.83 1307.57 1263.5 1307.57 Q1265.93 1307.57 1268.46 1308.01 Q1270.98 1308.45 1273.62 1309.33 Z" fill="#000000" fill-rule="nonzero" fill-opacity="1" /><path clip-path="url(#clip150)" d="M1282.81 1316.83 L1287.07 1316.83 L1287.07 1342.76 L1282.81 1342.76 L1282.81 1316.83 M1282.81 1306.74 L1287.07 1306.74 L1287.07 1312.13 L1282.81 1312.13 L1282.81 1306.74 Z" fill="#000000" fill-rule="nonzero" fill-opacity="1" /><path clip-path="url(#clip150)" d="M1316.16 1321.81 Q1317.76 1318.94 1319.98 1317.57 Q1322.21 1316.2 1325.21 1316.2 Q1329.27 1316.2 1331.46 1319.05 Q1333.66 1321.88 1333.66 1327.11 L1333.66 1342.76 L1329.38 1342.76 L1329.38 1327.25 Q1329.38 1323.52 1328.06 1321.71 Q1326.74 1319.91 1324.03 1319.91 Q1320.72 1319.91 1318.8 1322.11 Q1316.88 1324.31 1316.88 1328.1 L1316.88 1342.76 L1312.6 1342.76 L1312.6 1327.25 Q1312.6 1323.5 1311.28 1321.71 Q1309.96 1319.91 1307.21 1319.91 Q1303.94 1319.91 1302.02 1322.13 Q1300.1 1324.33 1300.1 1328.1 L1300.1 1342.76 L1295.82 1342.76 L1295.82 1316.83 L1300.1 1316.83 L1300.1 1320.86 Q1301.56 1318.47 1303.59 1317.34 Q1305.63 1316.2 1308.43 1316.2 Q1311.26 1316.2 1313.22 1317.64 Q1315.21 1319.07 1316.16 1321.81 Z" fill="#000000" fill-rule="nonzero" fill-opacity="1" /><path clip-path="url(#clip150)" d="M1341.72 1332.52 L1341.72 1316.83 L1345.98 1316.83 L1345.98 1332.36 Q1345.98 1336.04 1347.41 1337.89 Q1348.85 1339.72 1351.72 1339.72 Q1355.17 1339.72 1357.16 1337.52 Q1359.17 1335.32 1359.17 1331.53 L1359.17 1316.83 L1363.43 1316.83 L1363.43 1342.76 L1359.17 1342.76 L1359.17 1338.77 Q1357.62 1341.13 1355.56 1342.29 Q1353.52 1343.43 1350.82 1343.43 Q1346.35 1343.43 1344.03 1340.65 Q1341.72 1337.87 1341.72 1332.52 M1352.44 1316.2 L1352.44 1316.2 Z" fill="#000000" fill-rule="nonzero" fill-opacity="1" /><path clip-path="url(#clip150)" d="M1372.2 1306.74 L1376.46 1306.74 L1376.46 1342.76 L1372.2 1342.76 L1372.2 1306.74 Z" fill="#000000" fill-rule="nonzero" fill-opacity="1" /><path clip-path="url(#clip150)" d="M1397.16 1329.72 Q1392 1329.72 1390.01 1330.9 Q1388.01 1332.08 1388.01 1334.93 Q1388.01 1337.2 1389.5 1338.54 Q1391 1339.86 1393.57 1339.86 Q1397.11 1339.86 1399.24 1337.36 Q1401.39 1334.84 1401.39 1330.67 L1401.39 1329.72 L1397.16 1329.72 M1405.65 1327.96 L1405.65 1342.76 L1401.39 1342.76 L1401.39 1338.82 Q1399.94 1341.18 1397.76 1342.32 Q1395.58 1343.43 1392.44 1343.43 Q1388.45 1343.43 1386.09 1341.2 Q1383.76 1338.96 1383.76 1335.21 Q1383.76 1330.83 1386.67 1328.61 Q1389.61 1326.39 1395.42 1326.39 L1401.39 1326.39 L1401.39 1325.97 Q1401.39 1323.03 1399.45 1321.44 Q1397.53 1319.82 1394.03 1319.82 Q1391.81 1319.82 1389.7 1320.35 Q1387.6 1320.88 1385.65 1321.95 L1385.65 1318.01 Q1387.99 1317.11 1390.19 1316.67 Q1392.39 1316.2 1394.47 1316.2 Q1400.1 1316.2 1402.88 1319.12 Q1405.65 1322.04 1405.65 1327.96 Z" fill="#000000" fill-rule="nonzero" fill-opacity="1" /><path clip-path="url(#clip150)" d="M1418.64 1309.47 L1418.64 1316.83 L1427.41 1316.83 L1427.41 1320.14 L1418.64 1320.14 L1418.64 1334.21 Q1418.64 1337.38 1419.5 1338.29 Q1420.38 1339.19 1423.04 1339.19 L1427.41 1339.19 L1427.41 1342.76 L1423.04 1342.76 Q1418.11 1342.76 1416.23 1340.93 Q1414.36 1339.07 1414.36 1334.21 L1414.36 1320.14 L1411.23 1320.14 L1411.23 1316.83 L1414.36 1316.83 L1414.36 1309.47 L1418.64 1309.47 Z" fill="#000000" fill-rule="nonzero" fill-opacity="1" /><path clip-path="url(#clip150)" d="M1455.19 1328.73 L1455.19 1330.81 L1435.61 1330.81 Q1435.88 1335.21 1438.25 1337.52 Q1440.63 1339.82 1444.87 1339.82 Q1447.32 1339.82 1449.61 1339.21 Q1451.93 1338.61 1454.2 1337.41 L1454.2 1341.44 Q1451.9 1342.41 1449.5 1342.92 Q1447.09 1343.43 1444.61 1343.43 Q1438.41 1343.43 1434.77 1339.82 Q1431.16 1336.2 1431.16 1330.05 Q1431.16 1323.68 1434.59 1319.95 Q1438.04 1316.2 1443.87 1316.2 Q1449.1 1316.2 1452.13 1319.58 Q1455.19 1322.94 1455.19 1328.73 M1450.93 1327.48 Q1450.88 1323.98 1448.96 1321.9 Q1447.07 1319.82 1443.92 1319.82 Q1440.35 1319.82 1438.2 1321.83 Q1436.07 1323.84 1435.75 1327.5 L1450.93 1327.48 Z" fill="#000000" fill-rule="nonzero" fill-opacity="1" /><path clip-path="url(#clip150)" d="M1479.24 1320.76 L1479.24 1306.74 L1483.5 1306.74 L1483.5 1342.76 L1479.24 1342.76 L1479.24 1338.87 Q1477.9 1341.18 1475.84 1342.32 Q1473.8 1343.43 1470.93 1343.43 Q1466.23 1343.43 1463.27 1339.68 Q1460.33 1335.93 1460.33 1329.82 Q1460.33 1323.7 1463.27 1319.95 Q1466.23 1316.2 1470.93 1316.2 Q1473.8 1316.2 1475.84 1317.34 Q1477.9 1318.45 1479.24 1320.76 M1464.73 1329.82 Q1464.73 1334.51 1466.65 1337.2 Q1468.59 1339.86 1471.97 1339.86 Q1475.35 1339.86 1477.3 1337.2 Q1479.24 1334.51 1479.24 1329.82 Q1479.24 1325.12 1477.3 1322.45 Q1475.35 1319.77 1471.97 1319.77 Q1468.59 1319.77 1466.65 1322.45 Q1464.73 1325.12 1464.73 1329.82 Z" fill="#000000" fill-rule="nonzero" fill-opacity="1" /><path clip-path="url(#clip150)" d="M1517.57 1306.78 Q1514.47 1312.11 1512.97 1317.32 Q1511.46 1322.52 1511.46 1327.87 Q1511.46 1333.22 1512.97 1338.47 Q1514.5 1343.7 1517.57 1349.01 L1513.87 1349.01 Q1510.4 1343.57 1508.66 1338.31 Q1506.95 1333.06 1506.95 1327.87 Q1506.95 1322.71 1508.66 1317.48 Q1510.38 1312.25 1513.87 1306.78 L1517.57 1306.78 Z" fill="#000000" fill-rule="nonzero" fill-opacity="1" /><path clip-path="url(#clip150)" d="M1526.02 1308.2 L1547.88 1308.2 L1547.88 1312.13 L1530.7 1312.13 L1530.7 1322.36 L1547.16 1322.36 L1547.16 1326.3 L1530.7 1326.3 L1530.7 1338.82 L1548.29 1338.82 L1548.29 1342.76 L1526.02 1342.76 L1526.02 1308.2 Z" fill="#000000" fill-rule="nonzero" fill-opacity="1" /><path clip-path="url(#clip150)" d="M1555.98 1308.2 L1575.84 1308.2 L1575.84 1312.13 L1560.65 1312.13 L1560.65 1322.32 L1574.36 1322.32 L1574.36 1326.25 L1560.65 1326.25 L1560.65 1342.76 L1555.98 1342.76 L1555.98 1308.2 Z" fill="#000000" fill-rule="nonzero" fill-opacity="1" /><path clip-path="url(#clip150)" d="M1580.47 1336.88 L1585.35 1336.88 L1585.35 1342.76 L1580.47 1342.76 L1580.47 1336.88 M1580.47 1318.24 L1585.35 1318.24 L1585.35 1324.12 L1580.47 1324.12 L1580.47 1318.24 Z" fill="#000000" fill-rule="nonzero" fill-opacity="1" /><path clip-path="url(#clip150)" d="M1605.95 1311.27 Q1602.34 1311.27 1600.51 1314.84 Q1598.71 1318.38 1598.71 1325.51 Q1598.71 1332.62 1600.51 1336.18 Q1602.34 1339.72 1605.95 1339.72 Q1609.59 1339.72 1611.39 1336.18 Q1613.22 1332.62 1613.22 1325.51 Q1613.22 1318.38 1611.39 1314.84 Q1609.59 1311.27 1605.95 1311.27 M1605.95 1307.57 Q1611.76 1307.57 1614.82 1312.18 Q1617.9 1316.76 1617.9 1325.51 Q1617.9 1334.24 1614.82 1338.84 Q1611.76 1343.43 1605.95 1343.43 Q1600.14 1343.43 1597.06 1338.84 Q1594.01 1334.24 1594.01 1325.51 Q1594.01 1316.76 1597.06 1312.18 Q1600.14 1307.57 1605.95 1307.57 Z" fill="#000000" fill-rule="nonzero" fill-opacity="1" /><path clip-path="url(#clip150)" d="M1626.12 1336.88 L1631 1336.88 L1631 1342.76 L1626.12 1342.76 L1626.12 1336.88 Z" fill="#000000" fill-rule="nonzero" fill-opacity="1" /><path clip-path="url(#clip150)" d="M1641.32 1342.04 L1641.32 1337.78 Q1643.08 1338.61 1644.89 1339.05 Q1646.69 1339.49 1648.43 1339.49 Q1653.06 1339.49 1655.49 1336.39 Q1657.94 1333.26 1658.29 1326.92 Q1656.95 1328.91 1654.89 1329.98 Q1652.83 1331.04 1650.33 1331.04 Q1645.14 1331.04 1642.11 1327.92 Q1639.1 1324.77 1639.1 1319.33 Q1639.1 1314.01 1642.25 1310.79 Q1645.4 1307.57 1650.63 1307.57 Q1656.62 1307.57 1659.77 1312.18 Q1662.94 1316.76 1662.94 1325.51 Q1662.94 1333.68 1659.06 1338.57 Q1655.19 1343.43 1648.64 1343.43 Q1646.88 1343.43 1645.07 1343.08 Q1643.27 1342.73 1641.32 1342.04 M1650.63 1327.39 Q1653.78 1327.39 1655.61 1325.23 Q1657.46 1323.08 1657.46 1319.33 Q1657.46 1315.6 1655.61 1313.45 Q1653.78 1311.27 1650.63 1311.27 Q1647.48 1311.27 1645.63 1313.45 Q1643.8 1315.6 1643.8 1319.33 Q1643.8 1323.08 1645.63 1325.23 Q1647.48 1327.39 1650.63 1327.39 Z" fill="#000000" fill-rule="nonzero" fill-opacity="1" /><path clip-path="url(#clip150)" d="M1671.49 1342.04 L1671.49 1337.78 Q1673.24 1338.61 1675.05 1339.05 Q1676.86 1339.49 1678.59 1339.49 Q1683.22 1339.49 1685.65 1336.39 Q1688.11 1333.26 1688.45 1326.92 Q1687.11 1328.91 1685.05 1329.98 Q1682.99 1331.04 1680.49 1331.04 Q1675.3 1331.04 1672.27 1327.92 Q1669.26 1324.77 1669.26 1319.33 Q1669.26 1314.01 1672.41 1310.79 Q1675.56 1307.57 1680.79 1307.57 Q1686.79 1307.57 1689.93 1312.18 Q1693.11 1316.76 1693.11 1325.51 Q1693.11 1333.68 1689.22 1338.57 Q1685.35 1343.43 1678.8 1343.43 Q1677.04 1343.43 1675.24 1343.08 Q1673.43 1342.73 1671.49 1342.04 M1680.79 1327.39 Q1683.94 1327.39 1685.77 1325.23 Q1687.62 1323.08 1687.62 1319.33 Q1687.62 1315.6 1685.77 1313.45 Q1683.94 1311.27 1680.79 1311.27 Q1677.64 1311.27 1675.79 1313.45 Q1673.96 1315.6 1673.96 1319.33 Q1673.96 1323.08 1675.79 1325.23 Q1677.64 1327.39 1680.79 1327.39 Z" fill="#000000" fill-rule="nonzero" fill-opacity="1" /><path clip-path="url(#clip150)" d="M1701.65 1342.04 L1701.65 1337.78 Q1703.41 1338.61 1705.21 1339.05 Q1707.02 1339.49 1708.75 1339.49 Q1713.38 1339.49 1715.81 1336.39 Q1718.27 1333.26 1718.61 1326.92 Q1717.27 1328.91 1715.21 1329.98 Q1713.15 1331.04 1710.65 1331.04 Q1705.47 1331.04 1702.43 1327.92 Q1699.43 1324.77 1699.43 1319.33 Q1699.43 1314.01 1702.57 1310.79 Q1705.72 1307.57 1710.95 1307.57 Q1716.95 1307.57 1720.1 1312.18 Q1723.27 1316.76 1723.27 1325.51 Q1723.27 1333.68 1719.38 1338.57 Q1715.51 1343.43 1708.96 1343.43 Q1707.2 1343.43 1705.4 1343.08 Q1703.59 1342.73 1701.65 1342.04 M1710.95 1327.39 Q1714.1 1327.39 1715.93 1325.23 Q1717.78 1323.08 1717.78 1319.33 Q1717.78 1315.6 1715.93 1313.45 Q1714.1 1311.27 1710.95 1311.27 Q1707.8 1311.27 1705.95 1313.45 Q1704.12 1315.6 1704.12 1319.33 Q1704.12 1323.08 1705.95 1325.23 Q1707.8 1327.39 1710.95 1327.39 Z" fill="#000000" fill-rule="nonzero" fill-opacity="1" /><path clip-path="url(#clip150)" d="M1732.16 1336.88 L1737.04 1336.88 L1737.04 1340.86 L1733.24 1348.26 L1730.26 1348.26 L1732.16 1340.86 L1732.16 1336.88 Z" fill="#000000" fill-rule="nonzero" fill-opacity="1" /><path clip-path="url(#clip150)" d="M1763.2 1320.76 L1763.2 1306.74 L1767.46 1306.74 L1767.46 1342.76 L1763.2 1342.76 L1763.2 1338.87 Q1761.86 1341.18 1759.8 1342.32 Q1757.76 1343.43 1754.89 1343.43 Q1750.19 1343.43 1747.23 1339.68 Q1744.29 1335.93 1744.29 1329.82 Q1744.29 1323.7 1747.23 1319.95 Q1750.19 1316.2 1754.89 1316.2 Q1757.76 1316.2 1759.8 1317.34 Q1761.86 1318.45 1763.2 1320.76 M1748.68 1329.82 Q1748.68 1334.51 1750.61 1337.2 Q1752.55 1339.86 1755.93 1339.86 Q1759.31 1339.86 1761.25 1337.2 Q1763.2 1334.51 1763.2 1329.82 Q1763.2 1325.12 1761.25 1322.45 Q1759.31 1319.77 1755.93 1319.77 Q1752.55 1319.77 1750.61 1322.45 Q1748.68 1325.12 1748.68 1329.82 Z" fill="#000000" fill-rule="nonzero" fill-opacity="1" /><path clip-path="url(#clip150)" d="M1791.25 1320.81 Q1790.54 1320.39 1789.68 1320.21 Q1788.85 1320 1787.83 1320 Q1784.22 1320 1782.27 1322.36 Q1780.35 1324.7 1780.35 1329.1 L1780.35 1342.76 L1776.07 1342.76 L1776.07 1316.83 L1780.35 1316.83 L1780.35 1320.86 Q1781.69 1318.5 1783.85 1317.36 Q1786 1316.2 1789.08 1316.2 Q1789.52 1316.2 1790.05 1316.27 Q1790.58 1316.32 1791.23 1316.44 L1791.25 1320.81 Z" fill="#000000" fill-rule="nonzero" fill-opacity="1" /><path clip-path="url(#clip150)" d="M1795.98 1336.88 L1800.86 1336.88 L1800.86 1342.76 L1795.98 1342.76 L1795.98 1336.88 M1795.98 1318.24 L1800.86 1318.24 L1800.86 1324.12 L1795.98 1324.12 L1795.98 1318.24 Z" fill="#000000" fill-rule="nonzero" fill-opacity="1" /><path clip-path="url(#clip150)" d="M1821.46 1311.27 Q1817.85 1311.27 1816.02 1314.84 Q1814.22 1318.38 1814.22 1325.51 Q1814.22 1332.62 1816.02 1336.18 Q1817.85 1339.72 1821.46 1339.72 Q1825.1 1339.72 1826.9 1336.18 Q1828.73 1332.62 1828.73 1325.51 Q1828.73 1318.38 1826.9 1314.84 Q1825.1 1311.27 1821.46 1311.27 M1821.46 1307.57 Q1827.27 1307.57 1830.33 1312.18 Q1833.41 1316.76 1833.41 1325.51 Q1833.41 1334.24 1830.33 1338.84 Q1827.27 1343.43 1821.46 1343.43 Q1815.65 1343.43 1812.57 1338.84 Q1809.52 1334.24 1809.52 1325.51 Q1809.52 1316.76 1812.57 1312.18 Q1815.65 1307.57 1821.46 1307.57 Z" fill="#000000" fill-rule="nonzero" fill-opacity="1" /><path clip-path="url(#clip150)" d="M1841.62 1336.88 L1846.51 1336.88 L1846.51 1342.76 L1841.62 1342.76 L1841.62 1336.88 Z" fill="#000000" fill-rule="nonzero" fill-opacity="1" /><path clip-path="url(#clip150)" d="M1856.83 1342.04 L1856.83 1337.78 Q1858.59 1338.61 1860.4 1339.05 Q1862.2 1339.49 1863.94 1339.49 Q1868.57 1339.49 1871 1336.39 Q1873.45 1333.26 1873.8 1326.92 Q1872.46 1328.91 1870.4 1329.98 Q1868.34 1331.04 1865.84 1331.04 Q1860.65 1331.04 1857.62 1327.92 Q1854.61 1324.77 1854.61 1319.33 Q1854.61 1314.01 1857.76 1310.79 Q1860.91 1307.57 1866.14 1307.57 Q1872.13 1307.57 1875.28 1312.18 Q1878.45 1316.76 1878.45 1325.51 Q1878.45 1333.68 1874.56 1338.57 Q1870.7 1343.43 1864.15 1343.43 Q1862.39 1343.43 1860.58 1343.08 Q1858.78 1342.73 1856.83 1342.04 M1866.14 1327.39 Q1869.29 1327.39 1871.11 1325.23 Q1872.97 1323.08 1872.97 1319.33 Q1872.97 1315.6 1871.11 1313.45 Q1869.29 1311.27 1866.14 1311.27 Q1862.99 1311.27 1861.14 1313.45 Q1859.31 1315.6 1859.31 1319.33 Q1859.31 1323.08 1861.14 1325.23 Q1862.99 1327.39 1866.14 1327.39 Z" fill="#000000" fill-rule="nonzero" fill-opacity="1" /><path clip-path="url(#clip150)" d="M1896.85 1326.34 Q1893.52 1326.34 1891.6 1328.13 Q1889.7 1329.91 1889.7 1333.03 Q1889.7 1336.16 1891.6 1337.94 Q1893.52 1339.72 1896.85 1339.72 Q1900.19 1339.72 1902.11 1337.94 Q1904.03 1336.13 1904.03 1333.03 Q1904.03 1329.91 1902.11 1328.13 Q1900.21 1326.34 1896.85 1326.34 M1892.18 1324.35 Q1889.17 1323.61 1887.48 1321.55 Q1885.81 1319.49 1885.81 1316.53 Q1885.81 1312.39 1888.75 1309.98 Q1891.72 1307.57 1896.85 1307.57 Q1902.02 1307.57 1904.96 1309.98 Q1907.9 1312.39 1907.9 1316.53 Q1907.9 1319.49 1906.21 1321.55 Q1904.54 1323.61 1901.55 1324.35 Q1904.93 1325.14 1906.81 1327.43 Q1908.71 1329.72 1908.71 1333.03 Q1908.71 1338.06 1905.63 1340.74 Q1902.57 1343.43 1896.85 1343.43 Q1891.14 1343.43 1888.06 1340.74 Q1885 1338.06 1885 1333.03 Q1885 1329.72 1886.9 1327.43 Q1888.8 1325.14 1892.18 1324.35 M1890.47 1316.97 Q1890.47 1319.65 1892.13 1321.16 Q1893.82 1322.66 1896.85 1322.66 Q1899.86 1322.66 1901.55 1321.16 Q1903.27 1319.65 1903.27 1316.97 Q1903.27 1314.28 1901.55 1312.78 Q1899.86 1311.27 1896.85 1311.27 Q1893.82 1311.27 1892.13 1312.78 Q1890.47 1314.28 1890.47 1316.97 Z" fill="#000000" fill-rule="nonzero" fill-opacity="1" /><path clip-path="url(#clip150)" d="M1915.84 1308.2 L1938.06 1308.2 L1938.06 1310.19 L1925.51 1342.76 L1920.63 1342.76 L1932.43 1312.13 L1915.84 1312.13 L1915.84 1308.2 Z" fill="#000000" fill-rule="nonzero" fill-opacity="1" /><path clip-path="url(#clip150)" d="M1947.66 1336.88 L1952.55 1336.88 L1952.55 1340.86 L1948.75 1348.26 L1945.77 1348.26 L1947.66 1340.86 L1947.66 1336.88 Z" fill="#000000" fill-rule="nonzero" fill-opacity="1" /><path clip-path="url(#clip150)" d="M1978.22 1326.55 Q1979.72 1327.06 1981.14 1328.73 Q1982.57 1330.39 1984.01 1333.31 L1988.75 1342.76 L1983.73 1342.76 L1979.31 1333.89 Q1977.6 1330.42 1975.97 1329.28 Q1974.38 1328.15 1971.6 1328.15 L1966.51 1328.15 L1966.51 1342.76 L1961.83 1342.76 L1961.83 1308.2 L1972.39 1308.2 Q1978.31 1308.2 1981.23 1310.67 Q1984.15 1313.15 1984.15 1318.15 Q1984.15 1321.41 1982.62 1323.57 Q1981.11 1325.72 1978.22 1326.55 M1966.51 1312.04 L1966.51 1324.31 L1972.39 1324.31 Q1975.77 1324.31 1977.48 1322.76 Q1979.22 1321.18 1979.22 1318.15 Q1979.22 1315.12 1977.48 1313.59 Q1975.77 1312.04 1972.39 1312.04 L1966.51 1312.04 Z" fill="#000000" fill-rule="nonzero" fill-opacity="1" /><path clip-path="url(#clip150)" d="M1994.77 1308.2 L2001.74 1308.2 L2010.56 1331.71 L2019.42 1308.2 L2026.39 1308.2 L2026.39 1342.76 L2021.83 1342.76 L2021.83 1312.41 L2012.92 1336.11 L2008.22 1336.11 L1999.31 1312.41 L1999.31 1342.76 L1994.77 1342.76 L1994.77 1308.2 Z" fill="#000000" fill-rule="nonzero" fill-opacity="1" /><path clip-path="url(#clip150)" d="M2056.39 1309.33 L2056.39 1313.89 Q2053.73 1312.62 2051.37 1311.99 Q2049.01 1311.37 2046.81 1311.37 Q2042.99 1311.37 2040.9 1312.85 Q2038.84 1314.33 2038.84 1317.06 Q2038.84 1319.35 2040.21 1320.53 Q2041.6 1321.69 2045.44 1322.41 L2048.27 1322.99 Q2053.5 1323.98 2055.97 1326.51 Q2058.47 1329.01 2058.47 1333.22 Q2058.47 1338.24 2055.09 1340.83 Q2051.74 1343.43 2045.23 1343.43 Q2042.78 1343.43 2040 1342.87 Q2037.25 1342.32 2034.28 1341.23 L2034.28 1336.41 Q2037.13 1338.01 2039.86 1338.82 Q2042.59 1339.63 2045.23 1339.63 Q2049.24 1339.63 2051.41 1338.06 Q2053.59 1336.48 2053.59 1333.57 Q2053.59 1331.02 2052.02 1329.58 Q2050.47 1328.15 2046.9 1327.43 L2044.05 1326.88 Q2038.82 1325.83 2036.48 1323.61 Q2034.15 1321.39 2034.15 1317.43 Q2034.15 1312.85 2037.36 1310.21 Q2040.6 1307.57 2046.28 1307.57 Q2048.71 1307.57 2051.23 1308.01 Q2053.75 1308.45 2056.39 1309.33 Z" fill="#000000" fill-rule="nonzero" fill-opacity="1" /><path clip-path="url(#clip150)" d="M2065.77 1308.2 L2087.62 1308.2 L2087.62 1312.13 L2070.44 1312.13 L2070.44 1322.36 L2086.9 1322.36 L2086.9 1326.3 L2070.44 1326.3 L2070.44 1338.82 L2088.03 1338.82 L2088.03 1342.76 L2065.77 1342.76 L2065.77 1308.2 Z" fill="#000000" fill-rule="nonzero" fill-opacity="1" /><path clip-path="url(#clip150)" d="M2096.62 1336.88 L2101.51 1336.88 L2101.51 1342.76 L2096.62 1342.76 L2096.62 1336.88 M2096.62 1318.24 L2101.51 1318.24 L2101.51 1324.12 L2096.62 1324.12 L2096.62 1318.24 Z" fill="#000000" fill-rule="nonzero" fill-opacity="1" /><path clip-path="url(#clip150)" d="M2122.11 1311.27 Q2118.5 1311.27 2116.67 1314.84 Q2114.86 1318.38 2114.86 1325.51 Q2114.86 1332.62 2116.67 1336.18 Q2118.5 1339.72 2122.11 1339.72 Q2125.74 1339.72 2127.55 1336.18 Q2129.38 1332.62 2129.38 1325.51 Q2129.38 1318.38 2127.55 1314.84 Q2125.74 1311.27 2122.11 1311.27 M2122.11 1307.57 Q2127.92 1307.57 2130.97 1312.18 Q2134.05 1316.76 2134.05 1325.51 Q2134.05 1334.24 2130.97 1338.84 Q2127.92 1343.43 2122.11 1343.43 Q2116.3 1343.43 2113.22 1338.84 Q2110.16 1334.24 2110.16 1325.51 Q2110.16 1316.76 2113.22 1312.18 Q2116.3 1307.57 2122.11 1307.57 Z" fill="#000000" fill-rule="nonzero" fill-opacity="1" /><path clip-path="url(#clip150)" d="M2142.27 1336.88 L2147.15 1336.88 L2147.15 1342.76 L2142.27 1342.76 L2142.27 1336.88 Z" fill="#000000" fill-rule="nonzero" fill-opacity="1" /><path clip-path="url(#clip150)" d="M2158.15 1338.82 L2165.79 1338.82 L2165.79 1312.45 L2157.48 1314.12 L2157.48 1309.86 L2165.74 1308.2 L2170.42 1308.2 L2170.42 1338.82 L2178.06 1338.82 L2178.06 1342.76 L2158.15 1342.76 L2158.15 1338.82 Z" fill="#000000" fill-rule="nonzero" fill-opacity="1" /><path clip-path="url(#clip150)" d="M2186.32 1308.2 L2208.54 1308.2 L2208.54 1310.19 L2196 1342.76 L2191.11 1342.76 L2202.92 1312.13 L2186.32 1312.13 L2186.32 1308.2 Z" fill="#000000" fill-rule="nonzero" fill-opacity="1" /><path clip-path="url(#clip150)" d="M2217.71 1308.2 L2236.07 1308.2 L2236.07 1312.13 L2221.99 1312.13 L2221.99 1320.6 Q2223.01 1320.26 2224.03 1320.09 Q2225.05 1319.91 2226.07 1319.91 Q2231.85 1319.91 2235.23 1323.08 Q2238.61 1326.25 2238.61 1331.67 Q2238.61 1337.25 2235.14 1340.35 Q2231.67 1343.43 2225.35 1343.43 Q2223.17 1343.43 2220.9 1343.06 Q2218.66 1342.69 2216.25 1341.95 L2216.25 1337.25 Q2218.33 1338.38 2220.56 1338.94 Q2222.78 1339.49 2225.26 1339.49 Q2229.26 1339.49 2231.6 1337.38 Q2233.94 1335.28 2233.94 1331.67 Q2233.94 1328.06 2231.6 1325.95 Q2229.26 1323.84 2225.26 1323.84 Q2223.38 1323.84 2221.51 1324.26 Q2219.65 1324.68 2217.71 1325.56 L2217.71 1308.2 Z" fill="#000000" fill-rule="nonzero" fill-opacity="1" /><path clip-path="url(#clip150)" d="M2246.55 1306.78 L2250.26 1306.78 Q2253.73 1312.25 2255.44 1317.48 Q2257.18 1322.71 2257.18 1327.87 Q2257.18 1333.06 2255.44 1338.31 Q2253.73 1343.57 2250.26 1349.01 L2246.55 1349.01 Q2249.63 1343.7 2251.14 1338.47 Q2252.66 1333.22 2252.66 1327.87 Q2252.66 1322.52 2251.14 1317.32 Q2249.63 1312.11 2246.55 1306.78 Z" fill="#000000" fill-rule="nonzero" fill-opacity="1" /></svg>
