<?xml version="1.0" encoding="utf-8"?>
<svg xmlns="http://www.w3.org/2000/svg" xmlns:xlink="http://www.w3.org/1999/xlink" width="600" height="400" viewBox="0 0 2400 1600">
<defs>
  <clipPath id="clip210">
    <rect x="0" y="0" width="2400" height="1600"/>
  </clipPath>
</defs>
<path clip-path="url(#clip210)" d="M0 1600 L2400 1600 L2400 0 L0 0  Z" fill="#ffffff" fill-rule="evenodd" fill-opacity="1"/>
<defs>
  <clipPath id="clip211">
    <rect x="480" y="0" width="1681" height="1600"/>
  </clipPath>
</defs>
<path clip-path="url(#clip210)" d="M202.227 1423.18 L2352.76 1423.18 L2352.76 47.2441 L202.227 47.2441  Z" fill="#ffffff" fill-rule="evenodd" fill-opacity="1"/>
<defs>
  <clipPath id="clip212">
    <rect x="202" y="47" width="2152" height="1377"/>
  </clipPath>
</defs>
<polyline clip-path="url(#clip212)" style="stroke:#000000; stroke-linecap:round; stroke-linejoin:round; stroke-width:2; stroke-opacity:0.1; fill:none" points="210.082,1423.18 210.082,47.2441 "/>
<polyline clip-path="url(#clip212)" style="stroke:#000000; stroke-linecap:round; stroke-linejoin:round; stroke-width:2; stroke-opacity:0.1; fill:none" points="748.137,1423.18 748.137,47.2441 "/>
<polyline clip-path="url(#clip212)" style="stroke:#000000; stroke-linecap:round; stroke-linejoin:round; stroke-width:2; stroke-opacity:0.1; fill:none" points="1286.19,1423.18 1286.19,47.2441 "/>
<polyline clip-path="url(#clip212)" style="stroke:#000000; stroke-linecap:round; stroke-linejoin:round; stroke-width:2; stroke-opacity:0.1; fill:none" points="1824.24,1423.18 1824.24,47.2441 "/>
<polyline clip-path="url(#clip210)" style="stroke:#000000; stroke-linecap:round; stroke-linejoin:round; stroke-width:4; stroke-opacity:1; fill:none" points="202.227,1423.18 2352.76,1423.18 "/>
<polyline clip-path="url(#clip210)" style="stroke:#000000; stroke-linecap:round; stroke-linejoin:round; stroke-width:4; stroke-opacity:1; fill:none" points="210.082,1423.18 210.082,1404.28 "/>
<polyline clip-path="url(#clip210)" style="stroke:#000000; stroke-linecap:round; stroke-linejoin:round; stroke-width:4; stroke-opacity:1; fill:none" points="748.137,1423.18 748.137,1404.28 "/>
<polyline clip-path="url(#clip210)" style="stroke:#000000; stroke-linecap:round; stroke-linejoin:round; stroke-width:4; stroke-opacity:1; fill:none" points="1286.19,1423.18 1286.19,1404.28 "/>
<polyline clip-path="url(#clip210)" style="stroke:#000000; stroke-linecap:round; stroke-linejoin:round; stroke-width:4; stroke-opacity:1; fill:none" points="1824.24,1423.18 1824.24,1404.28 "/>
<path clip-path="url(#clip210)" d="M210.082 1454.1 Q206.471 1454.1 204.643 1457.66 Q202.837 1461.2 202.837 1468.33 Q202.837 1475.44 204.643 1479.01 Q206.471 1482.55 210.082 1482.55 Q213.717 1482.55 215.522 1479.01 Q217.351 1475.44 217.351 1468.33 Q217.351 1461.2 215.522 1457.66 Q213.717 1454.1 210.082 1454.1 M210.082 1450.39 Q215.893 1450.39 218.948 1455 Q222.027 1459.58 222.027 1468.33 Q222.027 1477.06 218.948 1481.67 Q215.893 1486.25 210.082 1486.25 Q204.272 1486.25 201.194 1481.67 Q198.138 1477.06 198.138 1468.33 Q198.138 1459.58 201.194 1455 Q204.272 1450.39 210.082 1450.39 Z" fill="#000000" fill-rule="nonzero" fill-opacity="1" /><path clip-path="url(#clip210)" d="M707.755 1451.02 L726.111 1451.02 L726.111 1454.96 L712.037 1454.96 L712.037 1463.43 Q713.056 1463.08 714.074 1462.92 Q715.093 1462.73 716.111 1462.73 Q721.898 1462.73 725.278 1465.9 Q728.657 1469.08 728.657 1474.49 Q728.657 1480.07 725.185 1483.17 Q721.713 1486.25 715.394 1486.25 Q713.218 1486.25 710.949 1485.88 Q708.704 1485.51 706.296 1484.77 L706.296 1480.07 Q708.38 1481.2 710.602 1481.76 Q712.824 1482.32 715.301 1482.32 Q719.306 1482.32 721.644 1480.21 Q723.982 1478.1 723.982 1474.49 Q723.982 1470.88 721.644 1468.77 Q719.306 1466.67 715.301 1466.67 Q713.426 1466.67 711.551 1467.08 Q709.699 1467.5 707.755 1468.38 L707.755 1451.02 Z" fill="#000000" fill-rule="nonzero" fill-opacity="1" /><path clip-path="url(#clip210)" d="M747.87 1454.1 Q744.259 1454.1 742.431 1457.66 Q740.625 1461.2 740.625 1468.33 Q740.625 1475.44 742.431 1479.01 Q744.259 1482.55 747.87 1482.55 Q751.505 1482.55 753.31 1479.01 Q755.139 1475.44 755.139 1468.33 Q755.139 1461.2 753.31 1457.66 Q751.505 1454.1 747.87 1454.1 M747.87 1450.39 Q753.68 1450.39 756.736 1455 Q759.815 1459.58 759.815 1468.33 Q759.815 1477.06 756.736 1481.67 Q753.68 1486.25 747.87 1486.25 Q742.06 1486.25 738.981 1481.67 Q735.926 1477.06 735.926 1468.33 Q735.926 1459.58 738.981 1455 Q742.06 1450.39 747.87 1450.39 Z" fill="#000000" fill-rule="nonzero" fill-opacity="1" /><path clip-path="url(#clip210)" d="M778.032 1454.1 Q774.421 1454.1 772.592 1457.66 Q770.787 1461.2 770.787 1468.33 Q770.787 1475.44 772.592 1479.01 Q774.421 1482.55 778.032 1482.55 Q781.666 1482.55 783.472 1479.01 Q785.301 1475.44 785.301 1468.33 Q785.301 1461.2 783.472 1457.66 Q781.666 1454.1 778.032 1454.1 M778.032 1450.39 Q783.842 1450.39 786.898 1455 Q789.977 1459.58 789.977 1468.33 Q789.977 1477.06 786.898 1481.67 Q783.842 1486.25 778.032 1486.25 Q772.222 1486.25 769.143 1481.67 Q766.088 1477.06 766.088 1468.33 Q766.088 1459.58 769.143 1455 Q772.222 1450.39 778.032 1450.39 Z" fill="#000000" fill-rule="nonzero" fill-opacity="1" /><path clip-path="url(#clip210)" d="M1230.72 1481.64 L1238.36 1481.64 L1238.36 1455.28 L1230.05 1456.95 L1230.05 1452.69 L1238.31 1451.02 L1242.98 1451.02 L1242.98 1481.64 L1250.62 1481.64 L1250.62 1485.58 L1230.72 1485.58 L1230.72 1481.64 Z" fill="#000000" fill-rule="nonzero" fill-opacity="1" /><path clip-path="url(#clip210)" d="M1270.07 1454.1 Q1266.46 1454.1 1264.63 1457.66 Q1262.82 1461.2 1262.82 1468.33 Q1262.82 1475.44 1264.63 1479.01 Q1266.46 1482.55 1270.07 1482.55 Q1273.7 1482.55 1275.51 1479.01 Q1277.34 1475.44 1277.34 1468.33 Q1277.34 1461.2 1275.51 1457.66 Q1273.7 1454.1 1270.07 1454.1 M1270.07 1450.39 Q1275.88 1450.39 1278.93 1455 Q1282.01 1459.58 1282.01 1468.33 Q1282.01 1477.06 1278.93 1481.67 Q1275.88 1486.25 1270.07 1486.25 Q1264.26 1486.25 1261.18 1481.67 Q1258.12 1477.06 1258.12 1468.33 Q1258.12 1459.58 1261.18 1455 Q1264.26 1450.39 1270.07 1450.39 Z" fill="#000000" fill-rule="nonzero" fill-opacity="1" /><path clip-path="url(#clip210)" d="M1300.23 1454.1 Q1296.62 1454.1 1294.79 1457.66 Q1292.98 1461.2 1292.98 1468.33 Q1292.98 1475.44 1294.79 1479.01 Q1296.62 1482.55 1300.23 1482.55 Q1303.86 1482.55 1305.67 1479.01 Q1307.5 1475.44 1307.5 1468.33 Q1307.5 1461.2 1305.67 1457.66 Q1303.86 1454.1 1300.23 1454.1 M1300.23 1450.39 Q1306.04 1450.39 1309.1 1455 Q1312.17 1459.58 1312.17 1468.33 Q1312.17 1477.06 1309.1 1481.67 Q1306.04 1486.25 1300.23 1486.25 Q1294.42 1486.25 1291.34 1481.67 Q1288.29 1477.06 1288.29 1468.33 Q1288.29 1459.58 1291.34 1455 Q1294.42 1450.39 1300.23 1450.39 Z" fill="#000000" fill-rule="nonzero" fill-opacity="1" /><path clip-path="url(#clip210)" d="M1330.39 1454.1 Q1326.78 1454.1 1324.95 1457.66 Q1323.15 1461.2 1323.15 1468.33 Q1323.15 1475.44 1324.95 1479.01 Q1326.78 1482.55 1330.39 1482.55 Q1334.03 1482.55 1335.83 1479.01 Q1337.66 1475.44 1337.66 1468.33 Q1337.66 1461.2 1335.83 1457.66 Q1334.03 1454.1 1330.39 1454.1 M1330.39 1450.39 Q1336.2 1450.39 1339.26 1455 Q1342.34 1459.58 1342.34 1468.33 Q1342.34 1477.06 1339.26 1481.67 Q1336.2 1486.25 1330.39 1486.25 Q1324.58 1486.25 1321.5 1481.67 Q1318.45 1477.06 1318.45 1468.33 Q1318.45 1459.58 1321.5 1455 Q1324.58 1450.39 1330.39 1450.39 Z" fill="#000000" fill-rule="nonzero" fill-opacity="1" /><path clip-path="url(#clip210)" d="M1768.77 1481.64 L1776.41 1481.64 L1776.41 1455.28 L1768.1 1456.95 L1768.1 1452.69 L1776.36 1451.02 L1781.04 1451.02 L1781.04 1481.64 L1788.68 1481.64 L1788.68 1485.58 L1768.77 1485.58 L1768.77 1481.64 Z" fill="#000000" fill-rule="nonzero" fill-opacity="1" /><path clip-path="url(#clip210)" d="M1798.17 1451.02 L1816.52 1451.02 L1816.52 1454.96 L1802.45 1454.96 L1802.45 1463.43 Q1803.47 1463.08 1804.49 1462.92 Q1805.51 1462.73 1806.52 1462.73 Q1812.31 1462.73 1815.69 1465.9 Q1819.07 1469.08 1819.07 1474.49 Q1819.07 1480.07 1815.6 1483.17 Q1812.13 1486.25 1805.81 1486.25 Q1803.63 1486.25 1801.36 1485.88 Q1799.12 1485.51 1796.71 1484.77 L1796.71 1480.07 Q1798.79 1481.2 1801.02 1481.76 Q1803.24 1482.32 1805.71 1482.32 Q1809.72 1482.32 1812.06 1480.21 Q1814.4 1478.1 1814.4 1474.49 Q1814.4 1470.88 1812.06 1468.77 Q1809.72 1466.67 1805.71 1466.67 Q1803.84 1466.67 1801.96 1467.08 Q1800.11 1467.5 1798.17 1468.38 L1798.17 1451.02 Z" fill="#000000" fill-rule="nonzero" fill-opacity="1" /><path clip-path="url(#clip210)" d="M1838.28 1454.1 Q1834.67 1454.1 1832.84 1457.66 Q1831.04 1461.2 1831.04 1468.33 Q1831.04 1475.44 1832.84 1479.01 Q1834.67 1482.55 1838.28 1482.55 Q1841.92 1482.55 1843.72 1479.01 Q1845.55 1475.44 1845.55 1468.33 Q1845.55 1461.2 1843.72 1457.66 Q1841.92 1454.1 1838.28 1454.1 M1838.28 1450.39 Q1844.09 1450.39 1847.15 1455 Q1850.23 1459.58 1850.23 1468.33 Q1850.23 1477.06 1847.15 1481.67 Q1844.09 1486.25 1838.28 1486.25 Q1832.47 1486.25 1829.4 1481.67 Q1826.34 1477.06 1826.34 1468.33 Q1826.34 1459.58 1829.4 1455 Q1832.47 1450.39 1838.28 1450.39 Z" fill="#000000" fill-rule="nonzero" fill-opacity="1" /><path clip-path="url(#clip210)" d="M1868.45 1454.1 Q1864.83 1454.1 1863.01 1457.66 Q1861.2 1461.2 1861.2 1468.33 Q1861.2 1475.44 1863.01 1479.01 Q1864.83 1482.55 1868.45 1482.55 Q1872.08 1482.55 1873.89 1479.01 Q1875.71 1475.44 1875.71 1468.33 Q1875.71 1461.2 1873.89 1457.66 Q1872.08 1454.1 1868.45 1454.1 M1868.45 1450.39 Q1874.26 1450.39 1877.31 1455 Q1880.39 1459.58 1880.39 1468.33 Q1880.39 1477.06 1877.31 1481.67 Q1874.26 1486.25 1868.45 1486.25 Q1862.64 1486.25 1859.56 1481.67 Q1856.5 1477.06 1856.5 1468.33 Q1856.5 1459.58 1859.56 1455 Q1862.64 1450.39 1868.45 1450.39 Z" fill="#000000" fill-rule="nonzero" fill-opacity="1" /><path clip-path="url(#clip210)" d="M1182.95 1524.18 L1182.95 1530.96 Q1179.7 1527.94 1176.01 1526.44 Q1172.35 1524.95 1168.21 1524.95 Q1160.06 1524.95 1155.73 1529.95 Q1151.4 1534.91 1151.4 1544.33 Q1151.4 1553.72 1155.73 1558.72 Q1160.06 1563.68 1168.21 1563.68 Q1172.35 1563.68 1176.01 1562.19 Q1179.7 1560.69 1182.95 1557.67 L1182.95 1564.38 Q1179.57 1566.68 1175.78 1567.82 Q1172.03 1568.97 1167.83 1568.97 Q1157.04 1568.97 1150.83 1562.38 Q1144.62 1555.76 1144.62 1544.33 Q1144.62 1532.87 1150.83 1526.28 Q1157.04 1519.66 1167.83 1519.66 Q1172.09 1519.66 1175.85 1520.81 Q1179.63 1521.92 1182.95 1524.18 Z" fill="#000000" fill-rule="nonzero" fill-opacity="1" /><path clip-path="url(#clip210)" d="M1190.36 1548.09 L1194.05 1548.09 L1194.05 1568.04 L1190.36 1568.04 L1190.36 1548.09 M1190.36 1540.32 L1194.05 1540.32 L1194.05 1544.46 L1190.36 1544.46 L1190.36 1540.32 Z" fill="#000000" fill-rule="nonzero" fill-opacity="1" /><path clip-path="url(#clip210)" d="M1239.06 1518.58 Q1234.79 1525.9 1232.72 1533.06 Q1230.66 1540.23 1230.66 1547.58 Q1230.66 1554.93 1232.72 1562.16 Q1234.83 1569.35 1239.06 1576.64 L1233.97 1576.64 Q1229.19 1569.16 1226.8 1561.93 Q1224.45 1554.71 1224.45 1547.58 Q1224.45 1540.48 1226.8 1533.29 Q1229.16 1526.09 1233.97 1518.58 L1239.06 1518.58 Z" fill="#000000" fill-rule="nonzero" fill-opacity="1" /><path clip-path="url(#clip210)" d="M1256.09 1562.7 L1256.09 1581.6 L1250.2 1581.6 L1250.2 1532.4 L1256.09 1532.4 L1256.09 1537.81 Q1257.93 1534.62 1260.73 1533.1 Q1263.57 1531.54 1267.48 1531.54 Q1273.97 1531.54 1278.02 1536.69 Q1282.09 1541.85 1282.09 1550.25 Q1282.09 1558.65 1278.02 1563.81 Q1273.97 1568.97 1267.48 1568.97 Q1263.57 1568.97 1260.73 1567.44 Q1257.93 1565.88 1256.09 1562.7 M1276.01 1550.25 Q1276.01 1543.79 1273.34 1540.13 Q1270.7 1536.44 1266.05 1536.44 Q1261.4 1536.44 1258.73 1540.13 Q1256.09 1543.79 1256.09 1550.25 Q1256.09 1556.71 1258.73 1560.4 Q1261.4 1564.07 1266.05 1564.07 Q1270.7 1564.07 1273.34 1560.4 Q1276.01 1556.71 1276.01 1550.25 Z" fill="#000000" fill-rule="nonzero" fill-opacity="1" /><path clip-path="url(#clip210)" d="M1297.46 1562.7 L1297.46 1581.6 L1291.58 1581.6 L1291.58 1532.4 L1297.46 1532.4 L1297.46 1537.81 Q1299.31 1534.62 1302.11 1533.1 Q1304.94 1531.54 1308.86 1531.54 Q1315.35 1531.54 1319.39 1536.69 Q1323.47 1541.85 1323.47 1550.25 Q1323.47 1558.65 1319.39 1563.81 Q1315.35 1568.97 1308.86 1568.97 Q1304.94 1568.97 1302.11 1567.44 Q1299.31 1565.88 1297.46 1562.7 M1317.39 1550.25 Q1317.39 1543.79 1314.72 1540.13 Q1312.07 1536.44 1307.43 1536.44 Q1302.78 1536.44 1300.11 1540.13 Q1297.46 1543.79 1297.46 1550.25 Q1297.46 1556.71 1300.11 1560.4 Q1302.78 1564.07 1307.43 1564.07 Q1312.07 1564.07 1314.72 1560.4 Q1317.39 1556.71 1317.39 1550.25 Z" fill="#000000" fill-rule="nonzero" fill-opacity="1" /><path clip-path="url(#clip210)" d="M1360.93 1539.24 Q1363.13 1535.29 1366.18 1533.41 Q1369.24 1531.54 1373.38 1531.54 Q1378.95 1531.54 1381.97 1535.45 Q1384.99 1539.33 1384.99 1546.53 L1384.99 1568.04 L1379.1 1568.04 L1379.1 1546.72 Q1379.1 1541.59 1377.29 1539.11 Q1375.48 1536.63 1371.75 1536.63 Q1367.2 1536.63 1364.56 1539.65 Q1361.92 1542.68 1361.92 1547.9 L1361.92 1568.04 L1356.03 1568.04 L1356.03 1546.72 Q1356.03 1541.56 1354.21 1539.11 Q1352.4 1536.63 1348.61 1536.63 Q1344.12 1536.63 1341.48 1539.68 Q1338.84 1542.71 1338.84 1547.9 L1338.84 1568.04 L1332.95 1568.04 L1332.95 1532.4 L1338.84 1532.4 L1338.84 1537.93 Q1340.85 1534.66 1343.65 1533.1 Q1346.45 1531.54 1350.3 1531.54 Q1354.18 1531.54 1356.89 1533.51 Q1359.63 1535.48 1360.93 1539.24 Z" fill="#000000" fill-rule="nonzero" fill-opacity="1" /><path clip-path="url(#clip210)" d="M1395.75 1518.58 L1400.84 1518.58 Q1405.62 1526.09 1407.97 1533.29 Q1410.36 1540.48 1410.36 1547.58 Q1410.36 1554.71 1407.97 1561.93 Q1405.62 1569.16 1400.84 1576.64 L1395.75 1576.64 Q1399.98 1569.35 1402.05 1562.16 Q1404.15 1554.93 1404.15 1547.58 Q1404.15 1540.23 1402.05 1533.06 Q1399.98 1525.9 1395.75 1518.58 Z" fill="#000000" fill-rule="nonzero" fill-opacity="1" /><polyline clip-path="url(#clip212)" style="stroke:#000000; stroke-linecap:round; stroke-linejoin:round; stroke-width:2; stroke-opacity:0.1; fill:none" points="202.227,1342.59 2352.76,1342.59 "/>
<polyline clip-path="url(#clip212)" style="stroke:#000000; stroke-linecap:round; stroke-linejoin:round; stroke-width:2; stroke-opacity:0.1; fill:none" points="202.227,961.328 2352.76,961.328 "/>
<polyline clip-path="url(#clip212)" style="stroke:#000000; stroke-linecap:round; stroke-linejoin:round; stroke-width:2; stroke-opacity:0.1; fill:none" points="202.227,580.067 2352.76,580.067 "/>
<polyline clip-path="url(#clip212)" style="stroke:#000000; stroke-linecap:round; stroke-linejoin:round; stroke-width:2; stroke-opacity:0.1; fill:none" points="202.227,198.806 2352.76,198.806 "/>
<polyline clip-path="url(#clip210)" style="stroke:#000000; stroke-linecap:round; stroke-linejoin:round; stroke-width:4; stroke-opacity:1; fill:none" points="202.227,1423.18 202.227,47.2441 "/>
<polyline clip-path="url(#clip210)" style="stroke:#000000; stroke-linecap:round; stroke-linejoin:round; stroke-width:4; stroke-opacity:1; fill:none" points="202.227,1342.59 221.125,1342.59 "/>
<polyline clip-path="url(#clip210)" style="stroke:#000000; stroke-linecap:round; stroke-linejoin:round; stroke-width:4; stroke-opacity:1; fill:none" points="202.227,961.328 221.125,961.328 "/>
<polyline clip-path="url(#clip210)" style="stroke:#000000; stroke-linecap:round; stroke-linejoin:round; stroke-width:4; stroke-opacity:1; fill:none" points="202.227,580.067 221.125,580.067 "/>
<polyline clip-path="url(#clip210)" style="stroke:#000000; stroke-linecap:round; stroke-linejoin:round; stroke-width:4; stroke-opacity:1; fill:none" points="202.227,198.806 221.125,198.806 "/>
<path clip-path="url(#clip210)" d="M154.283 1328.39 Q150.672 1328.39 148.843 1331.95 Q147.038 1335.49 147.038 1342.62 Q147.038 1349.73 148.843 1353.29 Q150.672 1356.84 154.283 1356.84 Q157.917 1356.84 159.723 1353.29 Q161.552 1349.73 161.552 1342.62 Q161.552 1335.49 159.723 1331.95 Q157.917 1328.39 154.283 1328.39 M154.283 1324.68 Q160.093 1324.68 163.149 1329.29 Q166.227 1333.87 166.227 1342.62 Q166.227 1351.35 163.149 1355.96 Q160.093 1360.54 154.283 1360.54 Q148.473 1360.54 145.394 1355.96 Q142.339 1351.35 142.339 1342.62 Q142.339 1333.87 145.394 1329.29 Q148.473 1324.68 154.283 1324.68 Z" fill="#000000" fill-rule="nonzero" fill-opacity="1" /><path clip-path="url(#clip210)" d="M145.325 944.048 L163.681 944.048 L163.681 947.983 L149.607 947.983 L149.607 956.455 Q150.626 956.108 151.644 955.946 Q152.663 955.761 153.681 955.761 Q159.468 955.761 162.848 958.932 Q166.227 962.103 166.227 967.52 Q166.227 973.098 162.755 976.2 Q159.283 979.279 152.964 979.279 Q150.788 979.279 148.519 978.909 Q146.274 978.538 143.866 977.798 L143.866 973.098 Q145.95 974.233 148.172 974.788 Q150.394 975.344 152.871 975.344 Q156.876 975.344 159.214 973.237 Q161.552 971.131 161.552 967.52 Q161.552 963.909 159.214 961.802 Q156.876 959.696 152.871 959.696 Q150.996 959.696 149.121 960.112 Q147.269 960.529 145.325 961.409 L145.325 944.048 Z" fill="#000000" fill-rule="nonzero" fill-opacity="1" /><path clip-path="url(#clip210)" d="M114.931 593.412 L122.57 593.412 L122.57 567.046 L114.26 568.713 L114.26 564.454 L122.524 562.787 L127.2 562.787 L127.2 593.412 L134.839 593.412 L134.839 597.347 L114.931 597.347 L114.931 593.412 Z" fill="#000000" fill-rule="nonzero" fill-opacity="1" /><path clip-path="url(#clip210)" d="M154.283 565.866 Q150.672 565.866 148.843 569.43 Q147.038 572.972 147.038 580.102 Q147.038 587.208 148.843 590.773 Q150.672 594.315 154.283 594.315 Q157.917 594.315 159.723 590.773 Q161.552 587.208 161.552 580.102 Q161.552 572.972 159.723 569.43 Q157.917 565.866 154.283 565.866 M154.283 562.162 Q160.093 562.162 163.149 566.768 Q166.227 571.352 166.227 580.102 Q166.227 588.829 163.149 593.435 Q160.093 598.018 154.283 598.018 Q148.473 598.018 145.394 593.435 Q142.339 588.829 142.339 580.102 Q142.339 571.352 145.394 566.768 Q148.473 562.162 154.283 562.162 Z" fill="#000000" fill-rule="nonzero" fill-opacity="1" /><path clip-path="url(#clip210)" d="M115.927 212.151 L123.566 212.151 L123.566 185.786 L115.256 187.452 L115.256 183.193 L123.519 181.526 L128.195 181.526 L128.195 212.151 L135.834 212.151 L135.834 216.086 L115.927 216.086 L115.927 212.151 Z" fill="#000000" fill-rule="nonzero" fill-opacity="1" /><path clip-path="url(#clip210)" d="M145.325 181.526 L163.681 181.526 L163.681 185.461 L149.607 185.461 L149.607 193.934 Q150.626 193.586 151.644 193.424 Q152.663 193.239 153.681 193.239 Q159.468 193.239 162.848 196.41 Q166.227 199.582 166.227 204.998 Q166.227 210.577 162.755 213.679 Q159.283 216.758 152.964 216.758 Q150.788 216.758 148.519 216.387 Q146.274 216.017 143.866 215.276 L143.866 210.577 Q145.95 211.711 148.172 212.267 Q150.394 212.822 152.871 212.822 Q156.876 212.822 159.214 210.716 Q161.552 208.609 161.552 204.998 Q161.552 201.387 159.214 199.281 Q156.876 197.174 152.871 197.174 Q150.996 197.174 149.121 197.591 Q147.269 198.008 145.325 198.887 L145.325 181.526 Z" fill="#000000" fill-rule="nonzero" fill-opacity="1" /><path clip-path="url(#clip210)" d="M22.818 979.942 L46.4666 988.663 L46.4666 971.189 L22.818 979.942 M16.4842 983.57 L16.4842 976.281 L64.0042 958.171 L64.0042 964.855 L51.8138 969.184 L51.8138 990.604 L64.0042 994.933 L64.0042 1001.71 L16.4842 983.57 Z" fill="#000000" fill-rule="nonzero" fill-opacity="1" /><path clip-path="url(#clip210)" d="M14.5426 916.698 Q21.8632 920.963 29.0246 923.032 Q36.186 925.101 43.5384 925.101 Q50.8908 925.101 58.1159 923.032 Q65.3091 920.931 72.5979 916.698 L72.5979 921.791 Q65.1182 926.565 57.8931 928.952 Q50.668 931.308 43.5384 931.308 Q36.4406 931.308 29.2474 928.952 Q22.0542 926.597 14.5426 921.791 L14.5426 916.698 Z" fill="#000000" fill-rule="nonzero" fill-opacity="1" /><path clip-path="url(#clip210)" d="M77.5631 905.94 L28.3562 905.94 L28.3562 900.084 L50.5089 900.084 Q55.124 900.084 57.4793 897.888 Q59.8346 895.691 59.8346 891.395 Q59.8346 886.684 57.161 884.329 Q54.4874 881.942 49.1402 881.942 L28.3562 881.942 L28.3562 876.085 L55.7924 876.085 Q57.7021 876.085 58.6251 875.544 Q59.5163 874.971 59.5163 873.793 Q59.5163 873.507 59.3572 872.998 Q59.1662 872.488 58.7843 871.597 L63.4949 871.597 Q64.227 872.902 64.5771 874.08 Q64.9272 875.226 64.9272 876.34 Q64.9272 878.536 63.6859 879.841 Q62.4446 881.146 59.8983 881.623 Q62.4127 883.215 63.6859 885.538 Q64.9272 887.83 64.9272 890.949 Q64.9272 894.195 63.6859 896.487 Q62.4446 898.747 59.9619 900.084 L77.5631 900.084 L77.5631 905.94 Z" fill="#000000" fill-rule="nonzero" fill-opacity="1" /><path clip-path="url(#clip210)" d="M35.1993 836.108 Q31.2526 833.912 29.3747 830.857 Q27.4968 827.801 27.4968 823.663 Q27.4968 818.093 31.4117 815.07 Q35.2948 812.046 42.4881 812.046 L64.0042 812.046 L64.0042 817.934 L42.679 817.934 Q37.5546 817.934 35.072 819.749 Q32.5894 821.563 32.5894 825.287 Q32.5894 829.838 35.6131 832.48 Q38.6368 835.122 43.8567 835.122 L64.0042 835.122 L64.0042 841.01 L42.679 841.01 Q37.5228 841.01 35.072 842.824 Q32.5894 844.638 32.5894 848.426 Q32.5894 852.914 35.6449 855.556 Q38.6686 858.197 43.8567 858.197 L64.0042 858.197 L64.0042 864.086 L28.3562 864.086 L28.3562 858.197 L33.8944 858.197 Q30.616 856.192 29.0564 853.391 Q27.4968 850.59 27.4968 846.739 Q27.4968 842.856 29.4702 840.151 Q31.4436 837.413 35.1993 836.108 Z" fill="#000000" fill-rule="nonzero" fill-opacity="1" /><path clip-path="url(#clip210)" d="M32.4621 786.551 Q32.4621 791.262 36.1542 793.999 Q39.8145 796.737 46.212 796.737 Q52.6095 796.737 56.3017 794.031 Q59.9619 791.294 59.9619 786.551 Q59.9619 781.873 56.2698 779.135 Q52.5777 776.398 46.212 776.398 Q39.8781 776.398 36.186 779.135 Q32.4621 781.873 32.4621 786.551 M27.4968 786.551 Q27.4968 778.913 32.4621 774.552 Q37.4273 770.192 46.212 770.192 Q54.9649 770.192 59.9619 774.552 Q64.9272 778.913 64.9272 786.551 Q64.9272 794.222 59.9619 798.583 Q54.9649 802.911 46.212 802.911 Q37.4273 802.911 32.4621 798.583 Q27.4968 794.222 27.4968 786.551 Z" fill="#000000" fill-rule="nonzero" fill-opacity="1" /><path clip-path="url(#clip210)" d="M14.479 760.484 L14.479 754.627 L64.0042 754.627 L64.0042 760.484 L14.479 760.484 Z" fill="#000000" fill-rule="nonzero" fill-opacity="1" /><path clip-path="url(#clip210)" d="M35.1993 693.899 Q31.2526 691.702 29.3747 688.647 Q27.4968 685.591 27.4968 681.454 Q27.4968 675.884 31.4117 672.86 Q35.2948 669.836 42.4881 669.836 L64.0042 669.836 L64.0042 675.724 L42.679 675.724 Q37.5546 675.724 35.072 677.539 Q32.5894 679.353 32.5894 683.077 Q32.5894 687.628 35.6131 690.27 Q38.6368 692.912 43.8567 692.912 L64.0042 692.912 L64.0042 698.8 L42.679 698.8 Q37.5228 698.8 35.072 700.614 Q32.5894 702.429 32.5894 706.216 Q32.5894 710.704 35.6449 713.346 Q38.6686 715.988 43.8567 715.988 L64.0042 715.988 L64.0042 721.876 L28.3562 721.876 L28.3562 715.988 L33.8944 715.988 Q30.616 713.982 29.0564 711.181 Q27.4968 708.381 27.4968 704.529 Q27.4968 700.646 29.4702 697.941 Q31.4436 695.204 35.1993 693.899 Z" fill="#000000" fill-rule="nonzero" fill-opacity="1" /><path clip-path="url(#clip210)" d="M29.7885 659.937 L29.7885 634.252 L32.8122 634.252 L32.8122 659.937 L29.7885 659.937 Z" fill="#000000" fill-rule="nonzero" fill-opacity="1" /><path clip-path="url(#clip210)" d="M39.1142 621.361 L39.1142 607.866 L42.7427 607.866 L42.7427 626.899 L39.2416 626.899 Q38.2549 625.817 36.4725 623.812 Q26.7648 612.863 23.7729 612.863 Q21.6722 612.863 20.3991 614.518 Q19.0941 616.173 19.0941 618.879 Q19.0941 620.534 19.667 622.475 Q20.2081 624.417 21.3221 626.708 L17.4072 626.708 Q16.516 624.258 16.0704 622.157 Q15.6248 620.025 15.6248 618.21 Q15.6248 613.595 17.7255 610.826 Q19.8262 608.057 23.2636 608.057 Q27.6878 608.057 36.7271 618.592 Q38.2549 620.375 39.1142 621.361 Z" fill="#000000" fill-rule="nonzero" fill-opacity="1" /><path clip-path="url(#clip210)" d="M29.4065 554.171 L34.9447 554.171 Q33.6716 556.654 33.035 559.327 Q32.3984 562.001 32.3984 564.866 Q32.3984 569.226 33.7352 571.422 Q35.072 573.587 37.7456 573.587 Q39.7826 573.587 40.9603 572.027 Q42.1061 570.467 43.1565 565.757 L43.6021 563.752 Q44.9389 557.513 47.3897 554.903 Q49.8086 552.262 54.1691 552.262 Q59.1344 552.262 62.0308 556.208 Q64.9272 560.123 64.9272 566.998 Q64.9272 569.863 64.3543 572.982 Q63.8132 576.069 62.6992 579.507 L56.6518 579.507 Q58.3387 576.26 59.198 573.109 Q60.0256 569.958 60.0256 566.871 Q60.0256 562.733 58.6251 560.505 Q57.1929 558.277 54.6147 558.277 Q52.2276 558.277 50.9545 559.9 Q49.6813 561.492 48.5037 566.935 L48.0262 568.972 Q46.8804 574.414 44.5251 576.833 Q42.138 579.252 38.0002 579.252 Q32.9713 579.252 30.2341 575.687 Q27.4968 572.123 27.4968 565.566 Q27.4968 562.319 27.9743 559.455 Q28.4517 556.59 29.4065 554.171 Z" fill="#000000" fill-rule="nonzero" fill-opacity="1" /><path clip-path="url(#clip210)" d="M29.7885 544.718 L29.7885 519.033 L32.8122 519.033 L32.8122 544.718 L29.7885 544.718 Z" fill="#000000" fill-rule="nonzero" fill-opacity="1" /><path clip-path="url(#clip210)" d="M39.2416 509.707 L39.2416 503.214 L19.7943 503.214 L21.0993 510.312 L17.4072 510.312 L16.1659 502.991 L16.1659 498.63 L39.2416 498.63 L39.2416 492.106 L42.7427 492.106 L42.7427 509.707 L39.2416 509.707 Z" fill="#000000" fill-rule="nonzero" fill-opacity="1" /><path clip-path="url(#clip210)" d="M14.5426 483.321 L14.5426 478.228 Q22.0542 473.454 29.2474 471.099 Q36.4406 468.712 43.5384 468.712 Q50.668 468.712 57.8931 471.099 Q65.1182 473.454 72.5979 478.228 L72.5979 483.321 Q65.3091 479.088 58.1159 477.019 Q50.8908 474.918 43.5384 474.918 Q36.186 474.918 29.0246 477.019 Q21.8632 479.088 14.5426 483.321 Z" fill="#000000" fill-rule="nonzero" fill-opacity="1" /><circle clip-path="url(#clip212)" cx="417.676" cy="825.992" r="14.4" fill="#009af9" fill-rule="evenodd" fill-opacity="1" stroke="#000000" stroke-opacity="1" stroke-width="3.2"/>
<circle clip-path="url(#clip212)" cx="418.49" cy="817.309" r="14.4" fill="#009af9" fill-rule="evenodd" fill-opacity="1" stroke="#000000" stroke-opacity="1" stroke-width="3.2"/>
<circle clip-path="url(#clip212)" cx="377.32" cy="917.504" r="14.4" fill="#009af9" fill-rule="evenodd" fill-opacity="1" stroke="#000000" stroke-opacity="1" stroke-width="3.2"/>
<circle clip-path="url(#clip212)" cx="378.222" cy="914.988" r="14.4" fill="#009af9" fill-rule="evenodd" fill-opacity="1" stroke="#000000" stroke-opacity="1" stroke-width="3.2"/>
<circle clip-path="url(#clip212)" cx="331.847" cy="1081.3" r="14.4" fill="#009af9" fill-rule="evenodd" fill-opacity="1" stroke="#000000" stroke-opacity="1" stroke-width="3.2"/>
<circle clip-path="url(#clip212)" cx="331.202" cy="1081.89" r="14.4" fill="#009af9" fill-rule="evenodd" fill-opacity="1" stroke="#000000" stroke-opacity="1" stroke-width="3.2"/>
<circle clip-path="url(#clip212)" cx="288.455" cy="1271.5" r="14.4" fill="#009af9" fill-rule="evenodd" fill-opacity="1" stroke="#000000" stroke-opacity="1" stroke-width="3.2"/>
<circle clip-path="url(#clip212)" cx="288.708" cy="1269.96" r="14.4" fill="#009af9" fill-rule="evenodd" fill-opacity="1" stroke="#000000" stroke-opacity="1" stroke-width="3.2"/>
<circle clip-path="url(#clip212)" cx="265.726" cy="1354.61" r="14.4" fill="#009af9" fill-rule="evenodd" fill-opacity="1" stroke="#000000" stroke-opacity="1" stroke-width="3.2"/>
<circle clip-path="url(#clip212)" cx="265.721" cy="1354.15" r="14.4" fill="#009af9" fill-rule="evenodd" fill-opacity="1" stroke="#000000" stroke-opacity="1" stroke-width="3.2"/>
<circle clip-path="url(#clip212)" cx="437.898" cy="760.115" r="14.4" fill="#009af9" fill-rule="evenodd" fill-opacity="1" stroke="#000000" stroke-opacity="1" stroke-width="3.2"/>
<circle clip-path="url(#clip212)" cx="436.14" cy="760.524" r="14.4" fill="#009af9" fill-rule="evenodd" fill-opacity="1" stroke="#000000" stroke-opacity="1" stroke-width="3.2"/>
<circle clip-path="url(#clip212)" cx="436.189" cy="760.303" r="14.4" fill="#009af9" fill-rule="evenodd" fill-opacity="1" stroke="#000000" stroke-opacity="1" stroke-width="3.2"/>
<circle clip-path="url(#clip212)" cx="435.985" cy="758.095" r="14.4" fill="#009af9" fill-rule="evenodd" fill-opacity="1" stroke="#000000" stroke-opacity="1" stroke-width="3.2"/>
<circle clip-path="url(#clip212)" cx="550.743" cy="418.573" r="14.4" fill="#009af9" fill-rule="evenodd" fill-opacity="1" stroke="#000000" stroke-opacity="1" stroke-width="3.2"/>
<circle clip-path="url(#clip212)" cx="549.963" cy="414.238" r="14.4" fill="#009af9" fill-rule="evenodd" fill-opacity="1" stroke="#000000" stroke-opacity="1" stroke-width="3.2"/>
<circle clip-path="url(#clip212)" cx="695.567" cy="241.019" r="14.4" fill="#009af9" fill-rule="evenodd" fill-opacity="1" stroke="#000000" stroke-opacity="1" stroke-width="3.2"/>
<circle clip-path="url(#clip212)" cx="692.776" cy="238.137" r="14.4" fill="#009af9" fill-rule="evenodd" fill-opacity="1" stroke="#000000" stroke-opacity="1" stroke-width="3.2"/>
<circle clip-path="url(#clip212)" cx="828.937" cy="163.82" r="14.4" fill="#009af9" fill-rule="evenodd" fill-opacity="1" stroke="#000000" stroke-opacity="1" stroke-width="3.2"/>
<circle clip-path="url(#clip212)" cx="824.405" cy="170.546" r="14.4" fill="#009af9" fill-rule="evenodd" fill-opacity="1" stroke="#000000" stroke-opacity="1" stroke-width="3.2"/>
<circle clip-path="url(#clip212)" cx="963.405" cy="119.528" r="14.4" fill="#009af9" fill-rule="evenodd" fill-opacity="1" stroke="#000000" stroke-opacity="1" stroke-width="3.2"/>
<circle clip-path="url(#clip212)" cx="958.792" cy="121.94" r="14.4" fill="#009af9" fill-rule="evenodd" fill-opacity="1" stroke="#000000" stroke-opacity="1" stroke-width="3.2"/>
<circle clip-path="url(#clip212)" cx="1143.72" cy="104.185" r="14.4" fill="#009af9" fill-rule="evenodd" fill-opacity="1" stroke="#000000" stroke-opacity="1" stroke-width="3.2"/>
<circle clip-path="url(#clip212)" cx="1143.41" cy="106.9" r="14.4" fill="#009af9" fill-rule="evenodd" fill-opacity="1" stroke="#000000" stroke-opacity="1" stroke-width="3.2"/>
<circle clip-path="url(#clip212)" cx="1358.3" cy="86.1857" r="14.4" fill="#009af9" fill-rule="evenodd" fill-opacity="1" stroke="#000000" stroke-opacity="1" stroke-width="3.2"/>
<circle clip-path="url(#clip212)" cx="1360.37" cy="88.872" r="14.4" fill="#009af9" fill-rule="evenodd" fill-opacity="1" stroke="#000000" stroke-opacity="1" stroke-width="3.2"/>
<circle clip-path="url(#clip212)" cx="1580.1" cy="125.727" r="14.4" fill="#009af9" fill-rule="evenodd" fill-opacity="1" stroke="#000000" stroke-opacity="1" stroke-width="3.2"/>
<circle clip-path="url(#clip212)" cx="1580.85" cy="126.948" r="14.4" fill="#009af9" fill-rule="evenodd" fill-opacity="1" stroke="#000000" stroke-opacity="1" stroke-width="3.2"/>
<circle clip-path="url(#clip212)" cx="1708.78" cy="104.917" r="14.4" fill="#009af9" fill-rule="evenodd" fill-opacity="1" stroke="#000000" stroke-opacity="1" stroke-width="3.2"/>
<circle clip-path="url(#clip212)" cx="1701.21" cy="87.6833" r="14.4" fill="#009af9" fill-rule="evenodd" fill-opacity="1" stroke="#000000" stroke-opacity="1" stroke-width="3.2"/>
<polyline clip-path="url(#clip212)" style="stroke:#e26f46; stroke-linecap:round; stroke-linejoin:round; stroke-width:4; stroke-opacity:1; fill:none" points="263.091,1384.24 263.242,1384.21 310.833,1175.16 311.525,1172.5 415.384,811.096 415.5,811.067 517.945,517.21 517.977,517.125 619.189,298.706 619.262,298.398 619.336,298.475 619.462,298.338 620.479,296.587 620.815,296.292 823.871,171.206 823.892,171.431 1031.35,103.64 1031.41,103.691 1240.16,103.872 1241.6,103.872 1450.76,103.872 1451.05,103.872 1660.17,103.872 1660.8,103.924 1869.97,103.846 1870.09,103.794 2080.13,104.002 2080.15,104.002 2291.06,104.028 2291.89,103.95 "/>
<path clip-path="url(#clip210)" d="M1060.21 1377.32 L2281.07 1377.32 L2281.07 1221.8 L1060.21 1221.8  Z" fill="#ffffff" fill-rule="evenodd" fill-opacity="1"/>
<polyline clip-path="url(#clip210)" style="stroke:#000000; stroke-linecap:round; stroke-linejoin:round; stroke-width:4; stroke-opacity:1; fill:none" points="1060.21,1377.32 2281.07,1377.32 2281.07,1221.8 1060.21,1221.8 1060.21,1377.32 "/>
<circle clip-path="url(#clip210)" cx="1155.79" cy="1273.64" r="20.48" fill="#009af9" fill-rule="evenodd" fill-opacity="1" stroke="#000000" stroke-opacity="1" stroke-width="4.55111"/>
<path clip-path="url(#clip210)" d="M1251.37 1256.36 L1258.34 1256.36 L1267.16 1279.87 L1276.02 1256.36 L1282.99 1256.36 L1282.99 1290.92 L1278.43 1290.92 L1278.43 1260.57 L1269.52 1284.27 L1264.82 1284.27 L1255.91 1260.57 L1255.91 1290.92 L1251.37 1290.92 L1251.37 1256.36 Z" fill="#000000" fill-rule="nonzero" fill-opacity="1" /><path clip-path="url(#clip210)" d="M1314.27 1276.89 L1314.27 1278.97 L1294.68 1278.97 Q1294.96 1283.37 1297.32 1285.68 Q1299.71 1287.98 1303.94 1287.98 Q1306.39 1287.98 1308.69 1287.37 Q1311 1286.77 1313.27 1285.57 L1313.27 1289.6 Q1310.98 1290.57 1308.57 1291.08 Q1306.16 1291.59 1303.69 1291.59 Q1297.48 1291.59 1293.85 1287.98 Q1290.24 1284.36 1290.24 1278.21 Q1290.24 1271.84 1293.66 1268.11 Q1297.11 1264.36 1302.95 1264.36 Q1308.18 1264.36 1311.21 1267.74 Q1314.27 1271.1 1314.27 1276.89 M1310.01 1275.64 Q1309.96 1272.14 1308.04 1270.06 Q1306.14 1267.98 1302.99 1267.98 Q1299.43 1267.98 1297.27 1269.99 Q1295.14 1272 1294.82 1275.66 L1310.01 1275.64 Z" fill="#000000" fill-rule="nonzero" fill-opacity="1" /><path clip-path="url(#clip210)" d="M1333.04 1277.88 Q1327.88 1277.88 1325.89 1279.06 Q1323.89 1280.24 1323.89 1283.09 Q1323.89 1285.36 1325.38 1286.7 Q1326.88 1288.02 1329.45 1288.02 Q1332.99 1288.02 1335.12 1285.52 Q1337.27 1283 1337.27 1278.83 L1337.27 1277.88 L1333.04 1277.88 M1341.53 1276.12 L1341.53 1290.92 L1337.27 1290.92 L1337.27 1286.98 Q1335.82 1289.34 1333.64 1290.48 Q1331.46 1291.59 1328.32 1291.59 Q1324.33 1291.59 1321.97 1289.36 Q1319.64 1287.12 1319.64 1283.37 Q1319.64 1278.99 1322.55 1276.77 Q1325.49 1274.55 1331.3 1274.55 L1337.27 1274.55 L1337.27 1274.13 Q1337.27 1271.19 1335.33 1269.6 Q1333.41 1267.98 1329.91 1267.98 Q1327.69 1267.98 1325.58 1268.51 Q1323.48 1269.04 1321.53 1270.11 L1321.53 1266.17 Q1323.87 1265.27 1326.07 1264.83 Q1328.27 1264.36 1330.35 1264.36 Q1335.98 1264.36 1338.76 1267.28 Q1341.53 1270.2 1341.53 1276.12 Z" fill="#000000" fill-rule="nonzero" fill-opacity="1" /><path clip-path="url(#clip210)" d="M1366.83 1265.75 L1366.83 1269.78 Q1365.03 1268.86 1363.08 1268.39 Q1361.14 1267.93 1359.06 1267.93 Q1355.89 1267.93 1354.29 1268.9 Q1352.71 1269.87 1352.71 1271.82 Q1352.71 1273.3 1353.85 1274.16 Q1354.98 1274.99 1358.41 1275.75 L1359.87 1276.08 Q1364.4 1277.05 1366.3 1278.83 Q1368.22 1280.59 1368.22 1283.76 Q1368.22 1287.37 1365.35 1289.48 Q1362.51 1291.59 1357.51 1291.59 Q1355.42 1291.59 1353.15 1291.17 Q1350.91 1290.78 1348.41 1289.97 L1348.41 1285.57 Q1350.77 1286.79 1353.06 1287.42 Q1355.35 1288.02 1357.6 1288.02 Q1360.61 1288.02 1362.23 1287 Q1363.85 1285.96 1363.85 1284.09 Q1363.85 1282.35 1362.67 1281.42 Q1361.51 1280.5 1357.55 1279.64 L1356.07 1279.3 Q1352.11 1278.46 1350.35 1276.75 Q1348.59 1275.01 1348.59 1272 Q1348.59 1268.35 1351.19 1266.36 Q1353.78 1264.36 1358.55 1264.36 Q1360.91 1264.36 1362.99 1264.71 Q1365.08 1265.06 1366.83 1265.75 Z" fill="#000000" fill-rule="nonzero" fill-opacity="1" /><path clip-path="url(#clip210)" d="M1374.57 1280.68 L1374.57 1264.99 L1378.83 1264.99 L1378.83 1280.52 Q1378.83 1284.2 1380.26 1286.05 Q1381.7 1287.88 1384.57 1287.88 Q1388.01 1287.88 1390.01 1285.68 Q1392.02 1283.48 1392.02 1279.69 L1392.02 1264.99 L1396.28 1264.99 L1396.28 1290.92 L1392.02 1290.92 L1392.02 1286.93 Q1390.47 1289.29 1388.41 1290.45 Q1386.37 1291.59 1383.66 1291.59 Q1379.2 1291.59 1376.88 1288.81 Q1374.57 1286.03 1374.57 1280.68 M1385.28 1264.36 L1385.28 1264.36 Z" fill="#000000" fill-rule="nonzero" fill-opacity="1" /><path clip-path="url(#clip210)" d="M1420.07 1268.97 Q1419.36 1268.55 1418.5 1268.37 Q1417.67 1268.16 1416.65 1268.16 Q1413.04 1268.16 1411.09 1270.52 Q1409.17 1272.86 1409.17 1277.26 L1409.17 1290.92 L1404.89 1290.92 L1404.89 1264.99 L1409.17 1264.99 L1409.17 1269.02 Q1410.51 1266.66 1412.67 1265.52 Q1414.82 1264.36 1417.9 1264.36 Q1418.34 1264.36 1418.87 1264.43 Q1419.4 1264.48 1420.05 1264.6 L1420.07 1268.97 Z" fill="#000000" fill-rule="nonzero" fill-opacity="1" /><path clip-path="url(#clip210)" d="M1445.68 1276.89 L1445.68 1278.97 L1426.09 1278.97 Q1426.37 1283.37 1428.73 1285.68 Q1431.12 1287.98 1435.35 1287.98 Q1437.81 1287.98 1440.1 1287.37 Q1442.41 1286.77 1444.68 1285.57 L1444.68 1289.6 Q1442.39 1290.57 1439.98 1291.08 Q1437.57 1291.59 1435.1 1291.59 Q1428.89 1291.59 1425.26 1287.98 Q1421.65 1284.36 1421.65 1278.21 Q1421.65 1271.84 1425.07 1268.11 Q1428.52 1264.36 1434.36 1264.36 Q1439.59 1264.36 1442.62 1267.74 Q1445.68 1271.1 1445.68 1276.89 M1441.42 1275.64 Q1441.37 1272.14 1439.45 1270.06 Q1437.55 1267.98 1434.4 1267.98 Q1430.84 1267.98 1428.69 1269.99 Q1426.56 1272 1426.23 1275.66 L1441.42 1275.64 Z" fill="#000000" fill-rule="nonzero" fill-opacity="1" /><path clip-path="url(#clip210)" d="M1469.73 1268.92 L1469.73 1254.9 L1473.99 1254.9 L1473.99 1290.92 L1469.73 1290.92 L1469.73 1287.03 Q1468.38 1289.34 1466.32 1290.48 Q1464.29 1291.59 1461.42 1291.59 Q1456.72 1291.59 1453.76 1287.84 Q1450.82 1284.09 1450.82 1277.98 Q1450.82 1271.86 1453.76 1268.11 Q1456.72 1264.36 1461.42 1264.36 Q1464.29 1264.36 1466.32 1265.5 Q1468.38 1266.61 1469.73 1268.92 M1455.21 1277.98 Q1455.21 1282.67 1457.13 1285.36 Q1459.08 1288.02 1462.46 1288.02 Q1465.84 1288.02 1467.78 1285.36 Q1469.73 1282.67 1469.73 1277.98 Q1469.73 1273.28 1467.78 1270.61 Q1465.84 1267.93 1462.46 1267.93 Q1459.08 1267.93 1457.13 1270.61 Q1455.21 1273.28 1455.21 1277.98 Z" fill="#000000" fill-rule="nonzero" fill-opacity="1" /><polyline clip-path="url(#clip210)" style="stroke:#e26f46; stroke-linecap:round; stroke-linejoin:round; stroke-width:4; stroke-opacity:1; fill:none" points="1084.11,1325.48 1227.48,1325.48 "/>
<path clip-path="url(#clip210)" d="M1273.62 1309.33 L1273.62 1313.89 Q1270.96 1312.62 1268.59 1311.99 Q1266.23 1311.37 1264.03 1311.37 Q1260.21 1311.37 1258.13 1312.85 Q1256.07 1314.33 1256.07 1317.06 Q1256.07 1319.35 1257.44 1320.53 Q1258.83 1321.69 1262.67 1322.41 L1265.49 1322.99 Q1270.72 1323.98 1273.2 1326.51 Q1275.7 1329.01 1275.7 1333.22 Q1275.7 1338.24 1272.32 1340.83 Q1268.96 1343.43 1262.46 1343.43 Q1260.01 1343.43 1257.23 1342.87 Q1254.47 1342.32 1251.51 1341.23 L1251.51 1336.41 Q1254.36 1338.01 1257.09 1338.82 Q1259.82 1339.63 1262.46 1339.63 Q1266.46 1339.63 1268.64 1338.06 Q1270.82 1336.48 1270.82 1333.57 Q1270.82 1331.02 1269.24 1329.58 Q1267.69 1328.15 1264.13 1327.43 L1261.28 1326.88 Q1256.05 1325.83 1253.71 1323.61 Q1251.37 1321.39 1251.37 1317.43 Q1251.37 1312.85 1254.59 1310.21 Q1257.83 1307.57 1263.5 1307.57 Q1265.93 1307.57 1268.46 1308.01 Q1270.98 1308.45 1273.62 1309.33 Z" fill="#000000" fill-rule="nonzero" fill-opacity="1" /><path clip-path="url(#clip210)" d="M1282.81 1316.83 L1287.07 1316.83 L1287.07 1342.76 L1282.81 1342.76 L1282.81 1316.83 M1282.81 1306.74 L1287.07 1306.74 L1287.07 1312.13 L1282.81 1312.13 L1282.81 1306.74 Z" fill="#000000" fill-rule="nonzero" fill-opacity="1" /><path clip-path="url(#clip210)" d="M1316.16 1321.81 Q1317.76 1318.94 1319.98 1317.57 Q1322.21 1316.2 1325.21 1316.2 Q1329.27 1316.2 1331.46 1319.05 Q1333.66 1321.88 1333.66 1327.11 L1333.66 1342.76 L1329.38 1342.76 L1329.38 1327.25 Q1329.38 1323.52 1328.06 1321.71 Q1326.74 1319.91 1324.03 1319.91 Q1320.72 1319.91 1318.8 1322.11 Q1316.88 1324.31 1316.88 1328.1 L1316.88 1342.76 L1312.6 1342.76 L1312.6 1327.25 Q1312.6 1323.5 1311.28 1321.71 Q1309.96 1319.91 1307.21 1319.91 Q1303.94 1319.91 1302.02 1322.13 Q1300.1 1324.33 1300.1 1328.1 L1300.1 1342.76 L1295.82 1342.76 L1295.82 1316.83 L1300.1 1316.83 L1300.1 1320.86 Q1301.56 1318.47 1303.59 1317.34 Q1305.63 1316.2 1308.43 1316.2 Q1311.26 1316.2 1313.22 1317.64 Q1315.21 1319.07 1316.16 1321.81 Z" fill="#000000" fill-rule="nonzero" fill-opacity="1" /><path clip-path="url(#clip210)" d="M1341.72 1332.52 L1341.72 1316.83 L1345.98 1316.83 L1345.98 1332.36 Q1345.98 1336.04 1347.41 1337.89 Q1348.85 1339.72 1351.72 1339.72 Q1355.17 1339.72 1357.16 1337.52 Q1359.17 1335.32 1359.17 1331.53 L1359.17 1316.83 L1363.43 1316.83 L1363.43 1342.76 L1359.17 1342.76 L1359.17 1338.77 Q1357.62 1341.13 1355.56 1342.29 Q1353.52 1343.43 1350.82 1343.43 Q1346.35 1343.43 1344.03 1340.65 Q1341.72 1337.87 1341.72 1332.52 M1352.44 1316.2 L1352.44 1316.2 Z" fill="#000000" fill-rule="nonzero" fill-opacity="1" /><path clip-path="url(#clip210)" d="M1372.2 1306.74 L1376.46 1306.74 L1376.46 1342.76 L1372.2 1342.76 L1372.2 1306.74 Z" fill="#000000" fill-rule="nonzero" fill-opacity="1" /><path clip-path="url(#clip210)" d="M1397.16 1329.72 Q1392 1329.72 1390.01 1330.9 Q1388.01 1332.08 1388.01 1334.93 Q1388.01 1337.2 1389.5 1338.54 Q1391 1339.86 1393.57 1339.86 Q1397.11 1339.86 1399.24 1337.36 Q1401.39 1334.84 1401.39 1330.67 L1401.39 1329.72 L1397.16 1329.72 M1405.65 1327.96 L1405.65 1342.76 L1401.39 1342.76 L1401.39 1338.82 Q1399.94 1341.18 1397.76 1342.32 Q1395.58 1343.43 1392.44 1343.43 Q1388.45 1343.43 1386.09 1341.2 Q1383.76 1338.96 1383.76 1335.21 Q1383.76 1330.83 1386.67 1328.61 Q1389.61 1326.39 1395.42 1326.39 L1401.39 1326.39 L1401.39 1325.97 Q1401.39 1323.03 1399.45 1321.44 Q1397.53 1319.82 1394.03 1319.82 Q1391.81 1319.82 1389.7 1320.35 Q1387.6 1320.88 1385.65 1321.95 L1385.65 1318.01 Q1387.99 1317.11 1390.19 1316.67 Q1392.39 1316.2 1394.47 1316.2 Q1400.1 1316.2 1402.88 1319.12 Q1405.65 1322.04 1405.65 1327.96 Z" fill="#000000" fill-rule="nonzero" fill-opacity="1" /><path clip-path="url(#clip210)" d="M1418.64 1309.47 L1418.64 1316.83 L1427.41 1316.83 L1427.41 1320.14 L1418.64 1320.14 L1418.64 1334.21 Q1418.64 1337.38 1419.5 1338.29 Q1420.38 1339.19 1423.04 1339.19 L1427.41 1339.19 L1427.41 1342.76 L1423.04 1342.76 Q1418.11 1342.76 1416.23 1340.93 Q1414.36 1339.07 1414.36 1334.21 L1414.36 1320.14 L1411.23 1320.14 L1411.23 1316.83 L1414.36 1316.83 L1414.36 1309.47 L1418.64 1309.47 Z" fill="#000000" fill-rule="nonzero" fill-opacity="1" /><path clip-path="url(#clip210)" d="M1455.19 1328.73 L1455.19 1330.81 L1435.61 1330.81 Q1435.88 1335.21 1438.25 1337.52 Q1440.63 1339.82 1444.87 1339.82 Q1447.32 1339.82 1449.61 1339.21 Q1451.93 1338.61 1454.2 1337.41 L1454.2 1341.44 Q1451.9 1342.41 1449.5 1342.92 Q1447.09 1343.43 1444.61 1343.43 Q1438.41 1343.43 1434.77 1339.82 Q1431.16 1336.2 1431.16 1330.05 Q1431.16 1323.68 1434.59 1319.95 Q1438.04 1316.2 1443.87 1316.2 Q1449.1 1316.2 1452.13 1319.58 Q1455.19 1322.94 1455.19 1328.73 M1450.93 1327.48 Q1450.88 1323.98 1448.96 1321.9 Q1447.07 1319.82 1443.92 1319.82 Q1440.35 1319.82 1438.2 1321.83 Q1436.07 1323.84 1435.75 1327.5 L1450.93 1327.48 Z" fill="#000000" fill-rule="nonzero" fill-opacity="1" /><path clip-path="url(#clip210)" d="M1479.24 1320.76 L1479.24 1306.74 L1483.5 1306.74 L1483.5 1342.76 L1479.24 1342.76 L1479.24 1338.87 Q1477.9 1341.18 1475.84 1342.32 Q1473.8 1343.43 1470.93 1343.43 Q1466.23 1343.43 1463.27 1339.68 Q1460.33 1335.93 1460.33 1329.82 Q1460.33 1323.7 1463.27 1319.95 Q1466.23 1316.2 1470.93 1316.2 Q1473.8 1316.2 1475.84 1317.34 Q1477.9 1318.45 1479.24 1320.76 M1464.73 1329.82 Q1464.73 1334.51 1466.65 1337.2 Q1468.59 1339.86 1471.97 1339.86 Q1475.35 1339.86 1477.3 1337.2 Q1479.24 1334.51 1479.24 1329.82 Q1479.24 1325.12 1477.3 1322.45 Q1475.35 1319.77 1471.97 1319.77 Q1468.59 1319.77 1466.65 1322.45 Q1464.73 1325.12 1464.73 1329.82 Z" fill="#000000" fill-rule="nonzero" fill-opacity="1" /><path clip-path="url(#clip210)" d="M1517.57 1306.78 Q1514.47 1312.11 1512.97 1317.32 Q1511.46 1322.52 1511.46 1327.87 Q1511.46 1333.22 1512.97 1338.47 Q1514.5 1343.7 1517.57 1349.01 L1513.87 1349.01 Q1510.4 1343.57 1508.66 1338.31 Q1506.95 1333.06 1506.95 1327.87 Q1506.95 1322.71 1508.66 1317.48 Q1510.38 1312.25 1513.87 1306.78 L1517.57 1306.78 Z" fill="#000000" fill-rule="nonzero" fill-opacity="1" /><path clip-path="url(#clip210)" d="M1526.02 1308.2 L1547.88 1308.2 L1547.88 1312.13 L1530.7 1312.13 L1530.7 1322.36 L1547.16 1322.36 L1547.16 1326.3 L1530.7 1326.3 L1530.7 1338.82 L1548.29 1338.82 L1548.29 1342.76 L1526.02 1342.76 L1526.02 1308.2 Z" fill="#000000" fill-rule="nonzero" fill-opacity="1" /><path clip-path="url(#clip210)" d="M1555.98 1308.2 L1575.84 1308.2 L1575.84 1312.13 L1560.65 1312.13 L1560.65 1322.32 L1574.36 1322.32 L1574.36 1326.25 L1560.65 1326.25 L1560.65 1342.76 L1555.98 1342.76 L1555.98 1308.2 Z" fill="#000000" fill-rule="nonzero" fill-opacity="1" /><path clip-path="url(#clip210)" d="M1580.47 1336.88 L1585.35 1336.88 L1585.35 1342.76 L1580.47 1342.76 L1580.47 1336.88 M1580.47 1318.24 L1585.35 1318.24 L1585.35 1324.12 L1580.47 1324.12 L1580.47 1318.24 Z" fill="#000000" fill-rule="nonzero" fill-opacity="1" /><path clip-path="url(#clip210)" d="M1605.95 1311.27 Q1602.34 1311.27 1600.51 1314.84 Q1598.71 1318.38 1598.71 1325.51 Q1598.71 1332.62 1600.51 1336.18 Q1602.34 1339.72 1605.95 1339.72 Q1609.59 1339.72 1611.39 1336.18 Q1613.22 1332.62 1613.22 1325.51 Q1613.22 1318.38 1611.39 1314.84 Q1609.59 1311.27 1605.95 1311.27 M1605.95 1307.57 Q1611.76 1307.57 1614.82 1312.18 Q1617.9 1316.76 1617.9 1325.51 Q1617.9 1334.24 1614.82 1338.84 Q1611.76 1343.43 1605.95 1343.43 Q1600.14 1343.43 1597.06 1338.84 Q1594.01 1334.24 1594.01 1325.51 Q1594.01 1316.76 1597.06 1312.18 Q1600.14 1307.57 1605.95 1307.57 Z" fill="#000000" fill-rule="nonzero" fill-opacity="1" /><path clip-path="url(#clip210)" d="M1626.12 1336.88 L1631 1336.88 L1631 1342.76 L1626.12 1342.76 L1626.12 1336.88 Z" fill="#000000" fill-rule="nonzero" fill-opacity="1" /><path clip-path="url(#clip210)" d="M1651.76 1323.61 Q1648.62 1323.61 1646.76 1325.76 Q1644.93 1327.92 1644.93 1331.67 Q1644.93 1335.39 1646.76 1337.57 Q1648.62 1339.72 1651.76 1339.72 Q1654.91 1339.72 1656.74 1337.57 Q1658.59 1335.39 1658.59 1331.67 Q1658.59 1327.92 1656.74 1325.76 Q1654.91 1323.61 1651.76 1323.61 M1661.05 1308.96 L1661.05 1313.22 Q1659.29 1312.39 1657.48 1311.95 Q1655.7 1311.51 1653.94 1311.51 Q1649.31 1311.51 1646.86 1314.63 Q1644.43 1317.76 1644.08 1324.07 Q1645.44 1322.06 1647.5 1321 Q1649.56 1319.91 1652.04 1319.91 Q1657.25 1319.91 1660.26 1323.08 Q1663.29 1326.23 1663.29 1331.67 Q1663.29 1336.99 1660.14 1340.21 Q1656.99 1343.43 1651.76 1343.43 Q1645.77 1343.43 1642.6 1338.84 Q1639.43 1334.24 1639.43 1325.51 Q1639.43 1317.32 1643.31 1312.45 Q1647.2 1307.57 1653.75 1307.57 Q1655.51 1307.57 1657.3 1307.92 Q1659.1 1308.26 1661.05 1308.96 Z" fill="#000000" fill-rule="nonzero" fill-opacity="1" /><path clip-path="url(#clip210)" d="M1671.39 1308.2 L1689.75 1308.2 L1689.75 1312.13 L1675.68 1312.13 L1675.68 1320.6 Q1676.69 1320.26 1677.71 1320.09 Q1678.73 1319.91 1679.75 1319.91 Q1685.54 1319.91 1688.92 1323.08 Q1692.3 1326.25 1692.3 1331.67 Q1692.3 1337.25 1688.82 1340.35 Q1685.35 1343.43 1679.03 1343.43 Q1676.86 1343.43 1674.59 1343.06 Q1672.34 1342.69 1669.93 1341.95 L1669.93 1337.25 Q1672.02 1338.38 1674.24 1338.94 Q1676.46 1339.49 1678.94 1339.49 Q1682.94 1339.49 1685.28 1337.38 Q1687.62 1335.28 1687.62 1331.67 Q1687.62 1328.06 1685.28 1325.95 Q1682.94 1323.84 1678.94 1323.84 Q1677.06 1323.84 1675.19 1324.26 Q1673.34 1324.68 1671.39 1325.56 L1671.39 1308.2 Z" fill="#000000" fill-rule="nonzero" fill-opacity="1" /><path clip-path="url(#clip210)" d="M1712.09 1323.61 Q1708.94 1323.61 1707.09 1325.76 Q1705.26 1327.92 1705.26 1331.67 Q1705.26 1335.39 1707.09 1337.57 Q1708.94 1339.72 1712.09 1339.72 Q1715.24 1339.72 1717.06 1337.57 Q1718.92 1335.39 1718.92 1331.67 Q1718.92 1327.92 1717.06 1325.76 Q1715.24 1323.61 1712.09 1323.61 M1721.37 1308.96 L1721.37 1313.22 Q1719.61 1312.39 1717.8 1311.95 Q1716.02 1311.51 1714.26 1311.51 Q1709.63 1311.51 1707.18 1314.63 Q1704.75 1317.76 1704.4 1324.07 Q1705.77 1322.06 1707.83 1321 Q1709.89 1319.91 1712.36 1319.91 Q1717.57 1319.91 1720.58 1323.08 Q1723.61 1326.23 1723.61 1331.67 Q1723.61 1336.99 1720.47 1340.21 Q1717.32 1343.43 1712.09 1343.43 Q1706.09 1343.43 1702.92 1338.84 Q1699.75 1334.24 1699.75 1325.51 Q1699.75 1317.32 1703.64 1312.45 Q1707.53 1307.57 1714.08 1307.57 Q1715.84 1307.57 1717.62 1307.92 Q1719.43 1308.26 1721.37 1308.96 Z" fill="#000000" fill-rule="nonzero" fill-opacity="1" /><path clip-path="url(#clip210)" d="M1732.16 1336.88 L1737.04 1336.88 L1737.04 1340.86 L1733.24 1348.26 L1730.26 1348.26 L1732.16 1340.86 L1732.16 1336.88 Z" fill="#000000" fill-rule="nonzero" fill-opacity="1" /><path clip-path="url(#clip210)" d="M1763.2 1320.76 L1763.2 1306.74 L1767.46 1306.74 L1767.46 1342.76 L1763.2 1342.76 L1763.2 1338.87 Q1761.86 1341.18 1759.8 1342.32 Q1757.76 1343.43 1754.89 1343.43 Q1750.19 1343.43 1747.23 1339.68 Q1744.29 1335.93 1744.29 1329.82 Q1744.29 1323.7 1747.23 1319.95 Q1750.19 1316.2 1754.89 1316.2 Q1757.76 1316.2 1759.8 1317.34 Q1761.86 1318.45 1763.2 1320.76 M1748.68 1329.82 Q1748.68 1334.51 1750.61 1337.2 Q1752.55 1339.86 1755.93 1339.86 Q1759.31 1339.86 1761.25 1337.2 Q1763.2 1334.51 1763.2 1329.82 Q1763.2 1325.12 1761.25 1322.45 Q1759.31 1319.77 1755.93 1319.77 Q1752.55 1319.77 1750.61 1322.45 Q1748.68 1325.12 1748.68 1329.82 Z" fill="#000000" fill-rule="nonzero" fill-opacity="1" /><path clip-path="url(#clip210)" d="M1791.25 1320.81 Q1790.54 1320.39 1789.68 1320.21 Q1788.85 1320 1787.83 1320 Q1784.22 1320 1782.27 1322.36 Q1780.35 1324.7 1780.35 1329.1 L1780.35 1342.76 L1776.07 1342.76 L1776.07 1316.83 L1780.35 1316.83 L1780.35 1320.86 Q1781.69 1318.5 1783.85 1317.36 Q1786 1316.2 1789.08 1316.2 Q1789.52 1316.2 1790.05 1316.27 Q1790.58 1316.32 1791.23 1316.44 L1791.25 1320.81 Z" fill="#000000" fill-rule="nonzero" fill-opacity="1" /><path clip-path="url(#clip210)" d="M1795.98 1336.88 L1800.86 1336.88 L1800.86 1342.76 L1795.98 1342.76 L1795.98 1336.88 M1795.98 1318.24 L1800.86 1318.24 L1800.86 1324.12 L1795.98 1324.12 L1795.98 1318.24 Z" fill="#000000" fill-rule="nonzero" fill-opacity="1" /><path clip-path="url(#clip210)" d="M1821.46 1311.27 Q1817.85 1311.27 1816.02 1314.84 Q1814.22 1318.38 1814.22 1325.51 Q1814.22 1332.62 1816.02 1336.18 Q1817.85 1339.72 1821.46 1339.72 Q1825.1 1339.72 1826.9 1336.18 Q1828.73 1332.62 1828.73 1325.51 Q1828.73 1318.38 1826.9 1314.84 Q1825.1 1311.27 1821.46 1311.27 M1821.46 1307.57 Q1827.27 1307.57 1830.33 1312.18 Q1833.41 1316.76 1833.41 1325.51 Q1833.41 1334.24 1830.33 1338.84 Q1827.27 1343.43 1821.46 1343.43 Q1815.65 1343.43 1812.57 1338.84 Q1809.52 1334.24 1809.52 1325.51 Q1809.52 1316.76 1812.57 1312.18 Q1815.65 1307.57 1821.46 1307.57 Z" fill="#000000" fill-rule="nonzero" fill-opacity="1" /><path clip-path="url(#clip210)" d="M1841.62 1336.88 L1846.51 1336.88 L1846.51 1342.76 L1841.62 1342.76 L1841.62 1336.88 Z" fill="#000000" fill-rule="nonzero" fill-opacity="1" /><path clip-path="url(#clip210)" d="M1855.51 1308.2 L1877.73 1308.2 L1877.73 1310.19 L1865.19 1342.76 L1860.3 1342.76 L1872.11 1312.13 L1855.51 1312.13 L1855.51 1308.2 Z" fill="#000000" fill-rule="nonzero" fill-opacity="1" /><path clip-path="url(#clip210)" d="M1885.67 1308.2 L1907.9 1308.2 L1907.9 1310.19 L1895.35 1342.76 L1890.47 1342.76 L1902.27 1312.13 L1885.67 1312.13 L1885.67 1308.2 Z" fill="#000000" fill-rule="nonzero" fill-opacity="1" /><path clip-path="url(#clip210)" d="M1927.6 1323.61 Q1924.45 1323.61 1922.6 1325.76 Q1920.77 1327.92 1920.77 1331.67 Q1920.77 1335.39 1922.6 1337.57 Q1924.45 1339.72 1927.6 1339.72 Q1930.74 1339.72 1932.57 1337.57 Q1934.42 1335.39 1934.42 1331.67 Q1934.42 1327.92 1932.57 1325.76 Q1930.74 1323.61 1927.6 1323.61 M1936.88 1308.96 L1936.88 1313.22 Q1935.12 1312.39 1933.31 1311.95 Q1931.53 1311.51 1929.77 1311.51 Q1925.14 1311.51 1922.69 1314.63 Q1920.26 1317.76 1919.91 1324.07 Q1921.28 1322.06 1923.34 1321 Q1925.4 1319.91 1927.87 1319.91 Q1933.08 1319.91 1936.09 1323.08 Q1939.12 1326.23 1939.12 1331.67 Q1939.12 1336.99 1935.97 1340.21 Q1932.83 1343.43 1927.6 1343.43 Q1921.6 1343.43 1918.43 1338.84 Q1915.26 1334.24 1915.26 1325.51 Q1915.26 1317.32 1919.15 1312.45 Q1923.04 1307.57 1929.59 1307.57 Q1931.35 1307.57 1933.13 1307.92 Q1934.93 1308.26 1936.88 1308.96 Z" fill="#000000" fill-rule="nonzero" fill-opacity="1" /><path clip-path="url(#clip210)" d="M1947.66 1336.88 L1952.55 1336.88 L1952.55 1340.86 L1948.75 1348.26 L1945.77 1348.26 L1947.66 1340.86 L1947.66 1336.88 Z" fill="#000000" fill-rule="nonzero" fill-opacity="1" /><path clip-path="url(#clip210)" d="M1978.22 1326.55 Q1979.72 1327.06 1981.14 1328.73 Q1982.57 1330.39 1984.01 1333.31 L1988.75 1342.76 L1983.73 1342.76 L1979.31 1333.89 Q1977.6 1330.42 1975.97 1329.28 Q1974.38 1328.15 1971.6 1328.15 L1966.51 1328.15 L1966.51 1342.76 L1961.83 1342.76 L1961.83 1308.2 L1972.39 1308.2 Q1978.31 1308.2 1981.23 1310.67 Q1984.15 1313.15 1984.15 1318.15 Q1984.15 1321.41 1982.62 1323.57 Q1981.11 1325.72 1978.22 1326.55 M1966.51 1312.04 L1966.51 1324.31 L1972.39 1324.31 Q1975.77 1324.31 1977.48 1322.76 Q1979.22 1321.18 1979.22 1318.15 Q1979.22 1315.12 1977.48 1313.59 Q1975.77 1312.04 1972.39 1312.04 L1966.51 1312.04 Z" fill="#000000" fill-rule="nonzero" fill-opacity="1" /><path clip-path="url(#clip210)" d="M1994.77 1308.2 L2001.74 1308.2 L2010.56 1331.71 L2019.42 1308.2 L2026.39 1308.2 L2026.39 1342.76 L2021.83 1342.76 L2021.83 1312.41 L2012.92 1336.11 L2008.22 1336.11 L1999.31 1312.41 L1999.31 1342.76 L1994.77 1342.76 L1994.77 1308.2 Z" fill="#000000" fill-rule="nonzero" fill-opacity="1" /><path clip-path="url(#clip210)" d="M2056.39 1309.33 L2056.39 1313.89 Q2053.73 1312.62 2051.37 1311.99 Q2049.01 1311.37 2046.81 1311.37 Q2042.99 1311.37 2040.9 1312.85 Q2038.84 1314.33 2038.84 1317.06 Q2038.84 1319.35 2040.21 1320.53 Q2041.6 1321.69 2045.44 1322.41 L2048.27 1322.99 Q2053.5 1323.98 2055.97 1326.51 Q2058.47 1329.01 2058.47 1333.22 Q2058.47 1338.24 2055.09 1340.83 Q2051.74 1343.43 2045.23 1343.43 Q2042.78 1343.43 2040 1342.87 Q2037.25 1342.32 2034.28 1341.23 L2034.28 1336.41 Q2037.13 1338.01 2039.86 1338.82 Q2042.59 1339.63 2045.23 1339.63 Q2049.24 1339.63 2051.41 1338.06 Q2053.59 1336.48 2053.59 1333.57 Q2053.59 1331.02 2052.02 1329.58 Q2050.47 1328.15 2046.9 1327.43 L2044.05 1326.88 Q2038.82 1325.83 2036.48 1323.61 Q2034.15 1321.39 2034.15 1317.43 Q2034.15 1312.85 2037.36 1310.21 Q2040.6 1307.57 2046.28 1307.57 Q2048.71 1307.57 2051.23 1308.01 Q2053.75 1308.45 2056.39 1309.33 Z" fill="#000000" fill-rule="nonzero" fill-opacity="1" /><path clip-path="url(#clip210)" d="M2065.77 1308.2 L2087.62 1308.2 L2087.62 1312.13 L2070.44 1312.13 L2070.44 1322.36 L2086.9 1322.36 L2086.9 1326.3 L2070.44 1326.3 L2070.44 1338.82 L2088.03 1338.82 L2088.03 1342.76 L2065.77 1342.76 L2065.77 1308.2 Z" fill="#000000" fill-rule="nonzero" fill-opacity="1" /><path clip-path="url(#clip210)" d="M2096.62 1336.88 L2101.51 1336.88 L2101.51 1342.76 L2096.62 1342.76 L2096.62 1336.88 M2096.62 1318.24 L2101.51 1318.24 L2101.51 1324.12 L2096.62 1324.12 L2096.62 1318.24 Z" fill="#000000" fill-rule="nonzero" fill-opacity="1" /><path clip-path="url(#clip210)" d="M2126.27 1324.12 Q2129.63 1324.84 2131.51 1327.11 Q2133.4 1329.38 2133.4 1332.71 Q2133.4 1337.82 2129.89 1340.63 Q2126.37 1343.43 2119.89 1343.43 Q2117.71 1343.43 2115.4 1342.99 Q2113.1 1342.57 2110.65 1341.71 L2110.65 1337.2 Q2112.59 1338.33 2114.91 1338.91 Q2117.22 1339.49 2119.75 1339.49 Q2124.15 1339.49 2126.44 1337.76 Q2128.75 1336.02 2128.75 1332.71 Q2128.75 1329.65 2126.6 1327.94 Q2124.47 1326.2 2120.65 1326.2 L2116.62 1326.2 L2116.62 1322.36 L2120.84 1322.36 Q2124.28 1322.36 2126.11 1321 Q2127.94 1319.61 2127.94 1317.01 Q2127.94 1314.35 2126.04 1312.94 Q2124.17 1311.51 2120.65 1311.51 Q2118.73 1311.51 2116.53 1311.92 Q2114.33 1312.34 2111.69 1313.22 L2111.69 1309.05 Q2114.35 1308.31 2116.67 1307.94 Q2119.01 1307.57 2121.07 1307.57 Q2126.39 1307.57 2129.49 1310 Q2132.59 1312.41 2132.59 1316.53 Q2132.59 1319.4 2130.95 1321.39 Q2129.31 1323.36 2126.27 1324.12 Z" fill="#000000" fill-rule="nonzero" fill-opacity="1" /><path clip-path="url(#clip210)" d="M2142.27 1336.88 L2147.15 1336.88 L2147.15 1342.76 L2142.27 1342.76 L2142.27 1336.88 Z" fill="#000000" fill-rule="nonzero" fill-opacity="1" /><path clip-path="url(#clip210)" d="M2170.19 1312.27 L2158.38 1330.72 L2170.19 1330.72 L2170.19 1312.27 M2168.96 1308.2 L2174.84 1308.2 L2174.84 1330.72 L2179.77 1330.72 L2179.77 1334.61 L2174.84 1334.61 L2174.84 1342.76 L2170.19 1342.76 L2170.19 1334.61 L2154.58 1334.61 L2154.58 1330.09 L2168.96 1308.2 Z" fill="#000000" fill-rule="nonzero" fill-opacity="1" /><path clip-path="url(#clip210)" d="M2201.67 1324.12 Q2205.02 1324.84 2206.9 1327.11 Q2208.8 1329.38 2208.8 1332.71 Q2208.8 1337.82 2205.28 1340.63 Q2201.76 1343.43 2195.28 1343.43 Q2193.1 1343.43 2190.79 1342.99 Q2188.5 1342.57 2186.04 1341.71 L2186.04 1337.2 Q2187.99 1338.33 2190.3 1338.91 Q2192.62 1339.49 2195.14 1339.49 Q2199.54 1339.49 2201.83 1337.76 Q2204.14 1336.02 2204.14 1332.71 Q2204.14 1329.65 2201.99 1327.94 Q2199.86 1326.2 2196.04 1326.2 L2192.02 1326.2 L2192.02 1322.36 L2196.23 1322.36 Q2199.68 1322.36 2201.51 1321 Q2203.33 1319.61 2203.33 1317.01 Q2203.33 1314.35 2201.44 1312.94 Q2199.56 1311.51 2196.04 1311.51 Q2194.12 1311.51 2191.92 1311.92 Q2189.72 1312.34 2187.08 1313.22 L2187.08 1309.05 Q2189.75 1308.31 2192.06 1307.94 Q2194.4 1307.57 2196.46 1307.57 Q2201.78 1307.57 2204.89 1310 Q2207.99 1312.41 2207.99 1316.53 Q2207.99 1319.4 2206.34 1321.39 Q2204.7 1323.36 2201.67 1324.12 Z" fill="#000000" fill-rule="nonzero" fill-opacity="1" /><path clip-path="url(#clip210)" d="M2231.83 1324.12 Q2235.19 1324.84 2237.06 1327.11 Q2238.96 1329.38 2238.96 1332.71 Q2238.96 1337.82 2235.44 1340.63 Q2231.92 1343.43 2225.44 1343.43 Q2223.27 1343.43 2220.95 1342.99 Q2218.66 1342.57 2216.2 1341.71 L2216.2 1337.2 Q2218.15 1338.33 2220.46 1338.91 Q2222.78 1339.49 2225.3 1339.49 Q2229.7 1339.49 2231.99 1337.76 Q2234.31 1336.02 2234.31 1332.71 Q2234.31 1329.65 2232.15 1327.94 Q2230.02 1326.2 2226.2 1326.2 L2222.18 1326.2 L2222.18 1322.36 L2226.39 1322.36 Q2229.84 1322.36 2231.67 1321 Q2233.5 1319.61 2233.5 1317.01 Q2233.5 1314.35 2231.6 1312.94 Q2229.72 1311.51 2226.2 1311.51 Q2224.28 1311.51 2222.08 1311.92 Q2219.89 1312.34 2217.25 1313.22 L2217.25 1309.05 Q2219.91 1308.31 2222.22 1307.94 Q2224.56 1307.57 2226.62 1307.57 Q2231.95 1307.57 2235.05 1310 Q2238.15 1312.41 2238.15 1316.53 Q2238.15 1319.4 2236.51 1321.39 Q2234.86 1323.36 2231.83 1324.12 Z" fill="#000000" fill-rule="nonzero" fill-opacity="1" /><path clip-path="url(#clip210)" d="M2246.55 1306.78 L2250.26 1306.78 Q2253.73 1312.25 2255.44 1317.48 Q2257.18 1322.71 2257.18 1327.87 Q2257.18 1333.06 2255.44 1338.31 Q2253.73 1343.57 2250.26 1349.01 L2246.55 1349.01 Q2249.63 1343.7 2251.14 1338.47 Q2252.66 1333.22 2252.66 1327.87 Q2252.66 1322.52 2251.14 1317.32 Q2249.63 1312.11 2246.55 1306.78 Z" fill="#000000" fill-rule="nonzero" fill-opacity="1" /></svg>
