<?xml version="1.0" encoding="utf-8"?>
<svg xmlns="http://www.w3.org/2000/svg" xmlns:xlink="http://www.w3.org/1999/xlink" width="600" height="400" viewBox="0 0 2400 1600">
<defs>
  <clipPath id="clip170">
    <rect x="0" y="0" width="2400" height="1600"/>
  </clipPath>
</defs>
<path clip-path="url(#clip170)" d="M0 1600 L2400 1600 L2400 0 L0 0  Z" fill="#ffffff" fill-rule="evenodd" fill-opacity="1"/>
<defs>
  <clipPath id="clip171">
    <rect x="480" y="0" width="1681" height="1600"/>
  </clipPath>
</defs>
<path clip-path="url(#clip170)" d="M279.357 1423.18 L2352.76 1423.18 L2352.76 47.2441 L279.357 47.2441  Z" fill="#ffffff" fill-rule="evenodd" fill-opacity="1"/>
<defs>
  <clipPath id="clip172">
    <rect x="279" y="47" width="2074" height="1377"/>
  </clipPath>
</defs>
<polyline clip-path="url(#clip172)" style="stroke:#000000; stroke-linecap:round; stroke-linejoin:round; stroke-width:2; stroke-opacity:0.1; fill:none" points="305.437,1423.18 305.437,47.2441 "/>
<polyline clip-path="url(#clip172)" style="stroke:#000000; stroke-linecap:round; stroke-linejoin:round; stroke-width:2; stroke-opacity:0.1; fill:none" points="827.047,1423.18 827.047,47.2441 "/>
<polyline clip-path="url(#clip172)" style="stroke:#000000; stroke-linecap:round; stroke-linejoin:round; stroke-width:2; stroke-opacity:0.1; fill:none" points="1348.66,1423.18 1348.66,47.2441 "/>
<polyline clip-path="url(#clip172)" style="stroke:#000000; stroke-linecap:round; stroke-linejoin:round; stroke-width:2; stroke-opacity:0.1; fill:none" points="1870.27,1423.18 1870.27,47.2441 "/>
<polyline clip-path="url(#clip170)" style="stroke:#000000; stroke-linecap:round; stroke-linejoin:round; stroke-width:4; stroke-opacity:1; fill:none" points="279.357,1423.18 2352.76,1423.18 "/>
<polyline clip-path="url(#clip170)" style="stroke:#000000; stroke-linecap:round; stroke-linejoin:round; stroke-width:4; stroke-opacity:1; fill:none" points="305.437,1423.18 305.437,1404.28 "/>
<polyline clip-path="url(#clip170)" style="stroke:#000000; stroke-linecap:round; stroke-linejoin:round; stroke-width:4; stroke-opacity:1; fill:none" points="827.047,1423.18 827.047,1404.28 "/>
<polyline clip-path="url(#clip170)" style="stroke:#000000; stroke-linecap:round; stroke-linejoin:round; stroke-width:4; stroke-opacity:1; fill:none" points="1348.66,1423.18 1348.66,1404.28 "/>
<polyline clip-path="url(#clip170)" style="stroke:#000000; stroke-linecap:round; stroke-linejoin:round; stroke-width:4; stroke-opacity:1; fill:none" points="1870.27,1423.18 1870.27,1404.28 "/>
<path clip-path="url(#clip170)" d="M55.6816 1481.64 L72.0009 1481.64 L72.0009 1485.58 L50.0566 1485.58 L50.0566 1481.64 Q52.7186 1478.89 57.3019 1474.26 Q61.9084 1469.61 63.0889 1468.27 Q65.3343 1465.74 66.2139 1464.01 Q67.1167 1462.25 67.1167 1460.56 Q67.1167 1457.8 65.1723 1456.07 Q63.251 1454.33 60.1491 1454.33 Q57.9501 1454.33 55.4964 1455.09 Q53.0658 1455.86 50.2881 1457.41 L50.2881 1452.69 Q53.1121 1451.55 55.5658 1450.97 Q58.0195 1450.39 60.0566 1450.39 Q65.4269 1450.39 68.6213 1453.08 Q71.8157 1455.77 71.8157 1460.26 Q71.8157 1462.39 71.0056 1464.31 Q70.2185 1466.2 68.1121 1468.8 Q67.5334 1469.47 64.4315 1472.69 Q61.3297 1475.88 55.6816 1481.64 Z" fill="#000000" fill-rule="nonzero" fill-opacity="1" /><path clip-path="url(#clip170)" d="M91.8156 1454.1 Q88.2045 1454.1 86.3759 1457.66 Q84.5703 1461.2 84.5703 1468.33 Q84.5703 1475.44 86.3759 1479.01 Q88.2045 1482.55 91.8156 1482.55 Q95.4499 1482.55 97.2554 1479.01 Q99.0841 1475.44 99.0841 1468.33 Q99.0841 1461.2 97.2554 1457.66 Q95.4499 1454.1 91.8156 1454.1 M91.8156 1450.39 Q97.6258 1450.39 100.681 1455 Q103.76 1459.58 103.76 1468.33 Q103.76 1477.06 100.681 1481.67 Q97.6258 1486.25 91.8156 1486.25 Q86.0055 1486.25 82.9268 1481.67 Q79.8713 1477.06 79.8713 1468.33 Q79.8713 1459.58 82.9268 1455 Q86.0055 1450.39 91.8156 1450.39 Z" fill="#000000" fill-rule="nonzero" fill-opacity="1" /><path clip-path="url(#clip170)" d="M112.788 1481.64 L120.427 1481.64 L120.427 1455.28 L112.116 1456.95 L112.116 1452.69 L120.38 1451.02 L125.056 1451.02 L125.056 1481.64 L132.695 1481.64 L132.695 1485.58 L112.788 1485.58 L112.788 1481.64 Z" fill="#000000" fill-rule="nonzero" fill-opacity="1" /><path clip-path="url(#clip170)" d="M152.718 1466.44 Q149.57 1466.44 147.718 1468.59 Q145.889 1470.74 145.889 1474.49 Q145.889 1478.22 147.718 1480.39 Q149.57 1482.55 152.718 1482.55 Q155.866 1482.55 157.695 1480.39 Q159.547 1478.22 159.547 1474.49 Q159.547 1470.74 157.695 1468.59 Q155.866 1466.44 152.718 1466.44 M162 1451.78 L162 1456.04 Q160.241 1455.21 158.436 1454.77 Q156.653 1454.33 154.894 1454.33 Q150.264 1454.33 147.811 1457.45 Q145.38 1460.58 145.033 1466.9 Q146.399 1464.89 148.459 1463.82 Q150.519 1462.73 152.996 1462.73 Q158.204 1462.73 161.213 1465.9 Q164.246 1469.05 164.246 1474.49 Q164.246 1479.82 161.098 1483.03 Q157.95 1486.25 152.718 1486.25 Q146.723 1486.25 143.551 1481.67 Q140.38 1477.06 140.38 1468.33 Q140.38 1460.14 144.269 1455.28 Q148.158 1450.39 154.709 1450.39 Q156.468 1450.39 158.25 1450.74 Q160.056 1451.09 162 1451.78 Z" fill="#000000" fill-rule="nonzero" fill-opacity="1" /><path clip-path="url(#clip170)" d="M169.547 1470.7 L182.023 1470.7 L182.023 1474.49 L169.547 1474.49 L169.547 1470.7 Z" fill="#000000" fill-rule="nonzero" fill-opacity="1" /><path clip-path="url(#clip170)" d="M199.408 1454.1 Q195.797 1454.1 193.968 1457.66 Q192.162 1461.2 192.162 1468.33 Q192.162 1475.44 193.968 1479.01 Q195.797 1482.55 199.408 1482.55 Q203.042 1482.55 204.847 1479.01 Q206.676 1475.44 206.676 1468.33 Q206.676 1461.2 204.847 1457.66 Q203.042 1454.1 199.408 1454.1 M199.408 1450.39 Q205.218 1450.39 208.273 1455 Q211.352 1459.58 211.352 1468.33 Q211.352 1477.06 208.273 1481.67 Q205.218 1486.25 199.408 1486.25 Q193.598 1486.25 190.519 1481.67 Q187.463 1477.06 187.463 1468.33 Q187.463 1459.58 190.519 1455 Q193.598 1450.39 199.408 1450.39 Z" fill="#000000" fill-rule="nonzero" fill-opacity="1" /><path clip-path="url(#clip170)" d="M230.148 1466.44 Q227 1466.44 225.148 1468.59 Q223.32 1470.74 223.32 1474.49 Q223.32 1478.22 225.148 1480.39 Q227 1482.55 230.148 1482.55 Q233.296 1482.55 235.125 1480.39 Q236.977 1478.22 236.977 1474.49 Q236.977 1470.74 235.125 1468.59 Q233.296 1466.44 230.148 1466.44 M239.431 1451.78 L239.431 1456.04 Q237.671 1455.21 235.866 1454.77 Q234.083 1454.33 232.324 1454.33 Q227.695 1454.33 225.241 1457.45 Q222.81 1460.58 222.463 1466.9 Q223.829 1464.89 225.889 1463.82 Q227.949 1462.73 230.426 1462.73 Q235.634 1462.73 238.644 1465.9 Q241.676 1469.05 241.676 1474.49 Q241.676 1479.82 238.528 1483.03 Q235.38 1486.25 230.148 1486.25 Q224.153 1486.25 220.982 1481.67 Q217.81 1477.06 217.81 1468.33 Q217.81 1460.14 221.699 1455.28 Q225.588 1450.39 232.139 1450.39 Q233.898 1450.39 235.681 1450.74 Q237.486 1451.09 239.431 1451.78 Z" fill="#000000" fill-rule="nonzero" fill-opacity="1" /><path clip-path="url(#clip170)" d="M246.977 1470.7 L259.454 1470.7 L259.454 1474.49 L246.977 1474.49 L246.977 1470.7 Z" fill="#000000" fill-rule="nonzero" fill-opacity="1" /><path clip-path="url(#clip170)" d="M267.648 1481.64 L275.287 1481.64 L275.287 1455.28 L266.977 1456.95 L266.977 1452.69 L275.241 1451.02 L279.916 1451.02 L279.916 1481.64 L287.555 1481.64 L287.555 1485.58 L267.648 1485.58 L267.648 1481.64 Z" fill="#000000" fill-rule="nonzero" fill-opacity="1" /><path clip-path="url(#clip170)" d="M301.027 1481.64 L317.347 1481.64 L317.347 1485.58 L295.403 1485.58 L295.403 1481.64 Q298.065 1478.89 302.648 1474.26 Q307.254 1469.61 308.435 1468.27 Q310.68 1465.74 311.56 1464.01 Q312.463 1462.25 312.463 1460.56 Q312.463 1457.8 310.518 1456.07 Q308.597 1454.33 305.495 1454.33 Q303.296 1454.33 300.842 1455.09 Q298.412 1455.86 295.634 1457.41 L295.634 1452.69 Q298.458 1451.55 300.912 1450.97 Q303.365 1450.39 305.402 1450.39 Q310.773 1450.39 313.967 1453.08 Q317.162 1455.77 317.162 1460.26 Q317.162 1462.39 316.351 1464.31 Q315.564 1466.2 313.458 1468.8 Q312.879 1469.47 309.777 1472.69 Q306.676 1475.88 301.027 1481.64 Z" fill="#000000" fill-rule="nonzero" fill-opacity="1" /><path clip-path="url(#clip170)" d="M321.953 1451.02 L351.189 1451.02 L351.189 1454.96 L338.921 1454.96 L338.921 1485.58 L334.222 1485.58 L334.222 1454.96 L321.953 1454.96 L321.953 1451.02 Z" fill="#000000" fill-rule="nonzero" fill-opacity="1" /><path clip-path="url(#clip170)" d="M356.93 1481.64 L364.569 1481.64 L364.569 1455.28 L356.259 1456.95 L356.259 1452.69 L364.523 1451.02 L369.198 1451.02 L369.198 1481.64 L376.837 1481.64 L376.837 1485.58 L356.93 1485.58 L356.93 1481.64 Z" fill="#000000" fill-rule="nonzero" fill-opacity="1" /><path clip-path="url(#clip170)" d="M387.092 1481.64 L394.731 1481.64 L394.731 1455.28 L386.421 1456.95 L386.421 1452.69 L394.684 1451.02 L399.36 1451.02 L399.36 1481.64 L406.999 1481.64 L406.999 1485.58 L387.092 1485.58 L387.092 1481.64 Z" fill="#000000" fill-rule="nonzero" fill-opacity="1" /><path clip-path="url(#clip170)" d="M416.93 1479.7 L421.814 1479.7 L421.814 1485.58 L416.93 1485.58 L416.93 1479.7 M416.93 1461.07 L421.814 1461.07 L421.814 1466.95 L416.93 1466.95 L416.93 1461.07 Z" fill="#000000" fill-rule="nonzero" fill-opacity="1" /><path clip-path="url(#clip170)" d="M432.462 1451.02 L450.818 1451.02 L450.818 1454.96 L436.744 1454.96 L436.744 1463.43 Q437.763 1463.08 438.781 1462.92 Q439.8 1462.73 440.818 1462.73 Q446.605 1462.73 449.985 1465.9 Q453.365 1469.08 453.365 1474.49 Q453.365 1480.07 449.892 1483.17 Q446.42 1486.25 440.101 1486.25 Q437.925 1486.25 435.656 1485.88 Q433.411 1485.51 431.004 1484.77 L431.004 1480.07 Q433.087 1481.2 435.309 1481.76 Q437.531 1482.32 440.008 1482.32 Q444.013 1482.32 446.351 1480.21 Q448.689 1478.1 448.689 1474.49 Q448.689 1470.88 446.351 1468.77 Q444.013 1466.67 440.008 1466.67 Q438.133 1466.67 436.258 1467.08 Q434.406 1467.5 432.462 1468.38 L432.462 1451.02 Z" fill="#000000" fill-rule="nonzero" fill-opacity="1" /><path clip-path="url(#clip170)" d="M462.716 1484.86 L462.716 1480.6 Q464.476 1481.44 466.281 1481.88 Q468.087 1482.32 469.823 1482.32 Q474.452 1482.32 476.883 1479.21 Q479.337 1476.09 479.684 1469.75 Q478.341 1471.74 476.281 1472.8 Q474.221 1473.87 471.721 1473.87 Q466.536 1473.87 463.503 1470.74 Q460.494 1467.59 460.494 1462.15 Q460.494 1456.83 463.642 1453.61 Q466.79 1450.39 472.022 1450.39 Q478.017 1450.39 481.165 1455 Q484.337 1459.58 484.337 1468.33 Q484.337 1476.51 480.448 1481.39 Q476.582 1486.25 470.031 1486.25 Q468.272 1486.25 466.466 1485.9 Q464.661 1485.56 462.716 1484.86 M472.022 1470.21 Q475.17 1470.21 476.999 1468.06 Q478.851 1465.9 478.851 1462.15 Q478.851 1458.43 476.999 1456.27 Q475.17 1454.1 472.022 1454.1 Q468.874 1454.1 467.022 1456.27 Q465.193 1458.43 465.193 1462.15 Q465.193 1465.9 467.022 1468.06 Q468.874 1470.21 472.022 1470.21 Z" fill="#000000" fill-rule="nonzero" fill-opacity="1" /><path clip-path="url(#clip170)" d="M493.226 1479.7 L498.11 1479.7 L498.11 1485.58 L493.226 1485.58 L493.226 1479.7 M493.226 1461.07 L498.11 1461.07 L498.11 1466.95 L493.226 1466.95 L493.226 1461.07 Z" fill="#000000" fill-rule="nonzero" fill-opacity="1" /><path clip-path="url(#clip170)" d="M518.712 1454.1 Q515.1 1454.1 513.272 1457.66 Q511.466 1461.2 511.466 1468.33 Q511.466 1475.44 513.272 1479.01 Q515.1 1482.55 518.712 1482.55 Q522.346 1482.55 524.151 1479.01 Q525.98 1475.44 525.98 1468.33 Q525.98 1461.2 524.151 1457.66 Q522.346 1454.1 518.712 1454.1 M518.712 1450.39 Q524.522 1450.39 527.577 1455 Q530.656 1459.58 530.656 1468.33 Q530.656 1477.06 527.577 1481.67 Q524.522 1486.25 518.712 1486.25 Q512.901 1486.25 509.823 1481.67 Q506.767 1477.06 506.767 1468.33 Q506.767 1459.58 509.823 1455 Q512.901 1450.39 518.712 1450.39 Z" fill="#000000" fill-rule="nonzero" fill-opacity="1" /><path clip-path="url(#clip170)" d="M548.873 1454.1 Q545.262 1454.1 543.434 1457.66 Q541.628 1461.2 541.628 1468.33 Q541.628 1475.44 543.434 1479.01 Q545.262 1482.55 548.873 1482.55 Q552.508 1482.55 554.313 1479.01 Q556.142 1475.44 556.142 1468.33 Q556.142 1461.2 554.313 1457.66 Q552.508 1454.1 548.873 1454.1 M548.873 1450.39 Q554.684 1450.39 557.739 1455 Q560.818 1459.58 560.818 1468.33 Q560.818 1477.06 557.739 1481.67 Q554.684 1486.25 548.873 1486.25 Q543.063 1486.25 539.985 1481.67 Q536.929 1477.06 536.929 1468.33 Q536.929 1459.58 539.985 1455 Q543.063 1450.39 548.873 1450.39 Z" fill="#000000" fill-rule="nonzero" fill-opacity="1" /><path clip-path="url(#clip170)" d="M577.291 1481.64 L593.611 1481.64 L593.611 1485.58 L571.666 1485.58 L571.666 1481.64 Q574.328 1478.89 578.912 1474.26 Q583.518 1469.61 584.699 1468.27 Q586.944 1465.74 587.824 1464.01 Q588.727 1462.25 588.727 1460.56 Q588.727 1457.8 586.782 1456.07 Q584.861 1454.33 581.759 1454.33 Q579.56 1454.33 577.106 1455.09 Q574.676 1455.86 571.898 1457.41 L571.898 1452.69 Q574.722 1451.55 577.176 1450.97 Q579.629 1450.39 581.666 1450.39 Q587.037 1450.39 590.231 1453.08 Q593.426 1455.77 593.426 1460.26 Q593.426 1462.39 592.615 1464.31 Q591.828 1466.2 589.722 1468.8 Q589.143 1469.47 586.041 1472.69 Q582.94 1475.88 577.291 1481.64 Z" fill="#000000" fill-rule="nonzero" fill-opacity="1" /><path clip-path="url(#clip170)" d="M613.426 1454.1 Q609.814 1454.1 607.986 1457.66 Q606.18 1461.2 606.18 1468.33 Q606.18 1475.44 607.986 1479.01 Q609.814 1482.55 613.426 1482.55 Q617.06 1482.55 618.865 1479.01 Q620.694 1475.44 620.694 1468.33 Q620.694 1461.2 618.865 1457.66 Q617.06 1454.1 613.426 1454.1 M613.426 1450.39 Q619.236 1450.39 622.291 1455 Q625.37 1459.58 625.37 1468.33 Q625.37 1477.06 622.291 1481.67 Q619.236 1486.25 613.426 1486.25 Q607.615 1486.25 604.537 1481.67 Q601.481 1477.06 601.481 1468.33 Q601.481 1459.58 604.537 1455 Q607.615 1450.39 613.426 1450.39 Z" fill="#000000" fill-rule="nonzero" fill-opacity="1" /><path clip-path="url(#clip170)" d="M634.398 1481.64 L642.036 1481.64 L642.036 1455.28 L633.726 1456.95 L633.726 1452.69 L641.99 1451.02 L646.666 1451.02 L646.666 1481.64 L654.305 1481.64 L654.305 1485.58 L634.398 1485.58 L634.398 1481.64 Z" fill="#000000" fill-rule="nonzero" fill-opacity="1" /><path clip-path="url(#clip170)" d="M674.328 1466.44 Q671.18 1466.44 669.328 1468.59 Q667.499 1470.74 667.499 1474.49 Q667.499 1478.22 669.328 1480.39 Q671.18 1482.55 674.328 1482.55 Q677.476 1482.55 679.305 1480.39 Q681.157 1478.22 681.157 1474.49 Q681.157 1470.74 679.305 1468.59 Q677.476 1466.44 674.328 1466.44 M683.61 1451.78 L683.61 1456.04 Q681.851 1455.21 680.046 1454.77 Q678.263 1454.33 676.504 1454.33 Q671.874 1454.33 669.421 1457.45 Q666.99 1460.58 666.643 1466.9 Q668.009 1464.89 670.069 1463.82 Q672.129 1462.73 674.606 1462.73 Q679.814 1462.73 682.823 1465.9 Q685.856 1469.05 685.856 1474.49 Q685.856 1479.82 682.708 1483.03 Q679.559 1486.25 674.328 1486.25 Q668.333 1486.25 665.161 1481.67 Q661.99 1477.06 661.99 1468.33 Q661.99 1460.14 665.879 1455.28 Q669.768 1450.39 676.319 1450.39 Q678.078 1450.39 679.86 1450.74 Q681.666 1451.09 683.61 1451.78 Z" fill="#000000" fill-rule="nonzero" fill-opacity="1" /><path clip-path="url(#clip170)" d="M691.157 1470.7 L703.633 1470.7 L703.633 1474.49 L691.157 1474.49 L691.157 1470.7 Z" fill="#000000" fill-rule="nonzero" fill-opacity="1" /><path clip-path="url(#clip170)" d="M721.018 1454.1 Q717.406 1454.1 715.578 1457.66 Q713.772 1461.2 713.772 1468.33 Q713.772 1475.44 715.578 1479.01 Q717.406 1482.55 721.018 1482.55 Q724.652 1482.55 726.457 1479.01 Q728.286 1475.44 728.286 1468.33 Q728.286 1461.2 726.457 1457.66 Q724.652 1454.1 721.018 1454.1 M721.018 1450.39 Q726.828 1450.39 729.883 1455 Q732.962 1459.58 732.962 1468.33 Q732.962 1477.06 729.883 1481.67 Q726.828 1486.25 721.018 1486.25 Q715.207 1486.25 712.129 1481.67 Q709.073 1477.06 709.073 1468.33 Q709.073 1459.58 712.129 1455 Q715.207 1450.39 721.018 1450.39 Z" fill="#000000" fill-rule="nonzero" fill-opacity="1" /><path clip-path="url(#clip170)" d="M751.758 1466.44 Q748.61 1466.44 746.758 1468.59 Q744.929 1470.74 744.929 1474.49 Q744.929 1478.22 746.758 1480.39 Q748.61 1482.55 751.758 1482.55 Q754.906 1482.55 756.735 1480.39 Q758.587 1478.22 758.587 1474.49 Q758.587 1470.74 756.735 1468.59 Q754.906 1466.44 751.758 1466.44 M761.04 1451.78 L761.04 1456.04 Q759.281 1455.21 757.476 1454.77 Q755.693 1454.33 753.934 1454.33 Q749.304 1454.33 746.851 1457.45 Q744.42 1460.58 744.073 1466.9 Q745.439 1464.89 747.499 1463.82 Q749.559 1462.73 752.036 1462.73 Q757.244 1462.73 760.253 1465.9 Q763.286 1469.05 763.286 1474.49 Q763.286 1479.82 760.138 1483.03 Q756.99 1486.25 751.758 1486.25 Q745.763 1486.25 742.591 1481.67 Q739.42 1477.06 739.42 1468.33 Q739.42 1460.14 743.309 1455.28 Q747.198 1450.39 753.749 1450.39 Q755.508 1450.39 757.29 1450.74 Q759.096 1451.09 761.04 1451.78 Z" fill="#000000" fill-rule="nonzero" fill-opacity="1" /><path clip-path="url(#clip170)" d="M768.587 1470.7 L781.063 1470.7 L781.063 1474.49 L768.587 1474.49 L768.587 1470.7 Z" fill="#000000" fill-rule="nonzero" fill-opacity="1" /><path clip-path="url(#clip170)" d="M789.258 1481.64 L796.897 1481.64 L796.897 1455.28 L788.587 1456.95 L788.587 1452.69 L796.85 1451.02 L801.526 1451.02 L801.526 1481.64 L809.165 1481.64 L809.165 1485.58 L789.258 1485.58 L789.258 1481.64 Z" fill="#000000" fill-rule="nonzero" fill-opacity="1" /><path clip-path="url(#clip170)" d="M822.637 1481.64 L838.957 1481.64 L838.957 1485.58 L817.012 1485.58 L817.012 1481.64 Q819.674 1478.89 824.258 1474.26 Q828.864 1469.61 830.045 1468.27 Q832.29 1465.74 833.17 1464.01 Q834.072 1462.25 834.072 1460.56 Q834.072 1457.8 832.128 1456.07 Q830.207 1454.33 827.105 1454.33 Q824.906 1454.33 822.452 1455.09 Q820.022 1455.86 817.244 1457.41 L817.244 1452.69 Q820.068 1451.55 822.522 1450.97 Q824.975 1450.39 827.012 1450.39 Q832.383 1450.39 835.577 1453.08 Q838.772 1455.77 838.772 1460.26 Q838.772 1462.39 837.961 1464.31 Q837.174 1466.2 835.068 1468.8 Q834.489 1469.47 831.387 1472.69 Q828.285 1475.88 822.637 1481.64 Z" fill="#000000" fill-rule="nonzero" fill-opacity="1" /><path clip-path="url(#clip170)" d="M843.563 1451.02 L872.799 1451.02 L872.799 1454.96 L860.531 1454.96 L860.531 1485.58 L855.832 1485.58 L855.832 1454.96 L843.563 1454.96 L843.563 1451.02 Z" fill="#000000" fill-rule="nonzero" fill-opacity="1" /><path clip-path="url(#clip170)" d="M878.54 1481.64 L886.179 1481.64 L886.179 1455.28 L877.869 1456.95 L877.869 1452.69 L886.132 1451.02 L890.808 1451.02 L890.808 1481.64 L898.447 1481.64 L898.447 1485.58 L878.54 1485.58 L878.54 1481.64 Z" fill="#000000" fill-rule="nonzero" fill-opacity="1" /><path clip-path="url(#clip170)" d="M911.919 1481.64 L928.239 1481.64 L928.239 1485.58 L906.294 1485.58 L906.294 1481.64 Q908.956 1478.89 913.54 1474.26 Q918.146 1469.61 919.327 1468.27 Q921.572 1465.74 922.452 1464.01 Q923.354 1462.25 923.354 1460.56 Q923.354 1457.8 921.41 1456.07 Q919.489 1454.33 916.387 1454.33 Q914.188 1454.33 911.734 1455.09 Q909.304 1455.86 906.526 1457.41 L906.526 1452.69 Q909.35 1451.55 911.804 1450.97 Q914.257 1450.39 916.294 1450.39 Q921.665 1450.39 924.859 1453.08 Q928.053 1455.77 928.053 1460.26 Q928.053 1462.39 927.243 1464.31 Q926.456 1466.2 924.35 1468.8 Q923.771 1469.47 920.669 1472.69 Q917.567 1475.88 911.919 1481.64 Z" fill="#000000" fill-rule="nonzero" fill-opacity="1" /><path clip-path="url(#clip170)" d="M938.54 1479.7 L943.424 1479.7 L943.424 1485.58 L938.54 1485.58 L938.54 1479.7 M938.54 1461.07 L943.424 1461.07 L943.424 1466.95 L938.54 1466.95 L938.54 1461.07 Z" fill="#000000" fill-rule="nonzero" fill-opacity="1" /><path clip-path="url(#clip170)" d="M954.836 1481.64 L962.475 1481.64 L962.475 1455.28 L954.164 1456.95 L954.164 1452.69 L962.428 1451.02 L967.104 1451.02 L967.104 1481.64 L974.743 1481.64 L974.743 1485.58 L954.836 1485.58 L954.836 1481.64 Z" fill="#000000" fill-rule="nonzero" fill-opacity="1" /><path clip-path="url(#clip170)" d="M984.234 1451.02 L1002.59 1451.02 L1002.59 1454.96 L988.516 1454.96 L988.516 1463.43 Q989.535 1463.08 990.553 1462.92 Q991.572 1462.73 992.59 1462.73 Q998.377 1462.73 1001.76 1465.9 Q1005.14 1469.08 1005.14 1474.49 Q1005.14 1480.07 1001.66 1483.17 Q998.192 1486.25 991.873 1486.25 Q989.697 1486.25 987.428 1485.88 Q985.183 1485.51 982.775 1484.77 L982.775 1480.07 Q984.859 1481.2 987.081 1481.76 Q989.303 1482.32 991.78 1482.32 Q995.785 1482.32 998.123 1480.21 Q1000.46 1478.1 1000.46 1474.49 Q1000.46 1470.88 998.123 1468.77 Q995.785 1466.67 991.78 1466.67 Q989.905 1466.67 988.03 1467.08 Q986.178 1467.5 984.234 1468.38 L984.234 1451.02 Z" fill="#000000" fill-rule="nonzero" fill-opacity="1" /><path clip-path="url(#clip170)" d="M1014.84 1479.7 L1019.72 1479.7 L1019.72 1485.58 L1014.84 1485.58 L1014.84 1479.7 M1014.84 1461.07 L1019.72 1461.07 L1019.72 1466.95 L1014.84 1466.95 L1014.84 1461.07 Z" fill="#000000" fill-rule="nonzero" fill-opacity="1" /><path clip-path="url(#clip170)" d="M1040.32 1454.1 Q1036.71 1454.1 1034.88 1457.66 Q1033.08 1461.2 1033.08 1468.33 Q1033.08 1475.44 1034.88 1479.01 Q1036.71 1482.55 1040.32 1482.55 Q1043.96 1482.55 1045.76 1479.01 Q1047.59 1475.44 1047.59 1468.33 Q1047.59 1461.2 1045.76 1457.66 Q1043.96 1454.1 1040.32 1454.1 M1040.32 1450.39 Q1046.13 1450.39 1049.19 1455 Q1052.27 1459.58 1052.27 1468.33 Q1052.27 1477.06 1049.19 1481.67 Q1046.13 1486.25 1040.32 1486.25 Q1034.51 1486.25 1031.43 1481.67 Q1028.38 1477.06 1028.38 1468.33 Q1028.38 1459.58 1031.43 1455 Q1034.51 1450.39 1040.32 1450.39 Z" fill="#000000" fill-rule="nonzero" fill-opacity="1" /><path clip-path="url(#clip170)" d="M1070.48 1454.1 Q1066.87 1454.1 1065.04 1457.66 Q1063.24 1461.2 1063.24 1468.33 Q1063.24 1475.44 1065.04 1479.01 Q1066.87 1482.55 1070.48 1482.55 Q1074.12 1482.55 1075.92 1479.01 Q1077.75 1475.44 1077.75 1468.33 Q1077.75 1461.2 1075.92 1457.66 Q1074.12 1454.1 1070.48 1454.1 M1070.48 1450.39 Q1076.29 1450.39 1079.35 1455 Q1082.43 1459.58 1082.43 1468.33 Q1082.43 1477.06 1079.35 1481.67 Q1076.29 1486.25 1070.48 1486.25 Q1064.67 1486.25 1061.59 1481.67 Q1058.54 1477.06 1058.54 1468.33 Q1058.54 1459.58 1061.59 1455 Q1064.67 1450.39 1070.48 1450.39 Z" fill="#000000" fill-rule="nonzero" fill-opacity="1" /><path clip-path="url(#clip170)" d="M1098.9 1481.64 L1115.22 1481.64 L1115.22 1485.58 L1093.28 1485.58 L1093.28 1481.64 Q1095.94 1478.89 1100.52 1474.26 Q1105.13 1469.61 1106.31 1468.27 Q1108.55 1465.74 1109.43 1464.01 Q1110.34 1462.25 1110.34 1460.56 Q1110.34 1457.8 1108.39 1456.07 Q1106.47 1454.33 1103.37 1454.33 Q1101.17 1454.33 1098.72 1455.09 Q1096.29 1455.86 1093.51 1457.41 L1093.51 1452.69 Q1096.33 1451.55 1098.79 1450.97 Q1101.24 1450.39 1103.28 1450.39 Q1108.65 1450.39 1111.84 1453.08 Q1115.04 1455.77 1115.04 1460.26 Q1115.04 1462.39 1114.23 1464.31 Q1113.44 1466.2 1111.33 1468.8 Q1110.75 1469.47 1107.65 1472.69 Q1104.55 1475.88 1098.9 1481.64 Z" fill="#000000" fill-rule="nonzero" fill-opacity="1" /><path clip-path="url(#clip170)" d="M1135.04 1454.1 Q1131.42 1454.1 1129.6 1457.66 Q1127.79 1461.2 1127.79 1468.33 Q1127.79 1475.44 1129.6 1479.01 Q1131.42 1482.55 1135.04 1482.55 Q1138.67 1482.55 1140.48 1479.01 Q1142.3 1475.44 1142.3 1468.33 Q1142.3 1461.2 1140.48 1457.66 Q1138.67 1454.1 1135.04 1454.1 M1135.04 1450.39 Q1140.85 1450.39 1143.9 1455 Q1146.98 1459.58 1146.98 1468.33 Q1146.98 1477.06 1143.9 1481.67 Q1140.85 1486.25 1135.04 1486.25 Q1129.23 1486.25 1126.15 1481.67 Q1123.09 1477.06 1123.09 1468.33 Q1123.09 1459.58 1126.15 1455 Q1129.23 1450.39 1135.04 1450.39 Z" fill="#000000" fill-rule="nonzero" fill-opacity="1" /><path clip-path="url(#clip170)" d="M1156.01 1481.64 L1163.65 1481.64 L1163.65 1455.28 L1155.34 1456.95 L1155.34 1452.69 L1163.6 1451.02 L1168.28 1451.02 L1168.28 1481.64 L1175.91 1481.64 L1175.91 1485.58 L1156.01 1485.58 L1156.01 1481.64 Z" fill="#000000" fill-rule="nonzero" fill-opacity="1" /><path clip-path="url(#clip170)" d="M1195.94 1466.44 Q1192.79 1466.44 1190.94 1468.59 Q1189.11 1470.74 1189.11 1474.49 Q1189.11 1478.22 1190.94 1480.39 Q1192.79 1482.55 1195.94 1482.55 Q1199.09 1482.55 1200.91 1480.39 Q1202.77 1478.22 1202.77 1474.49 Q1202.77 1470.74 1200.91 1468.59 Q1199.09 1466.44 1195.94 1466.44 M1205.22 1451.78 L1205.22 1456.04 Q1203.46 1455.21 1201.66 1454.77 Q1199.87 1454.33 1198.11 1454.33 Q1193.48 1454.33 1191.03 1457.45 Q1188.6 1460.58 1188.25 1466.9 Q1189.62 1464.89 1191.68 1463.82 Q1193.74 1462.73 1196.22 1462.73 Q1201.42 1462.73 1204.43 1465.9 Q1207.47 1469.05 1207.47 1474.49 Q1207.47 1479.82 1204.32 1483.03 Q1201.17 1486.25 1195.94 1486.25 Q1189.94 1486.25 1186.77 1481.67 Q1183.6 1477.06 1183.6 1468.33 Q1183.6 1460.14 1187.49 1455.28 Q1191.38 1450.39 1197.93 1450.39 Q1199.69 1450.39 1201.47 1450.74 Q1203.28 1451.09 1205.22 1451.78 Z" fill="#000000" fill-rule="nonzero" fill-opacity="1" /><path clip-path="url(#clip170)" d="M1212.77 1470.7 L1225.24 1470.7 L1225.24 1474.49 L1212.77 1474.49 L1212.77 1470.7 Z" fill="#000000" fill-rule="nonzero" fill-opacity="1" /><path clip-path="url(#clip170)" d="M1242.63 1454.1 Q1239.02 1454.1 1237.19 1457.66 Q1235.38 1461.2 1235.38 1468.33 Q1235.38 1475.44 1237.19 1479.01 Q1239.02 1482.55 1242.63 1482.55 Q1246.26 1482.55 1248.07 1479.01 Q1249.9 1475.44 1249.9 1468.33 Q1249.9 1461.2 1248.07 1457.66 Q1246.26 1454.1 1242.63 1454.1 M1242.63 1450.39 Q1248.44 1450.39 1251.49 1455 Q1254.57 1459.58 1254.57 1468.33 Q1254.57 1477.06 1251.49 1481.67 Q1248.44 1486.25 1242.63 1486.25 Q1236.82 1486.25 1233.74 1481.67 Q1230.68 1477.06 1230.68 1468.33 Q1230.68 1459.58 1233.74 1455 Q1236.82 1450.39 1242.63 1450.39 Z" fill="#000000" fill-rule="nonzero" fill-opacity="1" /><path clip-path="url(#clip170)" d="M1273.37 1466.44 Q1270.22 1466.44 1268.37 1468.59 Q1266.54 1470.74 1266.54 1474.49 Q1266.54 1478.22 1268.37 1480.39 Q1270.22 1482.55 1273.37 1482.55 Q1276.52 1482.55 1278.34 1480.39 Q1280.2 1478.22 1280.2 1474.49 Q1280.2 1470.74 1278.34 1468.59 Q1276.52 1466.44 1273.37 1466.44 M1282.65 1451.78 L1282.65 1456.04 Q1280.89 1455.21 1279.09 1454.77 Q1277.3 1454.33 1275.54 1454.33 Q1270.91 1454.33 1268.46 1457.45 Q1266.03 1460.58 1265.68 1466.9 Q1267.05 1464.89 1269.11 1463.82 Q1271.17 1462.73 1273.65 1462.73 Q1278.85 1462.73 1281.86 1465.9 Q1284.9 1469.05 1284.9 1474.49 Q1284.9 1479.82 1281.75 1483.03 Q1278.6 1486.25 1273.37 1486.25 Q1267.37 1486.25 1264.2 1481.67 Q1261.03 1477.06 1261.03 1468.33 Q1261.03 1460.14 1264.92 1455.28 Q1268.81 1450.39 1275.36 1450.39 Q1277.12 1450.39 1278.9 1450.74 Q1280.71 1451.09 1282.65 1451.78 Z" fill="#000000" fill-rule="nonzero" fill-opacity="1" /><path clip-path="url(#clip170)" d="M1290.2 1470.7 L1302.67 1470.7 L1302.67 1474.49 L1290.2 1474.49 L1290.2 1470.7 Z" fill="#000000" fill-rule="nonzero" fill-opacity="1" /><path clip-path="url(#clip170)" d="M1310.87 1481.64 L1318.51 1481.64 L1318.51 1455.28 L1310.2 1456.95 L1310.2 1452.69 L1318.46 1451.02 L1323.14 1451.02 L1323.14 1481.64 L1330.78 1481.64 L1330.78 1485.58 L1310.87 1485.58 L1310.87 1481.64 Z" fill="#000000" fill-rule="nonzero" fill-opacity="1" /><path clip-path="url(#clip170)" d="M1344.25 1481.64 L1360.57 1481.64 L1360.57 1485.58 L1338.62 1485.58 L1338.62 1481.64 Q1341.28 1478.89 1345.87 1474.26 Q1350.47 1469.61 1351.65 1468.27 Q1353.9 1465.74 1354.78 1464.01 Q1355.68 1462.25 1355.68 1460.56 Q1355.68 1457.8 1353.74 1456.07 Q1351.82 1454.33 1348.71 1454.33 Q1346.52 1454.33 1344.06 1455.09 Q1341.63 1455.86 1338.85 1457.41 L1338.85 1452.69 Q1341.68 1451.55 1344.13 1450.97 Q1346.59 1450.39 1348.62 1450.39 Q1353.99 1450.39 1357.19 1453.08 Q1360.38 1455.77 1360.38 1460.26 Q1360.38 1462.39 1359.57 1464.31 Q1358.78 1466.2 1356.68 1468.8 Q1356.1 1469.47 1353 1472.69 Q1349.9 1475.88 1344.25 1481.64 Z" fill="#000000" fill-rule="nonzero" fill-opacity="1" /><path clip-path="url(#clip170)" d="M1365.17 1451.02 L1394.41 1451.02 L1394.41 1454.96 L1382.14 1454.96 L1382.14 1485.58 L1377.44 1485.58 L1377.44 1454.96 L1365.17 1454.96 L1365.17 1451.02 Z" fill="#000000" fill-rule="nonzero" fill-opacity="1" /><path clip-path="url(#clip170)" d="M1400.15 1481.64 L1407.79 1481.64 L1407.79 1455.28 L1399.48 1456.95 L1399.48 1452.69 L1407.74 1451.02 L1412.42 1451.02 L1412.42 1481.64 L1420.06 1481.64 L1420.06 1485.58 L1400.15 1485.58 L1400.15 1481.64 Z" fill="#000000" fill-rule="nonzero" fill-opacity="1" /><path clip-path="url(#clip170)" d="M1433.53 1481.64 L1449.85 1481.64 L1449.85 1485.58 L1427.9 1485.58 L1427.9 1481.64 Q1430.57 1478.89 1435.15 1474.26 Q1439.76 1469.61 1440.94 1468.27 Q1443.18 1465.74 1444.06 1464.01 Q1444.96 1462.25 1444.96 1460.56 Q1444.96 1457.8 1443.02 1456.07 Q1441.1 1454.33 1438 1454.33 Q1435.8 1454.33 1433.34 1455.09 Q1430.91 1455.86 1428.14 1457.41 L1428.14 1452.69 Q1430.96 1451.55 1433.41 1450.97 Q1435.87 1450.39 1437.9 1450.39 Q1443.27 1450.39 1446.47 1453.08 Q1449.66 1455.77 1449.66 1460.26 Q1449.66 1462.39 1448.85 1464.31 Q1448.07 1466.2 1445.96 1468.8 Q1445.38 1469.47 1442.28 1472.69 Q1439.18 1475.88 1433.53 1481.64 Z" fill="#000000" fill-rule="nonzero" fill-opacity="1" /><path clip-path="url(#clip170)" d="M1460.15 1479.7 L1465.03 1479.7 L1465.03 1485.58 L1460.15 1485.58 L1460.15 1479.7 M1460.15 1461.07 L1465.03 1461.07 L1465.03 1466.95 L1460.15 1466.95 L1460.15 1461.07 Z" fill="#000000" fill-rule="nonzero" fill-opacity="1" /><path clip-path="url(#clip170)" d="M1489.8 1466.95 Q1493.16 1467.66 1495.03 1469.93 Q1496.93 1472.2 1496.93 1475.53 Q1496.93 1480.65 1493.41 1483.45 Q1489.89 1486.25 1483.41 1486.25 Q1481.24 1486.25 1478.92 1485.81 Q1476.63 1485.39 1474.18 1484.54 L1474.18 1480.02 Q1476.12 1481.16 1478.44 1481.74 Q1480.75 1482.32 1483.27 1482.32 Q1487.67 1482.32 1489.96 1480.58 Q1492.28 1478.84 1492.28 1475.53 Q1492.28 1472.48 1490.13 1470.77 Q1488 1469.03 1484.18 1469.03 L1480.15 1469.03 L1480.15 1465.19 L1484.36 1465.19 Q1487.81 1465.19 1489.64 1463.82 Q1491.47 1462.43 1491.47 1459.84 Q1491.47 1457.18 1489.57 1455.77 Q1487.7 1454.33 1484.18 1454.33 Q1482.26 1454.33 1480.06 1454.75 Q1477.86 1455.16 1475.22 1456.04 L1475.22 1451.88 Q1477.88 1451.14 1480.2 1450.77 Q1482.53 1450.39 1484.59 1450.39 Q1489.92 1450.39 1493.02 1452.83 Q1496.12 1455.23 1496.12 1459.35 Q1496.12 1462.22 1494.48 1464.21 Q1492.83 1466.18 1489.8 1466.95 Z" fill="#000000" fill-rule="nonzero" fill-opacity="1" /><path clip-path="url(#clip170)" d="M1506.61 1481.64 L1514.25 1481.64 L1514.25 1455.28 L1505.94 1456.95 L1505.94 1452.69 L1514.2 1451.02 L1518.88 1451.02 L1518.88 1481.64 L1526.51 1481.64 L1526.51 1485.58 L1506.61 1485.58 L1506.61 1481.64 Z" fill="#000000" fill-rule="nonzero" fill-opacity="1" /><path clip-path="url(#clip170)" d="M1536.45 1479.7 L1541.33 1479.7 L1541.33 1485.58 L1536.45 1485.58 L1536.45 1479.7 M1536.45 1461.07 L1541.33 1461.07 L1541.33 1466.95 L1536.45 1466.95 L1536.45 1461.07 Z" fill="#000000" fill-rule="nonzero" fill-opacity="1" /><path clip-path="url(#clip170)" d="M1561.93 1454.1 Q1558.32 1454.1 1556.49 1457.66 Q1554.69 1461.2 1554.69 1468.33 Q1554.69 1475.44 1556.49 1479.01 Q1558.32 1482.55 1561.93 1482.55 Q1565.57 1482.55 1567.37 1479.01 Q1569.2 1475.44 1569.2 1468.33 Q1569.2 1461.2 1567.37 1457.66 Q1565.57 1454.1 1561.93 1454.1 M1561.93 1450.39 Q1567.74 1450.39 1570.8 1455 Q1573.88 1459.58 1573.88 1468.33 Q1573.88 1477.06 1570.8 1481.67 Q1567.74 1486.25 1561.93 1486.25 Q1556.12 1486.25 1553.04 1481.67 Q1549.99 1477.06 1549.99 1468.33 Q1549.99 1459.58 1553.04 1455 Q1556.12 1450.39 1561.93 1450.39 Z" fill="#000000" fill-rule="nonzero" fill-opacity="1" /><path clip-path="url(#clip170)" d="M1592.09 1454.1 Q1588.48 1454.1 1586.65 1457.66 Q1584.85 1461.2 1584.85 1468.33 Q1584.85 1475.44 1586.65 1479.01 Q1588.48 1482.55 1592.09 1482.55 Q1595.73 1482.55 1597.53 1479.01 Q1599.36 1475.44 1599.36 1468.33 Q1599.36 1461.2 1597.53 1457.66 Q1595.73 1454.1 1592.09 1454.1 M1592.09 1450.39 Q1597.9 1450.39 1600.96 1455 Q1604.04 1459.58 1604.04 1468.33 Q1604.04 1477.06 1600.96 1481.67 Q1597.9 1486.25 1592.09 1486.25 Q1586.28 1486.25 1583.2 1481.67 Q1580.15 1477.06 1580.15 1468.33 Q1580.15 1459.58 1583.2 1455 Q1586.28 1450.39 1592.09 1450.39 Z" fill="#000000" fill-rule="nonzero" fill-opacity="1" /><path clip-path="url(#clip170)" d="M1620.51 1481.64 L1636.83 1481.64 L1636.83 1485.58 L1614.89 1485.58 L1614.89 1481.64 Q1617.55 1478.89 1622.13 1474.26 Q1626.74 1469.61 1627.92 1468.27 Q1630.16 1465.74 1631.04 1464.01 Q1631.95 1462.25 1631.95 1460.56 Q1631.95 1457.8 1630 1456.07 Q1628.08 1454.33 1624.98 1454.33 Q1622.78 1454.33 1620.33 1455.09 Q1617.9 1455.86 1615.12 1457.41 L1615.12 1452.69 Q1617.94 1451.55 1620.4 1450.97 Q1622.85 1450.39 1624.89 1450.39 Q1630.26 1450.39 1633.45 1453.08 Q1636.65 1455.77 1636.65 1460.26 Q1636.65 1462.39 1635.84 1464.31 Q1635.05 1466.2 1632.94 1468.8 Q1632.36 1469.47 1629.26 1472.69 Q1626.16 1475.88 1620.51 1481.64 Z" fill="#000000" fill-rule="nonzero" fill-opacity="1" /><path clip-path="url(#clip170)" d="M1656.65 1454.1 Q1653.03 1454.1 1651.21 1457.66 Q1649.4 1461.2 1649.4 1468.33 Q1649.4 1475.44 1651.21 1479.01 Q1653.03 1482.55 1656.65 1482.55 Q1660.28 1482.55 1662.09 1479.01 Q1663.91 1475.44 1663.91 1468.33 Q1663.91 1461.2 1662.09 1457.66 Q1660.28 1454.1 1656.65 1454.1 M1656.65 1450.39 Q1662.46 1450.39 1665.51 1455 Q1668.59 1459.58 1668.59 1468.33 Q1668.59 1477.06 1665.51 1481.67 Q1662.46 1486.25 1656.65 1486.25 Q1650.84 1486.25 1647.76 1481.67 Q1644.7 1477.06 1644.7 1468.33 Q1644.7 1459.58 1647.76 1455 Q1650.84 1450.39 1656.65 1450.39 Z" fill="#000000" fill-rule="nonzero" fill-opacity="1" /><path clip-path="url(#clip170)" d="M1677.62 1481.64 L1685.26 1481.64 L1685.26 1455.28 L1676.95 1456.95 L1676.95 1452.69 L1685.21 1451.02 L1689.89 1451.02 L1689.89 1481.64 L1697.52 1481.64 L1697.52 1485.58 L1677.62 1485.58 L1677.62 1481.64 Z" fill="#000000" fill-rule="nonzero" fill-opacity="1" /><path clip-path="url(#clip170)" d="M1717.55 1466.44 Q1714.4 1466.44 1712.55 1468.59 Q1710.72 1470.74 1710.72 1474.49 Q1710.72 1478.22 1712.55 1480.39 Q1714.4 1482.55 1717.55 1482.55 Q1720.7 1482.55 1722.52 1480.39 Q1724.38 1478.22 1724.38 1474.49 Q1724.38 1470.74 1722.52 1468.59 Q1720.7 1466.44 1717.55 1466.44 M1726.83 1451.78 L1726.83 1456.04 Q1725.07 1455.21 1723.27 1454.77 Q1721.48 1454.33 1719.72 1454.33 Q1715.09 1454.33 1712.64 1457.45 Q1710.21 1460.58 1709.86 1466.9 Q1711.23 1464.89 1713.29 1463.82 Q1715.35 1462.73 1717.83 1462.73 Q1723.03 1462.73 1726.04 1465.9 Q1729.08 1469.05 1729.08 1474.49 Q1729.08 1479.82 1725.93 1483.03 Q1722.78 1486.25 1717.55 1486.25 Q1711.55 1486.25 1708.38 1481.67 Q1705.21 1477.06 1705.21 1468.33 Q1705.21 1460.14 1709.1 1455.28 Q1712.99 1450.39 1719.54 1450.39 Q1721.3 1450.39 1723.08 1450.74 Q1724.89 1451.09 1726.83 1451.78 Z" fill="#000000" fill-rule="nonzero" fill-opacity="1" /><path clip-path="url(#clip170)" d="M1734.38 1470.7 L1746.85 1470.7 L1746.85 1474.49 L1734.38 1474.49 L1734.38 1470.7 Z" fill="#000000" fill-rule="nonzero" fill-opacity="1" /><path clip-path="url(#clip170)" d="M1764.24 1454.1 Q1760.63 1454.1 1758.8 1457.66 Q1756.99 1461.2 1756.99 1468.33 Q1756.99 1475.44 1758.8 1479.01 Q1760.63 1482.55 1764.24 1482.55 Q1767.87 1482.55 1769.68 1479.01 Q1771.51 1475.44 1771.51 1468.33 Q1771.51 1461.2 1769.68 1457.66 Q1767.87 1454.1 1764.24 1454.1 M1764.24 1450.39 Q1770.05 1450.39 1773.1 1455 Q1776.18 1459.58 1776.18 1468.33 Q1776.18 1477.06 1773.1 1481.67 Q1770.05 1486.25 1764.24 1486.25 Q1758.43 1486.25 1755.35 1481.67 Q1752.29 1477.06 1752.29 1468.33 Q1752.29 1459.58 1755.35 1455 Q1758.43 1450.39 1764.24 1450.39 Z" fill="#000000" fill-rule="nonzero" fill-opacity="1" /><path clip-path="url(#clip170)" d="M1794.98 1466.44 Q1791.83 1466.44 1789.98 1468.59 Q1788.15 1470.74 1788.15 1474.49 Q1788.15 1478.22 1789.98 1480.39 Q1791.83 1482.55 1794.98 1482.55 Q1798.13 1482.55 1799.95 1480.39 Q1801.81 1478.22 1801.81 1474.49 Q1801.81 1470.74 1799.95 1468.59 Q1798.13 1466.44 1794.98 1466.44 M1804.26 1451.78 L1804.26 1456.04 Q1802.5 1455.21 1800.7 1454.77 Q1798.91 1454.33 1797.15 1454.33 Q1792.52 1454.33 1790.07 1457.45 Q1787.64 1460.58 1787.29 1466.9 Q1788.66 1464.89 1790.72 1463.82 Q1792.78 1462.73 1795.26 1462.73 Q1800.46 1462.73 1803.47 1465.9 Q1806.51 1469.05 1806.51 1474.49 Q1806.51 1479.82 1803.36 1483.03 Q1800.21 1486.25 1794.98 1486.25 Q1788.98 1486.25 1785.81 1481.67 Q1782.64 1477.06 1782.64 1468.33 Q1782.64 1460.14 1786.53 1455.28 Q1790.42 1450.39 1796.97 1450.39 Q1798.73 1450.39 1800.51 1450.74 Q1802.32 1451.09 1804.26 1451.78 Z" fill="#000000" fill-rule="nonzero" fill-opacity="1" /><path clip-path="url(#clip170)" d="M1811.81 1470.7 L1824.28 1470.7 L1824.28 1474.49 L1811.81 1474.49 L1811.81 1470.7 Z" fill="#000000" fill-rule="nonzero" fill-opacity="1" /><path clip-path="url(#clip170)" d="M1832.48 1481.64 L1840.12 1481.64 L1840.12 1455.28 L1831.81 1456.95 L1831.81 1452.69 L1840.07 1451.02 L1844.75 1451.02 L1844.75 1481.64 L1852.38 1481.64 L1852.38 1485.58 L1832.48 1485.58 L1832.48 1481.64 Z" fill="#000000" fill-rule="nonzero" fill-opacity="1" /><path clip-path="url(#clip170)" d="M1865.86 1481.64 L1882.18 1481.64 L1882.18 1485.58 L1860.23 1485.58 L1860.23 1481.64 Q1862.89 1478.89 1867.48 1474.26 Q1872.08 1469.61 1873.26 1468.27 Q1875.51 1465.74 1876.39 1464.01 Q1877.29 1462.25 1877.29 1460.56 Q1877.29 1457.8 1875.35 1456.07 Q1873.43 1454.33 1870.32 1454.33 Q1868.13 1454.33 1865.67 1455.09 Q1863.24 1455.86 1860.46 1457.41 L1860.46 1452.69 Q1863.29 1451.55 1865.74 1450.97 Q1868.2 1450.39 1870.23 1450.39 Q1875.6 1450.39 1878.8 1453.08 Q1881.99 1455.77 1881.99 1460.26 Q1881.99 1462.39 1881.18 1464.31 Q1880.39 1466.2 1878.29 1468.8 Q1877.71 1469.47 1874.61 1472.69 Q1871.51 1475.88 1865.86 1481.64 Z" fill="#000000" fill-rule="nonzero" fill-opacity="1" /><path clip-path="url(#clip170)" d="M1886.78 1451.02 L1916.02 1451.02 L1916.02 1454.96 L1903.75 1454.96 L1903.75 1485.58 L1899.05 1485.58 L1899.05 1454.96 L1886.78 1454.96 L1886.78 1451.02 Z" fill="#000000" fill-rule="nonzero" fill-opacity="1" /><path clip-path="url(#clip170)" d="M1921.76 1481.64 L1929.4 1481.64 L1929.4 1455.28 L1921.09 1456.95 L1921.09 1452.69 L1929.35 1451.02 L1934.03 1451.02 L1934.03 1481.64 L1941.67 1481.64 L1941.67 1485.58 L1921.76 1485.58 L1921.76 1481.64 Z" fill="#000000" fill-rule="nonzero" fill-opacity="1" /><path clip-path="url(#clip170)" d="M1955.14 1481.64 L1971.46 1481.64 L1971.46 1485.58 L1949.51 1485.58 L1949.51 1481.64 Q1952.18 1478.89 1956.76 1474.26 Q1961.37 1469.61 1962.55 1468.27 Q1964.79 1465.74 1965.67 1464.01 Q1966.57 1462.25 1966.57 1460.56 Q1966.57 1457.8 1964.63 1456.07 Q1962.71 1454.33 1959.61 1454.33 Q1957.41 1454.33 1954.95 1455.09 Q1952.52 1455.86 1949.75 1457.41 L1949.75 1452.69 Q1952.57 1451.55 1955.02 1450.97 Q1957.48 1450.39 1959.51 1450.39 Q1964.88 1450.39 1968.08 1453.08 Q1971.27 1455.77 1971.27 1460.26 Q1971.27 1462.39 1970.46 1464.31 Q1969.68 1466.2 1967.57 1468.8 Q1966.99 1469.47 1963.89 1472.69 Q1960.79 1475.88 1955.14 1481.64 Z" fill="#000000" fill-rule="nonzero" fill-opacity="1" /><path clip-path="url(#clip170)" d="M1981.76 1479.7 L1986.64 1479.7 L1986.64 1485.58 L1981.76 1485.58 L1981.76 1479.7 M1981.76 1461.07 L1986.64 1461.07 L1986.64 1466.95 L1981.76 1466.95 L1981.76 1461.07 Z" fill="#000000" fill-rule="nonzero" fill-opacity="1" /><path clip-path="url(#clip170)" d="M2010.09 1455.09 L1998.29 1473.54 L2010.09 1473.54 L2010.09 1455.09 M2008.87 1451.02 L2014.75 1451.02 L2014.75 1473.54 L2019.68 1473.54 L2019.68 1477.43 L2014.75 1477.43 L2014.75 1485.58 L2010.09 1485.58 L2010.09 1477.43 L1994.49 1477.43 L1994.49 1472.92 L2008.87 1451.02 Z" fill="#000000" fill-rule="nonzero" fill-opacity="1" /><path clip-path="url(#clip170)" d="M2026.23 1451.02 L2048.45 1451.02 L2048.45 1453.01 L2035.9 1485.58 L2031.02 1485.58 L2042.82 1454.96 L2026.23 1454.96 L2026.23 1451.02 Z" fill="#000000" fill-rule="nonzero" fill-opacity="1" /><path clip-path="url(#clip170)" d="M2058.06 1479.7 L2062.94 1479.7 L2062.94 1485.58 L2058.06 1485.58 L2058.06 1479.7 M2058.06 1461.07 L2062.94 1461.07 L2062.94 1466.95 L2058.06 1466.95 L2058.06 1461.07 Z" fill="#000000" fill-rule="nonzero" fill-opacity="1" /><path clip-path="url(#clip170)" d="M2083.54 1454.1 Q2079.93 1454.1 2078.1 1457.66 Q2076.3 1461.2 2076.3 1468.33 Q2076.3 1475.44 2078.1 1479.01 Q2079.93 1482.55 2083.54 1482.55 Q2087.18 1482.55 2088.98 1479.01 Q2090.81 1475.44 2090.81 1468.33 Q2090.81 1461.2 2088.98 1457.66 Q2087.18 1454.1 2083.54 1454.1 M2083.54 1450.39 Q2089.35 1450.39 2092.41 1455 Q2095.49 1459.58 2095.49 1468.33 Q2095.49 1477.06 2092.41 1481.67 Q2089.35 1486.25 2083.54 1486.25 Q2077.73 1486.25 2074.65 1481.67 Q2071.6 1477.06 2071.6 1468.33 Q2071.6 1459.58 2074.65 1455 Q2077.73 1450.39 2083.54 1450.39 Z" fill="#000000" fill-rule="nonzero" fill-opacity="1" /><path clip-path="url(#clip170)" d="M2113.7 1454.1 Q2110.09 1454.1 2108.26 1457.66 Q2106.46 1461.2 2106.46 1468.33 Q2106.46 1475.44 2108.26 1479.01 Q2110.09 1482.55 2113.7 1482.55 Q2117.34 1482.55 2119.14 1479.01 Q2120.97 1475.44 2120.97 1468.33 Q2120.97 1461.2 2119.14 1457.66 Q2117.34 1454.1 2113.7 1454.1 M2113.7 1450.39 Q2119.51 1450.39 2122.57 1455 Q2125.65 1459.58 2125.65 1468.33 Q2125.65 1477.06 2122.57 1481.67 Q2119.51 1486.25 2113.7 1486.25 Q2107.89 1486.25 2104.81 1481.67 Q2101.76 1477.06 2101.76 1468.33 Q2101.76 1459.58 2104.81 1455 Q2107.89 1450.39 2113.7 1450.39 Z" fill="#000000" fill-rule="nonzero" fill-opacity="1" /><path clip-path="url(#clip170)" d="M1237.93 1520.52 L1278.13 1520.52 L1278.13 1525.93 L1261.26 1525.93 L1261.26 1568.04 L1254.8 1568.04 L1254.8 1525.93 L1237.93 1525.93 L1237.93 1520.52 Z" fill="#000000" fill-rule="nonzero" fill-opacity="1" /><path clip-path="url(#clip170)" d="M1282.08 1532.4 L1287.94 1532.4 L1287.94 1568.04 L1282.08 1568.04 L1282.08 1532.4 M1282.08 1518.52 L1287.94 1518.52 L1287.94 1525.93 L1282.08 1525.93 L1282.08 1518.52 Z" fill="#000000" fill-rule="nonzero" fill-opacity="1" /><path clip-path="url(#clip170)" d="M1327.94 1539.24 Q1330.14 1535.29 1333.2 1533.41 Q1336.25 1531.54 1340.39 1531.54 Q1345.96 1531.54 1348.98 1535.45 Q1352.01 1539.33 1352.01 1546.53 L1352.01 1568.04 L1346.12 1568.04 L1346.12 1546.72 Q1346.12 1541.59 1344.3 1539.11 Q1342.49 1536.63 1338.77 1536.63 Q1334.21 1536.63 1331.57 1539.65 Q1328.93 1542.68 1328.93 1547.9 L1328.93 1568.04 L1323.04 1568.04 L1323.04 1546.72 Q1323.04 1541.56 1321.23 1539.11 Q1319.41 1536.63 1315.63 1536.63 Q1311.14 1536.63 1308.5 1539.68 Q1305.86 1542.71 1305.86 1547.9 L1305.86 1568.04 L1299.97 1568.04 L1299.97 1532.4 L1305.86 1532.4 L1305.86 1537.93 Q1307.86 1534.66 1310.66 1533.1 Q1313.46 1531.54 1317.31 1531.54 Q1321.2 1531.54 1323.9 1533.51 Q1326.64 1535.48 1327.94 1539.24 Z" fill="#000000" fill-rule="nonzero" fill-opacity="1" /><path clip-path="url(#clip170)" d="M1394.18 1548.76 L1394.18 1551.62 L1367.25 1551.62 Q1367.63 1557.67 1370.88 1560.85 Q1374.16 1564 1379.98 1564 Q1383.36 1564 1386.51 1563.17 Q1389.69 1562.35 1392.81 1560.69 L1392.81 1566.23 Q1389.66 1567.57 1386.35 1568.27 Q1383.04 1568.97 1379.63 1568.97 Q1371.1 1568.97 1366.11 1564 Q1361.14 1559.04 1361.14 1550.57 Q1361.14 1541.82 1365.85 1536.69 Q1370.59 1531.54 1378.62 1531.54 Q1385.81 1531.54 1389.98 1536.18 Q1394.18 1540.8 1394.18 1548.76 M1388.32 1547.04 Q1388.26 1542.23 1385.62 1539.37 Q1383.01 1536.5 1378.68 1536.5 Q1373.78 1536.5 1370.82 1539.27 Q1367.89 1542.04 1367.44 1547.07 L1388.32 1547.04 Z" fill="#000000" fill-rule="nonzero" fill-opacity="1" /><polyline clip-path="url(#clip172)" style="stroke:#000000; stroke-linecap:round; stroke-linejoin:round; stroke-width:2; stroke-opacity:0.1; fill:none" points="279.357,1285.34 2352.76,1285.34 "/>
<polyline clip-path="url(#clip172)" style="stroke:#000000; stroke-linecap:round; stroke-linejoin:round; stroke-width:2; stroke-opacity:0.1; fill:none" points="279.357,1011.4 2352.76,1011.4 "/>
<polyline clip-path="url(#clip172)" style="stroke:#000000; stroke-linecap:round; stroke-linejoin:round; stroke-width:2; stroke-opacity:0.1; fill:none" points="279.357,737.457 2352.76,737.457 "/>
<polyline clip-path="url(#clip172)" style="stroke:#000000; stroke-linecap:round; stroke-linejoin:round; stroke-width:2; stroke-opacity:0.1; fill:none" points="279.357,463.515 2352.76,463.515 "/>
<polyline clip-path="url(#clip172)" style="stroke:#000000; stroke-linecap:round; stroke-linejoin:round; stroke-width:2; stroke-opacity:0.1; fill:none" points="279.357,189.574 2352.76,189.574 "/>
<polyline clip-path="url(#clip170)" style="stroke:#000000; stroke-linecap:round; stroke-linejoin:round; stroke-width:4; stroke-opacity:1; fill:none" points="279.357,1423.18 279.357,47.2441 "/>
<polyline clip-path="url(#clip170)" style="stroke:#000000; stroke-linecap:round; stroke-linejoin:round; stroke-width:4; stroke-opacity:1; fill:none" points="279.357,1285.34 298.254,1285.34 "/>
<polyline clip-path="url(#clip170)" style="stroke:#000000; stroke-linecap:round; stroke-linejoin:round; stroke-width:4; stroke-opacity:1; fill:none" points="279.357,1011.4 298.254,1011.4 "/>
<polyline clip-path="url(#clip170)" style="stroke:#000000; stroke-linecap:round; stroke-linejoin:round; stroke-width:4; stroke-opacity:1; fill:none" points="279.357,737.457 298.254,737.457 "/>
<polyline clip-path="url(#clip170)" style="stroke:#000000; stroke-linecap:round; stroke-linejoin:round; stroke-width:4; stroke-opacity:1; fill:none" points="279.357,463.515 298.254,463.515 "/>
<polyline clip-path="url(#clip170)" style="stroke:#000000; stroke-linecap:round; stroke-linejoin:round; stroke-width:4; stroke-opacity:1; fill:none" points="279.357,189.574 298.254,189.574 "/>
<path clip-path="url(#clip170)" d="M120.88 1298.69 L137.2 1298.69 L137.2 1302.62 L115.256 1302.62 L115.256 1298.69 Q117.918 1295.93 122.501 1291.3 Q127.107 1286.65 128.288 1285.31 Q130.533 1282.78 131.413 1281.05 Q132.316 1279.29 132.316 1277.6 Q132.316 1274.84 130.371 1273.11 Q128.45 1271.37 125.348 1271.37 Q123.149 1271.37 120.695 1272.13 Q118.265 1272.9 115.487 1274.45 L115.487 1269.73 Q118.311 1268.59 120.765 1268.01 Q123.218 1267.44 125.255 1267.44 Q130.626 1267.44 133.82 1270.12 Q137.015 1272.81 137.015 1277.3 Q137.015 1279.43 136.204 1281.35 Q135.417 1283.25 133.311 1285.84 Q132.732 1286.51 129.63 1289.73 Q126.529 1292.92 120.88 1298.69 Z" fill="#000000" fill-rule="nonzero" fill-opacity="1" /><path clip-path="url(#clip170)" d="M147.825 1298.69 L155.464 1298.69 L155.464 1272.32 L147.153 1273.99 L147.153 1269.73 L155.417 1268.06 L160.093 1268.06 L160.093 1298.69 L167.732 1298.69 L167.732 1302.62 L147.825 1302.62 L147.825 1298.69 Z" fill="#000000" fill-rule="nonzero" fill-opacity="1" /><path clip-path="url(#clip170)" d="M177.176 1296.74 L182.061 1296.74 L182.061 1302.62 L177.176 1302.62 L177.176 1296.74 Z" fill="#000000" fill-rule="nonzero" fill-opacity="1" /><path clip-path="url(#clip170)" d="M191.065 1268.06 L213.287 1268.06 L213.287 1270.05 L200.741 1302.62 L195.857 1302.62 L207.662 1272 L191.065 1272 L191.065 1268.06 Z" fill="#000000" fill-rule="nonzero" fill-opacity="1" /><path clip-path="url(#clip170)" d="M222.454 1268.06 L240.81 1268.06 L240.81 1272 L226.736 1272 L226.736 1280.47 Q227.755 1280.12 228.773 1279.96 Q229.792 1279.77 230.81 1279.77 Q236.597 1279.77 239.977 1282.94 Q243.357 1286.12 243.357 1291.53 Q243.357 1297.11 239.884 1300.21 Q236.412 1303.29 230.093 1303.29 Q227.917 1303.29 225.648 1302.92 Q223.403 1302.55 220.996 1301.81 L220.996 1297.11 Q223.079 1298.25 225.301 1298.8 Q227.523 1299.36 230 1299.36 Q234.005 1299.36 236.343 1297.25 Q238.681 1295.14 238.681 1291.53 Q238.681 1287.92 236.343 1285.82 Q234.005 1283.71 230 1283.71 Q228.125 1283.71 226.25 1284.13 Q224.398 1284.54 222.454 1285.42 L222.454 1268.06 Z" fill="#000000" fill-rule="nonzero" fill-opacity="1" /><path clip-path="url(#clip170)" d="M119.885 1024.74 L136.204 1024.74 L136.204 1028.68 L114.26 1028.68 L114.26 1024.74 Q116.922 1021.99 121.505 1017.36 Q126.112 1012.71 127.292 1011.36 Q129.538 1008.84 130.417 1007.1 Q131.32 1005.35 131.32 1003.66 Q131.32 1000.9 129.376 999.165 Q127.455 997.429 124.353 997.429 Q122.154 997.429 119.7 998.193 Q117.269 998.957 114.492 1000.51 L114.492 995.785 Q117.316 994.651 119.769 994.072 Q122.223 993.494 124.26 993.494 Q129.63 993.494 132.825 996.179 Q136.019 998.864 136.019 1003.35 Q136.019 1005.48 135.209 1007.41 Q134.422 1009.3 132.316 1011.9 Q131.737 1012.57 128.635 1015.79 Q125.533 1018.98 119.885 1024.74 Z" fill="#000000" fill-rule="nonzero" fill-opacity="1" /><path clip-path="url(#clip170)" d="M150.047 1024.74 L166.366 1024.74 L166.366 1028.68 L144.422 1028.68 L144.422 1024.74 Q147.084 1021.99 151.667 1017.36 Q156.274 1012.71 157.454 1011.36 Q159.7 1008.84 160.579 1007.1 Q161.482 1005.35 161.482 1003.66 Q161.482 1000.9 159.538 999.165 Q157.616 997.429 154.515 997.429 Q152.316 997.429 149.862 998.193 Q147.431 998.957 144.654 1000.51 L144.654 995.785 Q147.478 994.651 149.931 994.072 Q152.385 993.494 154.422 993.494 Q159.792 993.494 162.987 996.179 Q166.181 998.864 166.181 1003.35 Q166.181 1005.48 165.371 1007.41 Q164.584 1009.3 162.477 1011.9 Q161.899 1012.57 158.797 1015.79 Q155.695 1018.98 150.047 1024.74 Z" fill="#000000" fill-rule="nonzero" fill-opacity="1" /><path clip-path="url(#clip170)" d="M176.181 1022.8 L181.065 1022.8 L181.065 1028.68 L176.181 1028.68 L176.181 1022.8 Z" fill="#000000" fill-rule="nonzero" fill-opacity="1" /><path clip-path="url(#clip170)" d="M201.25 997.197 Q197.639 997.197 195.811 1000.76 Q194.005 1004.3 194.005 1011.43 Q194.005 1018.54 195.811 1022.1 Q197.639 1025.65 201.25 1025.65 Q204.885 1025.65 206.69 1022.1 Q208.519 1018.54 208.519 1011.43 Q208.519 1004.3 206.69 1000.76 Q204.885 997.197 201.25 997.197 M201.25 993.494 Q207.061 993.494 210.116 998.1 Q213.195 1002.68 213.195 1011.43 Q213.195 1020.16 210.116 1024.77 Q207.061 1029.35 201.25 1029.35 Q195.44 1029.35 192.362 1024.77 Q189.306 1020.16 189.306 1011.43 Q189.306 1002.68 192.362 998.1 Q195.44 993.494 201.25 993.494 Z" fill="#000000" fill-rule="nonzero" fill-opacity="1" /><path clip-path="url(#clip170)" d="M231.412 997.197 Q227.801 997.197 225.973 1000.76 Q224.167 1004.3 224.167 1011.43 Q224.167 1018.54 225.973 1022.1 Q227.801 1025.65 231.412 1025.65 Q235.047 1025.65 236.852 1022.1 Q238.681 1018.54 238.681 1011.43 Q238.681 1004.3 236.852 1000.76 Q235.047 997.197 231.412 997.197 M231.412 993.494 Q237.222 993.494 240.278 998.1 Q243.357 1002.68 243.357 1011.43 Q243.357 1020.16 240.278 1024.77 Q237.222 1029.35 231.412 1029.35 Q225.602 1029.35 222.523 1024.77 Q219.468 1020.16 219.468 1011.43 Q219.468 1002.68 222.523 998.1 Q225.602 993.494 231.412 993.494 Z" fill="#000000" fill-rule="nonzero" fill-opacity="1" /><path clip-path="url(#clip170)" d="M120.88 750.802 L137.2 750.802 L137.2 754.737 L115.256 754.737 L115.256 750.802 Q117.918 748.047 122.501 743.418 Q127.107 738.765 128.288 737.422 Q130.533 734.899 131.413 733.163 Q132.316 731.404 132.316 729.714 Q132.316 726.959 130.371 725.223 Q128.45 723.487 125.348 723.487 Q123.149 723.487 120.695 724.251 Q118.265 725.015 115.487 726.566 L115.487 721.844 Q118.311 720.709 120.765 720.131 Q123.218 719.552 125.255 719.552 Q130.626 719.552 133.82 722.237 Q137.015 724.922 137.015 729.413 Q137.015 731.543 136.204 733.464 Q135.417 735.362 133.311 737.955 Q132.732 738.626 129.63 741.844 Q126.529 745.038 120.88 750.802 Z" fill="#000000" fill-rule="nonzero" fill-opacity="1" /><path clip-path="url(#clip170)" d="M151.042 750.802 L167.362 750.802 L167.362 754.737 L145.417 754.737 L145.417 750.802 Q148.079 748.047 152.663 743.418 Q157.269 738.765 158.45 737.422 Q160.695 734.899 161.575 733.163 Q162.477 731.404 162.477 729.714 Q162.477 726.959 160.533 725.223 Q158.612 723.487 155.51 723.487 Q153.311 723.487 150.857 724.251 Q148.427 725.015 145.649 726.566 L145.649 721.844 Q148.473 720.709 150.927 720.131 Q153.38 719.552 155.417 719.552 Q160.788 719.552 163.982 722.237 Q167.177 724.922 167.177 729.413 Q167.177 731.543 166.366 733.464 Q165.579 735.362 163.473 737.955 Q162.894 738.626 159.792 741.844 Q156.69 745.038 151.042 750.802 Z" fill="#000000" fill-rule="nonzero" fill-opacity="1" /><path clip-path="url(#clip170)" d="M177.176 748.857 L182.061 748.857 L182.061 754.737 L177.176 754.737 L177.176 748.857 Z" fill="#000000" fill-rule="nonzero" fill-opacity="1" /><path clip-path="url(#clip170)" d="M196.274 750.802 L212.593 750.802 L212.593 754.737 L190.649 754.737 L190.649 750.802 Q193.311 748.047 197.894 743.418 Q202.5 738.765 203.681 737.422 Q205.926 734.899 206.806 733.163 Q207.709 731.404 207.709 729.714 Q207.709 726.959 205.764 725.223 Q203.843 723.487 200.741 723.487 Q198.542 723.487 196.088 724.251 Q193.658 725.015 190.88 726.566 L190.88 721.844 Q193.704 720.709 196.158 720.131 Q198.612 719.552 200.649 719.552 Q206.019 719.552 209.213 722.237 Q212.408 724.922 212.408 729.413 Q212.408 731.543 211.598 733.464 Q210.811 735.362 208.704 737.955 Q208.125 738.626 205.024 741.844 Q201.922 745.038 196.274 750.802 Z" fill="#000000" fill-rule="nonzero" fill-opacity="1" /><path clip-path="url(#clip170)" d="M222.454 720.177 L240.81 720.177 L240.81 724.112 L226.736 724.112 L226.736 732.584 Q227.755 732.237 228.773 732.075 Q229.792 731.89 230.81 731.89 Q236.597 731.89 239.977 735.061 Q243.357 738.232 243.357 743.649 Q243.357 749.228 239.884 752.33 Q236.412 755.408 230.093 755.408 Q227.917 755.408 225.648 755.038 Q223.403 754.668 220.996 753.927 L220.996 749.228 Q223.079 750.362 225.301 750.918 Q227.523 751.473 230 751.473 Q234.005 751.473 236.343 749.367 Q238.681 747.26 238.681 743.649 Q238.681 740.038 236.343 737.932 Q234.005 735.825 230 735.825 Q228.125 735.825 226.25 736.242 Q224.398 736.658 222.454 737.538 L222.454 720.177 Z" fill="#000000" fill-rule="nonzero" fill-opacity="1" /><path clip-path="url(#clip170)" d="M119.885 476.86 L136.204 476.86 L136.204 480.795 L114.26 480.795 L114.26 476.86 Q116.922 474.106 121.505 469.476 Q126.112 464.823 127.292 463.481 Q129.538 460.957 130.417 459.221 Q131.32 457.462 131.32 455.772 Q131.32 453.018 129.376 451.282 Q127.455 449.545 124.353 449.545 Q122.154 449.545 119.7 450.309 Q117.269 451.073 114.492 452.624 L114.492 447.902 Q117.316 446.768 119.769 446.189 Q122.223 445.61 124.26 445.61 Q129.63 445.61 132.825 448.295 Q136.019 450.981 136.019 455.471 Q136.019 457.601 135.209 459.522 Q134.422 461.42 132.316 464.013 Q131.737 464.684 128.635 467.902 Q125.533 471.096 119.885 476.86 Z" fill="#000000" fill-rule="nonzero" fill-opacity="1" /><path clip-path="url(#clip170)" d="M150.047 476.86 L166.366 476.86 L166.366 480.795 L144.422 480.795 L144.422 476.86 Q147.084 474.106 151.667 469.476 Q156.274 464.823 157.454 463.481 Q159.7 460.957 160.579 459.221 Q161.482 457.462 161.482 455.772 Q161.482 453.018 159.538 451.282 Q157.616 449.545 154.515 449.545 Q152.316 449.545 149.862 450.309 Q147.431 451.073 144.654 452.624 L144.654 447.902 Q147.478 446.768 149.931 446.189 Q152.385 445.61 154.422 445.61 Q159.792 445.61 162.987 448.295 Q166.181 450.981 166.181 455.471 Q166.181 457.601 165.371 459.522 Q164.584 461.42 162.477 464.013 Q161.899 464.684 158.797 467.902 Q155.695 471.096 150.047 476.86 Z" fill="#000000" fill-rule="nonzero" fill-opacity="1" /><path clip-path="url(#clip170)" d="M176.181 474.916 L181.065 474.916 L181.065 480.795 L176.181 480.795 L176.181 474.916 Z" fill="#000000" fill-rule="nonzero" fill-opacity="1" /><path clip-path="url(#clip170)" d="M191.297 446.235 L209.653 446.235 L209.653 450.17 L195.579 450.17 L195.579 458.643 Q196.598 458.295 197.616 458.133 Q198.635 457.948 199.653 457.948 Q205.44 457.948 208.82 461.119 Q212.199 464.291 212.199 469.707 Q212.199 475.286 208.727 478.388 Q205.255 481.467 198.936 481.467 Q196.76 481.467 194.491 481.096 Q192.246 480.726 189.838 479.985 L189.838 475.286 Q191.922 476.42 194.144 476.976 Q196.366 477.531 198.843 477.531 Q202.848 477.531 205.186 475.425 Q207.524 473.318 207.524 469.707 Q207.524 466.096 205.186 463.99 Q202.848 461.883 198.843 461.883 Q196.968 461.883 195.093 462.3 Q193.241 462.717 191.297 463.596 L191.297 446.235 Z" fill="#000000" fill-rule="nonzero" fill-opacity="1" /><path clip-path="url(#clip170)" d="M231.412 449.314 Q227.801 449.314 225.973 452.879 Q224.167 456.42 224.167 463.55 Q224.167 470.656 225.973 474.221 Q227.801 477.763 231.412 477.763 Q235.047 477.763 236.852 474.221 Q238.681 470.656 238.681 463.55 Q238.681 456.42 236.852 452.879 Q235.047 449.314 231.412 449.314 M231.412 445.61 Q237.222 445.61 240.278 450.217 Q243.357 454.8 243.357 463.55 Q243.357 472.277 240.278 476.883 Q237.222 481.467 231.412 481.467 Q225.602 481.467 222.523 476.883 Q219.468 472.277 219.468 463.55 Q219.468 454.8 222.523 450.217 Q225.602 445.61 231.412 445.61 Z" fill="#000000" fill-rule="nonzero" fill-opacity="1" /><path clip-path="url(#clip170)" d="M120.88 202.918 L137.2 202.918 L137.2 206.854 L115.256 206.854 L115.256 202.918 Q117.918 200.164 122.501 195.534 Q127.107 190.881 128.288 189.539 Q130.533 187.016 131.413 185.28 Q132.316 183.52 132.316 181.831 Q132.316 179.076 130.371 177.34 Q128.45 175.604 125.348 175.604 Q123.149 175.604 120.695 176.368 Q118.265 177.132 115.487 178.682 L115.487 173.96 Q118.311 172.826 120.765 172.247 Q123.218 171.669 125.255 171.669 Q130.626 171.669 133.82 174.354 Q137.015 177.039 137.015 181.53 Q137.015 183.659 136.204 185.581 Q135.417 187.479 133.311 190.071 Q132.732 190.743 129.63 193.96 Q126.529 197.155 120.88 202.918 Z" fill="#000000" fill-rule="nonzero" fill-opacity="1" /><path clip-path="url(#clip170)" d="M151.042 202.918 L167.362 202.918 L167.362 206.854 L145.417 206.854 L145.417 202.918 Q148.079 200.164 152.663 195.534 Q157.269 190.881 158.45 189.539 Q160.695 187.016 161.575 185.28 Q162.477 183.52 162.477 181.831 Q162.477 179.076 160.533 177.34 Q158.612 175.604 155.51 175.604 Q153.311 175.604 150.857 176.368 Q148.427 177.132 145.649 178.682 L145.649 173.96 Q148.473 172.826 150.927 172.247 Q153.38 171.669 155.417 171.669 Q160.788 171.669 163.982 174.354 Q167.177 177.039 167.177 181.53 Q167.177 183.659 166.366 185.581 Q165.579 187.479 163.473 190.071 Q162.894 190.743 159.792 193.96 Q156.69 197.155 151.042 202.918 Z" fill="#000000" fill-rule="nonzero" fill-opacity="1" /><path clip-path="url(#clip170)" d="M177.176 200.974 L182.061 200.974 L182.061 206.854 L177.176 206.854 L177.176 200.974 Z" fill="#000000" fill-rule="nonzero" fill-opacity="1" /><path clip-path="url(#clip170)" d="M191.065 172.294 L213.287 172.294 L213.287 174.284 L200.741 206.854 L195.857 206.854 L207.662 176.229 L191.065 176.229 L191.065 172.294 Z" fill="#000000" fill-rule="nonzero" fill-opacity="1" /><path clip-path="url(#clip170)" d="M222.454 172.294 L240.81 172.294 L240.81 176.229 L226.736 176.229 L226.736 184.701 Q227.755 184.354 228.773 184.192 Q229.792 184.006 230.81 184.006 Q236.597 184.006 239.977 187.178 Q243.357 190.349 243.357 195.766 Q243.357 201.344 239.884 204.446 Q236.412 207.525 230.093 207.525 Q227.917 207.525 225.648 207.154 Q223.403 206.784 220.996 206.043 L220.996 201.344 Q223.079 202.479 225.301 203.034 Q227.523 203.59 230 203.59 Q234.005 203.59 236.343 201.483 Q238.681 199.377 238.681 195.766 Q238.681 192.155 236.343 190.048 Q234.005 187.942 230 187.942 Q228.125 187.942 226.25 188.358 Q224.398 188.775 222.454 189.655 L222.454 172.294 Z" fill="#000000" fill-rule="nonzero" fill-opacity="1" /><path clip-path="url(#clip170)" d="M16.4842 1016.18 L16.4842 1009.75 L58.5933 1009.75 L58.5933 986.61 L64.0042 986.61 L64.0042 1016.18 L16.4842 1016.18 Z" fill="#000000" fill-rule="nonzero" fill-opacity="1" /><path clip-path="url(#clip170)" d="M44.7161 950.771 L47.5806 950.771 L47.5806 977.698 Q53.6281 977.316 56.8109 974.069 Q59.9619 970.791 59.9619 964.966 Q59.9619 961.592 59.1344 958.441 Q58.3069 955.259 56.6518 952.139 L62.1899 952.139 Q63.5267 955.29 64.227 958.601 Q64.9272 961.911 64.9272 965.316 Q64.9272 973.846 59.9619 978.843 Q54.9967 983.809 46.5303 983.809 Q37.7774 983.809 32.6531 979.098 Q27.4968 974.356 27.4968 966.335 Q27.4968 959.142 32.1438 954.972 Q36.7589 950.771 44.7161 950.771 M42.9973 956.627 Q38.1912 956.691 35.3266 959.333 Q32.4621 961.943 32.4621 966.271 Q32.4621 971.173 35.2312 974.133 Q38.0002 977.061 43.0292 977.507 L42.9973 956.627 Z" fill="#000000" fill-rule="nonzero" fill-opacity="1" /><path clip-path="url(#clip170)" d="M46.0847 924.958 Q46.0847 932.056 47.7079 934.793 Q49.3312 937.53 53.2461 937.53 Q56.3653 937.53 58.2114 935.493 Q60.0256 933.424 60.0256 929.891 Q60.0256 925.021 56.5881 922.093 Q53.1188 919.133 47.3897 919.133 L46.0847 919.133 L46.0847 924.958 M43.6657 913.277 L64.0042 913.277 L64.0042 919.133 L58.5933 919.133 Q61.8398 921.138 63.3994 924.13 Q64.9272 927.122 64.9272 931.451 Q64.9272 936.925 61.8716 940.172 Q58.7843 943.386 53.6281 943.386 Q47.6125 943.386 44.5569 939.376 Q41.5014 935.334 41.5014 927.345 L41.5014 919.133 L40.9285 919.133 Q36.8862 919.133 34.6901 921.807 Q32.4621 924.449 32.4621 929.255 Q32.4621 932.31 33.1941 935.207 Q33.9262 938.103 35.3903 940.777 L29.9795 940.777 Q28.7381 937.562 28.1334 934.538 Q27.4968 931.514 27.4968 928.65 Q27.4968 920.916 31.5072 917.096 Q35.5176 913.277 43.6657 913.277 Z" fill="#000000" fill-rule="nonzero" fill-opacity="1" /><path clip-path="url(#clip170)" d="M14.479 883.167 L19.3487 883.167 L19.3487 888.769 Q19.3487 891.92 20.6219 893.161 Q21.895 894.371 25.2052 894.371 L28.3562 894.371 L28.3562 884.727 L32.9077 884.727 L32.9077 894.371 L64.0042 894.371 L64.0042 900.259 L32.9077 900.259 L32.9077 905.861 L28.3562 905.861 L28.3562 900.259 L25.8736 900.259 Q19.9216 900.259 17.2162 897.49 Q14.479 894.721 14.479 888.705 L14.479 883.167 Z" fill="#000000" fill-rule="nonzero" fill-opacity="1" /><path clip-path="url(#clip170)" d="M16.4842 863.879 L16.4842 823.679 L21.895 823.679 L21.895 840.548 L64.0042 840.548 L64.0042 847.01 L21.895 847.01 L21.895 863.879 L16.4842 863.879 Z" fill="#000000" fill-rule="nonzero" fill-opacity="1" /><path clip-path="url(#clip170)" d="M44.7161 798.312 L47.5806 798.312 L47.5806 825.239 Q53.6281 824.857 56.8109 821.611 Q59.9619 818.332 59.9619 812.508 Q59.9619 809.134 59.1344 805.983 Q58.3069 802.8 56.6518 799.681 L62.1899 799.681 Q63.5267 802.832 64.227 806.142 Q64.9272 809.452 64.9272 812.858 Q64.9272 821.388 59.9619 826.385 Q54.9967 831.35 46.5303 831.35 Q37.7774 831.35 32.6531 826.639 Q27.4968 821.897 27.4968 813.876 Q27.4968 806.683 32.1438 802.513 Q36.7589 798.312 44.7161 798.312 M42.9973 804.168 Q38.1912 804.232 35.3266 806.874 Q32.4621 809.484 32.4621 813.813 Q32.4621 818.714 35.2312 821.674 Q38.0002 824.602 43.0292 825.048 L42.9973 804.168 Z" fill="#000000" fill-rule="nonzero" fill-opacity="1" /><path clip-path="url(#clip170)" d="M35.1993 760.945 Q31.2526 758.749 29.3747 755.694 Q27.4968 752.638 27.4968 748.5 Q27.4968 742.93 31.4117 739.907 Q35.2948 736.883 42.4881 736.883 L64.0042 736.883 L64.0042 742.771 L42.679 742.771 Q37.5546 742.771 35.072 744.585 Q32.5894 746.4 32.5894 750.124 Q32.5894 754.675 35.6131 757.317 Q38.6368 759.959 43.8567 759.959 L64.0042 759.959 L64.0042 765.847 L42.679 765.847 Q37.5228 765.847 35.072 767.661 Q32.5894 769.475 32.5894 773.263 Q32.5894 777.751 35.6449 780.393 Q38.6686 783.034 43.8567 783.034 L64.0042 783.034 L64.0042 788.923 L28.3562 788.923 L28.3562 783.034 L33.8944 783.034 Q30.616 781.029 29.0564 778.228 Q27.4968 775.427 27.4968 771.576 Q27.4968 767.693 29.4702 764.988 Q31.4436 762.25 35.1993 760.945 Z" fill="#000000" fill-rule="nonzero" fill-opacity="1" /><path clip-path="url(#clip170)" d="M58.657 719.536 L77.5631 719.536 L77.5631 725.425 L28.3562 725.425 L28.3562 719.536 L33.7671 719.536 Q30.5842 717.69 29.0564 714.889 Q27.4968 712.057 27.4968 708.142 Q27.4968 701.649 32.6531 697.607 Q37.8093 693.533 46.212 693.533 Q54.6147 693.533 59.771 697.607 Q64.9272 701.649 64.9272 708.142 Q64.9272 712.057 63.3994 714.889 Q61.8398 717.69 58.657 719.536 M46.212 699.612 Q39.7508 699.612 36.0905 702.285 Q32.3984 704.927 32.3984 709.574 Q32.3984 714.221 36.0905 716.895 Q39.7508 719.536 46.212 719.536 Q52.6732 719.536 56.3653 716.895 Q60.0256 714.221 60.0256 709.574 Q60.0256 704.927 56.3653 702.285 Q52.6732 699.612 46.212 699.612 Z" fill="#000000" fill-rule="nonzero" fill-opacity="1" /><path clip-path="url(#clip170)" d="M44.7161 653.333 L47.5806 653.333 L47.5806 680.26 Q53.6281 679.878 56.8109 676.632 Q59.9619 673.353 59.9619 667.529 Q59.9619 664.155 59.1344 661.004 Q58.3069 657.821 56.6518 654.702 L62.1899 654.702 Q63.5267 657.853 64.227 661.163 Q64.9272 664.473 64.9272 667.879 Q64.9272 676.409 59.9619 681.406 Q54.9967 686.371 46.5303 686.371 Q37.7774 686.371 32.6531 681.66 Q27.4968 676.918 27.4968 668.897 Q27.4968 661.704 32.1438 657.534 Q36.7589 653.333 44.7161 653.333 M42.9973 659.19 Q38.1912 659.253 35.3266 661.895 Q32.4621 664.505 32.4621 668.834 Q32.4621 673.735 35.2312 676.695 Q38.0002 679.623 43.0292 680.069 L42.9973 659.19 Z" fill="#000000" fill-rule="nonzero" fill-opacity="1" /><path clip-path="url(#clip170)" d="M33.8307 623.064 Q33.2578 624.051 33.0032 625.228 Q32.7167 626.374 32.7167 627.775 Q32.7167 632.74 35.9632 635.414 Q39.1779 638.055 45.2253 638.055 L64.0042 638.055 L64.0042 643.944 L28.3562 643.944 L28.3562 638.055 L33.8944 638.055 Q30.6479 636.209 29.0883 633.249 Q27.4968 630.289 27.4968 626.056 Q27.4968 625.451 27.5923 624.719 Q27.656 623.987 27.8151 623.096 L33.8307 623.064 Z" fill="#000000" fill-rule="nonzero" fill-opacity="1" /><path clip-path="url(#clip170)" d="M46.0847 600.721 Q46.0847 607.818 47.7079 610.556 Q49.3312 613.293 53.2461 613.293 Q56.3653 613.293 58.2114 611.256 Q60.0256 609.187 60.0256 605.654 Q60.0256 600.784 56.5881 597.856 Q53.1188 594.896 47.3897 594.896 L46.0847 594.896 L46.0847 600.721 M43.6657 589.039 L64.0042 589.039 L64.0042 594.896 L58.5933 594.896 Q61.8398 596.901 63.3994 599.893 Q64.9272 602.885 64.9272 607.214 Q64.9272 612.688 61.8716 615.935 Q58.7843 619.149 53.6281 619.149 Q47.6125 619.149 44.5569 615.139 Q41.5014 611.097 41.5014 603.108 L41.5014 594.896 L40.9285 594.896 Q36.8862 594.896 34.6901 597.569 Q32.4621 600.211 32.4621 605.017 Q32.4621 608.073 33.1941 610.969 Q33.9262 613.866 35.3903 616.539 L29.9795 616.539 Q28.7381 613.325 28.1334 610.301 Q27.4968 607.277 27.4968 604.413 Q27.4968 596.678 31.5072 592.859 Q35.5176 589.039 43.6657 589.039 Z" fill="#000000" fill-rule="nonzero" fill-opacity="1" /><path clip-path="url(#clip170)" d="M18.2347 571.184 L28.3562 571.184 L28.3562 559.121 L32.9077 559.121 L32.9077 571.184 L52.2594 571.184 Q56.6199 571.184 57.8613 570.006 Q59.1026 568.796 59.1026 565.136 L59.1026 559.121 L64.0042 559.121 L64.0042 565.136 Q64.0042 571.916 61.4897 574.494 Q58.9434 577.072 52.2594 577.072 L32.9077 577.072 L32.9077 581.369 L28.3562 581.369 L28.3562 577.072 L18.2347 577.072 L18.2347 571.184 Z" fill="#000000" fill-rule="nonzero" fill-opacity="1" /><path clip-path="url(#clip170)" d="M49.9359 552.023 L28.3562 552.023 L28.3562 546.166 L49.7131 546.166 Q54.7739 546.166 57.3202 544.193 Q59.8346 542.22 59.8346 538.273 Q59.8346 533.53 56.8109 530.793 Q53.7872 528.024 48.5673 528.024 L28.3562 528.024 L28.3562 522.168 L64.0042 522.168 L64.0042 528.024 L58.5296 528.024 Q61.7762 530.157 63.3676 532.989 Q64.9272 535.79 64.9272 539.514 Q64.9272 545.657 61.1078 548.84 Q57.2883 552.023 49.9359 552.023 M27.4968 537.286 L27.4968 537.286 Z" fill="#000000" fill-rule="nonzero" fill-opacity="1" /><path clip-path="url(#clip170)" d="M33.8307 489.448 Q33.2578 490.435 33.0032 491.612 Q32.7167 492.758 32.7167 494.159 Q32.7167 499.124 35.9632 501.797 Q39.1779 504.439 45.2253 504.439 L64.0042 504.439 L64.0042 510.327 L28.3562 510.327 L28.3562 504.439 L33.8944 504.439 Q30.6479 502.593 29.0883 499.633 Q27.4968 496.673 27.4968 492.44 Q27.4968 491.835 27.5923 491.103 Q27.656 490.371 27.8151 489.48 L33.8307 489.448 Z" fill="#000000" fill-rule="nonzero" fill-opacity="1" /><path clip-path="url(#clip170)" d="M44.7161 454.246 L47.5806 454.246 L47.5806 481.173 Q53.6281 480.791 56.8109 477.544 Q59.9619 474.266 59.9619 468.441 Q59.9619 465.067 59.1344 461.916 Q58.3069 458.733 56.6518 455.614 L62.1899 455.614 Q63.5267 458.765 64.227 462.075 Q64.9272 465.386 64.9272 468.791 Q64.9272 477.321 59.9619 482.318 Q54.9967 487.284 46.5303 487.284 Q37.7774 487.284 32.6531 482.573 Q27.4968 477.831 27.4968 469.81 Q27.4968 462.616 32.1438 458.447 Q36.7589 454.246 44.7161 454.246 M42.9973 460.102 Q38.1912 460.166 35.3266 462.807 Q32.4621 465.417 32.4621 469.746 Q32.4621 474.648 35.2312 477.608 Q38.0002 480.536 43.0292 480.982 L42.9973 460.102 Z" fill="#000000" fill-rule="nonzero" fill-opacity="1" /><path clip-path="url(#clip172)" d="M338.038 1384.24 L1316.06 171.468 L2294.07 1195.71 L2294.07 1107.21 L1316.06 86.1857 L338.038 1286.1  Z" fill="#009af9" fill-rule="evenodd" fill-opacity="0.5"/>
<polyline clip-path="url(#clip172)" style="stroke:#009af9; stroke-linecap:round; stroke-linejoin:round; stroke-width:4; stroke-opacity:0.2; fill:none" points="338.038,1335.27 1316.06,129.133 2294.07,1151.73 "/>
<path clip-path="url(#clip170)" d="M1479.48 196.789 L2283.64 196.789 L2283.64 93.1086 L1479.48 93.1086  Z" fill="#ffffff" fill-rule="evenodd" fill-opacity="1"/>
<polyline clip-path="url(#clip170)" style="stroke:#000000; stroke-linecap:round; stroke-linejoin:round; stroke-width:4; stroke-opacity:1; fill:none" points="1479.48,196.789 2283.64,196.789 2283.64,93.1086 1479.48,93.1086 1479.48,196.789 "/>
<polyline clip-path="url(#clip170)" style="stroke:#009af9; stroke-linecap:round; stroke-linejoin:round; stroke-width:4; stroke-opacity:0.2; fill:none" points="1502.51,144.949 1640.74,144.949 "/>
<path clip-path="url(#clip170)" d="M1663.78 127.669 L1670.75 127.669 L1679.57 151.187 L1688.43 127.669 L1695.4 127.669 L1695.4 162.229 L1690.84 162.229 L1690.84 131.882 L1681.93 155.585 L1677.23 155.585 L1668.32 131.882 L1668.32 162.229 L1663.78 162.229 L1663.78 127.669 Z" fill="#000000" fill-rule="nonzero" fill-opacity="1" /><path clip-path="url(#clip170)" d="M1726.67 148.201 L1726.67 150.284 L1707.09 150.284 Q1707.37 154.682 1709.73 156.997 Q1712.11 159.289 1716.35 159.289 Q1718.8 159.289 1721.09 158.687 Q1723.41 158.085 1725.68 156.881 L1725.68 160.909 Q1723.39 161.881 1720.98 162.391 Q1718.57 162.9 1716.09 162.9 Q1709.89 162.9 1706.26 159.289 Q1702.64 155.678 1702.64 149.52 Q1702.64 143.155 1706.07 139.428 Q1709.52 135.678 1715.35 135.678 Q1720.58 135.678 1723.62 139.057 Q1726.67 142.414 1726.67 148.201 M1722.41 146.951 Q1722.37 143.456 1720.45 141.372 Q1718.55 139.289 1715.4 139.289 Q1711.83 139.289 1709.68 141.303 Q1707.55 143.317 1707.23 146.974 L1722.41 146.951 Z" fill="#000000" fill-rule="nonzero" fill-opacity="1" /><path clip-path="url(#clip170)" d="M1745.45 149.196 Q1740.28 149.196 1738.29 150.377 Q1736.3 151.557 1736.3 154.405 Q1736.3 156.673 1737.78 158.016 Q1739.29 159.335 1741.86 159.335 Q1745.4 159.335 1747.53 156.835 Q1749.68 154.312 1749.68 150.145 L1749.68 149.196 L1745.45 149.196 M1753.94 147.437 L1753.94 162.229 L1749.68 162.229 L1749.68 158.293 Q1748.22 160.655 1746.05 161.789 Q1743.87 162.9 1740.72 162.9 Q1736.74 162.9 1734.38 160.678 Q1732.04 158.432 1732.04 154.682 Q1732.04 150.307 1734.96 148.085 Q1737.9 145.863 1743.71 145.863 L1749.68 145.863 L1749.68 145.446 Q1749.68 142.507 1747.74 140.909 Q1745.82 139.289 1742.32 139.289 Q1740.1 139.289 1737.99 139.821 Q1735.89 140.354 1733.94 141.419 L1733.94 137.483 Q1736.28 136.581 1738.48 136.141 Q1740.68 135.678 1742.76 135.678 Q1748.39 135.678 1751.16 138.594 Q1753.94 141.511 1753.94 147.437 Z" fill="#000000" fill-rule="nonzero" fill-opacity="1" /><path clip-path="url(#clip170)" d="M1784.26 146.581 L1784.26 162.229 L1780.01 162.229 L1780.01 146.719 Q1780.01 143.039 1778.57 141.21 Q1777.14 139.382 1774.26 139.382 Q1770.82 139.382 1768.83 141.581 Q1766.83 143.78 1766.83 147.576 L1766.83 162.229 L1762.55 162.229 L1762.55 136.303 L1766.83 136.303 L1766.83 140.331 Q1768.36 137.993 1770.42 136.835 Q1772.51 135.678 1775.21 135.678 Q1779.68 135.678 1781.97 138.456 Q1784.26 141.21 1784.26 146.581 Z" fill="#000000" fill-rule="nonzero" fill-opacity="1" /><path clip-path="url(#clip170)" d="M1805.35 136.303 L1809.61 136.303 L1814.94 156.534 L1820.24 136.303 L1825.26 136.303 L1830.58 156.534 L1835.88 136.303 L1840.14 136.303 L1833.36 162.229 L1828.34 162.229 L1822.76 140.979 L1817.16 162.229 L1812.14 162.229 L1805.35 136.303 Z" fill="#000000" fill-rule="nonzero" fill-opacity="1" /><path clip-path="url(#clip170)" d="M1846.6 136.303 L1850.86 136.303 L1850.86 162.229 L1846.6 162.229 L1846.6 136.303 M1846.6 126.21 L1850.86 126.21 L1850.86 131.604 L1846.6 131.604 L1846.6 126.21 Z" fill="#000000" fill-rule="nonzero" fill-opacity="1" /><path clip-path="url(#clip170)" d="M1863.99 128.942 L1863.99 136.303 L1872.76 136.303 L1872.76 139.613 L1863.99 139.613 L1863.99 153.687 Q1863.99 156.858 1864.84 157.761 Q1865.72 158.664 1868.38 158.664 L1872.76 158.664 L1872.76 162.229 L1868.38 162.229 Q1863.45 162.229 1861.58 160.4 Q1859.7 158.548 1859.7 153.687 L1859.7 139.613 L1856.58 139.613 L1856.58 136.303 L1859.7 136.303 L1859.7 128.942 L1863.99 128.942 Z" fill="#000000" fill-rule="nonzero" fill-opacity="1" /><path clip-path="url(#clip170)" d="M1899.91 146.581 L1899.91 162.229 L1895.65 162.229 L1895.65 146.719 Q1895.65 143.039 1894.22 141.21 Q1892.78 139.382 1889.91 139.382 Q1886.46 139.382 1884.47 141.581 Q1882.48 143.78 1882.48 147.576 L1882.48 162.229 L1878.2 162.229 L1878.2 126.21 L1882.48 126.21 L1882.48 140.331 Q1884.01 137.993 1886.07 136.835 Q1888.15 135.678 1890.86 135.678 Q1895.33 135.678 1897.62 138.456 Q1899.91 141.21 1899.91 146.581 Z" fill="#000000" fill-rule="nonzero" fill-opacity="1" /><path clip-path="url(#clip170)" d="M1934.08 130.747 Q1930.47 130.747 1928.64 134.312 Q1926.83 137.854 1926.83 144.983 Q1926.83 152.09 1928.64 155.655 Q1930.47 159.196 1934.08 159.196 Q1937.71 159.196 1939.52 155.655 Q1941.35 152.09 1941.35 144.983 Q1941.35 137.854 1939.52 134.312 Q1937.71 130.747 1934.08 130.747 M1934.08 127.044 Q1939.89 127.044 1942.94 131.65 Q1946.02 136.233 1946.02 144.983 Q1946.02 153.71 1942.94 158.317 Q1939.89 162.9 1934.08 162.9 Q1928.27 162.9 1925.19 158.317 Q1922.13 153.71 1922.13 144.983 Q1922.13 136.233 1925.19 131.65 Q1928.27 127.044 1934.08 127.044 Z" fill="#000000" fill-rule="nonzero" fill-opacity="1" /><path clip-path="url(#clip170)" d="M1954.24 156.349 L1959.12 156.349 L1959.12 162.229 L1954.24 162.229 L1954.24 156.349 Z" fill="#000000" fill-rule="nonzero" fill-opacity="1" /><path clip-path="url(#clip170)" d="M1979.31 130.747 Q1975.7 130.747 1973.87 134.312 Q1972.06 137.854 1972.06 144.983 Q1972.06 152.09 1973.87 155.655 Q1975.7 159.196 1979.31 159.196 Q1982.94 159.196 1984.75 155.655 Q1986.58 152.09 1986.58 144.983 Q1986.58 137.854 1984.75 134.312 Q1982.94 130.747 1979.31 130.747 M1979.31 127.044 Q1985.12 127.044 1988.18 131.65 Q1991.25 136.233 1991.25 144.983 Q1991.25 153.71 1988.18 158.317 Q1985.12 162.9 1979.31 162.9 Q1973.5 162.9 1970.42 158.317 Q1967.37 153.71 1967.37 144.983 Q1967.37 136.233 1970.42 131.65 Q1973.5 127.044 1979.31 127.044 Z" fill="#000000" fill-rule="nonzero" fill-opacity="1" /><path clip-path="url(#clip170)" d="M2003.5 158.293 L2019.82 158.293 L2019.82 162.229 L1997.87 162.229 L1997.87 158.293 Q2000.54 155.539 2005.12 150.909 Q2009.73 146.256 2010.91 144.914 Q2013.15 142.391 2014.03 140.655 Q2014.93 138.895 2014.93 137.206 Q2014.93 134.451 2012.99 132.715 Q2011.07 130.979 2007.97 130.979 Q2005.77 130.979 2003.31 131.743 Q2000.88 132.507 1998.11 134.057 L1998.11 129.335 Q2000.93 128.201 2003.38 127.622 Q2005.84 127.044 2007.87 127.044 Q2013.25 127.044 2016.44 129.729 Q2019.63 132.414 2019.63 136.905 Q2019.63 139.034 2018.82 140.956 Q2018.04 142.854 2015.93 145.446 Q2015.35 146.118 2012.25 149.335 Q2009.15 152.53 2003.5 158.293 Z" fill="#000000" fill-rule="nonzero" fill-opacity="1" /><path clip-path="url(#clip170)" d="M2029.68 127.669 L2048.04 127.669 L2048.04 131.604 L2033.96 131.604 L2033.96 140.076 Q2034.98 139.729 2036 139.567 Q2037.02 139.382 2038.04 139.382 Q2043.82 139.382 2047.2 142.553 Q2050.58 145.724 2050.58 151.141 Q2050.58 156.719 2047.11 159.821 Q2043.64 162.9 2037.32 162.9 Q2035.14 162.9 2032.87 162.53 Q2030.63 162.159 2028.22 161.418 L2028.22 156.719 Q2030.31 157.854 2032.53 158.409 Q2034.75 158.965 2037.23 158.965 Q2041.23 158.965 2043.57 156.858 Q2045.91 154.752 2045.91 151.141 Q2045.91 147.53 2043.57 145.423 Q2041.23 143.317 2037.23 143.317 Q2035.35 143.317 2033.48 143.733 Q2031.62 144.15 2029.68 145.03 L2029.68 127.669 Z" fill="#000000" fill-rule="nonzero" fill-opacity="1" /><path clip-path="url(#clip170)" d="M2076.81 149.289 Q2076.81 153.988 2078.73 156.673 Q2080.68 159.335 2084.05 159.335 Q2087.43 159.335 2089.38 156.673 Q2091.32 153.988 2091.32 149.289 Q2091.32 144.59 2089.38 141.928 Q2087.43 139.243 2084.05 139.243 Q2080.68 139.243 2078.73 141.928 Q2076.81 144.59 2076.81 149.289 M2091.32 158.34 Q2089.98 160.655 2087.92 161.789 Q2085.88 162.9 2083.01 162.9 Q2078.31 162.9 2075.35 159.15 Q2072.41 155.4 2072.41 149.289 Q2072.41 143.178 2075.35 139.428 Q2078.31 135.678 2083.01 135.678 Q2085.88 135.678 2087.92 136.812 Q2089.98 137.923 2091.32 140.238 L2091.32 136.303 L2095.58 136.303 L2095.58 172.09 L2091.32 172.09 L2091.32 158.34 Z" fill="#000000" fill-rule="nonzero" fill-opacity="1" /><path clip-path="url(#clip170)" d="M2103.92 151.997 L2103.92 136.303 L2108.18 136.303 L2108.18 151.835 Q2108.18 155.516 2109.61 157.368 Q2111.05 159.196 2113.92 159.196 Q2117.36 159.196 2119.36 156.997 Q2121.37 154.798 2121.37 151.002 L2121.37 136.303 L2125.63 136.303 L2125.63 162.229 L2121.37 162.229 L2121.37 158.247 Q2119.82 160.608 2117.76 161.766 Q2115.72 162.9 2113.01 162.9 Q2108.55 162.9 2106.23 160.122 Q2103.92 157.344 2103.92 151.997 M2114.63 135.678 L2114.63 135.678 Z" fill="#000000" fill-rule="nonzero" fill-opacity="1" /><path clip-path="url(#clip170)" d="M2146.18 149.196 Q2141.02 149.196 2139.03 150.377 Q2137.04 151.557 2137.04 154.405 Q2137.04 156.673 2138.52 158.016 Q2140.03 159.335 2142.6 159.335 Q2146.14 159.335 2148.27 156.835 Q2150.42 154.312 2150.42 150.145 L2150.42 149.196 L2146.18 149.196 M2154.68 147.437 L2154.68 162.229 L2150.42 162.229 L2150.42 158.293 Q2148.96 160.655 2146.79 161.789 Q2144.61 162.9 2141.46 162.9 Q2137.48 162.9 2135.12 160.678 Q2132.78 158.432 2132.78 154.682 Q2132.78 150.307 2135.7 148.085 Q2138.64 145.863 2144.45 145.863 L2150.42 145.863 L2150.42 145.446 Q2150.42 142.507 2148.48 140.909 Q2146.55 139.289 2143.06 139.289 Q2140.84 139.289 2138.73 139.821 Q2136.62 140.354 2134.68 141.419 L2134.68 137.483 Q2137.02 136.581 2139.22 136.141 Q2141.42 135.678 2143.5 135.678 Q2149.12 135.678 2151.9 138.594 Q2154.68 141.511 2154.68 147.437 Z" fill="#000000" fill-rule="nonzero" fill-opacity="1" /><path clip-path="url(#clip170)" d="M2185 146.581 L2185 162.229 L2180.74 162.229 L2180.74 146.719 Q2180.74 143.039 2179.31 141.21 Q2177.87 139.382 2175 139.382 Q2171.55 139.382 2169.56 141.581 Q2167.57 143.78 2167.57 147.576 L2167.57 162.229 L2163.29 162.229 L2163.29 136.303 L2167.57 136.303 L2167.57 140.331 Q2169.1 137.993 2171.16 136.835 Q2173.24 135.678 2175.95 135.678 Q2180.42 135.678 2182.71 138.456 Q2185 141.21 2185 146.581 Z" fill="#000000" fill-rule="nonzero" fill-opacity="1" /><path clip-path="url(#clip170)" d="M2197.71 128.942 L2197.71 136.303 L2206.48 136.303 L2206.48 139.613 L2197.71 139.613 L2197.71 153.687 Q2197.71 156.858 2198.57 157.761 Q2199.45 158.664 2202.11 158.664 L2206.48 158.664 L2206.48 162.229 L2202.11 162.229 Q2197.18 162.229 2195.3 160.4 Q2193.43 158.548 2193.43 153.687 L2193.43 139.613 L2190.3 139.613 L2190.3 136.303 L2193.43 136.303 L2193.43 128.942 L2197.71 128.942 Z" fill="#000000" fill-rule="nonzero" fill-opacity="1" /><path clip-path="url(#clip170)" d="M2212.09 136.303 L2216.35 136.303 L2216.35 162.229 L2212.09 162.229 L2212.09 136.303 M2212.09 126.21 L2216.35 126.21 L2216.35 131.604 L2212.09 131.604 L2212.09 126.21 Z" fill="#000000" fill-rule="nonzero" fill-opacity="1" /><path clip-path="url(#clip170)" d="M2225.26 126.21 L2229.52 126.21 L2229.52 162.229 L2225.26 162.229 L2225.26 126.21 Z" fill="#000000" fill-rule="nonzero" fill-opacity="1" /><path clip-path="url(#clip170)" d="M2260.6 148.201 L2260.6 150.284 L2241.02 150.284 Q2241.3 154.682 2243.66 156.997 Q2246.04 159.289 2250.28 159.289 Q2252.73 159.289 2255.03 158.687 Q2257.34 158.085 2259.61 156.881 L2259.61 160.909 Q2257.32 161.881 2254.91 162.391 Q2252.5 162.9 2250.03 162.9 Q2243.82 162.9 2240.19 159.289 Q2236.58 155.678 2236.58 149.52 Q2236.58 143.155 2240 139.428 Q2243.45 135.678 2249.29 135.678 Q2254.52 135.678 2257.55 139.057 Q2260.6 142.414 2260.6 148.201 M2256.35 146.951 Q2256.3 143.456 2254.38 141.372 Q2252.48 139.289 2249.33 139.289 Q2245.77 139.289 2243.61 141.303 Q2241.48 143.317 2241.16 146.974 L2256.35 146.951 Z" fill="#000000" fill-rule="nonzero" fill-opacity="1" /></svg>
