<?xml version="1.0" encoding="utf-8"?>
<svg xmlns="http://www.w3.org/2000/svg" xmlns:xlink="http://www.w3.org/1999/xlink" width="600" height="400" viewBox="0 0 2400 1600">
<defs>
  <clipPath id="clip950">
    <rect x="0" y="0" width="2400" height="1600"/>
  </clipPath>
</defs>
<path clip-path="url(#clip950)" d="
M0 1600 L2400 1600 L2400 0 L0 0  Z
  " fill="#ffffff" fill-rule="evenodd" fill-opacity="1"/>
<defs>
  <clipPath id="clip951">
    <rect x="480" y="0" width="1681" height="1600"/>
  </clipPath>
</defs>
<path clip-path="url(#clip950)" d="
M102.74 1505.26 L2352.76 1505.26 L2352.76 47.2441 L102.74 47.2441  Z
  " fill="#ffffff" fill-rule="evenodd" fill-opacity="1"/>
<defs>
  <clipPath id="clip952">
    <rect x="102" y="47" width="2251" height="1459"/>
  </clipPath>
</defs>
<polyline clip-path="url(#clip952)" style="stroke:#000000; stroke-width:2; stroke-opacity:0.1; fill:none" points="
  166.42,1505.26 166.42,47.2441 
  "/>
<polyline clip-path="url(#clip952)" style="stroke:#000000; stroke-width:2; stroke-opacity:0.1; fill:none" points="
  697.084,1505.26 697.084,47.2441 
  "/>
<polyline clip-path="url(#clip952)" style="stroke:#000000; stroke-width:2; stroke-opacity:0.1; fill:none" points="
  1227.75,1505.26 1227.75,47.2441 
  "/>
<polyline clip-path="url(#clip952)" style="stroke:#000000; stroke-width:2; stroke-opacity:0.1; fill:none" points="
  1758.41,1505.26 1758.41,47.2441 
  "/>
<polyline clip-path="url(#clip952)" style="stroke:#000000; stroke-width:2; stroke-opacity:0.1; fill:none" points="
  2289.08,1505.26 2289.08,47.2441 
  "/>
<polyline clip-path="url(#clip950)" style="stroke:#000000; stroke-width:4; stroke-opacity:1; fill:none" points="
  102.74,1505.26 2352.76,1505.26 
  "/>
<polyline clip-path="url(#clip950)" style="stroke:#000000; stroke-width:4; stroke-opacity:1; fill:none" points="
  166.42,1505.26 166.42,1487.76 
  "/>
<polyline clip-path="url(#clip950)" style="stroke:#000000; stroke-width:4; stroke-opacity:1; fill:none" points="
  697.084,1505.26 697.084,1487.76 
  "/>
<polyline clip-path="url(#clip950)" style="stroke:#000000; stroke-width:4; stroke-opacity:1; fill:none" points="
  1227.75,1505.26 1227.75,1487.76 
  "/>
<polyline clip-path="url(#clip950)" style="stroke:#000000; stroke-width:4; stroke-opacity:1; fill:none" points="
  1758.41,1505.26 1758.41,1487.76 
  "/>
<polyline clip-path="url(#clip950)" style="stroke:#000000; stroke-width:4; stroke-opacity:1; fill:none" points="
  2289.08,1505.26 2289.08,1487.76 
  "/>
<path clip-path="url(#clip950)" d="M 0 0 M166.42 1534.45 Q162.809 1534.45 160.98 1538.02 Q159.175 1541.56 159.175 1548.69 Q159.175 1555.79 160.98 1559.36 Q162.809 1562.9 166.42 1562.9 Q170.054 1562.9 171.86 1559.36 Q173.688 1555.79 173.688 1548.69 Q173.688 1541.56 171.86 1538.02 Q170.054 1534.45 166.42 1534.45 M166.42 1530.75 Q172.23 1530.75 175.286 1535.35 Q178.364 1539.94 178.364 1548.69 Q178.364 1557.41 175.286 1562.02 Q172.23 1566.6 166.42 1566.6 Q160.61 1566.6 157.531 1562.02 Q154.475 1557.41 154.475 1548.69 Q154.475 1539.94 157.531 1535.35 Q160.61 1530.75 166.42 1530.75 Z" fill="#000000" fill-rule="evenodd" fill-opacity="1" /><path clip-path="url(#clip950)" d="M 0 0 M660.348 1531.37 L678.704 1531.37 L678.704 1535.31 L664.63 1535.31 L664.63 1543.78 Q665.649 1543.43 666.667 1543.27 Q667.686 1543.08 668.704 1543.08 Q674.491 1543.08 677.871 1546.26 Q681.251 1549.43 681.251 1554.84 Q681.251 1560.42 677.778 1563.52 Q674.306 1566.6 667.987 1566.6 Q665.811 1566.6 663.542 1566.23 Q661.297 1565.86 658.89 1565.12 L658.89 1560.42 Q660.973 1561.56 663.195 1562.11 Q665.417 1562.67 667.894 1562.67 Q671.899 1562.67 674.237 1560.56 Q676.575 1558.46 676.575 1554.84 Q676.575 1551.23 674.237 1549.13 Q671.899 1547.02 667.894 1547.02 Q666.019 1547.02 664.144 1547.44 Q662.292 1547.85 660.348 1548.73 L660.348 1531.37 Z" fill="#000000" fill-rule="evenodd" fill-opacity="1" /><path clip-path="url(#clip950)" d="M 0 0 M696.32 1534.45 Q692.709 1534.45 690.88 1538.02 Q689.075 1541.56 689.075 1548.69 Q689.075 1555.79 690.88 1559.36 Q692.709 1562.9 696.32 1562.9 Q699.954 1562.9 701.76 1559.36 Q703.589 1555.79 703.589 1548.69 Q703.589 1541.56 701.76 1538.02 Q699.954 1534.45 696.32 1534.45 M696.32 1530.75 Q702.13 1530.75 705.186 1535.35 Q708.264 1539.94 708.264 1548.69 Q708.264 1557.41 705.186 1562.02 Q702.13 1566.6 696.32 1566.6 Q690.51 1566.6 687.431 1562.02 Q684.376 1557.41 684.376 1548.69 Q684.376 1539.94 687.431 1535.35 Q690.51 1530.75 696.32 1530.75 Z" fill="#000000" fill-rule="evenodd" fill-opacity="1" /><path clip-path="url(#clip950)" d="M 0 0 M723.334 1534.45 Q719.723 1534.45 717.894 1538.02 Q716.088 1541.56 716.088 1548.69 Q716.088 1555.79 717.894 1559.36 Q719.723 1562.9 723.334 1562.9 Q726.968 1562.9 728.774 1559.36 Q730.602 1555.79 730.602 1548.69 Q730.602 1541.56 728.774 1538.02 Q726.968 1534.45 723.334 1534.45 M723.334 1530.75 Q729.144 1530.75 732.199 1535.35 Q735.278 1539.94 735.278 1548.69 Q735.278 1557.41 732.199 1562.02 Q729.144 1566.6 723.334 1566.6 Q717.524 1566.6 714.445 1562.02 Q711.389 1557.41 711.389 1548.69 Q711.389 1539.94 714.445 1535.35 Q717.524 1530.75 723.334 1530.75 Z" fill="#000000" fill-rule="evenodd" fill-opacity="1" /><path clip-path="url(#clip950)" d="M 0 0 M1177.61 1562 L1185.25 1562 L1185.25 1535.63 L1176.94 1537.3 L1176.94 1533.04 L1185.2 1531.37 L1189.88 1531.37 L1189.88 1562 L1197.52 1562 L1197.52 1565.93 L1177.61 1565.93 L1177.61 1562 Z" fill="#000000" fill-rule="evenodd" fill-opacity="1" /><path clip-path="url(#clip950)" d="M 0 0 M1212.59 1534.45 Q1208.97 1534.45 1207.15 1538.02 Q1205.34 1541.56 1205.34 1548.69 Q1205.34 1555.79 1207.15 1559.36 Q1208.97 1562.9 1212.59 1562.9 Q1216.22 1562.9 1218.03 1559.36 Q1219.85 1555.79 1219.85 1548.69 Q1219.85 1541.56 1218.03 1538.02 Q1216.22 1534.45 1212.59 1534.45 M1212.59 1530.75 Q1218.4 1530.75 1221.45 1535.35 Q1224.53 1539.94 1224.53 1548.69 Q1224.53 1557.41 1221.45 1562.02 Q1218.4 1566.6 1212.59 1566.6 Q1206.78 1566.6 1203.7 1562.02 Q1200.64 1557.41 1200.64 1548.69 Q1200.64 1539.94 1203.7 1535.35 Q1206.78 1530.75 1212.59 1530.75 Z" fill="#000000" fill-rule="evenodd" fill-opacity="1" /><path clip-path="url(#clip950)" d="M 0 0 M1239.6 1534.45 Q1235.99 1534.45 1234.16 1538.02 Q1232.35 1541.56 1232.35 1548.69 Q1232.35 1555.79 1234.16 1559.36 Q1235.99 1562.9 1239.6 1562.9 Q1243.23 1562.9 1245.04 1559.36 Q1246.87 1555.79 1246.87 1548.69 Q1246.87 1541.56 1245.04 1538.02 Q1243.23 1534.45 1239.6 1534.45 M1239.6 1530.75 Q1245.41 1530.75 1248.47 1535.35 Q1251.54 1539.94 1251.54 1548.69 Q1251.54 1557.41 1248.47 1562.02 Q1245.41 1566.6 1239.6 1566.6 Q1233.79 1566.6 1230.71 1562.02 Q1227.66 1557.41 1227.66 1548.69 Q1227.66 1539.94 1230.71 1535.35 Q1233.79 1530.75 1239.6 1530.75 Z" fill="#000000" fill-rule="evenodd" fill-opacity="1" /><path clip-path="url(#clip950)" d="M 0 0 M1266.61 1534.45 Q1263 1534.45 1261.17 1538.02 Q1259.37 1541.56 1259.37 1548.69 Q1259.37 1555.79 1261.17 1559.36 Q1263 1562.9 1266.61 1562.9 Q1270.25 1562.9 1272.05 1559.36 Q1273.88 1555.79 1273.88 1548.69 Q1273.88 1541.56 1272.05 1538.02 Q1270.25 1534.45 1266.61 1534.45 M1266.61 1530.75 Q1272.42 1530.75 1275.48 1535.35 Q1278.56 1539.94 1278.56 1548.69 Q1278.56 1557.41 1275.48 1562.02 Q1272.42 1566.6 1266.61 1566.6 Q1260.8 1566.6 1257.72 1562.02 Q1254.67 1557.41 1254.67 1548.69 Q1254.67 1539.94 1257.72 1535.35 Q1260.8 1530.75 1266.61 1530.75 Z" fill="#000000" fill-rule="evenodd" fill-opacity="1" /><path clip-path="url(#clip950)" d="M 0 0 M1708.77 1562 L1716.41 1562 L1716.41 1535.63 L1708.1 1537.3 L1708.1 1533.04 L1716.36 1531.37 L1721.04 1531.37 L1721.04 1562 L1728.68 1562 L1728.68 1565.93 L1708.77 1565.93 L1708.77 1562 Z" fill="#000000" fill-rule="evenodd" fill-opacity="1" /><path clip-path="url(#clip950)" d="M 0 0 M1733.79 1531.37 L1752.15 1531.37 L1752.15 1535.31 L1738.08 1535.31 L1738.08 1543.78 Q1739.1 1543.43 1740.11 1543.27 Q1741.13 1543.08 1742.15 1543.08 Q1747.94 1543.08 1751.32 1546.26 Q1754.7 1549.43 1754.7 1554.84 Q1754.7 1560.42 1751.22 1563.52 Q1747.75 1566.6 1741.43 1566.6 Q1739.26 1566.6 1736.99 1566.23 Q1734.74 1565.86 1732.34 1565.12 L1732.34 1560.42 Q1734.42 1561.56 1736.64 1562.11 Q1738.86 1562.67 1741.34 1562.67 Q1745.35 1562.67 1747.68 1560.56 Q1750.02 1558.46 1750.02 1554.84 Q1750.02 1551.23 1747.68 1549.13 Q1745.35 1547.02 1741.34 1547.02 Q1739.47 1547.02 1737.59 1547.44 Q1735.74 1547.85 1733.79 1548.73 L1733.79 1531.37 Z" fill="#000000" fill-rule="evenodd" fill-opacity="1" /><path clip-path="url(#clip950)" d="M 0 0 M1769.77 1534.45 Q1766.16 1534.45 1764.33 1538.02 Q1762.52 1541.56 1762.52 1548.69 Q1762.52 1555.79 1764.33 1559.36 Q1766.16 1562.9 1769.77 1562.9 Q1773.4 1562.9 1775.21 1559.36 Q1777.03 1555.79 1777.03 1548.69 Q1777.03 1541.56 1775.21 1538.02 Q1773.4 1534.45 1769.77 1534.45 M1769.77 1530.75 Q1775.58 1530.75 1778.63 1535.35 Q1781.71 1539.94 1781.71 1548.69 Q1781.71 1557.41 1778.63 1562.02 Q1775.58 1566.6 1769.77 1566.6 Q1763.96 1566.6 1760.88 1562.02 Q1757.82 1557.41 1757.82 1548.69 Q1757.82 1539.94 1760.88 1535.35 Q1763.96 1530.75 1769.77 1530.75 Z" fill="#000000" fill-rule="evenodd" fill-opacity="1" /><path clip-path="url(#clip950)" d="M 0 0 M1796.78 1534.45 Q1793.17 1534.45 1791.34 1538.02 Q1789.53 1541.56 1789.53 1548.69 Q1789.53 1555.79 1791.34 1559.36 Q1793.17 1562.9 1796.78 1562.9 Q1800.41 1562.9 1802.22 1559.36 Q1804.05 1555.79 1804.05 1548.69 Q1804.05 1541.56 1802.22 1538.02 Q1800.41 1534.45 1796.78 1534.45 M1796.78 1530.75 Q1802.59 1530.75 1805.65 1535.35 Q1808.72 1539.94 1808.72 1548.69 Q1808.72 1557.41 1805.65 1562.02 Q1802.59 1566.6 1796.78 1566.6 Q1790.97 1566.6 1787.89 1562.02 Q1784.84 1557.41 1784.84 1548.69 Q1784.84 1539.94 1787.89 1535.35 Q1790.97 1530.75 1796.78 1530.75 Z" fill="#000000" fill-rule="evenodd" fill-opacity="1" /><path clip-path="url(#clip950)" d="M 0 0 M2243.21 1562 L2259.53 1562 L2259.53 1565.93 L2237.58 1565.93 L2237.58 1562 Q2240.25 1559.24 2244.83 1554.61 Q2249.44 1549.96 2250.62 1548.62 Q2252.86 1546.09 2253.74 1544.36 Q2254.64 1542.6 2254.64 1540.91 Q2254.64 1538.15 2252.7 1536.42 Q2250.78 1534.68 2247.68 1534.68 Q2245.48 1534.68 2243.02 1535.45 Q2240.59 1536.21 2237.81 1537.76 L2237.81 1533.04 Q2240.64 1531.9 2243.09 1531.33 Q2245.55 1530.75 2247.58 1530.75 Q2252.95 1530.75 2256.15 1533.43 Q2259.34 1536.12 2259.34 1540.61 Q2259.34 1542.74 2258.53 1544.66 Q2257.75 1546.56 2255.64 1549.15 Q2255.06 1549.82 2251.96 1553.04 Q2248.86 1556.23 2243.21 1562 Z" fill="#000000" fill-rule="evenodd" fill-opacity="1" /><path clip-path="url(#clip950)" d="M 0 0 M2274.6 1534.45 Q2270.99 1534.45 2269.16 1538.02 Q2267.35 1541.56 2267.35 1548.69 Q2267.35 1555.79 2269.16 1559.36 Q2270.99 1562.9 2274.6 1562.9 Q2278.23 1562.9 2280.04 1559.36 Q2281.87 1555.79 2281.87 1548.69 Q2281.87 1541.56 2280.04 1538.02 Q2278.23 1534.45 2274.6 1534.45 M2274.6 1530.75 Q2280.41 1530.75 2283.46 1535.35 Q2286.54 1539.94 2286.54 1548.69 Q2286.54 1557.41 2283.46 1562.02 Q2280.41 1566.6 2274.6 1566.6 Q2268.79 1566.6 2265.71 1562.02 Q2262.65 1557.41 2262.65 1548.69 Q2262.65 1539.94 2265.71 1535.35 Q2268.79 1530.75 2274.6 1530.75 Z" fill="#000000" fill-rule="evenodd" fill-opacity="1" /><path clip-path="url(#clip950)" d="M 0 0 M2301.61 1534.45 Q2298 1534.45 2296.17 1538.02 Q2294.37 1541.56 2294.37 1548.69 Q2294.37 1555.79 2296.17 1559.36 Q2298 1562.9 2301.61 1562.9 Q2305.25 1562.9 2307.05 1559.36 Q2308.88 1555.79 2308.88 1548.69 Q2308.88 1541.56 2307.05 1538.02 Q2305.25 1534.45 2301.61 1534.45 M2301.61 1530.75 Q2307.42 1530.75 2310.48 1535.35 Q2313.56 1539.94 2313.56 1548.69 Q2313.56 1557.41 2310.48 1562.02 Q2307.42 1566.6 2301.61 1566.6 Q2295.8 1566.6 2292.72 1562.02 Q2289.67 1557.41 2289.67 1548.69 Q2289.67 1539.94 2292.72 1535.35 Q2295.8 1530.75 2301.61 1530.75 Z" fill="#000000" fill-rule="evenodd" fill-opacity="1" /><path clip-path="url(#clip950)" d="M 0 0 M2328.62 1534.45 Q2325.01 1534.45 2323.18 1538.02 Q2321.38 1541.56 2321.38 1548.69 Q2321.38 1555.79 2323.18 1559.36 Q2325.01 1562.9 2328.62 1562.9 Q2332.26 1562.9 2334.06 1559.36 Q2335.89 1555.79 2335.89 1548.69 Q2335.89 1541.56 2334.06 1538.02 Q2332.26 1534.45 2328.62 1534.45 M2328.62 1530.75 Q2334.43 1530.75 2337.49 1535.35 Q2340.57 1539.94 2340.57 1548.69 Q2340.57 1557.41 2337.49 1562.02 Q2334.43 1566.6 2328.62 1566.6 Q2322.81 1566.6 2319.74 1562.02 Q2316.68 1557.41 2316.68 1548.69 Q2316.68 1539.94 2319.74 1535.35 Q2322.81 1530.75 2328.62 1530.75 Z" fill="#000000" fill-rule="evenodd" fill-opacity="1" /><path clip-path="url(#clip950)" d="M 0 0 M939.382 1607.89 L939.382 1625.74 L947.466 1625.74 Q951.954 1625.74 954.405 1623.42 Q956.855 1621.1 956.855 1616.8 Q956.855 1612.53 954.405 1610.21 Q951.954 1607.89 947.466 1607.89 L939.382 1607.89 M932.952 1602.6 L947.466 1602.6 Q955.455 1602.6 959.529 1606.23 Q963.635 1609.83 963.635 1616.8 Q963.635 1623.83 959.529 1627.43 Q955.455 1631.03 947.466 1631.03 L939.382 1631.03 L939.382 1650.12 L932.952 1650.12 L932.952 1602.6 Z" fill="#000000" fill-rule="evenodd" fill-opacity="1" /><path clip-path="url(#clip950)" d="M 0 0 M976.462 1607.89 L976.462 1625.74 L984.546 1625.74 Q989.034 1625.74 991.485 1623.42 Q993.936 1621.1 993.936 1616.8 Q993.936 1612.53 991.485 1610.21 Q989.034 1607.89 984.546 1607.89 L976.462 1607.89 M970.032 1602.6 L984.546 1602.6 Q992.535 1602.6 996.609 1606.23 Q1000.72 1609.83 1000.72 1616.8 Q1000.72 1623.83 996.609 1627.43 Q992.535 1631.03 984.546 1631.03 L976.462 1631.03 L976.462 1650.12 L970.032 1650.12 L970.032 1602.6 Z" fill="#000000" fill-rule="evenodd" fill-opacity="1" /><path clip-path="url(#clip950)" d="M 0 0 M1007.11 1602.6 L1034.42 1602.6 L1034.42 1608.01 L1013.54 1608.01 L1013.54 1622.02 L1032.38 1622.02 L1032.38 1627.43 L1013.54 1627.43 L1013.54 1650.12 L1007.11 1650.12 L1007.11 1602.6 Z" fill="#000000" fill-rule="evenodd" fill-opacity="1" /><path clip-path="url(#clip950)" d="M 0 0 M1047.25 1607.89 L1047.25 1644.84 L1055.01 1644.84 Q1064.85 1644.84 1069.4 1640.38 Q1073.98 1635.93 1073.98 1626.32 Q1073.98 1616.77 1069.4 1612.34 Q1064.85 1607.89 1055.01 1607.89 L1047.25 1607.89 M1040.82 1602.6 L1054.03 1602.6 Q1067.84 1602.6 1074.3 1608.36 Q1080.76 1614.09 1080.76 1626.32 Q1080.76 1638.6 1074.27 1644.36 Q1067.78 1650.12 1054.03 1650.12 L1040.82 1650.12 L1040.82 1602.6 Z" fill="#000000" fill-rule="evenodd" fill-opacity="1" /><path clip-path="url(#clip950)" d="M 0 0 M1121.7 1600.66 Q1117.43 1607.98 1115.36 1615.14 Q1113.29 1622.31 1113.29 1629.66 Q1113.29 1637.01 1115.36 1644.24 Q1117.46 1651.43 1121.7 1658.72 L1116.6 1658.72 Q1111.83 1651.24 1109.44 1644.01 Q1107.09 1636.79 1107.09 1629.66 Q1107.09 1622.56 1109.44 1615.37 Q1111.8 1608.17 1116.6 1600.66 L1121.7 1600.66 Z" fill="#000000" fill-rule="evenodd" fill-opacity="1" /><path clip-path="url(#clip950)" d="M 0 0 M1127.23 1663.68 L1127.23 1614.48 L1133.09 1614.48 L1133.09 1636.63 Q1133.09 1641.24 1135.29 1643.6 Q1137.48 1645.95 1141.78 1645.95 Q1146.49 1645.95 1148.85 1643.28 Q1151.23 1640.61 1151.23 1635.26 L1151.23 1614.48 L1157.09 1614.48 L1157.09 1641.91 Q1157.09 1643.82 1157.63 1644.74 Q1158.2 1645.64 1159.38 1645.64 Q1159.67 1645.64 1160.18 1645.48 Q1160.69 1645.29 1161.58 1644.9 L1161.58 1649.61 Q1160.27 1650.35 1159.09 1650.7 Q1157.95 1651.05 1156.83 1651.05 Q1154.64 1651.05 1153.33 1649.81 Q1152.03 1648.56 1151.55 1646.02 Q1149.96 1648.53 1147.64 1649.81 Q1145.34 1651.05 1142.22 1651.05 Q1138.98 1651.05 1136.69 1649.81 Q1134.43 1648.56 1133.09 1646.08 L1133.09 1663.68 L1127.23 1663.68 Z" fill="#000000" fill-rule="evenodd" fill-opacity="1" /><path clip-path="url(#clip950)" d="M 0 0 M1195.47 1621.32 Q1197.67 1617.37 1200.73 1615.49 Q1203.78 1613.62 1207.92 1613.62 Q1213.49 1613.62 1216.51 1617.53 Q1219.54 1621.41 1219.54 1628.61 L1219.54 1650.12 L1213.65 1650.12 L1213.65 1628.8 Q1213.65 1623.67 1211.83 1621.19 Q1210.02 1618.71 1206.3 1618.71 Q1201.74 1618.71 1199.1 1621.73 Q1196.46 1624.76 1196.46 1629.98 L1196.46 1650.12 L1190.57 1650.12 L1190.57 1628.8 Q1190.57 1623.64 1188.76 1621.19 Q1186.94 1618.71 1183.16 1618.71 Q1178.67 1618.71 1176.03 1621.76 Q1173.38 1624.79 1173.38 1629.98 L1173.38 1650.12 L1167.5 1650.12 L1167.5 1614.48 L1173.38 1614.48 L1173.38 1620.01 Q1175.39 1616.74 1178.19 1615.18 Q1180.99 1613.62 1184.84 1613.62 Q1188.73 1613.62 1191.43 1615.59 Q1194.17 1617.56 1195.47 1621.32 Z" fill="#000000" fill-rule="evenodd" fill-opacity="1" /><path clip-path="url(#clip950)" d="M 0 0 M1239.49 1618.58 Q1234.78 1618.58 1232.04 1622.27 Q1229.31 1625.93 1229.31 1632.33 Q1229.31 1638.73 1232.01 1642.42 Q1234.75 1646.08 1239.49 1646.08 Q1244.17 1646.08 1246.91 1642.39 Q1249.65 1638.7 1249.65 1632.33 Q1249.65 1626 1246.91 1622.31 Q1244.17 1618.58 1239.49 1618.58 M1239.49 1613.62 Q1247.13 1613.62 1251.49 1618.58 Q1255.85 1623.55 1255.85 1632.33 Q1255.85 1641.08 1251.49 1646.08 Q1247.13 1651.05 1239.49 1651.05 Q1231.82 1651.05 1227.46 1646.08 Q1223.13 1641.08 1223.13 1632.33 Q1223.13 1623.55 1227.46 1618.58 Q1231.82 1613.62 1239.49 1613.62 Z" fill="#000000" fill-rule="evenodd" fill-opacity="1" /><path clip-path="url(#clip950)" d="M 0 0 M1262 1600.6 L1267.85 1600.6 L1267.85 1650.12 L1262 1650.12 L1262 1600.6 Z" fill="#000000" fill-rule="evenodd" fill-opacity="1" /><path clip-path="url(#clip950)" d="M 0 0 M1322.47 1621.32 Q1324.67 1617.37 1327.72 1615.49 Q1330.78 1613.62 1334.91 1613.62 Q1340.48 1613.62 1343.51 1617.53 Q1346.53 1621.41 1346.53 1628.61 L1346.53 1650.12 L1340.64 1650.12 L1340.64 1628.8 Q1340.64 1623.67 1338.83 1621.19 Q1337.02 1618.71 1333.29 1618.71 Q1328.74 1618.71 1326.1 1621.73 Q1323.46 1624.76 1323.46 1629.98 L1323.46 1650.12 L1317.57 1650.12 L1317.57 1628.8 Q1317.57 1623.64 1315.75 1621.19 Q1313.94 1618.71 1310.15 1618.71 Q1305.66 1618.71 1303.02 1621.76 Q1300.38 1624.79 1300.38 1629.98 L1300.38 1650.12 L1294.49 1650.12 L1294.49 1614.48 L1300.38 1614.48 L1300.38 1620.01 Q1302.39 1616.74 1305.19 1615.18 Q1307.99 1613.62 1311.84 1613.62 Q1315.72 1613.62 1318.43 1615.59 Q1321.16 1617.56 1322.47 1621.32 Z" fill="#000000" fill-rule="evenodd" fill-opacity="1" /><path clip-path="url(#clip950)" d="M 0 0 M1350.89 1615.91 L1376.58 1615.91 L1376.58 1618.93 L1350.89 1618.93 L1350.89 1615.91 Z" fill="#000000" fill-rule="evenodd" fill-opacity="1" /><path clip-path="url(#clip950)" d="M 0 0 M1385.11 1625.23 L1398.6 1625.23 L1398.6 1628.86 L1379.57 1628.86 L1379.57 1625.36 Q1380.65 1624.37 1382.66 1622.59 Q1393.61 1612.88 1393.61 1609.89 Q1393.61 1607.79 1391.95 1606.52 Q1390.3 1605.21 1387.59 1605.21 Q1385.94 1605.21 1383.99 1605.79 Q1382.05 1606.33 1379.76 1607.44 L1379.76 1603.53 Q1382.21 1602.64 1384.31 1602.19 Q1386.45 1601.74 1388.26 1601.74 Q1392.87 1601.74 1395.64 1603.85 Q1398.41 1605.95 1398.41 1609.38 Q1398.41 1613.81 1387.88 1622.85 Q1386.09 1624.37 1385.11 1625.23 Z" fill="#000000" fill-rule="evenodd" fill-opacity="1" /><path clip-path="url(#clip950)" d="M 0 0 M1448.19 1615.53 L1448.19 1621.06 Q1445.71 1619.79 1443.04 1619.15 Q1440.36 1618.52 1437.5 1618.52 Q1433.14 1618.52 1430.94 1619.85 Q1428.78 1621.19 1428.78 1623.87 Q1428.78 1625.9 1430.34 1627.08 Q1431.9 1628.23 1436.61 1629.28 L1438.61 1629.72 Q1444.85 1631.06 1447.46 1633.51 Q1450.1 1635.93 1450.1 1640.29 Q1450.1 1645.25 1446.16 1648.15 Q1442.24 1651.05 1435.37 1651.05 Q1432.5 1651.05 1429.38 1650.47 Q1426.29 1649.93 1422.86 1648.82 L1422.86 1642.77 Q1426.1 1644.46 1429.25 1645.32 Q1432.41 1646.15 1435.49 1646.15 Q1439.63 1646.15 1441.86 1644.74 Q1444.09 1643.31 1444.09 1640.73 Q1444.09 1638.35 1442.46 1637.07 Q1440.87 1635.8 1435.43 1634.62 L1433.39 1634.15 Q1427.95 1633 1425.53 1630.64 Q1423.11 1628.26 1423.11 1624.12 Q1423.11 1619.09 1426.68 1616.35 Q1430.24 1613.62 1436.8 1613.62 Q1440.04 1613.62 1442.91 1614.09 Q1445.77 1614.57 1448.19 1615.53 Z" fill="#000000" fill-rule="evenodd" fill-opacity="1" /><path clip-path="url(#clip950)" d="M 0 0 M1454.46 1615.91 L1480.15 1615.91 L1480.15 1618.93 L1454.46 1618.93 L1454.46 1615.91 Z" fill="#000000" fill-rule="evenodd" fill-opacity="1" /><path clip-path="url(#clip950)" d="M 0 0 M1485.11 1625.36 L1491.61 1625.36 L1491.61 1605.91 L1484.51 1607.22 L1484.51 1603.53 L1491.83 1602.29 L1496.19 1602.29 L1496.19 1625.36 L1502.71 1625.36 L1502.71 1628.86 L1485.11 1628.86 L1485.11 1625.36 Z" fill="#000000" fill-rule="evenodd" fill-opacity="1" /><path clip-path="url(#clip950)" d="M 0 0 M1507.93 1600.66 L1513.03 1600.66 Q1517.8 1608.17 1520.16 1615.37 Q1522.54 1622.56 1522.54 1629.66 Q1522.54 1636.79 1520.16 1644.01 Q1517.8 1651.24 1513.03 1658.72 L1507.93 1658.72 Q1512.17 1651.43 1514.24 1644.24 Q1516.34 1637.01 1516.34 1629.66 Q1516.34 1622.31 1514.24 1615.14 Q1512.17 1607.98 1507.93 1600.66 Z" fill="#000000" fill-rule="evenodd" fill-opacity="1" /><polyline clip-path="url(#clip952)" style="stroke:#000000; stroke-width:2; stroke-opacity:0.1; fill:none" points="
  102.74,1464 2352.76,1464 
  "/>
<polyline clip-path="url(#clip952)" style="stroke:#000000; stroke-width:2; stroke-opacity:0.1; fill:none" points="
  102.74,1178.04 2352.76,1178.04 
  "/>
<polyline clip-path="url(#clip952)" style="stroke:#000000; stroke-width:2; stroke-opacity:0.1; fill:none" points="
  102.74,892.09 2352.76,892.09 
  "/>
<polyline clip-path="url(#clip952)" style="stroke:#000000; stroke-width:2; stroke-opacity:0.1; fill:none" points="
  102.74,606.137 2352.76,606.137 
  "/>
<polyline clip-path="url(#clip952)" style="stroke:#000000; stroke-width:2; stroke-opacity:0.1; fill:none" points="
  102.74,320.184 2352.76,320.184 
  "/>
<polyline clip-path="url(#clip950)" style="stroke:#000000; stroke-width:4; stroke-opacity:1; fill:none" points="
  102.74,1505.26 102.74,47.2441 
  "/>
<polyline clip-path="url(#clip950)" style="stroke:#000000; stroke-width:4; stroke-opacity:1; fill:none" points="
  102.74,1464 129.74,1464 
  "/>
<polyline clip-path="url(#clip950)" style="stroke:#000000; stroke-width:4; stroke-opacity:1; fill:none" points="
  102.74,1178.04 129.74,1178.04 
  "/>
<polyline clip-path="url(#clip950)" style="stroke:#000000; stroke-width:4; stroke-opacity:1; fill:none" points="
  102.74,892.09 129.74,892.09 
  "/>
<polyline clip-path="url(#clip950)" style="stroke:#000000; stroke-width:4; stroke-opacity:1; fill:none" points="
  102.74,606.137 129.74,606.137 
  "/>
<polyline clip-path="url(#clip950)" style="stroke:#000000; stroke-width:4; stroke-opacity:1; fill:none" points="
  102.74,320.184 129.74,320.184 
  "/>
<path clip-path="url(#clip950)" d="M 0 0 M54.7958 1449.79 Q51.1847 1449.79 49.356 1453.36 Q47.5504 1456.9 47.5504 1464.03 Q47.5504 1471.14 49.356 1474.7 Q51.1847 1478.24 54.7958 1478.24 Q58.43 1478.24 60.2356 1474.7 Q62.0643 1471.14 62.0643 1464.03 Q62.0643 1456.9 60.2356 1453.36 Q58.43 1449.79 54.7958 1449.79 M54.7958 1446.09 Q60.6059 1446.09 63.6615 1450.7 Q66.7402 1455.28 66.7402 1464.03 Q66.7402 1472.76 63.6615 1477.36 Q60.6059 1481.95 54.7958 1481.95 Q48.9856 1481.95 45.9069 1477.36 Q42.8514 1472.76 42.8514 1464.03 Q42.8514 1455.28 45.9069 1450.7 Q48.9856 1446.09 54.7958 1446.09 Z" fill="#000000" fill-rule="evenodd" fill-opacity="1" /><path clip-path="url(#clip950)" d="M 0 0 M18.8237 1160.76 L37.1801 1160.76 L37.1801 1164.7 L23.1061 1164.7 L23.1061 1173.17 Q24.1246 1172.82 25.1432 1172.66 Q26.1617 1172.48 27.1802 1172.48 Q32.9672 1172.48 36.3468 1175.65 Q39.7264 1178.82 39.7264 1184.23 Q39.7264 1189.81 36.2542 1192.92 Q32.782 1195.99 26.4626 1195.99 Q24.2867 1195.99 22.0182 1195.62 Q19.7728 1195.25 17.3654 1194.51 L17.3654 1189.81 Q19.4487 1190.95 21.671 1191.5 Q23.8932 1192.06 26.37 1192.06 Q30.3746 1192.06 32.7126 1189.95 Q35.0505 1187.85 35.0505 1184.23 Q35.0505 1180.62 32.7126 1178.52 Q30.3746 1176.41 26.37 1176.41 Q24.495 1176.41 22.62 1176.83 Q20.7682 1177.24 18.8237 1178.12 L18.8237 1160.76 Z" fill="#000000" fill-rule="evenodd" fill-opacity="1" /><path clip-path="url(#clip950)" d="M 0 0 M54.7958 1163.84 Q51.1847 1163.84 49.356 1167.41 Q47.5504 1170.95 47.5504 1178.08 Q47.5504 1185.18 49.356 1188.75 Q51.1847 1192.29 54.7958 1192.29 Q58.43 1192.29 60.2356 1188.75 Q62.0643 1185.18 62.0643 1178.08 Q62.0643 1170.95 60.2356 1167.41 Q58.43 1163.84 54.7958 1163.84 M54.7958 1160.14 Q60.6059 1160.14 63.6615 1164.74 Q66.7402 1169.33 66.7402 1178.08 Q66.7402 1186.8 63.6615 1191.41 Q60.6059 1195.99 54.7958 1195.99 Q48.9856 1195.99 45.9069 1191.41 Q42.8514 1186.8 42.8514 1178.08 Q42.8514 1169.33 45.9069 1164.74 Q48.9856 1160.14 54.7958 1160.14 Z" fill="#000000" fill-rule="evenodd" fill-opacity="1" /><path clip-path="url(#clip950)" d="M 0 0 M-7.19463 905.434 L0.444216 905.434 L0.444216 879.069 L-7.86592 880.735 L-7.86592 876.476 L0.39792 874.81 L5.07382 874.81 L5.07382 905.434 L12.7127 905.434 L12.7127 909.37 L-7.19463 909.37 L-7.19463 905.434 Z" fill="#000000" fill-rule="evenodd" fill-opacity="1" /><path clip-path="url(#clip950)" d="M 0 0 M27.782 877.888 Q24.1709 877.888 22.3422 881.453 Q20.5367 884.995 20.5367 892.124 Q20.5367 899.231 22.3422 902.796 Q24.1709 906.337 27.782 906.337 Q31.4163 906.337 33.2218 902.796 Q35.0505 899.231 35.0505 892.124 Q35.0505 884.995 33.2218 881.453 Q31.4163 877.888 27.782 877.888 M27.782 874.185 Q33.5922 874.185 36.6477 878.791 Q39.7264 883.374 39.7264 892.124 Q39.7264 900.851 36.6477 905.458 Q33.5922 910.041 27.782 910.041 Q21.9719 910.041 18.8932 905.458 Q15.8377 900.851 15.8377 892.124 Q15.8377 883.374 18.8932 878.791 Q21.9719 874.185 27.782 874.185 Z" fill="#000000" fill-rule="evenodd" fill-opacity="1" /><path clip-path="url(#clip950)" d="M 0 0 M54.7958 877.888 Q51.1847 877.888 49.356 881.453 Q47.5504 884.995 47.5504 892.124 Q47.5504 899.231 49.356 902.796 Q51.1847 906.337 54.7958 906.337 Q58.43 906.337 60.2356 902.796 Q62.0643 899.231 62.0643 892.124 Q62.0643 884.995 60.2356 881.453 Q58.43 877.888 54.7958 877.888 M54.7958 874.185 Q60.6059 874.185 63.6615 878.791 Q66.7402 883.374 66.7402 892.124 Q66.7402 900.851 63.6615 905.458 Q60.6059 910.041 54.7958 910.041 Q48.9856 910.041 45.9069 905.458 Q42.8514 900.851 42.8514 892.124 Q42.8514 883.374 45.9069 878.791 Q48.9856 874.185 54.7958 874.185 Z" fill="#000000" fill-rule="evenodd" fill-opacity="1" /><path clip-path="url(#clip950)" d="M 0 0 M-6.19927 619.482 L1.43958 619.482 L1.43958 593.116 L-6.87056 594.783 L-6.87056 590.523 L1.39329 588.857 L6.06919 588.857 L6.06919 619.482 L13.708 619.482 L13.708 623.417 L-6.19927 623.417 L-6.19927 619.482 Z" fill="#000000" fill-rule="evenodd" fill-opacity="1" /><path clip-path="url(#clip950)" d="M 0 0 M18.8237 588.857 L37.1801 588.857 L37.1801 592.792 L23.1061 592.792 L23.1061 601.264 Q24.1246 600.917 25.1432 600.755 Q26.1617 600.57 27.1802 600.57 Q32.9672 600.57 36.3468 603.741 Q39.7264 606.912 39.7264 612.329 Q39.7264 617.907 36.2542 621.009 Q32.782 624.088 26.4626 624.088 Q24.2867 624.088 22.0182 623.718 Q19.7728 623.347 17.3654 622.607 L17.3654 617.907 Q19.4487 619.042 21.671 619.597 Q23.8932 620.153 26.37 620.153 Q30.3746 620.153 32.7126 618.046 Q35.0505 615.94 35.0505 612.329 Q35.0505 608.718 32.7126 606.611 Q30.3746 604.505 26.37 604.505 Q24.495 604.505 22.62 604.921 Q20.7682 605.338 18.8237 606.218 L18.8237 588.857 Z" fill="#000000" fill-rule="evenodd" fill-opacity="1" /><path clip-path="url(#clip950)" d="M 0 0 M54.7958 591.935 Q51.1847 591.935 49.356 595.5 Q47.5504 599.042 47.5504 606.171 Q47.5504 613.278 49.356 616.843 Q51.1847 620.384 54.7958 620.384 Q58.43 620.384 60.2356 616.843 Q62.0643 613.278 62.0643 606.171 Q62.0643 599.042 60.2356 595.5 Q58.43 591.935 54.7958 591.935 M54.7958 588.232 Q60.6059 588.232 63.6615 592.838 Q66.7402 597.421 66.7402 606.171 Q66.7402 614.898 63.6615 619.505 Q60.6059 624.088 54.7958 624.088 Q48.9856 624.088 45.9069 619.505 Q42.8514 614.898 42.8514 606.171 Q42.8514 597.421 45.9069 592.838 Q48.9856 588.232 54.7958 588.232 Z" fill="#000000" fill-rule="evenodd" fill-opacity="1" /><path clip-path="url(#clip950)" d="M 0 0 M-3.60669 333.529 L12.7127 333.529 L12.7127 337.464 L-9.23166 337.464 L-9.23166 333.529 Q-6.56963 330.774 -1.98633 326.144 Q2.62013 321.492 3.80068 320.149 Q6.04604 317.626 6.92566 315.89 Q7.82844 314.131 7.82844 312.441 Q7.82844 309.686 5.884 307.95 Q3.96272 306.214 0.860881 306.214 Q-1.33818 306.214 -3.79187 306.978 Q-6.22241 307.742 -9.00018 309.293 L-9.00018 304.571 Q-6.17612 303.436 -3.72243 302.858 Q-1.26874 302.279 0.768289 302.279 Q6.13863 302.279 9.33306 304.964 Q12.5275 307.649 12.5275 312.14 Q12.5275 314.27 11.7173 316.191 Q10.9303 318.089 8.8238 320.682 Q8.2451 321.353 5.14327 324.57 Q2.04143 327.765 -3.60669 333.529 Z" fill="#000000" fill-rule="evenodd" fill-opacity="1" /><path clip-path="url(#clip950)" d="M 0 0 M27.782 305.983 Q24.1709 305.983 22.3422 309.547 Q20.5367 313.089 20.5367 320.219 Q20.5367 327.325 22.3422 330.89 Q24.1709 334.431 27.782 334.431 Q31.4163 334.431 33.2218 330.89 Q35.0505 327.325 35.0505 320.219 Q35.0505 313.089 33.2218 309.547 Q31.4163 305.983 27.782 305.983 M27.782 302.279 Q33.5922 302.279 36.6477 306.885 Q39.7264 311.469 39.7264 320.219 Q39.7264 328.945 36.6477 333.552 Q33.5922 338.135 27.782 338.135 Q21.9719 338.135 18.8932 333.552 Q15.8377 328.945 15.8377 320.219 Q15.8377 311.469 18.8932 306.885 Q21.9719 302.279 27.782 302.279 Z" fill="#000000" fill-rule="evenodd" fill-opacity="1" /><path clip-path="url(#clip950)" d="M 0 0 M54.7958 305.983 Q51.1847 305.983 49.356 309.547 Q47.5504 313.089 47.5504 320.219 Q47.5504 327.325 49.356 330.89 Q51.1847 334.431 54.7958 334.431 Q58.43 334.431 60.2356 330.89 Q62.0643 327.325 62.0643 320.219 Q62.0643 313.089 60.2356 309.547 Q58.43 305.983 54.7958 305.983 M54.7958 302.279 Q60.6059 302.279 63.6615 306.885 Q66.7402 311.469 66.7402 320.219 Q66.7402 328.945 63.6615 333.552 Q60.6059 338.135 54.7958 338.135 Q48.9856 338.135 45.9069 333.552 Q42.8514 328.945 42.8514 320.219 Q42.8514 311.469 45.9069 306.885 Q48.9856 302.279 54.7958 302.279 Z" fill="#000000" fill-rule="evenodd" fill-opacity="1" /><path clip-path="url(#clip950)" d="M 0 0 M-107.008 995.471 L-107.008 989.042 L-62.7978 989.042 Q-54.2041 989.042 -50.321 992.32 Q-46.438 995.566 -46.438 1002.79 L-46.438 1005.24 L-51.8488 1005.24 L-51.8488 1003.24 Q-51.8488 998.972 -54.2359 997.222 Q-56.6231 995.471 -62.7978 995.471 L-107.008 995.471 Z" fill="#000000" fill-rule="evenodd" fill-opacity="1" /><path clip-path="url(#clip950)" d="M 0 0 M-108.949 948.11 Q-101.629 952.375 -94.4672 954.444 Q-87.3058 956.513 -79.9534 956.513 Q-72.601 956.513 -65.3759 954.444 Q-58.1827 952.343 -50.894 948.11 L-50.894 953.203 Q-58.3737 957.977 -65.5987 960.364 Q-72.8238 962.719 -79.9534 962.719 Q-87.0512 962.719 -94.2444 960.364 Q-101.438 958.009 -108.949 953.203 L-108.949 948.11 Z" fill="#000000" fill-rule="evenodd" fill-opacity="1" /><path clip-path="url(#clip950)" d="M 0 0 M-45.9287 942.572 L-95.1356 942.572 L-95.1356 936.716 L-72.983 936.716 Q-68.3678 936.716 -66.0125 934.519 Q-63.6572 932.323 -63.6572 928.026 Q-63.6572 923.316 -66.3308 920.96 Q-69.0044 918.573 -74.3516 918.573 L-95.1356 918.573 L-95.1356 912.717 L-67.6994 912.717 Q-65.7897 912.717 -64.8667 912.176 Q-63.9755 911.603 -63.9755 910.425 Q-63.9755 910.139 -64.1346 909.629 Q-64.3256 909.12 -64.7075 908.229 L-59.9969 908.229 Q-59.2649 909.534 -58.9147 910.712 Q-58.5646 911.857 -58.5646 912.971 Q-58.5646 915.168 -59.8059 916.473 Q-61.0473 917.778 -63.5935 918.255 Q-61.0791 919.846 -59.8059 922.17 Q-58.5646 924.462 -58.5646 927.581 Q-58.5646 930.827 -59.8059 933.119 Q-61.0473 935.379 -63.5299 936.716 L-45.9287 936.716 L-45.9287 942.572 Z" fill="#000000" fill-rule="evenodd" fill-opacity="1" /><path clip-path="url(#clip950)" d="M 0 0 M-88.2925 874.332 Q-92.2392 872.135 -94.1171 869.08 Q-95.995 866.024 -95.995 861.887 Q-95.995 856.317 -92.0801 853.293 Q-88.197 850.269 -81.0037 850.269 L-59.4877 850.269 L-59.4877 856.158 L-80.8128 856.158 Q-85.9372 856.158 -88.4198 857.972 Q-90.9024 859.786 -90.9024 863.51 Q-90.9024 868.061 -87.8787 870.703 Q-84.855 873.345 -79.6351 873.345 L-59.4877 873.345 L-59.4877 879.233 L-80.8128 879.233 Q-85.969 879.233 -88.4198 881.047 Q-90.9024 882.862 -90.9024 886.649 Q-90.9024 891.137 -87.8469 893.779 Q-84.8232 896.421 -79.6351 896.421 L-59.4877 896.421 L-59.4877 902.309 L-95.1356 902.309 L-95.1356 896.421 L-89.5975 896.421 Q-92.8758 894.415 -94.4354 891.614 Q-95.995 888.814 -95.995 884.962 Q-95.995 881.079 -94.0216 878.374 Q-92.0482 875.637 -88.2925 874.332 Z" fill="#000000" fill-rule="evenodd" fill-opacity="1" /><path clip-path="url(#clip950)" d="M 0 0 M-91.0297 830.313 Q-91.0297 835.023 -87.3376 837.761 Q-83.6773 840.498 -77.2798 840.498 Q-70.8823 840.498 -67.1902 837.792 Q-63.5299 835.055 -63.5299 830.313 Q-63.5299 825.634 -67.222 822.897 Q-70.9141 820.159 -77.2798 820.159 Q-83.6137 820.159 -87.3058 822.897 Q-91.0297 825.634 -91.0297 830.313 M-95.995 830.313 Q-95.995 822.674 -91.0297 818.313 Q-86.0645 813.953 -77.2798 813.953 Q-68.527 813.953 -63.5299 818.313 Q-58.5646 822.674 -58.5646 830.313 Q-58.5646 837.983 -63.5299 842.344 Q-68.527 846.673 -77.2798 846.673 Q-86.0645 846.673 -91.0297 842.344 Q-95.995 837.983 -95.995 830.313 Z" fill="#000000" fill-rule="evenodd" fill-opacity="1" /><path clip-path="url(#clip950)" d="M 0 0 M-109.013 807.81 L-109.013 801.954 L-59.4877 801.954 L-59.4877 807.81 L-109.013 807.81 Z" fill="#000000" fill-rule="evenodd" fill-opacity="1" /><path clip-path="url(#clip950)" d="M 0 0 M-88.2925 747.336 Q-92.2392 745.14 -94.1171 742.084 Q-95.995 739.028 -95.995 734.891 Q-95.995 729.321 -92.0801 726.297 Q-88.197 723.273 -81.0037 723.273 L-59.4877 723.273 L-59.4877 729.162 L-80.8128 729.162 Q-85.9372 729.162 -88.4198 730.976 Q-90.9024 732.79 -90.9024 736.514 Q-90.9024 741.066 -87.8787 743.707 Q-84.855 746.349 -79.6351 746.349 L-59.4877 746.349 L-59.4877 752.237 L-80.8128 752.237 Q-85.969 752.237 -88.4198 754.052 Q-90.9024 755.866 -90.9024 759.653 Q-90.9024 764.141 -87.8469 766.783 Q-84.8232 769.425 -79.6351 769.425 L-59.4877 769.425 L-59.4877 775.313 L-95.1356 775.313 L-95.1356 769.425 L-89.5975 769.425 Q-92.8758 767.42 -94.4354 764.619 Q-95.995 761.818 -95.995 757.966 Q-95.995 754.083 -94.0216 751.378 Q-92.0482 748.641 -88.2925 747.336 Z" fill="#000000" fill-rule="evenodd" fill-opacity="1" /><path clip-path="url(#clip950)" d="M 0 0 M-93.7033 718.913 L-93.7033 693.227 L-90.6796 693.227 L-90.6796 718.913 L-93.7033 718.913 Z" fill="#000000" fill-rule="evenodd" fill-opacity="1" /><path clip-path="url(#clip950)" d="M 0 0 M-84.3776 684.697 L-84.3776 671.202 L-80.7491 671.202 L-80.7491 690.235 L-84.2503 690.235 Q-85.2369 689.153 -87.0193 687.148 Q-96.727 676.199 -99.7189 676.199 Q-101.82 676.199 -103.093 677.854 Q-104.398 679.509 -104.398 682.215 Q-104.398 683.87 -103.825 685.811 Q-103.284 687.753 -102.17 690.044 L-106.085 690.044 Q-106.976 687.594 -107.421 685.493 Q-107.867 683.36 -107.867 681.546 Q-107.867 676.931 -105.766 674.162 Q-103.666 671.393 -100.228 671.393 Q-95.804 671.393 -86.7647 681.928 Q-85.2369 683.711 -84.3776 684.697 Z" fill="#000000" fill-rule="evenodd" fill-opacity="1" /><path clip-path="url(#clip950)" d="M 0 0 M-94.0853 621.613 L-88.5471 621.613 Q-89.8202 624.096 -90.4568 626.769 Q-91.0934 629.443 -91.0934 632.307 Q-91.0934 636.668 -89.7566 638.864 Q-88.4198 641.028 -85.7462 641.028 Q-83.7092 641.028 -82.5315 639.469 Q-81.3857 637.909 -80.3353 633.199 L-79.8897 631.193 Q-78.5529 624.955 -76.1022 622.345 Q-73.6832 619.703 -69.3227 619.703 Q-64.3574 619.703 -61.461 623.65 Q-58.5646 627.565 -58.5646 634.44 Q-58.5646 637.305 -59.1375 640.424 Q-59.6786 643.511 -60.7926 646.949 L-66.84 646.949 Q-65.1531 643.702 -64.2938 640.551 Q-63.4662 637.4 -63.4662 634.313 Q-63.4662 630.175 -64.8667 627.947 Q-66.299 625.719 -68.8771 625.719 Q-71.2642 625.719 -72.5374 627.342 Q-73.8105 628.934 -74.9882 634.376 L-75.4656 636.413 Q-76.6114 641.856 -78.9667 644.275 Q-81.3539 646.694 -85.4916 646.694 Q-90.5205 646.694 -93.2577 643.129 Q-95.995 639.564 -95.995 633.008 Q-95.995 629.761 -95.5176 626.897 Q-95.0401 624.032 -94.0853 621.613 Z" fill="#000000" fill-rule="evenodd" fill-opacity="1" /><path clip-path="url(#clip950)" d="M 0 0 M-93.7033 615.343 L-93.7033 589.657 L-90.6796 589.657 L-90.6796 615.343 L-93.7033 615.343 Z" fill="#000000" fill-rule="evenodd" fill-opacity="1" /><path clip-path="url(#clip950)" d="M 0 0 M-84.2503 584.692 L-84.2503 578.199 L-103.697 578.199 L-102.393 585.297 L-106.085 585.297 L-107.326 577.976 L-107.326 573.616 L-84.2503 573.616 L-84.2503 567.091 L-80.7491 567.091 L-80.7491 584.692 L-84.2503 584.692 Z" fill="#000000" fill-rule="evenodd" fill-opacity="1" /><path clip-path="url(#clip950)" d="M 0 0 M-108.949 561.871 L-108.949 556.778 Q-101.438 552.004 -94.2444 549.649 Q-87.0512 547.262 -79.9534 547.262 Q-72.8238 547.262 -65.5987 549.649 Q-58.3737 552.004 -50.894 556.778 L-50.894 561.871 Q-58.1827 557.638 -65.3759 555.569 Q-72.601 553.468 -79.9534 553.468 Q-87.3058 553.468 -94.4672 555.569 Q-101.629 557.638 -108.949 561.871 Z" fill="#000000" fill-rule="evenodd" fill-opacity="1" /><polyline clip-path="url(#clip952)" style="stroke:#009af9; stroke-width:4; stroke-opacity:1; fill:none" points="
  166.42,1464 272.553,1225.7 378.685,1000.15 484.818,793.919 590.951,615.575 697.084,472.755 803.217,367.097 909.35,292.869 1015.48,241.333 1121.62,204.956 
  1227.75,178.53 1333.88,158.735 1440.01,143.476 1546.15,131.416 1652.28,121.676 1758.41,113.662 1864.54,106.964 1970.68,101.287 2076.81,96.4178 2182.94,92.1986 
  2289.08,88.5087 
  "/>
<polyline clip-path="url(#clip952)" style="stroke:#e26f46; stroke-width:4; stroke-opacity:1; fill:none" points="
  166.42,1464 272.553,1243.13 378.685,1063.56 484.818,919.24 590.951,803.569 697.084,710.48 803.217,634.942 909.35,572.999 1015.48,521.63 1121.62,478.547 
  1227.75,442.026 1333.88,410.754 1440.01,383.729 1546.15,360.176 1652.28,339.49 1758.41,321.194 1864.54,304.909 1970.68,290.327 2076.81,277.202 2182.94,265.33 
  2289.08,254.544 
  "/>
<polyline clip-path="url(#clip952)" style="stroke:#3da44d; stroke-width:4; stroke-opacity:1; fill:none" points="
  166.42,1464 272.553,1343.57 378.685,1225.7 484.818,1110.98 590.951,1000.15 697.084,894.114 803.217,793.919 909.35,700.703 1015.48,615.575 1121.62,539.43 
  1227.75,472.755 1333.88,415.501 1440.01,367.097 1546.15,326.595 1652.28,292.869 1758.41,264.79 1864.54,241.333 1970.68,221.628 2076.81,204.956 2182.94,190.743 
  2289.08,178.53 
  "/>
<path clip-path="url(#clip950)" d="
M1727.85 1456.66 L2277.76 1456.66 L2277.76 1214.74 L1727.85 1214.74  Z
  " fill="#ffffff" fill-rule="evenodd" fill-opacity="1"/>
<polyline clip-path="url(#clip950)" style="stroke:#000000; stroke-width:4; stroke-opacity:1; fill:none" points="
  1727.85,1456.66 2277.76,1456.66 2277.76,1214.74 1727.85,1214.74 1727.85,1456.66 
  "/>
<polyline clip-path="url(#clip950)" style="stroke:#009af9; stroke-width:4; stroke-opacity:1; fill:none" points="
  1752.85,1275.22 1902.85,1275.22 
  "/>
<path clip-path="url(#clip950)" d="M 0 0 M1932.53 1261.78 L1932.53 1288.66 L1938.17 1288.66 Q1945.33 1288.66 1948.64 1285.42 Q1951.97 1282.18 1951.97 1275.18 Q1951.97 1268.24 1948.64 1265.02 Q1945.33 1261.78 1938.17 1261.78 L1932.53 1261.78 M1927.85 1257.94 L1937.46 1257.94 Q1947.5 1257.94 1952.2 1262.13 Q1956.9 1266.3 1956.9 1275.18 Q1956.9 1284.12 1952.18 1288.31 Q1947.46 1292.5 1937.46 1292.5 L1927.85 1292.5 L1927.85 1257.94 Z" fill="#000000" fill-rule="evenodd" fill-opacity="1" /><path clip-path="url(#clip950)" d="M 0 0 M1983.54 1278.47 L1983.54 1280.55 L1963.96 1280.55 Q1964.24 1284.95 1966.6 1287.27 Q1968.98 1289.56 1973.22 1289.56 Q1975.67 1289.56 1977.96 1288.96 Q1980.28 1288.36 1982.55 1287.15 L1982.55 1291.18 Q1980.26 1292.15 1977.85 1292.66 Q1975.44 1293.17 1972.96 1293.17 Q1966.76 1293.17 1963.13 1289.56 Q1959.52 1285.95 1959.52 1279.79 Q1959.52 1273.43 1962.94 1269.7 Q1966.39 1265.95 1972.22 1265.95 Q1977.46 1265.95 1980.49 1269.33 Q1983.54 1272.68 1983.54 1278.47 M1979.28 1277.22 Q1979.24 1273.73 1977.32 1271.64 Q1975.42 1269.56 1972.27 1269.56 Q1968.71 1269.56 1966.55 1271.57 Q1964.42 1273.59 1964.1 1277.24 L1979.28 1277.22 Z" fill="#000000" fill-rule="evenodd" fill-opacity="1" /><path clip-path="url(#clip950)" d="M 0 0 M2001.14 1256.48 L2001.14 1260.02 L1997.06 1260.02 Q1994.77 1260.02 1993.87 1260.95 Q1992.99 1261.87 1992.99 1264.28 L1992.99 1266.57 L2000 1266.57 L2000 1269.88 L1992.99 1269.88 L1992.99 1292.5 L1988.71 1292.5 L1988.71 1269.88 L1984.63 1269.88 L1984.63 1266.57 L1988.71 1266.57 L1988.71 1264.77 Q1988.71 1260.44 1990.72 1258.47 Q1992.73 1256.48 1997.11 1256.48 L2001.14 1256.48 Z" fill="#000000" fill-rule="evenodd" fill-opacity="1" /><path clip-path="url(#clip950)" d="M 0 0 M2017.39 1279.47 Q2012.22 1279.47 2010.23 1280.65 Q2008.24 1281.83 2008.24 1284.68 Q2008.24 1286.94 2009.72 1288.29 Q2011.23 1289.61 2013.8 1289.61 Q2017.34 1289.61 2019.47 1287.11 Q2021.62 1284.58 2021.62 1280.42 L2021.62 1279.47 L2017.39 1279.47 M2025.88 1277.71 L2025.88 1292.5 L2021.62 1292.5 L2021.62 1288.56 Q2020.16 1290.93 2017.99 1292.06 Q2015.81 1293.17 2012.66 1293.17 Q2008.68 1293.17 2006.32 1290.95 Q2003.98 1288.7 2003.98 1284.95 Q2003.98 1280.58 2006.9 1278.36 Q2009.84 1276.13 2015.65 1276.13 L2021.62 1276.13 L2021.62 1275.72 Q2021.62 1272.78 2019.68 1271.18 Q2017.76 1269.56 2014.26 1269.56 Q2012.04 1269.56 2009.93 1270.09 Q2007.83 1270.62 2005.88 1271.69 L2005.88 1267.75 Q2008.22 1266.85 2010.42 1266.41 Q2012.62 1265.95 2014.7 1265.95 Q2020.33 1265.95 2023.1 1268.87 Q2025.88 1271.78 2025.88 1277.71 Z" fill="#000000" fill-rule="evenodd" fill-opacity="1" /><path clip-path="url(#clip950)" d="M 0 0 M2029.91 1282.27 L2029.91 1266.57 L2034.17 1266.57 L2034.17 1282.11 Q2034.17 1285.79 2035.6 1287.64 Q2037.04 1289.47 2039.91 1289.47 Q2043.36 1289.47 2045.35 1287.27 Q2047.36 1285.07 2047.36 1281.27 L2047.36 1266.57 L2051.62 1266.57 L2051.62 1292.5 L2047.36 1292.5 L2047.36 1288.52 Q2045.81 1290.88 2043.75 1292.04 Q2041.71 1293.17 2039.01 1293.17 Q2034.54 1293.17 2032.22 1290.39 Q2029.91 1287.62 2029.91 1282.27 M2040.63 1265.95 L2040.63 1265.95 Z" fill="#000000" fill-rule="evenodd" fill-opacity="1" /><path clip-path="url(#clip950)" d="M 0 0 M2056.09 1256.48 L2060.35 1256.48 L2060.35 1292.5 L2056.09 1292.5 L2056.09 1256.48 Z" fill="#000000" fill-rule="evenodd" fill-opacity="1" /><path clip-path="url(#clip950)" d="M 0 0 M2069.03 1259.21 L2069.03 1266.57 L2077.8 1266.57 L2077.8 1269.88 L2069.03 1269.88 L2069.03 1283.96 Q2069.03 1287.13 2069.89 1288.03 Q2070.77 1288.93 2073.43 1288.93 L2077.8 1288.93 L2077.8 1292.5 L2073.43 1292.5 Q2068.5 1292.5 2066.62 1290.67 Q2064.75 1288.82 2064.75 1283.96 L2064.75 1269.88 L2061.62 1269.88 L2061.62 1266.57 L2064.75 1266.57 L2064.75 1259.21 L2069.03 1259.21 Z" fill="#000000" fill-rule="evenodd" fill-opacity="1" /><path clip-path="url(#clip950)" d="M 0 0 M2094.28 1266.57 L2098.8 1266.57 L2106.9 1288.33 L2115 1266.57 L2119.51 1266.57 L2109.79 1292.5 L2104.01 1292.5 L2094.28 1266.57 Z" fill="#000000" fill-rule="evenodd" fill-opacity="1" /><path clip-path="url(#clip950)" d="M 0 0 M2135.76 1279.47 Q2130.6 1279.47 2128.61 1280.65 Q2126.62 1281.83 2126.62 1284.68 Q2126.62 1286.94 2128.1 1288.29 Q2129.61 1289.61 2132.18 1289.61 Q2135.72 1289.61 2137.85 1287.11 Q2140 1284.58 2140 1280.42 L2140 1279.47 L2135.76 1279.47 M2144.26 1277.71 L2144.26 1292.5 L2140 1292.5 L2140 1288.56 Q2138.54 1290.93 2136.37 1292.06 Q2134.19 1293.17 2131.04 1293.17 Q2127.06 1293.17 2124.7 1290.95 Q2122.36 1288.7 2122.36 1284.95 Q2122.36 1280.58 2125.28 1278.36 Q2128.22 1276.13 2134.03 1276.13 L2140 1276.13 L2140 1275.72 Q2140 1272.78 2138.06 1271.18 Q2136.14 1269.56 2132.64 1269.56 Q2130.42 1269.56 2128.31 1270.09 Q2126.2 1270.62 2124.26 1271.69 L2124.26 1267.75 Q2126.6 1266.85 2128.8 1266.41 Q2131 1265.95 2133.08 1265.95 Q2138.7 1265.95 2141.48 1268.87 Q2144.26 1271.78 2144.26 1277.71 Z" fill="#000000" fill-rule="evenodd" fill-opacity="1" /><path clip-path="url(#clip950)" d="M 0 0 M2148.73 1256.48 L2152.99 1256.48 L2152.99 1292.5 L2148.73 1292.5 L2148.73 1256.48 Z" fill="#000000" fill-rule="evenodd" fill-opacity="1" /><path clip-path="url(#clip950)" d="M 0 0 M2157.01 1282.27 L2157.01 1266.57 L2161.27 1266.57 L2161.27 1282.11 Q2161.27 1285.79 2162.71 1287.64 Q2164.14 1289.47 2167.01 1289.47 Q2170.46 1289.47 2172.45 1287.27 Q2174.47 1285.07 2174.47 1281.27 L2174.47 1266.57 L2178.73 1266.57 L2178.73 1292.5 L2174.47 1292.5 L2174.47 1288.52 Q2172.92 1290.88 2170.86 1292.04 Q2168.82 1293.17 2166.11 1293.17 Q2161.64 1293.17 2159.33 1290.39 Q2157.01 1287.62 2157.01 1282.27 M2167.73 1265.95 L2167.73 1265.95 Z" fill="#000000" fill-rule="evenodd" fill-opacity="1" /><path clip-path="url(#clip950)" d="M 0 0 M2205.37 1278.47 L2205.37 1280.55 L2185.79 1280.55 Q2186.07 1284.95 2188.43 1287.27 Q2190.81 1289.56 2195.05 1289.56 Q2197.5 1289.56 2199.79 1288.96 Q2202.11 1288.36 2204.38 1287.15 L2204.38 1291.18 Q2202.08 1292.15 2199.68 1292.66 Q2197.27 1293.17 2194.79 1293.17 Q2188.59 1293.17 2184.95 1289.56 Q2181.34 1285.95 2181.34 1279.79 Q2181.34 1273.43 2184.77 1269.7 Q2188.22 1265.95 2194.05 1265.95 Q2199.28 1265.95 2202.32 1269.33 Q2205.37 1272.68 2205.37 1278.47 M2201.11 1277.22 Q2201.07 1273.73 2199.14 1271.64 Q2197.25 1269.56 2194.1 1269.56 Q2190.53 1269.56 2188.38 1271.57 Q2186.25 1273.59 2185.93 1277.24 L2201.11 1277.22 Z" fill="#000000" fill-rule="evenodd" fill-opacity="1" /><path clip-path="url(#clip950)" d="M 0 0 M2226.37 1267.34 L2226.37 1271.37 Q2224.56 1270.44 2222.62 1269.98 Q2220.67 1269.51 2218.59 1269.51 Q2215.42 1269.51 2213.82 1270.49 Q2212.25 1271.46 2212.25 1273.4 Q2212.25 1274.88 2213.38 1275.74 Q2214.51 1276.57 2217.94 1277.34 L2219.4 1277.66 Q2223.94 1278.63 2225.83 1280.42 Q2227.76 1282.18 2227.76 1285.35 Q2227.76 1288.96 2224.88 1291.06 Q2222.04 1293.17 2217.04 1293.17 Q2214.95 1293.17 2212.69 1292.75 Q2210.44 1292.36 2207.94 1291.55 L2207.94 1287.15 Q2210.3 1288.38 2212.59 1289 Q2214.88 1289.61 2217.13 1289.61 Q2220.14 1289.61 2221.76 1288.59 Q2223.38 1287.55 2223.38 1285.67 Q2223.38 1283.93 2222.2 1283.01 Q2221.04 1282.08 2217.08 1281.23 L2215.6 1280.88 Q2211.64 1280.05 2209.88 1278.33 Q2208.13 1276.6 2208.13 1273.59 Q2208.13 1269.93 2210.72 1267.94 Q2213.31 1265.95 2218.08 1265.95 Q2220.44 1265.95 2222.52 1266.3 Q2224.61 1266.64 2226.37 1267.34 Z" fill="#000000" fill-rule="evenodd" fill-opacity="1" /><polyline clip-path="url(#clip950)" style="stroke:#e26f46; stroke-width:4; stroke-opacity:1; fill:none" points="
  1752.85,1335.7 1902.85,1335.7 
  "/>
<path clip-path="url(#clip950)" d="M 0 0 M1947.11 1336.54 L1932.36 1336.54 Q1932.71 1343.47 1934.31 1346.41 Q1936.3 1350.02 1939.75 1350.02 Q1943.22 1350.02 1945.14 1346.38 Q1946.83 1343.19 1947.11 1336.54 M1947.04 1332.61 Q1946.39 1326.04 1945.14 1323.72 Q1943.15 1320.06 1939.75 1320.06 Q1936.21 1320.06 1934.33 1323.67 Q1932.85 1326.59 1932.41 1332.61 L1947.04 1332.61 M1939.75 1316.59 Q1945.3 1316.59 1948.47 1321.5 Q1951.65 1326.38 1951.65 1335.04 Q1951.65 1343.67 1948.47 1348.58 Q1945.3 1353.51 1939.75 1353.51 Q1934.17 1353.51 1931.02 1348.58 Q1927.85 1343.67 1927.85 1335.04 Q1927.85 1326.38 1931.02 1321.5 Q1934.17 1316.59 1939.75 1316.59 Z" fill="#000000" fill-rule="evenodd" fill-opacity="1" /><path clip-path="url(#clip950)" d="M 0 0 M1989.01 1324.11 L1980.7 1328.6 L1989.01 1333.12 L1987.66 1335.39 L1979.89 1330.69 L1979.89 1339.41 L1977.25 1339.41 L1977.25 1330.69 L1969.47 1335.39 L1968.13 1333.12 L1976.44 1328.6 L1968.13 1324.11 L1969.47 1321.82 L1977.25 1326.52 L1977.25 1317.79 L1979.89 1317.79 L1979.89 1326.52 L1987.66 1321.82 L1989.01 1324.11 Z" fill="#000000" fill-rule="evenodd" fill-opacity="1" /><path clip-path="url(#clip950)" d="M 0 0 M2019.15 1321.5 Q2015.53 1321.5 2013.71 1325.06 Q2011.9 1328.6 2011.9 1335.73 Q2011.9 1342.84 2013.71 1346.41 Q2015.53 1349.95 2019.15 1349.95 Q2022.78 1349.95 2024.58 1346.41 Q2026.41 1342.84 2026.41 1335.73 Q2026.41 1328.6 2024.58 1325.06 Q2022.78 1321.5 2019.15 1321.5 M2019.15 1317.79 Q2024.96 1317.79 2028.01 1322.4 Q2031.09 1326.98 2031.09 1335.73 Q2031.09 1344.46 2028.01 1349.07 Q2024.96 1353.65 2019.15 1353.65 Q2013.33 1353.65 2010.26 1349.07 Q2007.2 1344.46 2007.2 1335.73 Q2007.2 1326.98 2010.26 1322.4 Q2013.33 1317.79 2019.15 1317.79 Z" fill="#000000" fill-rule="evenodd" fill-opacity="1" /><path clip-path="url(#clip950)" d="M 0 0 M2036.16 1347.1 L2041.04 1347.1 L2041.04 1352.98 L2036.16 1352.98 L2036.16 1347.1 Z" fill="#000000" fill-rule="evenodd" fill-opacity="1" /><path clip-path="url(#clip950)" d="M 0 0 M2046.16 1318.42 L2064.52 1318.42 L2064.52 1322.35 L2050.44 1322.35 L2050.44 1330.83 Q2051.46 1330.48 2052.48 1330.32 Q2053.5 1330.13 2054.52 1330.13 Q2060.3 1330.13 2063.68 1333.3 Q2067.06 1336.47 2067.06 1341.89 Q2067.06 1347.47 2063.59 1350.57 Q2060.12 1353.65 2053.8 1353.65 Q2051.62 1353.65 2049.35 1353.28 Q2047.11 1352.91 2044.7 1352.17 L2044.7 1347.47 Q2046.78 1348.6 2049.01 1349.16 Q2051.23 1349.72 2053.71 1349.72 Q2057.71 1349.72 2060.05 1347.61 Q2062.39 1345.5 2062.39 1341.89 Q2062.39 1338.28 2060.05 1336.17 Q2057.71 1334.07 2053.71 1334.07 Q2051.83 1334.07 2049.96 1334.48 Q2048.1 1334.9 2046.16 1335.78 L2046.16 1318.42 Z" fill="#000000" fill-rule="evenodd" fill-opacity="1" /><polyline clip-path="url(#clip950)" style="stroke:#3da44d; stroke-width:4; stroke-opacity:1; fill:none" points="
  1752.85,1396.18 1902.85,1396.18 
  "/>
<path clip-path="url(#clip950)" d="M 0 0 M1944.82 1401.4 L1943.8 1396.05 Q1942.76 1390.57 1938.64 1390.57 Q1935.53 1390.57 1934.12 1393.11 Q1932.34 1396.31 1932.34 1400.52 Q1932.34 1405.61 1934.08 1408.04 Q1935.84 1410.52 1938.64 1410.52 Q1941.74 1410.52 1943.4 1405.59 L1944.82 1401.4 M1947.2 1394.32 L1949.49 1387.53 L1953.29 1387.53 L1948.54 1401.58 L1949.47 1406.65 Q1949.68 1407.79 1950.49 1408.74 Q1951.44 1409.85 1952.18 1409.85 L1954.21 1409.85 L1954.21 1413.46 L1951.67 1413.46 Q1949.49 1413.46 1947.55 1411.51 Q1946.6 1410.54 1946.21 1408.51 Q1945.14 1411.08 1942.96 1413.09 Q1941.95 1414.04 1938.64 1414.04 Q1933.2 1414.04 1930.56 1410.52 Q1927.85 1406.89 1927.85 1400.52 Q1927.85 1393.71 1930.79 1390.52 Q1934.05 1386.95 1938.64 1386.95 Q1945.84 1386.95 1947.2 1394.32 Z" fill="#000000" fill-rule="evenodd" fill-opacity="1" /><path clip-path="url(#clip950)" d="M 0 0 M1991.58 1384.59 L1983.27 1389.08 L1991.58 1393.6 L1990.23 1395.87 L1982.46 1391.17 L1982.46 1399.89 L1979.82 1399.89 L1979.82 1391.17 L1972.04 1395.87 L1970.7 1393.6 L1979.01 1389.08 L1970.7 1384.59 L1972.04 1382.3 L1979.82 1387 L1979.82 1378.27 L1982.46 1378.27 L1982.46 1387 L1990.23 1382.3 L1991.58 1384.59 Z" fill="#000000" fill-rule="evenodd" fill-opacity="1" /><path clip-path="url(#clip950)" d="M 0 0 M2021.71 1381.98 Q2018.1 1381.98 2016.27 1385.54 Q2014.47 1389.08 2014.47 1396.21 Q2014.47 1403.32 2016.27 1406.89 Q2018.1 1410.43 2021.71 1410.43 Q2025.35 1410.43 2027.15 1406.89 Q2028.98 1403.32 2028.98 1396.21 Q2028.98 1389.08 2027.15 1385.54 Q2025.35 1381.98 2021.71 1381.98 M2021.71 1378.27 Q2027.52 1378.27 2030.58 1382.88 Q2033.66 1387.46 2033.66 1396.21 Q2033.66 1404.94 2030.58 1409.55 Q2027.52 1414.13 2021.71 1414.13 Q2015.9 1414.13 2012.83 1409.55 Q2009.77 1404.94 2009.77 1396.21 Q2009.77 1387.46 2012.83 1382.88 Q2015.9 1378.27 2021.71 1378.27 Z" fill="#000000" fill-rule="evenodd" fill-opacity="1" /><path clip-path="url(#clip950)" d="M 0 0 M2038.73 1407.58 L2043.61 1407.58 L2043.61 1413.46 L2038.73 1413.46 L2038.73 1407.58 Z" fill="#000000" fill-rule="evenodd" fill-opacity="1" /><path clip-path="url(#clip950)" d="M 0 0 M2048.73 1378.9 L2067.08 1378.9 L2067.08 1382.83 L2053.01 1382.83 L2053.01 1391.31 Q2054.03 1390.96 2055.05 1390.8 Q2056.07 1390.61 2057.08 1390.61 Q2062.87 1390.61 2066.25 1393.78 Q2069.63 1396.95 2069.63 1402.37 Q2069.63 1407.95 2066.16 1411.05 Q2062.69 1414.13 2056.37 1414.13 Q2054.19 1414.13 2051.92 1413.76 Q2049.68 1413.39 2047.27 1412.65 L2047.27 1407.95 Q2049.35 1409.08 2051.58 1409.64 Q2053.8 1410.2 2056.27 1410.2 Q2060.28 1410.2 2062.62 1408.09 Q2064.95 1405.98 2064.95 1402.37 Q2064.95 1398.76 2062.62 1396.65 Q2060.28 1394.55 2056.27 1394.55 Q2054.4 1394.55 2052.52 1394.96 Q2050.67 1395.38 2048.73 1396.26 L2048.73 1378.9 Z" fill="#000000" fill-rule="evenodd" fill-opacity="1" /></svg>
