<?xml version="1.0" encoding="utf-8"?>
<svg xmlns="http://www.w3.org/2000/svg" xmlns:xlink="http://www.w3.org/1999/xlink" width="600" height="400" viewBox="0 0 2400 1600">
<defs>
  <clipPath id="clip800">
    <rect x="0" y="0" width="2400" height="1600"/>
  </clipPath>
</defs>
<path clip-path="url(#clip800)" d="
M0 1600 L2400 1600 L2400 0 L0 0  Z
  " fill="#ffffff" fill-rule="evenodd" fill-opacity="1"/>
<defs>
  <clipPath id="clip801">
    <rect x="480" y="0" width="1681" height="1600"/>
  </clipPath>
</defs>
<path clip-path="url(#clip800)" d="
M272.297 1423.18 L2083.82 1423.18 L2083.82 47.2441 L272.297 47.2441  Z
  " fill="#ffffff" fill-rule="evenodd" fill-opacity="1"/>
<defs>
  <clipPath id="clip802">
    <rect x="272" y="47" width="1813" height="1377"/>
  </clipPath>
</defs>
<polyline clip-path="url(#clip802)" style="stroke:#000000; stroke-linecap:butt; stroke-linejoin:round; stroke-width:2; stroke-opacity:0.1; fill:none" points="
  390.305,1423.18 390.305,47.2441 
  "/>
<polyline clip-path="url(#clip802)" style="stroke:#000000; stroke-linecap:butt; stroke-linejoin:round; stroke-width:2; stroke-opacity:0.1; fill:none" points="
  790.658,1423.18 790.658,47.2441 
  "/>
<polyline clip-path="url(#clip802)" style="stroke:#000000; stroke-linecap:butt; stroke-linejoin:round; stroke-width:2; stroke-opacity:0.1; fill:none" points="
  1191.01,1423.18 1191.01,47.2441 
  "/>
<polyline clip-path="url(#clip802)" style="stroke:#000000; stroke-linecap:butt; stroke-linejoin:round; stroke-width:2; stroke-opacity:0.1; fill:none" points="
  1591.36,1423.18 1591.36,47.2441 
  "/>
<polyline clip-path="url(#clip802)" style="stroke:#000000; stroke-linecap:butt; stroke-linejoin:round; stroke-width:2; stroke-opacity:0.1; fill:none" points="
  1991.72,1423.18 1991.72,47.2441 
  "/>
<polyline clip-path="url(#clip800)" style="stroke:#000000; stroke-linecap:butt; stroke-linejoin:round; stroke-width:4; stroke-opacity:1; fill:none" points="
  272.297,1423.18 2083.82,1423.18 
  "/>
<polyline clip-path="url(#clip800)" style="stroke:#000000; stroke-linecap:butt; stroke-linejoin:round; stroke-width:4; stroke-opacity:1; fill:none" points="
  390.305,1423.18 390.305,1404.28 
  "/>
<polyline clip-path="url(#clip800)" style="stroke:#000000; stroke-linecap:butt; stroke-linejoin:round; stroke-width:4; stroke-opacity:1; fill:none" points="
  790.658,1423.18 790.658,1404.28 
  "/>
<polyline clip-path="url(#clip800)" style="stroke:#000000; stroke-linecap:butt; stroke-linejoin:round; stroke-width:4; stroke-opacity:1; fill:none" points="
  1191.01,1423.18 1191.01,1404.28 
  "/>
<polyline clip-path="url(#clip800)" style="stroke:#000000; stroke-linecap:butt; stroke-linejoin:round; stroke-width:4; stroke-opacity:1; fill:none" points="
  1591.36,1423.18 1591.36,1404.28 
  "/>
<polyline clip-path="url(#clip800)" style="stroke:#000000; stroke-linecap:butt; stroke-linejoin:round; stroke-width:4; stroke-opacity:1; fill:none" points="
  1991.72,1423.18 1991.72,1404.28 
  "/>
<path clip-path="url(#clip800)" d="M380.687 1481.64 L388.326 1481.64 L388.326 1455.28 L380.016 1456.95 L380.016 1452.69 L388.28 1451.02 L392.955 1451.02 L392.955 1481.64 L400.594 1481.64 L400.594 1485.58 L380.687 1485.58 L380.687 1481.64 Z" fill="#000000" fill-rule="evenodd" fill-opacity="1" /><path clip-path="url(#clip800)" d="M785.311 1481.64 L801.63 1481.64 L801.63 1485.58 L779.686 1485.58 L779.686 1481.64 Q782.348 1478.89 786.931 1474.26 Q791.537 1469.61 792.718 1468.27 Q794.963 1465.74 795.843 1464.01 Q796.746 1462.25 796.746 1460.56 Q796.746 1457.8 794.801 1456.07 Q792.88 1454.33 789.778 1454.33 Q787.579 1454.33 785.125 1455.09 Q782.695 1455.86 779.917 1457.41 L779.917 1452.69 Q782.741 1451.55 785.195 1450.97 Q787.649 1450.39 789.686 1450.39 Q795.056 1450.39 798.25 1453.08 Q801.445 1455.77 801.445 1460.26 Q801.445 1462.39 800.635 1464.31 Q799.848 1466.2 797.741 1468.8 Q797.162 1469.47 794.061 1472.69 Q790.959 1475.88 785.311 1481.64 Z" fill="#000000" fill-rule="evenodd" fill-opacity="1" /><path clip-path="url(#clip800)" d="M1195.26 1466.95 Q1198.61 1467.66 1200.49 1469.93 Q1202.39 1472.2 1202.39 1475.53 Q1202.39 1480.65 1198.87 1483.45 Q1195.35 1486.25 1188.87 1486.25 Q1186.69 1486.25 1184.38 1485.81 Q1182.09 1485.39 1179.63 1484.54 L1179.63 1480.02 Q1181.58 1481.16 1183.89 1481.74 Q1186.21 1482.32 1188.73 1482.32 Q1193.13 1482.32 1195.42 1480.58 Q1197.74 1478.84 1197.74 1475.53 Q1197.74 1472.48 1195.58 1470.77 Q1193.45 1469.03 1189.63 1469.03 L1185.61 1469.03 L1185.61 1465.19 L1189.82 1465.19 Q1193.27 1465.19 1195.1 1463.82 Q1196.93 1462.43 1196.93 1459.84 Q1196.93 1457.18 1195.03 1455.77 Q1193.15 1454.33 1189.63 1454.33 Q1187.71 1454.33 1185.51 1454.75 Q1183.31 1455.16 1180.68 1456.04 L1180.68 1451.88 Q1183.34 1451.14 1185.65 1450.77 Q1187.99 1450.39 1190.05 1450.39 Q1195.37 1450.39 1198.48 1452.83 Q1201.58 1455.23 1201.58 1459.35 Q1201.58 1462.22 1199.93 1464.21 Q1198.29 1466.18 1195.26 1466.95 Z" fill="#000000" fill-rule="evenodd" fill-opacity="1" /><path clip-path="url(#clip800)" d="M1594.37 1455.09 L1582.57 1473.54 L1594.37 1473.54 L1594.37 1455.09 M1593.15 1451.02 L1599.03 1451.02 L1599.03 1473.54 L1603.96 1473.54 L1603.96 1477.43 L1599.03 1477.43 L1599.03 1485.58 L1594.37 1485.58 L1594.37 1477.43 L1578.77 1477.43 L1578.77 1472.92 L1593.15 1451.02 Z" fill="#000000" fill-rule="evenodd" fill-opacity="1" /><path clip-path="url(#clip800)" d="M1981.99 1451.02 L2000.35 1451.02 L2000.35 1454.96 L1986.28 1454.96 L1986.28 1463.43 Q1987.3 1463.08 1988.31 1462.92 Q1989.33 1462.73 1990.35 1462.73 Q1996.14 1462.73 1999.52 1465.9 Q2002.9 1469.08 2002.9 1474.49 Q2002.9 1480.07 1999.42 1483.17 Q1995.95 1486.25 1989.63 1486.25 Q1987.46 1486.25 1985.19 1485.88 Q1982.94 1485.51 1980.54 1484.77 L1980.54 1480.07 Q1982.62 1481.2 1984.84 1481.76 Q1987.06 1482.32 1989.54 1482.32 Q1993.55 1482.32 1995.88 1480.21 Q1998.22 1478.1 1998.22 1474.49 Q1998.22 1470.88 1995.88 1468.77 Q1993.55 1466.67 1989.54 1466.67 Q1987.67 1466.67 1985.79 1467.08 Q1983.94 1467.5 1981.99 1468.38 L1981.99 1451.02 Z" fill="#000000" fill-rule="evenodd" fill-opacity="1" /><path clip-path="url(#clip800)" d="M863.832 1520.52 L870.325 1520.52 L880.319 1560.69 L890.282 1520.52 L897.507 1520.52 L907.501 1560.69 L917.463 1520.52 L923.988 1520.52 L912.052 1568.04 L903.968 1568.04 L893.942 1526.79 L883.82 1568.04 L875.736 1568.04 L863.832 1520.52 Z" fill="#000000" fill-rule="evenodd" fill-opacity="1" /><path clip-path="url(#clip800)" d="M930.831 1532.4 L936.688 1532.4 L936.688 1568.04 L930.831 1568.04 L930.831 1532.4 M930.831 1518.52 L936.688 1518.52 L936.688 1525.93 L930.831 1525.93 L930.831 1518.52 Z" fill="#000000" fill-rule="evenodd" fill-opacity="1" /><path clip-path="url(#clip800)" d="M978.574 1546.53 L978.574 1568.04 L972.718 1568.04 L972.718 1546.72 Q972.718 1541.66 970.744 1539.14 Q968.771 1536.63 964.824 1536.63 Q960.082 1536.63 957.344 1539.65 Q954.607 1542.68 954.607 1547.9 L954.607 1568.04 L948.719 1568.04 L948.719 1532.4 L954.607 1532.4 L954.607 1537.93 Q956.708 1534.72 959.541 1533.13 Q962.405 1531.54 966.129 1531.54 Q972.272 1531.54 975.423 1535.36 Q978.574 1539.14 978.574 1546.53 Z" fill="#000000" fill-rule="evenodd" fill-opacity="1" /><path clip-path="url(#clip800)" d="M1013.71 1537.81 L1013.71 1518.52 L1019.57 1518.52 L1019.57 1568.04 L1013.71 1568.04 L1013.71 1562.7 Q1011.87 1565.88 1009.03 1567.44 Q1006.23 1568.97 1002.29 1568.97 Q995.825 1568.97 991.751 1563.81 Q987.709 1558.65 987.709 1550.25 Q987.709 1541.85 991.751 1536.69 Q995.825 1531.54 1002.29 1531.54 Q1006.23 1531.54 1009.03 1533.1 Q1011.87 1534.62 1013.71 1537.81 M993.756 1550.25 Q993.756 1556.71 996.398 1560.4 Q999.072 1564.07 1003.72 1564.07 Q1008.37 1564.07 1011.04 1560.4 Q1013.71 1556.71 1013.71 1550.25 Q1013.71 1543.79 1011.04 1540.13 Q1008.37 1536.44 1003.72 1536.44 Q999.072 1536.44 996.398 1540.13 Q993.756 1543.79 993.756 1550.25 Z" fill="#000000" fill-rule="evenodd" fill-opacity="1" /><path clip-path="url(#clip800)" d="M1075.08 1533.45 L1075.08 1538.98 Q1072.6 1537.71 1069.92 1537.07 Q1067.25 1536.44 1064.38 1536.44 Q1060.02 1536.44 1057.83 1537.77 Q1055.66 1539.11 1055.66 1541.79 Q1055.66 1543.82 1057.22 1545 Q1058.78 1546.15 1063.49 1547.2 L1065.5 1547.64 Q1071.74 1548.98 1074.35 1551.43 Q1076.99 1553.85 1076.99 1558.21 Q1076.99 1563.17 1073.04 1566.07 Q1069.13 1568.97 1062.25 1568.97 Q1059.39 1568.97 1056.27 1568.39 Q1053.18 1567.85 1049.74 1566.74 L1049.74 1560.69 Q1052.99 1562.38 1056.14 1563.24 Q1059.29 1564.07 1062.38 1564.07 Q1066.52 1564.07 1068.74 1562.66 Q1070.97 1561.23 1070.97 1558.65 Q1070.97 1556.27 1069.35 1554.99 Q1067.76 1553.72 1062.31 1552.54 L1060.28 1552.07 Q1054.84 1550.92 1052.42 1548.56 Q1050 1546.18 1050 1542.04 Q1050 1537.01 1053.56 1534.27 Q1057.13 1531.54 1063.68 1531.54 Q1066.93 1531.54 1069.79 1532.01 Q1072.66 1532.49 1075.08 1533.45 Z" fill="#000000" fill-rule="evenodd" fill-opacity="1" /><path clip-path="url(#clip800)" d="M1091.98 1562.7 L1091.98 1581.6 L1086.09 1581.6 L1086.09 1532.4 L1091.98 1532.4 L1091.98 1537.81 Q1093.83 1534.62 1096.63 1533.1 Q1099.46 1531.54 1103.37 1531.54 Q1109.87 1531.54 1113.91 1536.69 Q1117.98 1541.85 1117.98 1550.25 Q1117.98 1558.65 1113.91 1563.81 Q1109.87 1568.97 1103.37 1568.97 Q1099.46 1568.97 1096.63 1567.44 Q1093.83 1565.88 1091.98 1562.7 M1111.9 1550.25 Q1111.9 1543.79 1109.23 1540.13 Q1106.59 1536.44 1101.94 1536.44 Q1097.29 1536.44 1094.62 1540.13 Q1091.98 1543.79 1091.98 1550.25 Q1091.98 1556.71 1094.62 1560.4 Q1097.29 1564.07 1101.94 1564.07 Q1106.59 1564.07 1109.23 1560.4 Q1111.9 1556.71 1111.9 1550.25 Z" fill="#000000" fill-rule="evenodd" fill-opacity="1" /><path clip-path="url(#clip800)" d="M1158.18 1548.76 L1158.18 1551.62 L1131.26 1551.62 Q1131.64 1557.67 1134.88 1560.85 Q1138.16 1564 1143.99 1564 Q1147.36 1564 1150.51 1563.17 Q1153.69 1562.35 1156.81 1560.69 L1156.81 1566.23 Q1153.66 1567.57 1150.35 1568.27 Q1147.04 1568.97 1143.64 1568.97 Q1135.11 1568.97 1130.11 1564 Q1125.14 1559.04 1125.14 1550.57 Q1125.14 1541.82 1129.86 1536.69 Q1134.6 1531.54 1142.62 1531.54 Q1149.81 1531.54 1153.98 1536.18 Q1158.18 1540.8 1158.18 1548.76 M1152.33 1547.04 Q1152.26 1542.23 1149.62 1539.37 Q1147.01 1536.5 1142.68 1536.5 Q1137.78 1536.5 1134.82 1539.27 Q1131.89 1542.04 1131.45 1547.07 L1152.33 1547.04 Z" fill="#000000" fill-rule="evenodd" fill-opacity="1" /><path clip-path="url(#clip800)" d="M1198.29 1548.76 L1198.29 1551.62 L1171.36 1551.62 Q1171.74 1557.67 1174.99 1560.85 Q1178.27 1564 1184.09 1564 Q1187.46 1564 1190.62 1563.17 Q1193.8 1562.35 1196.92 1560.69 L1196.92 1566.23 Q1193.77 1567.57 1190.46 1568.27 Q1187.15 1568.97 1183.74 1568.97 Q1175.21 1568.97 1170.21 1564 Q1165.25 1559.04 1165.25 1550.57 Q1165.25 1541.82 1169.96 1536.69 Q1174.7 1531.54 1182.72 1531.54 Q1189.92 1531.54 1194.09 1536.18 Q1198.29 1540.8 1198.29 1548.76 M1192.43 1547.04 Q1192.37 1542.23 1189.72 1539.37 Q1187.11 1536.5 1182.79 1536.5 Q1177.88 1536.5 1174.92 1539.27 Q1172 1542.04 1171.55 1547.07 L1192.43 1547.04 Z" fill="#000000" fill-rule="evenodd" fill-opacity="1" /><path clip-path="url(#clip800)" d="M1231.36 1537.81 L1231.36 1518.52 L1237.21 1518.52 L1237.21 1568.04 L1231.36 1568.04 L1231.36 1562.7 Q1229.51 1565.88 1226.68 1567.44 Q1223.88 1568.97 1219.93 1568.97 Q1213.47 1568.97 1209.39 1563.81 Q1205.35 1558.65 1205.35 1550.25 Q1205.35 1541.85 1209.39 1536.69 Q1213.47 1531.54 1219.93 1531.54 Q1223.88 1531.54 1226.68 1533.1 Q1229.51 1534.62 1231.36 1537.81 M1211.4 1550.25 Q1211.4 1556.71 1214.04 1560.4 Q1216.72 1564.07 1221.36 1564.07 Q1226.01 1564.07 1228.68 1560.4 Q1231.36 1556.71 1231.36 1550.25 Q1231.36 1543.79 1228.68 1540.13 Q1226.01 1536.44 1221.36 1536.44 Q1216.72 1536.44 1214.04 1540.13 Q1211.4 1543.79 1211.4 1550.25 Z" fill="#000000" fill-rule="evenodd" fill-opacity="1" /><path clip-path="url(#clip800)" d="M1284.06 1518.58 Q1279.8 1525.9 1277.73 1533.06 Q1275.66 1540.23 1275.66 1547.58 Q1275.66 1554.93 1277.73 1562.16 Q1279.83 1569.35 1284.06 1576.64 L1278.97 1576.64 Q1274.2 1569.16 1271.81 1561.93 Q1269.45 1554.71 1269.45 1547.58 Q1269.45 1540.48 1271.81 1533.29 Q1274.17 1526.09 1278.97 1518.58 L1284.06 1518.58 Z" fill="#000000" fill-rule="evenodd" fill-opacity="1" /><path clip-path="url(#clip800)" d="M1323.18 1539.24 Q1325.38 1535.29 1328.43 1533.41 Q1331.49 1531.54 1335.63 1531.54 Q1341.2 1531.54 1344.22 1535.45 Q1347.24 1539.33 1347.24 1546.53 L1347.24 1568.04 L1341.36 1568.04 L1341.36 1546.72 Q1341.36 1541.59 1339.54 1539.11 Q1337.73 1536.63 1334 1536.63 Q1329.45 1536.63 1326.81 1539.65 Q1324.17 1542.68 1324.17 1547.9 L1324.17 1568.04 L1318.28 1568.04 L1318.28 1546.72 Q1318.28 1541.56 1316.47 1539.11 Q1314.65 1536.63 1310.86 1536.63 Q1306.38 1536.63 1303.73 1539.68 Q1301.09 1542.71 1301.09 1547.9 L1301.09 1568.04 L1295.2 1568.04 L1295.2 1532.4 L1301.09 1532.4 L1301.09 1537.93 Q1303.1 1534.66 1305.9 1533.1 Q1308.7 1531.54 1312.55 1531.54 Q1316.43 1531.54 1319.14 1533.51 Q1321.88 1535.48 1323.18 1539.24 Z" fill="#000000" fill-rule="evenodd" fill-opacity="1" /><path clip-path="url(#clip800)" d="M1402.37 1533.45 L1402.37 1538.98 Q1399.89 1537.71 1397.21 1537.07 Q1394.54 1536.44 1391.68 1536.44 Q1387.32 1536.44 1385.12 1537.77 Q1382.96 1539.11 1382.96 1541.79 Q1382.96 1543.82 1384.52 1545 Q1386.07 1546.15 1390.79 1547.2 L1392.79 1547.64 Q1399.03 1548.98 1401.64 1551.43 Q1404.28 1553.85 1404.28 1558.21 Q1404.28 1563.17 1400.33 1566.07 Q1396.42 1568.97 1389.54 1568.97 Q1386.68 1568.97 1383.56 1568.39 Q1380.47 1567.85 1377.04 1566.74 L1377.04 1560.69 Q1380.28 1562.38 1383.43 1563.24 Q1386.58 1564.07 1389.67 1564.07 Q1393.81 1564.07 1396.04 1562.66 Q1398.27 1561.23 1398.27 1558.65 Q1398.27 1556.27 1396.64 1554.99 Q1395.05 1553.72 1389.61 1552.54 L1387.57 1552.07 Q1382.13 1550.92 1379.71 1548.56 Q1377.29 1546.18 1377.29 1542.04 Q1377.29 1537.01 1380.85 1534.27 Q1384.42 1531.54 1390.98 1531.54 Q1394.22 1531.54 1397.09 1532.01 Q1399.95 1532.49 1402.37 1533.45 Z" fill="#000000" fill-rule="evenodd" fill-opacity="1" /><path clip-path="url(#clip800)" d="M1410.65 1547.58 L1427.8 1547.58 L1427.8 1552.8 L1410.65 1552.8 L1410.65 1547.58 Z" fill="#000000" fill-rule="evenodd" fill-opacity="1" /><path clip-path="url(#clip800)" d="M1439.07 1562.63 L1449.57 1562.63 L1449.57 1526.38 L1438.15 1528.67 L1438.15 1522.82 L1449.51 1520.52 L1455.94 1520.52 L1455.94 1562.63 L1466.44 1562.63 L1466.44 1568.04 L1439.07 1568.04 L1439.07 1562.63 Z" fill="#000000" fill-rule="evenodd" fill-opacity="1" /><path clip-path="url(#clip800)" d="M1477.68 1518.58 L1482.77 1518.58 Q1487.54 1526.09 1489.9 1533.29 Q1492.29 1540.48 1492.29 1547.58 Q1492.29 1554.71 1489.9 1561.93 Q1487.54 1569.16 1482.77 1576.64 L1477.68 1576.64 Q1481.91 1569.35 1483.98 1562.16 Q1486.08 1554.93 1486.08 1547.58 Q1486.08 1540.23 1483.98 1533.06 Q1481.91 1525.9 1477.68 1518.58 Z" fill="#000000" fill-rule="evenodd" fill-opacity="1" /><polyline clip-path="url(#clip802)" style="stroke:#000000; stroke-linecap:butt; stroke-linejoin:round; stroke-width:2; stroke-opacity:0.1; fill:none" points="
  272.297,1423.18 2083.82,1423.18 
  "/>
<polyline clip-path="url(#clip802)" style="stroke:#000000; stroke-linecap:butt; stroke-linejoin:round; stroke-width:2; stroke-opacity:0.1; fill:none" points="
  272.297,1079.2 2083.82,1079.2 
  "/>
<polyline clip-path="url(#clip802)" style="stroke:#000000; stroke-linecap:butt; stroke-linejoin:round; stroke-width:2; stroke-opacity:0.1; fill:none" points="
  272.297,735.212 2083.82,735.212 
  "/>
<polyline clip-path="url(#clip802)" style="stroke:#000000; stroke-linecap:butt; stroke-linejoin:round; stroke-width:2; stroke-opacity:0.1; fill:none" points="
  272.297,391.228 2083.82,391.228 
  "/>
<polyline clip-path="url(#clip802)" style="stroke:#000000; stroke-linecap:butt; stroke-linejoin:round; stroke-width:2; stroke-opacity:0.1; fill:none" points="
  272.297,47.2441 2083.82,47.2441 
  "/>
<polyline clip-path="url(#clip800)" style="stroke:#000000; stroke-linecap:butt; stroke-linejoin:round; stroke-width:4; stroke-opacity:1; fill:none" points="
  272.297,1423.18 272.297,47.2441 
  "/>
<polyline clip-path="url(#clip800)" style="stroke:#000000; stroke-linecap:butt; stroke-linejoin:round; stroke-width:4; stroke-opacity:1; fill:none" points="
  272.297,1423.18 288.751,1423.18 
  "/>
<polyline clip-path="url(#clip800)" style="stroke:#000000; stroke-linecap:butt; stroke-linejoin:round; stroke-width:4; stroke-opacity:1; fill:none" points="
  272.297,1079.2 288.751,1079.2 
  "/>
<polyline clip-path="url(#clip800)" style="stroke:#000000; stroke-linecap:butt; stroke-linejoin:round; stroke-width:4; stroke-opacity:1; fill:none" points="
  272.297,735.212 288.751,735.212 
  "/>
<polyline clip-path="url(#clip800)" style="stroke:#000000; stroke-linecap:butt; stroke-linejoin:round; stroke-width:4; stroke-opacity:1; fill:none" points="
  272.297,391.228 288.751,391.228 
  "/>
<polyline clip-path="url(#clip800)" style="stroke:#000000; stroke-linecap:butt; stroke-linejoin:round; stroke-width:4; stroke-opacity:1; fill:none" points="
  272.297,47.2441 288.751,47.2441 
  "/>
<path clip-path="url(#clip800)" d="M114.26 1423.63 L143.936 1423.63 L143.936 1427.57 L114.26 1427.57 L114.26 1423.63 Z" fill="#000000" fill-rule="evenodd" fill-opacity="1" /><path clip-path="url(#clip800)" d="M166.876 1409.97 L155.07 1428.42 L166.876 1428.42 L166.876 1409.97 M165.649 1405.9 L171.528 1405.9 L171.528 1428.42 L176.459 1428.42 L176.459 1432.31 L171.528 1432.31 L171.528 1440.46 L166.876 1440.46 L166.876 1432.31 L151.274 1432.31 L151.274 1427.8 L165.649 1405.9 Z" fill="#000000" fill-rule="evenodd" fill-opacity="1" /><path clip-path="url(#clip800)" d="M194.19 1408.98 Q190.579 1408.98 188.75 1412.54 Q186.945 1416.08 186.945 1423.21 Q186.945 1430.32 188.75 1433.89 Q190.579 1437.43 194.19 1437.43 Q197.825 1437.43 199.63 1433.89 Q201.459 1430.32 201.459 1423.21 Q201.459 1416.08 199.63 1412.54 Q197.825 1408.98 194.19 1408.98 M194.19 1405.27 Q200 1405.27 203.056 1409.88 Q206.135 1414.46 206.135 1423.21 Q206.135 1431.94 203.056 1436.55 Q200 1441.13 194.19 1441.13 Q188.38 1441.13 185.301 1436.55 Q182.246 1431.94 182.246 1423.21 Q182.246 1414.46 185.301 1409.88 Q188.38 1405.27 194.19 1405.27 Z" fill="#000000" fill-rule="evenodd" fill-opacity="1" /><path clip-path="url(#clip800)" d="M224.352 1408.98 Q220.741 1408.98 218.912 1412.54 Q217.107 1416.08 217.107 1423.21 Q217.107 1430.32 218.912 1433.89 Q220.741 1437.43 224.352 1437.43 Q227.986 1437.43 229.792 1433.89 Q231.621 1430.32 231.621 1423.21 Q231.621 1416.08 229.792 1412.54 Q227.986 1408.98 224.352 1408.98 M224.352 1405.27 Q230.162 1405.27 233.218 1409.88 Q236.297 1414.46 236.297 1423.21 Q236.297 1431.94 233.218 1436.55 Q230.162 1441.13 224.352 1441.13 Q218.542 1441.13 215.463 1436.55 Q212.408 1431.94 212.408 1423.21 Q212.408 1414.46 215.463 1409.88 Q218.542 1405.27 224.352 1405.27 Z" fill="#000000" fill-rule="evenodd" fill-opacity="1" /><path clip-path="url(#clip800)" d="M114.26 1079.65 L143.936 1079.65 L143.936 1083.58 L114.26 1083.58 L114.26 1079.65 Z" fill="#000000" fill-rule="evenodd" fill-opacity="1" /><path clip-path="url(#clip800)" d="M158.056 1092.54 L174.376 1092.54 L174.376 1096.48 L152.431 1096.48 L152.431 1092.54 Q155.093 1089.79 159.677 1085.16 Q164.283 1080.5 165.464 1079.16 Q167.709 1076.64 168.589 1074.9 Q169.491 1073.14 169.491 1071.45 Q169.491 1068.7 167.547 1066.96 Q165.626 1065.23 162.524 1065.23 Q160.325 1065.23 157.871 1065.99 Q155.44 1066.75 152.663 1068.3 L152.663 1063.58 Q155.487 1062.45 157.94 1061.87 Q160.394 1061.29 162.431 1061.29 Q167.802 1061.29 170.996 1063.98 Q174.19 1066.66 174.19 1071.15 Q174.19 1073.28 173.38 1075.2 Q172.593 1077.1 170.487 1079.69 Q169.908 1080.36 166.806 1083.58 Q163.704 1086.78 158.056 1092.54 Z" fill="#000000" fill-rule="evenodd" fill-opacity="1" /><path clip-path="url(#clip800)" d="M194.19 1064.99 Q190.579 1064.99 188.75 1068.56 Q186.945 1072.1 186.945 1079.23 Q186.945 1086.34 188.75 1089.9 Q190.579 1093.44 194.19 1093.44 Q197.825 1093.44 199.63 1089.9 Q201.459 1086.34 201.459 1079.23 Q201.459 1072.1 199.63 1068.56 Q197.825 1064.99 194.19 1064.99 M194.19 1061.29 Q200 1061.29 203.056 1065.9 Q206.135 1070.48 206.135 1079.23 Q206.135 1087.96 203.056 1092.56 Q200 1097.15 194.19 1097.15 Q188.38 1097.15 185.301 1092.56 Q182.246 1087.96 182.246 1079.23 Q182.246 1070.48 185.301 1065.9 Q188.38 1061.29 194.19 1061.29 Z" fill="#000000" fill-rule="evenodd" fill-opacity="1" /><path clip-path="url(#clip800)" d="M224.352 1064.99 Q220.741 1064.99 218.912 1068.56 Q217.107 1072.1 217.107 1079.23 Q217.107 1086.34 218.912 1089.9 Q220.741 1093.44 224.352 1093.44 Q227.986 1093.44 229.792 1089.9 Q231.621 1086.34 231.621 1079.23 Q231.621 1072.1 229.792 1068.56 Q227.986 1064.99 224.352 1064.99 M224.352 1061.29 Q230.162 1061.29 233.218 1065.9 Q236.297 1070.48 236.297 1079.23 Q236.297 1087.96 233.218 1092.56 Q230.162 1097.15 224.352 1097.15 Q218.542 1097.15 215.463 1092.56 Q212.408 1087.96 212.408 1079.23 Q212.408 1070.48 215.463 1065.9 Q218.542 1061.29 224.352 1061.29 Z" fill="#000000" fill-rule="evenodd" fill-opacity="1" /><path clip-path="url(#clip800)" d="M224.352 721.011 Q220.741 721.011 218.912 724.575 Q217.107 728.117 217.107 735.247 Q217.107 742.353 218.912 745.918 Q220.741 749.46 224.352 749.46 Q227.986 749.46 229.792 745.918 Q231.621 742.353 231.621 735.247 Q231.621 728.117 229.792 724.575 Q227.986 721.011 224.352 721.011 M224.352 717.307 Q230.162 717.307 233.218 721.913 Q236.297 726.497 236.297 735.247 Q236.297 743.973 233.218 748.58 Q230.162 753.163 224.352 753.163 Q218.542 753.163 215.463 748.58 Q212.408 743.973 212.408 735.247 Q212.408 726.497 215.463 721.913 Q218.542 717.307 224.352 717.307 Z" fill="#000000" fill-rule="evenodd" fill-opacity="1" /><path clip-path="url(#clip800)" d="M158.056 404.573 L174.376 404.573 L174.376 408.508 L152.431 408.508 L152.431 404.573 Q155.093 401.818 159.677 397.189 Q164.283 392.536 165.464 391.193 Q167.709 388.67 168.589 386.934 Q169.491 385.175 169.491 383.485 Q169.491 380.73 167.547 378.994 Q165.626 377.258 162.524 377.258 Q160.325 377.258 157.871 378.022 Q155.44 378.786 152.663 380.337 L152.663 375.615 Q155.487 374.48 157.94 373.902 Q160.394 373.323 162.431 373.323 Q167.802 373.323 170.996 376.008 Q174.19 378.693 174.19 383.184 Q174.19 385.314 173.38 387.235 Q172.593 389.133 170.487 391.726 Q169.908 392.397 166.806 395.615 Q163.704 398.809 158.056 404.573 Z" fill="#000000" fill-rule="evenodd" fill-opacity="1" /><path clip-path="url(#clip800)" d="M194.19 377.027 Q190.579 377.027 188.75 380.592 Q186.945 384.133 186.945 391.263 Q186.945 398.369 188.75 401.934 Q190.579 405.476 194.19 405.476 Q197.825 405.476 199.63 401.934 Q201.459 398.369 201.459 391.263 Q201.459 384.133 199.63 380.592 Q197.825 377.027 194.19 377.027 M194.19 373.323 Q200 373.323 203.056 377.929 Q206.135 382.513 206.135 391.263 Q206.135 399.99 203.056 404.596 Q200 409.179 194.19 409.179 Q188.38 409.179 185.301 404.596 Q182.246 399.99 182.246 391.263 Q182.246 382.513 185.301 377.929 Q188.38 373.323 194.19 373.323 Z" fill="#000000" fill-rule="evenodd" fill-opacity="1" /><path clip-path="url(#clip800)" d="M224.352 377.027 Q220.741 377.027 218.912 380.592 Q217.107 384.133 217.107 391.263 Q217.107 398.369 218.912 401.934 Q220.741 405.476 224.352 405.476 Q227.986 405.476 229.792 401.934 Q231.621 398.369 231.621 391.263 Q231.621 384.133 229.792 380.592 Q227.986 377.027 224.352 377.027 M224.352 373.323 Q230.162 373.323 233.218 377.929 Q236.297 382.513 236.297 391.263 Q236.297 399.99 233.218 404.596 Q230.162 409.179 224.352 409.179 Q218.542 409.179 215.463 404.596 Q212.408 399.99 212.408 391.263 Q212.408 382.513 215.463 377.929 Q218.542 373.323 224.352 373.323 Z" fill="#000000" fill-rule="evenodd" fill-opacity="1" /><path clip-path="url(#clip800)" d="M166.876 34.0381 L155.07 52.4871 L166.876 52.4871 L166.876 34.0381 M165.649 29.9641 L171.528 29.9641 L171.528 52.4871 L176.459 52.4871 L176.459 56.376 L171.528 56.376 L171.528 64.5241 L166.876 64.5241 L166.876 56.376 L151.274 56.376 L151.274 51.8621 L165.649 29.9641 Z" fill="#000000" fill-rule="evenodd" fill-opacity="1" /><path clip-path="url(#clip800)" d="M194.19 33.0428 Q190.579 33.0428 188.75 36.6076 Q186.945 40.1492 186.945 47.2788 Q186.945 54.3853 188.75 57.9501 Q190.579 61.4917 194.19 61.4917 Q197.825 61.4917 199.63 57.9501 Q201.459 54.3853 201.459 47.2788 Q201.459 40.1492 199.63 36.6076 Q197.825 33.0428 194.19 33.0428 M194.19 29.3391 Q200 29.3391 203.056 33.9456 Q206.135 38.5289 206.135 47.2788 Q206.135 56.0056 203.056 60.6121 Q200 65.1954 194.19 65.1954 Q188.38 65.1954 185.301 60.6121 Q182.246 56.0056 182.246 47.2788 Q182.246 38.5289 185.301 33.9456 Q188.38 29.3391 194.19 29.3391 Z" fill="#000000" fill-rule="evenodd" fill-opacity="1" /><path clip-path="url(#clip800)" d="M224.352 33.0428 Q220.741 33.0428 218.912 36.6076 Q217.107 40.1492 217.107 47.2788 Q217.107 54.3853 218.912 57.9501 Q220.741 61.4917 224.352 61.4917 Q227.986 61.4917 229.792 57.9501 Q231.621 54.3853 231.621 47.2788 Q231.621 40.1492 229.792 36.6076 Q227.986 33.0428 224.352 33.0428 M224.352 29.3391 Q230.162 29.3391 233.218 33.9456 Q236.297 38.5289 236.297 47.2788 Q236.297 56.0056 233.218 60.6121 Q230.162 65.1954 224.352 65.1954 Q218.542 65.1954 215.463 60.6121 Q212.408 56.0056 212.408 47.2788 Q212.408 38.5289 215.463 33.9456 Q218.542 29.3391 224.352 29.3391 Z" fill="#000000" fill-rule="evenodd" fill-opacity="1" /><path clip-path="url(#clip800)" d="M16.4842 1213.9 L16.4842 1183.85 L21.895 1183.85 L21.895 1207.47 L35.9632 1207.47 L35.9632 1184.84 L41.3741 1184.84 L41.3741 1207.47 L58.5933 1207.47 L58.5933 1183.28 L64.0042 1183.28 L64.0042 1213.9 L16.4842 1213.9 Z" fill="#000000" fill-rule="evenodd" fill-opacity="1" /><path clip-path="url(#clip800)" d="M42.4881 1143.33 L64.0042 1143.33 L64.0042 1149.19 L42.679 1149.19 Q37.6183 1149.19 35.1038 1151.16 Q32.5894 1153.14 32.5894 1157.08 Q32.5894 1161.83 35.6131 1164.56 Q38.6368 1167.3 43.8567 1167.3 L64.0042 1167.3 L64.0042 1173.19 L28.3562 1173.19 L28.3562 1167.3 L33.8944 1167.3 Q30.6797 1165.2 29.0883 1162.37 Q27.4968 1159.5 27.4968 1155.78 Q27.4968 1149.64 31.3163 1146.48 Q35.1038 1143.33 42.4881 1143.33 Z" fill="#000000" fill-rule="evenodd" fill-opacity="1" /><path clip-path="url(#clip800)" d="M44.7161 1101.16 L47.5806 1101.16 L47.5806 1128.09 Q53.6281 1127.71 56.8109 1124.46 Q59.9619 1121.18 59.9619 1115.36 Q59.9619 1111.98 59.1344 1108.83 Q58.3069 1105.65 56.6518 1102.53 L62.1899 1102.53 Q63.5267 1105.68 64.227 1108.99 Q64.9272 1112.3 64.9272 1115.71 Q64.9272 1124.24 59.9619 1129.23 Q54.9967 1134.2 46.5303 1134.2 Q37.7774 1134.2 32.6531 1129.49 Q27.4968 1124.75 27.4968 1116.72 Q27.4968 1109.53 32.1438 1105.36 Q36.7589 1101.16 44.7161 1101.16 M42.9973 1107.02 Q38.1912 1107.08 35.3266 1109.72 Q32.4621 1112.33 32.4621 1116.66 Q32.4621 1121.56 35.2312 1124.52 Q38.0002 1127.45 43.0292 1127.9 L42.9973 1107.02 Z" fill="#000000" fill-rule="evenodd" fill-opacity="1" /><path clip-path="url(#clip800)" d="M33.8307 1070.89 Q33.2578 1071.88 33.0032 1073.06 Q32.7167 1074.2 32.7167 1075.6 Q32.7167 1080.57 35.9632 1083.24 Q39.1779 1085.88 45.2253 1085.88 L64.0042 1085.88 L64.0042 1091.77 L28.3562 1091.77 L28.3562 1085.88 L33.8944 1085.88 Q30.6479 1084.04 29.0883 1081.08 Q27.4968 1078.12 27.4968 1073.88 Q27.4968 1073.28 27.5923 1072.55 Q27.656 1071.81 27.8151 1070.92 L33.8307 1070.89 Z" fill="#000000" fill-rule="evenodd" fill-opacity="1" /><path clip-path="url(#clip800)" d="M45.7664 1042.44 Q39.4007 1042.44 35.8996 1045.08 Q32.3984 1047.69 32.3984 1052.43 Q32.3984 1057.14 35.8996 1059.78 Q39.4007 1062.39 45.7664 1062.39 Q52.1003 1062.39 55.6014 1059.78 Q59.1026 1057.14 59.1026 1052.43 Q59.1026 1047.69 55.6014 1045.08 Q52.1003 1042.44 45.7664 1042.44 M59.58 1036.58 Q68.683 1036.58 73.1071 1040.62 Q77.5631 1044.66 77.5631 1053 Q77.5631 1056.09 77.0857 1058.83 Q76.6401 1061.57 75.6852 1064.14 L69.9879 1064.14 Q71.3884 1061.57 72.0568 1059.05 Q72.7252 1056.54 72.7252 1053.93 Q72.7252 1048.17 69.7015 1045.3 Q66.7096 1042.44 60.6303 1042.44 L57.7339 1042.44 Q60.885 1044.25 62.4446 1047.08 Q64.0042 1049.92 64.0042 1053.86 Q64.0042 1060.42 59.0071 1064.43 Q54.01 1068.44 45.7664 1068.44 Q37.491 1068.44 32.4939 1064.43 Q27.4968 1060.42 27.4968 1053.86 Q27.4968 1049.92 29.0564 1047.08 Q30.616 1044.25 33.7671 1042.44 L28.3562 1042.44 L28.3562 1036.58 L59.58 1036.58 Z" fill="#000000" fill-rule="evenodd" fill-opacity="1" /><path clip-path="url(#clip800)" d="M67.3143 1009.69 Q73.68 1012.17 75.6216 1014.52 Q77.5631 1016.88 77.5631 1020.83 L77.5631 1025.5 L72.6615 1025.5 L72.6615 1022.07 Q72.6615 1019.65 71.5157 1018.31 Q70.3699 1016.97 66.1048 1015.35 L63.4312 1014.3 L28.3562 1028.72 L28.3562 1022.51 L56.238 1011.37 L28.3562 1000.23 L28.3562 994.026 L67.3143 1009.69 Z" fill="#000000" fill-rule="evenodd" fill-opacity="1" /><path clip-path="url(#clip800)" d="M14.479 947.174 L19.3487 947.174 L19.3487 952.776 Q19.3487 955.927 20.6219 957.168 Q21.895 958.378 25.2052 958.378 L28.3562 958.378 L28.3562 948.734 L32.9077 948.734 L32.9077 958.378 L64.0042 958.378 L64.0042 964.266 L32.9077 964.266 L32.9077 969.868 L28.3562 969.868 L28.3562 964.266 L25.8736 964.266 Q19.9216 964.266 17.2162 961.497 Q14.479 958.728 14.479 952.712 L14.479 947.174 Z" fill="#000000" fill-rule="evenodd" fill-opacity="1" /><path clip-path="url(#clip800)" d="M14.479 942.272 L14.479 936.416 L64.0042 936.416 L64.0042 942.272 L14.479 942.272 Z" fill="#000000" fill-rule="evenodd" fill-opacity="1" /><path clip-path="url(#clip800)" d="M49.9359 924.767 L28.3562 924.767 L28.3562 918.91 L49.7131 918.91 Q54.7739 918.91 57.3202 916.937 Q59.8346 914.964 59.8346 911.017 Q59.8346 906.274 56.8109 903.537 Q53.7872 900.768 48.5673 900.768 L28.3562 900.768 L28.3562 894.912 L64.0042 894.912 L64.0042 900.768 L58.5296 900.768 Q61.7762 902.901 63.3676 905.733 Q64.9272 908.534 64.9272 912.258 Q64.9272 918.401 61.1078 921.584 Q57.2883 924.767 49.9359 924.767 M27.4968 910.03 L27.4968 910.03 Z" fill="#000000" fill-rule="evenodd" fill-opacity="1" /><path clip-path="url(#clip800)" d="M28.3562 853.216 L45.7028 866.107 L64.0042 852.548 L64.0042 859.455 L49.9996 869.831 L64.0042 880.207 L64.0042 887.114 L45.3526 873.268 L28.3562 885.936 L28.3562 879.029 L41.0558 869.576 L28.3562 860.123 L28.3562 853.216 Z" fill="#000000" fill-rule="evenodd" fill-opacity="1" /><path clip-path="url(#clip800)" d="M14.479 805.505 L19.3487 805.505 L19.3487 811.107 Q19.3487 814.258 20.6219 815.499 Q21.895 816.709 25.2052 816.709 L28.3562 816.709 L28.3562 807.065 L32.9077 807.065 L32.9077 816.709 L64.0042 816.709 L64.0042 822.597 L32.9077 822.597 L32.9077 828.199 L28.3562 828.199 L28.3562 822.597 L25.8736 822.597 Q19.9216 822.597 17.2162 819.828 Q14.479 817.059 14.479 811.043 L14.479 805.505 Z" fill="#000000" fill-rule="evenodd" fill-opacity="1" /><path clip-path="url(#clip800)" d="M33.8307 779.947 Q33.2578 780.934 33.0032 782.111 Q32.7167 783.257 32.7167 784.658 Q32.7167 789.623 35.9632 792.296 Q39.1779 794.938 45.2253 794.938 L64.0042 794.938 L64.0042 800.826 L28.3562 800.826 L28.3562 794.938 L33.8944 794.938 Q30.6479 793.092 29.0883 790.132 Q27.4968 787.172 27.4968 782.939 Q27.4968 782.334 27.5923 781.602 Q27.656 780.87 27.8151 779.979 L33.8307 779.947 Z" fill="#000000" fill-rule="evenodd" fill-opacity="1" /><path clip-path="url(#clip800)" d="M32.4621 761.423 Q32.4621 766.133 36.1542 768.871 Q39.8145 771.608 46.212 771.608 Q52.6095 771.608 56.3017 768.902 Q59.9619 766.165 59.9619 761.423 Q59.9619 756.744 56.2698 754.007 Q52.5777 751.269 46.212 751.269 Q39.8781 751.269 36.186 754.007 Q32.4621 756.744 32.4621 761.423 M27.4968 761.423 Q27.4968 753.784 32.4621 749.423 Q37.4273 745.063 46.212 745.063 Q54.9649 745.063 59.9619 749.423 Q64.9272 753.784 64.9272 761.423 Q64.9272 769.093 59.9619 773.454 Q54.9649 777.783 46.212 777.783 Q37.4273 777.783 32.4621 773.454 Q27.4968 769.093 27.4968 761.423 Z" fill="#000000" fill-rule="evenodd" fill-opacity="1" /><path clip-path="url(#clip800)" d="M35.1993 707.601 Q31.2526 705.405 29.3747 702.349 Q27.4968 699.293 27.4968 695.156 Q27.4968 689.586 31.4117 686.562 Q35.2948 683.538 42.4881 683.538 L64.0042 683.538 L64.0042 689.427 L42.679 689.427 Q37.5546 689.427 35.072 691.241 Q32.5894 693.055 32.5894 696.779 Q32.5894 701.33 35.6131 703.972 Q38.6368 706.614 43.8567 706.614 L64.0042 706.614 L64.0042 712.502 L42.679 712.502 Q37.5228 712.502 35.072 714.317 Q32.5894 716.131 32.5894 719.918 Q32.5894 724.406 35.6449 727.048 Q38.6686 729.69 43.8567 729.69 L64.0042 729.69 L64.0042 735.578 L28.3562 735.578 L28.3562 729.69 L33.8944 729.69 Q30.616 727.685 29.0564 724.884 Q27.4968 722.083 27.4968 718.231 Q27.4968 714.348 29.4702 711.643 Q31.4436 708.906 35.1993 707.601 Z" fill="#000000" fill-rule="evenodd" fill-opacity="1" /><path clip-path="url(#clip800)" d="M14.479 651.137 L14.479 645.28 L64.0042 645.28 L64.0042 651.137 L14.479 651.137 Z" fill="#000000" fill-rule="evenodd" fill-opacity="1" /><path clip-path="url(#clip800)" d="M44.7161 602.535 L47.5806 602.535 L47.5806 629.462 Q53.6281 629.08 56.8109 625.833 Q59.9619 622.555 59.9619 616.73 Q59.9619 613.356 59.1344 610.205 Q58.3069 607.023 56.6518 603.903 L62.1899 603.903 Q63.5267 607.054 64.227 610.365 Q64.9272 613.675 64.9272 617.08 Q64.9272 625.61 59.9619 630.607 Q54.9967 635.573 46.5303 635.573 Q37.7774 635.573 32.6531 630.862 Q27.4968 626.12 27.4968 618.099 Q27.4968 610.906 32.1438 606.736 Q36.7589 602.535 44.7161 602.535 M42.9973 608.391 Q38.1912 608.455 35.3266 611.097 Q32.4621 613.707 32.4621 618.035 Q32.4621 622.937 35.2312 625.897 Q38.0002 628.825 43.0292 629.271 L42.9973 608.391 Z" fill="#000000" fill-rule="evenodd" fill-opacity="1" /><path clip-path="url(#clip800)" d="M46.0847 576.722 Q46.0847 583.82 47.7079 586.557 Q49.3312 589.294 53.2461 589.294 Q56.3653 589.294 58.2114 587.257 Q60.0256 585.188 60.0256 581.655 Q60.0256 576.785 56.5881 573.857 Q53.1188 570.897 47.3897 570.897 L46.0847 570.897 L46.0847 576.722 M43.6657 565.041 L64.0042 565.041 L64.0042 570.897 L58.5933 570.897 Q61.8398 572.902 63.3994 575.894 Q64.9272 578.886 64.9272 583.215 Q64.9272 588.689 61.8716 591.936 Q58.7843 595.151 53.6281 595.151 Q47.6125 595.151 44.5569 591.14 Q41.5014 587.098 41.5014 579.109 L41.5014 570.897 L40.9285 570.897 Q36.8862 570.897 34.6901 573.571 Q32.4621 576.213 32.4621 581.019 Q32.4621 584.074 33.1941 586.971 Q33.9262 589.867 35.3903 592.541 L29.9795 592.541 Q28.7381 589.326 28.1334 586.302 Q27.4968 583.278 27.4968 580.414 Q27.4968 572.68 31.5072 568.86 Q35.5176 565.041 43.6657 565.041 Z" fill="#000000" fill-rule="evenodd" fill-opacity="1" /><path clip-path="url(#clip800)" d="M14.479 534.931 L19.3487 534.931 L19.3487 540.533 Q19.3487 543.684 20.6219 544.925 Q21.895 546.135 25.2052 546.135 L28.3562 546.135 L28.3562 536.491 L32.9077 536.491 L32.9077 546.135 L64.0042 546.135 L64.0042 552.023 L32.9077 552.023 L32.9077 557.625 L28.3562 557.625 L28.3562 552.023 L25.8736 552.023 Q19.9216 552.023 17.2162 549.254 Q14.479 546.485 14.479 540.469 L14.479 534.931 Z" fill="#000000" fill-rule="evenodd" fill-opacity="1" /><path clip-path="url(#clip800)" d="M14.5426 495.241 Q21.8632 499.506 29.0246 501.575 Q36.186 503.643 43.5384 503.643 Q50.8908 503.643 58.1159 501.575 Q65.3091 499.474 72.5979 495.241 L72.5979 500.333 Q65.1182 505.108 57.8931 507.495 Q50.668 509.85 43.5384 509.85 Q36.4406 509.85 29.2474 507.495 Q22.0542 505.139 14.5426 500.333 L14.5426 495.241 Z" fill="#000000" fill-rule="evenodd" fill-opacity="1" /><path clip-path="url(#clip800)" d="M16.4842 487.857 L16.4842 481.364 L56.6518 471.369 L16.4842 461.407 L16.4842 454.182 L56.6518 444.188 L16.4842 434.225 L16.4842 427.701 L64.0042 439.636 L64.0042 447.721 L22.7544 457.747 L64.0042 467.868 L64.0042 475.953 L16.4842 487.857 Z" fill="#000000" fill-rule="evenodd" fill-opacity="1" /><path clip-path="url(#clip800)" d="M35.1993 370.95 Q31.2526 368.754 29.3747 365.699 Q27.4968 362.643 27.4968 358.505 Q27.4968 352.935 31.4117 349.912 Q35.2948 346.888 42.4881 346.888 L64.0042 346.888 L64.0042 352.776 L42.679 352.776 Q37.5546 352.776 35.072 354.59 Q32.5894 356.405 32.5894 360.129 Q32.5894 364.68 35.6131 367.322 Q38.6368 369.964 43.8567 369.964 L64.0042 369.964 L64.0042 375.852 L42.679 375.852 Q37.5228 375.852 35.072 377.666 Q32.5894 379.48 32.5894 383.268 Q32.5894 387.756 35.6449 390.398 Q38.6686 393.039 43.8567 393.039 L64.0042 393.039 L64.0042 398.928 L28.3562 398.928 L28.3562 393.039 L33.8944 393.039 Q30.616 391.034 29.0564 388.233 Q27.4968 385.432 27.4968 381.581 Q27.4968 377.698 29.4702 374.993 Q31.4436 372.255 35.1993 370.95 Z" fill="#000000" fill-rule="evenodd" fill-opacity="1" /><path clip-path="url(#clip800)" d="M43.5384 338.167 L43.5384 321.011 L48.7583 321.011 L48.7583 338.167 L43.5384 338.167 Z" fill="#000000" fill-rule="evenodd" fill-opacity="1" /><path clip-path="url(#clip800)" d="M58.5933 305.32 L58.5933 282.881 L64.0042 282.881 L64.0042 313.054 L58.5933 313.054 Q54.8057 309.394 48.44 303.092 Q42.0425 296.758 40.1964 295.135 Q36.7271 292.047 34.34 290.838 Q31.921 289.597 29.5975 289.597 Q25.8099 289.597 23.4228 292.27 Q21.0356 294.912 21.0356 299.177 Q21.0356 302.201 22.086 305.575 Q23.1363 308.917 25.2688 312.736 L18.7758 312.736 Q17.2162 308.853 16.4205 305.479 Q15.6248 302.105 15.6248 299.304 Q15.6248 291.92 19.3169 287.528 Q23.009 283.135 29.1837 283.135 Q32.112 283.135 34.7537 284.249 Q37.3637 285.332 40.9285 288.228 Q41.8515 289.024 46.2757 293.289 Q50.668 297.554 58.5933 305.32 Z" fill="#000000" fill-rule="evenodd" fill-opacity="1" /><path clip-path="url(#clip800)" d="M14.5426 271.136 L14.5426 266.043 Q22.0542 261.269 29.2474 258.914 Q36.4406 256.527 43.5384 256.527 Q50.668 256.527 57.8931 258.914 Q65.1182 261.269 72.5979 266.043 L72.5979 271.136 Q65.3091 266.903 58.1159 264.834 Q50.8908 262.733 43.5384 262.733 Q36.186 262.733 29.0246 264.834 Q21.8632 266.903 14.5426 271.136 Z" fill="#000000" fill-rule="evenodd" fill-opacity="1" /><circle clip-path="url(#clip802)" cx="323.566" cy="358.701" r="14" fill="#0000ff" fill-rule="evenodd" fill-opacity="1" stroke="#000000" stroke-opacity="1" stroke-width="3.2"/>
<circle clip-path="url(#clip802)" cx="407.12" cy="335.681" r="14" fill="#0000ff" fill-rule="evenodd" fill-opacity="1" stroke="#000000" stroke-opacity="1" stroke-width="3.2"/>
<circle clip-path="url(#clip802)" cx="515.615" cy="302.673" r="14" fill="#0000ff" fill-rule="evenodd" fill-opacity="1" stroke="#000000" stroke-opacity="1" stroke-width="3.2"/>
<circle clip-path="url(#clip802)" cx="708.986" cy="257.335" r="14" fill="#0000ff" fill-rule="evenodd" fill-opacity="1" stroke="#000000" stroke-opacity="1" stroke-width="3.2"/>
<circle clip-path="url(#clip802)" cx="910.363" cy="221.518" r="14" fill="#0000ff" fill-rule="evenodd" fill-opacity="1" stroke="#000000" stroke-opacity="1" stroke-width="3.2"/>
<circle clip-path="url(#clip802)" cx="1045.68" cy="186.481" r="14" fill="#0000ff" fill-rule="evenodd" fill-opacity="1" stroke="#000000" stroke-opacity="1" stroke-width="3.2"/>
<circle clip-path="url(#clip802)" cx="1189.01" cy="169.08" r="14" fill="#0000ff" fill-rule="evenodd" fill-opacity="1" stroke="#000000" stroke-opacity="1" stroke-width="3.2"/>
<circle clip-path="url(#clip802)" cx="1321.13" cy="151.21" r="14" fill="#0000ff" fill-rule="evenodd" fill-opacity="1" stroke="#000000" stroke-opacity="1" stroke-width="3.2"/>
<circle clip-path="url(#clip802)" cx="1512.89" cy="131.546" r="14" fill="#0000ff" fill-rule="evenodd" fill-opacity="1" stroke="#000000" stroke-opacity="1" stroke-width="3.2"/>
<circle clip-path="url(#clip802)" cx="1523.7" cy="110.477" r="14" fill="#0000ff" fill-rule="evenodd" fill-opacity="1" stroke="#000000" stroke-opacity="1" stroke-width="3.2"/>
<circle clip-path="url(#clip802)" cx="1658.62" cy="112.584" r="14" fill="#0000ff" fill-rule="evenodd" fill-opacity="1" stroke="#000000" stroke-opacity="1" stroke-width="3.2"/>
<circle clip-path="url(#clip802)" cx="1725.48" cy="112.193" r="14" fill="#0000ff" fill-rule="evenodd" fill-opacity="1" stroke="#000000" stroke-opacity="1" stroke-width="3.2"/>
<circle clip-path="url(#clip802)" cx="1835.98" cy="93.8555" r="14" fill="#0000ff" fill-rule="evenodd" fill-opacity="1" stroke="#000000" stroke-opacity="1" stroke-width="3.2"/>
<circle clip-path="url(#clip802)" cx="2032.55" cy="71.538" r="14" fill="#0000ff" fill-rule="evenodd" fill-opacity="1" stroke="#000000" stroke-opacity="1" stroke-width="3.2"/>
<path clip-path="url(#clip800)" d="M2056.55 54.258 L2061.23 54.258 L2061.23 84.8828 L2078.06 84.8828 L2078.06 88.818 L2056.55 88.818 L2056.55 54.258 Z" fill="#000000" fill-rule="evenodd" fill-opacity="1" /><path clip-path="url(#clip800)" d="M2082.96 54.258 L2104.82 54.258 L2104.82 58.1931 L2087.64 58.1931 L2087.64 68.4246 L2104.1 68.4246 L2104.1 72.3597 L2087.64 72.3597 L2087.64 84.8828 L2105.23 84.8828 L2105.23 88.818 L2082.96 88.818 L2082.96 54.258 Z" fill="#000000" fill-rule="evenodd" fill-opacity="1" /><path clip-path="url(#clip800)" d="M2147.99 67.869 Q2149.58 64.9986 2151.81 63.6329 Q2154.03 62.2672 2157.04 62.2672 Q2161.09 62.2672 2163.29 65.1144 Q2165.49 67.9384 2165.49 73.1699 L2165.49 88.818 L2161.2 88.818 L2161.2 73.3088 Q2161.2 69.582 2159.89 67.7764 Q2158.57 65.9709 2155.86 65.9709 Q2152.55 65.9709 2150.63 68.1699 Q2148.7 70.369 2148.7 74.1653 L2148.7 88.818 L2144.42 88.818 L2144.42 73.3088 Q2144.42 69.5588 2143.1 67.7764 Q2141.78 65.9709 2139.03 65.9709 Q2135.77 65.9709 2133.84 68.1931 Q2131.92 70.3921 2131.92 74.1653 L2131.92 88.818 L2127.64 88.818 L2127.64 62.8922 L2131.92 62.8922 L2131.92 66.9199 Q2133.38 64.5357 2135.42 63.4014 Q2137.45 62.2672 2140.26 62.2672 Q2143.08 62.2672 2145.05 63.7024 Q2147.04 65.1375 2147.99 67.869 Z" fill="#000000" fill-rule="evenodd" fill-opacity="1" /><path clip-path="url(#clip800)" d="M2196.16 74.7903 L2196.16 76.8736 L2176.58 76.8736 Q2176.85 81.2717 2179.21 83.5865 Q2181.6 85.8782 2185.83 85.8782 Q2188.29 85.8782 2190.58 85.2763 Q2192.89 84.6745 2195.16 83.4708 L2195.16 87.4985 Q2192.87 88.4707 2190.46 88.98 Q2188.06 89.4893 2185.58 89.4893 Q2179.38 89.4893 2175.74 85.8782 Q2172.13 82.2671 2172.13 76.1097 Q2172.13 69.744 2175.56 66.0172 Q2179.01 62.2672 2184.84 62.2672 Q2190.07 62.2672 2193.1 65.6468 Q2196.16 69.0033 2196.16 74.7903 M2191.9 73.5403 Q2191.85 70.0449 2189.93 67.9616 Q2188.03 65.8783 2184.89 65.8783 Q2181.32 65.8783 2179.17 67.8921 Q2177.04 69.906 2176.71 73.5634 L2191.9 73.5403 Z" fill="#000000" fill-rule="evenodd" fill-opacity="1" /><path clip-path="url(#clip800)" d="M2214.93 75.7856 Q2209.77 75.7856 2207.78 76.9662 Q2205.79 78.1467 2205.79 80.9939 Q2205.79 83.2624 2207.27 84.605 Q2208.77 85.9245 2211.34 85.9245 Q2214.89 85.9245 2217.01 83.4245 Q2219.17 80.9013 2219.17 76.7347 L2219.17 75.7856 L2214.93 75.7856 M2223.43 74.0264 L2223.43 88.818 L2219.17 88.818 L2219.17 84.8828 Q2217.71 87.2439 2215.53 88.3781 Q2213.36 89.4893 2210.21 89.4893 Q2206.23 89.4893 2203.87 87.267 Q2201.53 85.0217 2201.53 81.2717 Q2201.53 76.8967 2204.45 74.6745 Q2207.39 72.4523 2213.2 72.4523 L2219.17 72.4523 L2219.17 72.0356 Q2219.17 69.0958 2217.22 67.4986 Q2215.3 65.8783 2211.81 65.8783 Q2209.58 65.8783 2207.48 66.4107 Q2205.37 66.9431 2203.43 68.0079 L2203.43 64.0727 Q2205.76 63.1699 2207.96 62.7301 Q2210.16 62.2672 2212.25 62.2672 Q2217.87 62.2672 2220.65 65.1838 Q2223.43 68.1005 2223.43 74.0264 Z" fill="#000000" fill-rule="evenodd" fill-opacity="1" /><path clip-path="url(#clip800)" d="M2248.73 63.6561 L2248.73 67.6838 Q2246.92 66.7579 2244.98 66.2949 Q2243.03 65.832 2240.95 65.832 Q2237.78 65.832 2236.18 66.8042 Q2234.61 67.7764 2234.61 69.7208 Q2234.61 71.2023 2235.74 72.0588 Q2236.88 72.8921 2240.3 73.656 L2241.76 73.9801 Q2246.3 74.9523 2248.2 76.7347 Q2250.12 78.4939 2250.12 81.6652 Q2250.12 85.2763 2247.25 87.3828 Q2244.4 89.4893 2239.4 89.4893 Q2237.32 89.4893 2235.05 89.0726 Q2232.8 88.6791 2230.3 87.8689 L2230.3 83.4708 Q2232.66 84.6976 2234.95 85.3226 Q2237.25 85.9245 2239.49 85.9245 Q2242.5 85.9245 2244.12 84.9059 Q2245.74 83.8643 2245.74 81.9893 Q2245.74 80.2532 2244.56 79.3273 Q2243.4 78.4013 2239.45 77.5449 L2237.96 77.1977 Q2234.01 76.3643 2232.25 74.6514 Q2230.49 72.9153 2230.49 69.906 Q2230.49 66.2486 2233.08 64.2579 Q2235.67 62.2672 2240.44 62.2672 Q2242.8 62.2672 2244.88 62.6144 Q2246.97 62.9616 2248.73 63.6561 Z" fill="#000000" fill-rule="evenodd" fill-opacity="1" /><circle clip-path="url(#clip802)" cx="323.566" cy="1008.57" r="14" fill="#ff0000" fill-rule="evenodd" fill-opacity="1" stroke="#000000" stroke-opacity="1" stroke-width="3.2"/>
<circle clip-path="url(#clip802)" cx="407.12" cy="1024.62" r="14" fill="#ff0000" fill-rule="evenodd" fill-opacity="1" stroke="#000000" stroke-opacity="1" stroke-width="3.2"/>
<circle clip-path="url(#clip802)" cx="515.615" cy="1087.41" r="14" fill="#ff0000" fill-rule="evenodd" fill-opacity="1" stroke="#000000" stroke-opacity="1" stroke-width="3.2"/>
<circle clip-path="url(#clip802)" cx="708.986" cy="1115.87" r="14" fill="#ff0000" fill-rule="evenodd" fill-opacity="1" stroke="#000000" stroke-opacity="1" stroke-width="3.2"/>
<circle clip-path="url(#clip802)" cx="910.363" cy="1126.88" r="14" fill="#ff0000" fill-rule="evenodd" fill-opacity="1" stroke="#000000" stroke-opacity="1" stroke-width="3.2"/>
<circle clip-path="url(#clip802)" cx="1045.68" cy="1209.91" r="14" fill="#ff0000" fill-rule="evenodd" fill-opacity="1" stroke="#000000" stroke-opacity="1" stroke-width="3.2"/>
<circle clip-path="url(#clip802)" cx="1189.01" cy="1180.6" r="14" fill="#ff0000" fill-rule="evenodd" fill-opacity="1" stroke="#000000" stroke-opacity="1" stroke-width="3.2"/>
<circle clip-path="url(#clip802)" cx="1321.13" cy="1256.73" r="14" fill="#ff0000" fill-rule="evenodd" fill-opacity="1" stroke="#000000" stroke-opacity="1" stroke-width="3.2"/>
<circle clip-path="url(#clip802)" cx="1512.89" cy="1160.89" r="14" fill="#ff0000" fill-rule="evenodd" fill-opacity="1" stroke="#000000" stroke-opacity="1" stroke-width="3.2"/>
<circle clip-path="url(#clip802)" cx="1523.7" cy="1209.04" r="14" fill="#ff0000" fill-rule="evenodd" fill-opacity="1" stroke="#000000" stroke-opacity="1" stroke-width="3.2"/>
<circle clip-path="url(#clip802)" cx="1658.62" cy="1184.56" r="14" fill="#ff0000" fill-rule="evenodd" fill-opacity="1" stroke="#000000" stroke-opacity="1" stroke-width="3.2"/>
<circle clip-path="url(#clip802)" cx="1725.48" cy="1228.25" r="14" fill="#ff0000" fill-rule="evenodd" fill-opacity="1" stroke="#000000" stroke-opacity="1" stroke-width="3.2"/>
<circle clip-path="url(#clip802)" cx="1835.98" cy="1220.46" r="14" fill="#ff0000" fill-rule="evenodd" fill-opacity="1" stroke="#000000" stroke-opacity="1" stroke-width="3.2"/>
<circle clip-path="url(#clip802)" cx="2032.55" cy="1246.94" r="14" fill="#ff0000" fill-rule="evenodd" fill-opacity="1" stroke="#000000" stroke-opacity="1" stroke-width="3.2"/>
<path clip-path="url(#clip800)" d="M2056.55 1229.66 L2061.23 1229.66 L2061.23 1243.83 L2078.22 1243.83 L2078.22 1229.66 L2082.9 1229.66 L2082.9 1264.22 L2078.22 1264.22 L2078.22 1247.77 L2061.23 1247.77 L2061.23 1264.22 L2056.55 1264.22 L2056.55 1229.66 Z" fill="#000000" fill-rule="evenodd" fill-opacity="1" /><path clip-path="url(#clip800)" d="M2127.27 1243.28 Q2128.87 1240.41 2131.09 1239.04 Q2133.31 1237.67 2136.32 1237.67 Q2140.37 1237.67 2142.57 1240.52 Q2144.77 1243.35 2144.77 1248.58 L2144.77 1264.22 L2140.49 1264.22 L2140.49 1248.72 Q2140.49 1244.99 2139.17 1243.18 Q2137.85 1241.38 2135.14 1241.38 Q2131.83 1241.38 2129.91 1243.58 Q2127.99 1245.78 2127.99 1249.57 L2127.99 1264.22 L2123.7 1264.22 L2123.7 1248.72 Q2123.7 1244.97 2122.39 1243.18 Q2121.07 1241.38 2118.31 1241.38 Q2115.05 1241.38 2113.13 1243.6 Q2111.21 1245.8 2111.21 1249.57 L2111.21 1264.22 L2106.92 1264.22 L2106.92 1238.3 L2111.21 1238.3 L2111.21 1242.33 Q2112.66 1239.94 2114.7 1238.81 Q2116.74 1237.67 2119.54 1237.67 Q2122.36 1237.67 2124.33 1239.11 Q2126.32 1240.54 2127.27 1243.28 Z" fill="#000000" fill-rule="evenodd" fill-opacity="1" /><path clip-path="url(#clip800)" d="M2175.44 1250.2 L2175.44 1252.28 L2155.86 1252.28 Q2156.14 1256.68 2158.5 1258.99 Q2160.88 1261.28 2165.12 1261.28 Q2167.57 1261.28 2169.86 1260.68 Q2172.18 1260.08 2174.45 1258.88 L2174.45 1262.91 Q2172.15 1263.88 2169.75 1264.39 Q2167.34 1264.9 2164.86 1264.9 Q2158.66 1264.9 2155.02 1261.28 Q2151.41 1257.67 2151.41 1251.52 Q2151.41 1245.15 2154.84 1241.42 Q2158.29 1237.67 2164.12 1237.67 Q2169.35 1237.67 2172.39 1241.05 Q2175.44 1244.41 2175.44 1250.2 M2171.18 1248.95 Q2171.14 1245.45 2169.21 1243.37 Q2167.32 1241.29 2164.17 1241.29 Q2160.6 1241.29 2158.45 1243.3 Q2156.32 1245.31 2156 1248.97 L2171.18 1248.95 Z" fill="#000000" fill-rule="evenodd" fill-opacity="1" /><path clip-path="url(#clip800)" d="M2194.21 1251.19 Q2189.05 1251.19 2187.06 1252.37 Q2185.07 1253.55 2185.07 1256.4 Q2185.07 1258.67 2186.55 1260.01 Q2188.06 1261.33 2190.63 1261.33 Q2194.17 1261.33 2196.3 1258.83 Q2198.45 1256.31 2198.45 1252.14 L2198.45 1251.19 L2194.21 1251.19 M2202.71 1249.43 L2202.71 1264.22 L2198.45 1264.22 L2198.45 1260.29 Q2196.99 1262.65 2194.82 1263.78 Q2192.64 1264.9 2189.49 1264.9 Q2185.51 1264.9 2183.15 1262.67 Q2180.81 1260.43 2180.81 1256.68 Q2180.81 1252.3 2183.73 1250.08 Q2186.67 1247.86 2192.48 1247.86 L2198.45 1247.86 L2198.45 1247.44 Q2198.45 1244.5 2196.51 1242.91 Q2194.58 1241.29 2191.09 1241.29 Q2188.87 1241.29 2186.76 1241.82 Q2184.65 1242.35 2182.71 1243.41 L2182.71 1239.48 Q2185.05 1238.58 2187.25 1238.14 Q2189.45 1237.67 2191.53 1237.67 Q2197.15 1237.67 2199.93 1240.59 Q2202.71 1243.51 2202.71 1249.43 Z" fill="#000000" fill-rule="evenodd" fill-opacity="1" /><path clip-path="url(#clip800)" d="M2228.01 1239.06 L2228.01 1243.09 Q2226.2 1242.16 2224.26 1241.7 Q2222.32 1241.24 2220.23 1241.24 Q2217.06 1241.24 2215.46 1242.21 Q2213.89 1243.18 2213.89 1245.13 Q2213.89 1246.61 2215.02 1247.47 Q2216.16 1248.3 2219.58 1249.06 L2221.04 1249.39 Q2225.58 1250.36 2227.48 1252.14 Q2229.4 1253.9 2229.4 1257.07 Q2229.4 1260.68 2226.53 1262.79 Q2223.68 1264.9 2218.68 1264.9 Q2216.6 1264.9 2214.33 1264.48 Q2212.08 1264.09 2209.58 1263.28 L2209.58 1258.88 Q2211.95 1260.1 2214.24 1260.73 Q2216.53 1261.33 2218.77 1261.33 Q2221.78 1261.33 2223.4 1260.31 Q2225.02 1259.27 2225.02 1257.4 Q2225.02 1255.66 2223.84 1254.73 Q2222.69 1253.81 2218.73 1252.95 L2217.25 1252.6 Q2213.29 1251.77 2211.53 1250.06 Q2209.77 1248.32 2209.77 1245.31 Q2209.77 1241.66 2212.36 1239.66 Q2214.95 1237.67 2219.72 1237.67 Q2222.08 1237.67 2224.17 1238.02 Q2226.25 1238.37 2228.01 1239.06 Z" fill="#000000" fill-rule="evenodd" fill-opacity="1" /><circle clip-path="url(#clip802)" cx="323.566" cy="711.568" r="14" fill="#008000" fill-rule="evenodd" fill-opacity="1" stroke="#000000" stroke-opacity="1" stroke-width="3.2"/>
<circle clip-path="url(#clip802)" cx="407.12" cy="709.024" r="14" fill="#008000" fill-rule="evenodd" fill-opacity="1" stroke="#000000" stroke-opacity="1" stroke-width="3.2"/>
<circle clip-path="url(#clip802)" cx="515.615" cy="711.386" r="14" fill="#008000" fill-rule="evenodd" fill-opacity="1" stroke="#000000" stroke-opacity="1" stroke-width="3.2"/>
<circle clip-path="url(#clip802)" cx="708.986" cy="711.475" r="14" fill="#008000" fill-rule="evenodd" fill-opacity="1" stroke="#000000" stroke-opacity="1" stroke-width="3.2"/>
<circle clip-path="url(#clip802)" cx="910.363" cy="711.546" r="14" fill="#008000" fill-rule="evenodd" fill-opacity="1" stroke="#000000" stroke-opacity="1" stroke-width="3.2"/>
<circle clip-path="url(#clip802)" cx="1045.68" cy="711.957" r="14" fill="#008000" fill-rule="evenodd" fill-opacity="1" stroke="#000000" stroke-opacity="1" stroke-width="3.2"/>
<circle clip-path="url(#clip802)" cx="1189.01" cy="714.516" r="14" fill="#008000" fill-rule="evenodd" fill-opacity="1" stroke="#000000" stroke-opacity="1" stroke-width="3.2"/>
<circle clip-path="url(#clip802)" cx="1321.13" cy="713.911" r="14" fill="#008000" fill-rule="evenodd" fill-opacity="1" stroke="#000000" stroke-opacity="1" stroke-width="3.2"/>
<circle clip-path="url(#clip802)" cx="1512.89" cy="715.951" r="14" fill="#008000" fill-rule="evenodd" fill-opacity="1" stroke="#000000" stroke-opacity="1" stroke-width="3.2"/>
<circle clip-path="url(#clip802)" cx="1523.7" cy="715.488" r="14" fill="#008000" fill-rule="evenodd" fill-opacity="1" stroke="#000000" stroke-opacity="1" stroke-width="3.2"/>
<circle clip-path="url(#clip802)" cx="1658.62" cy="716.099" r="14" fill="#008000" fill-rule="evenodd" fill-opacity="1" stroke="#000000" stroke-opacity="1" stroke-width="3.2"/>
<circle clip-path="url(#clip802)" cx="1725.48" cy="715.803" r="14" fill="#008000" fill-rule="evenodd" fill-opacity="1" stroke="#000000" stroke-opacity="1" stroke-width="3.2"/>
<circle clip-path="url(#clip802)" cx="1835.98" cy="716.972" r="14" fill="#008000" fill-rule="evenodd" fill-opacity="1" stroke="#000000" stroke-opacity="1" stroke-width="3.2"/>
<circle clip-path="url(#clip802)" cx="2032.55" cy="717.474" r="14" fill="#008000" fill-rule="evenodd" fill-opacity="1" stroke="#000000" stroke-opacity="1" stroke-width="3.2"/>
<path clip-path="url(#clip800)" d="M2072.94 718.551 Q2074.45 719.06 2075.86 720.727 Q2077.29 722.393 2078.73 725.31 L2083.47 734.754 L2078.45 734.754 L2074.03 725.889 Q2072.32 722.417 2070.7 721.282 Q2069.1 720.148 2066.32 720.148 L2061.23 720.148 L2061.23 734.754 L2056.55 734.754 L2056.55 700.194 L2067.11 700.194 Q2073.03 700.194 2075.95 702.671 Q2078.87 705.148 2078.87 710.148 Q2078.87 713.412 2077.34 715.565 Q2075.83 717.717 2072.94 718.551 M2061.23 704.037 L2061.23 716.305 L2067.11 716.305 Q2070.49 716.305 2072.2 714.755 Q2073.94 713.18 2073.94 710.148 Q2073.94 707.116 2072.2 705.588 Q2070.49 704.037 2067.11 704.037 L2061.23 704.037 Z" fill="#000000" fill-rule="evenodd" fill-opacity="1" /><path clip-path="url(#clip800)" d="M2110.86 719.106 L2110.86 734.754 L2106.6 734.754 L2106.6 719.245 Q2106.6 715.565 2105.16 713.736 Q2103.73 711.907 2100.86 711.907 Q2097.41 711.907 2095.42 714.106 Q2093.43 716.305 2093.43 720.102 L2093.43 734.754 L2089.14 734.754 L2089.14 708.829 L2093.43 708.829 L2093.43 712.856 Q2094.96 710.518 2097.02 709.361 Q2099.1 708.204 2101.81 708.204 Q2106.27 708.204 2108.57 710.981 Q2110.86 713.736 2110.86 719.106 Z" fill="#000000" fill-rule="evenodd" fill-opacity="1" /><path clip-path="url(#clip800)" d="M2154.61 713.805 Q2156.2 710.935 2158.43 709.569 Q2160.65 708.204 2163.66 708.204 Q2167.71 708.204 2169.91 711.051 Q2172.11 713.875 2172.11 719.106 L2172.11 734.754 L2167.83 734.754 L2167.83 719.245 Q2167.83 715.518 2166.51 713.713 Q2165.19 711.907 2162.48 711.907 Q2159.17 711.907 2157.25 714.106 Q2155.33 716.305 2155.33 720.102 L2155.33 734.754 L2151.04 734.754 L2151.04 719.245 Q2151.04 715.495 2149.72 713.713 Q2148.4 711.907 2145.65 711.907 Q2142.39 711.907 2140.46 714.13 Q2138.54 716.329 2138.54 720.102 L2138.54 734.754 L2134.26 734.754 L2134.26 708.829 L2138.54 708.829 L2138.54 712.856 Q2140 710.472 2142.04 709.338 Q2144.08 708.204 2146.88 708.204 Q2149.7 708.204 2151.67 709.639 Q2153.66 711.074 2154.61 713.805 Z" fill="#000000" fill-rule="evenodd" fill-opacity="1" /><path clip-path="url(#clip800)" d="M2202.78 720.727 L2202.78 722.81 L2183.2 722.81 Q2183.47 727.208 2185.83 729.523 Q2188.22 731.815 2192.45 731.815 Q2194.91 731.815 2197.2 731.213 Q2199.51 730.611 2201.78 729.407 L2201.78 733.435 Q2199.49 734.407 2197.08 734.916 Q2194.68 735.426 2192.2 735.426 Q2186 735.426 2182.36 731.815 Q2178.75 728.204 2178.75 722.046 Q2178.75 715.68 2182.18 711.954 Q2185.63 708.204 2191.46 708.204 Q2196.69 708.204 2199.72 711.583 Q2202.78 714.94 2202.78 720.727 M2198.52 719.477 Q2198.47 715.981 2196.55 713.898 Q2194.65 711.815 2191.51 711.815 Q2187.94 711.815 2185.79 713.829 Q2183.66 715.843 2183.33 719.5 L2198.52 719.477 Z" fill="#000000" fill-rule="evenodd" fill-opacity="1" /><path clip-path="url(#clip800)" d="M2221.55 721.722 Q2216.39 721.722 2214.4 722.903 Q2212.41 724.083 2212.41 726.93 Q2212.41 729.199 2213.89 730.541 Q2215.39 731.861 2217.96 731.861 Q2221.51 731.861 2223.64 729.361 Q2225.79 726.838 2225.79 722.671 L2225.79 721.722 L2221.55 721.722 M2230.05 719.963 L2230.05 734.754 L2225.79 734.754 L2225.79 730.819 Q2224.33 733.18 2222.15 734.315 Q2219.98 735.426 2216.83 735.426 Q2212.85 735.426 2210.49 733.204 Q2208.15 730.958 2208.15 727.208 Q2208.15 722.833 2211.07 720.611 Q2214.01 718.389 2219.82 718.389 L2225.79 718.389 L2225.79 717.972 Q2225.79 715.032 2223.84 713.435 Q2221.92 711.815 2218.43 711.815 Q2216.2 711.815 2214.1 712.347 Q2211.99 712.88 2210.05 713.944 L2210.05 710.009 Q2212.39 709.106 2214.58 708.667 Q2216.78 708.204 2218.87 708.204 Q2224.49 708.204 2227.27 711.12 Q2230.05 714.037 2230.05 719.963 Z" fill="#000000" fill-rule="evenodd" fill-opacity="1" /><path clip-path="url(#clip800)" d="M2255.35 709.593 L2255.35 713.62 Q2253.54 712.694 2251.6 712.231 Q2249.65 711.768 2247.57 711.768 Q2244.4 711.768 2242.8 712.741 Q2241.23 713.713 2241.23 715.657 Q2241.23 717.139 2242.36 717.995 Q2243.5 718.829 2246.92 719.592 L2248.38 719.917 Q2252.92 720.889 2254.82 722.671 Q2256.74 724.43 2256.74 727.602 Q2256.74 731.213 2253.87 733.319 Q2251.02 735.426 2246.02 735.426 Q2243.94 735.426 2241.67 735.009 Q2239.42 734.616 2236.92 733.805 L2236.92 729.407 Q2239.28 730.634 2241.57 731.259 Q2243.87 731.861 2246.11 731.861 Q2249.12 731.861 2250.74 730.842 Q2252.36 729.801 2252.36 727.926 Q2252.36 726.19 2251.18 725.264 Q2250.02 724.338 2246.07 723.481 L2244.58 723.134 Q2240.63 722.301 2238.87 720.588 Q2237.11 718.852 2237.11 715.843 Q2237.11 712.185 2239.7 710.194 Q2242.29 708.204 2247.06 708.204 Q2249.42 708.204 2251.51 708.551 Q2253.59 708.898 2255.35 709.593 Z" fill="#000000" fill-rule="evenodd" fill-opacity="1" /><path clip-path="url(#clip802)" d="M323.566 616.063 L319.806 626.879 L308.35 627.119 L317.486 634.047 L314.158 645.007 L323.566 638.463 L332.974 645.007 L329.646 634.047 L338.782 627.119 L327.326 626.879 L323.566 616.063 Z" fill="#008000" fill-rule="evenodd" fill-opacity="1" stroke="#000000" stroke-opacity="1" stroke-width="3.2"/>
<path clip-path="url(#clip802)" d="M407.12 609.093 L403.36 619.909 L391.904 620.149 L401.04 627.077 L397.712 638.037 L407.12 631.493 L416.528 638.037 L413.2 627.077 L422.336 620.149 L410.88 619.909 L407.12 609.093 Z" fill="#008000" fill-rule="evenodd" fill-opacity="1" stroke="#000000" stroke-opacity="1" stroke-width="3.2"/>
<path clip-path="url(#clip802)" d="M515.615 638.871 L511.855 649.687 L500.399 649.927 L509.535 656.855 L506.207 667.815 L515.615 661.271 L525.023 667.815 L521.695 656.855 L530.831 649.927 L519.375 649.687 L515.615 638.871 Z" fill="#008000" fill-rule="evenodd" fill-opacity="1" stroke="#000000" stroke-opacity="1" stroke-width="3.2"/>
<path clip-path="url(#clip802)" d="M708.986 621.989 L705.226 632.805 L693.77 633.045 L702.906 639.973 L699.578 650.933 L708.986 644.389 L718.394 650.933 L715.066 639.973 L724.202 633.045 L712.746 632.805 L708.986 621.989 Z" fill="#008000" fill-rule="evenodd" fill-opacity="1" stroke="#000000" stroke-opacity="1" stroke-width="3.2"/>
<path clip-path="url(#clip802)" d="M910.363 597.184 L906.603 608 L895.147 608.24 L904.283 615.168 L900.955 626.128 L910.363 619.584 L919.771 626.128 L916.443 615.168 L925.579 608.24 L914.123 608 L910.363 597.184 Z" fill="#008000" fill-rule="evenodd" fill-opacity="1" stroke="#000000" stroke-opacity="1" stroke-width="3.2"/>
<path clip-path="url(#clip802)" d="M1045.68 645.182 L1041.92 655.998 L1030.47 656.238 L1039.6 663.166 L1036.27 674.126 L1045.68 667.582 L1055.09 674.126 L1051.76 663.166 L1060.9 656.238 L1049.44 655.998 L1045.68 645.182 Z" fill="#008000" fill-rule="evenodd" fill-opacity="1" stroke="#000000" stroke-opacity="1" stroke-width="3.2"/>
<path clip-path="url(#clip802)" d="M1189.01 598.467 L1185.25 609.283 L1173.79 609.523 L1182.93 616.451 L1179.6 627.411 L1189.01 620.867 L1198.42 627.411 L1195.09 616.451 L1204.23 609.523 L1192.77 609.283 L1189.01 598.467 Z" fill="#008000" fill-rule="evenodd" fill-opacity="1" stroke="#000000" stroke-opacity="1" stroke-width="3.2"/>
<path clip-path="url(#clip802)" d="M1321.13 656.724 L1317.37 667.54 L1305.91 667.78 L1315.05 674.708 L1311.72 685.668 L1321.13 679.124 L1330.53 685.668 L1327.21 674.708 L1336.34 667.78 L1324.89 667.54 L1321.13 656.724 Z" fill="#008000" fill-rule="evenodd" fill-opacity="1" stroke="#000000" stroke-opacity="1" stroke-width="3.2"/>
<path clip-path="url(#clip802)" d="M1512.89 541.228 L1509.13 552.044 L1497.68 552.284 L1506.81 559.212 L1503.49 570.172 L1512.89 563.628 L1522.3 570.172 L1518.97 559.212 L1528.11 552.284 L1516.65 552.044 L1512.89 541.228 Z" fill="#008000" fill-rule="evenodd" fill-opacity="1" stroke="#000000" stroke-opacity="1" stroke-width="3.2"/>
<path clip-path="url(#clip802)" d="M1523.7 568.304 L1519.94 579.12 L1508.49 579.36 L1517.62 586.288 L1514.3 597.248 L1523.7 590.704 L1533.11 597.248 L1529.78 586.288 L1538.92 579.36 L1527.46 579.12 L1523.7 568.304 Z" fill="#008000" fill-rule="evenodd" fill-opacity="1" stroke="#000000" stroke-opacity="1" stroke-width="3.2"/>
<path clip-path="url(#clip802)" d="M1658.62 545.932 L1654.86 556.748 L1643.41 556.988 L1652.54 563.916 L1649.21 574.876 L1658.62 568.332 L1668.03 574.876 L1664.7 563.916 L1673.84 556.988 L1662.38 556.748 L1658.62 545.932 Z" fill="#008000" fill-rule="evenodd" fill-opacity="1" stroke="#000000" stroke-opacity="1" stroke-width="3.2"/>
<path clip-path="url(#clip802)" d="M1725.48 589.233 L1721.72 600.049 L1710.27 600.289 L1719.4 607.217 L1716.07 618.177 L1725.48 611.633 L1734.89 618.177 L1731.56 607.217 L1740.7 600.289 L1729.24 600.049 L1725.48 589.233 Z" fill="#008000" fill-rule="evenodd" fill-opacity="1" stroke="#000000" stroke-opacity="1" stroke-width="3.2"/>
<path clip-path="url(#clip802)" d="M1835.98 563.104 L1832.22 573.92 L1820.76 574.16 L1829.9 581.088 L1826.57 592.048 L1835.98 585.504 L1845.39 592.048 L1842.06 581.088 L1851.2 574.16 L1839.74 573.92 L1835.98 563.104 Z" fill="#008000" fill-rule="evenodd" fill-opacity="1" stroke="#000000" stroke-opacity="1" stroke-width="3.2"/>
<path clip-path="url(#clip802)" d="M2032.55 567.271 L2028.79 578.087 L2017.34 578.327 L2026.47 585.255 L2023.14 596.215 L2032.55 589.671 L2041.96 596.215 L2038.63 585.255 L2047.77 578.327 L2036.31 578.087 L2032.55 567.271 Z" fill="#008000" fill-rule="evenodd" fill-opacity="1" stroke="#000000" stroke-opacity="1" stroke-width="3.2"/>
<path clip-path="url(#clip800)" d="M2056.55 565.991 L2061.23 565.991 L2061.23 580.157 L2078.22 580.157 L2078.22 565.991 L2082.9 565.991 L2082.9 600.551 L2078.22 600.551 L2078.22 584.092 L2061.23 584.092 L2061.23 600.551 L2056.55 600.551 L2056.55 565.991 Z" fill="#000000" fill-rule="evenodd" fill-opacity="1" /><path clip-path="url(#clip800)" d="M2109.35 570.829 L2109.35 583.722 L2122.25 583.722 L2122.25 587.657 L2109.35 587.657 L2109.35 600.551 L2105.46 600.551 L2105.46 587.657 L2092.57 587.657 L2092.57 583.722 L2105.46 583.722 L2105.46 570.829 L2109.35 570.829 Z" fill="#000000" fill-rule="evenodd" fill-opacity="1" /><path clip-path="url(#clip800)" d="M2131.92 565.991 L2136.6 565.991 L2136.6 596.616 L2153.43 596.616 L2153.43 600.551 L2131.92 600.551 L2131.92 565.991 Z" fill="#000000" fill-rule="evenodd" fill-opacity="1" /><path clip-path="url(#clip800)" d="M2158.33 565.991 L2180.19 565.991 L2180.19 569.926 L2163.01 569.926 L2163.01 580.157 L2179.47 580.157 L2179.47 584.092 L2163.01 584.092 L2163.01 596.616 L2180.6 596.616 L2180.6 600.551 L2158.33 600.551 L2158.33 565.991 Z" fill="#000000" fill-rule="evenodd" fill-opacity="1" /><path clip-path="url(#clip800)" d="M2223.36 579.602 Q2224.95 576.731 2227.18 575.366 Q2229.4 574 2232.41 574 Q2236.46 574 2238.66 576.847 Q2240.86 579.671 2240.86 584.903 L2240.86 600.551 L2236.57 600.551 L2236.57 585.042 Q2236.57 581.315 2235.26 579.509 Q2233.94 577.704 2231.23 577.704 Q2227.92 577.704 2226 579.903 Q2224.07 582.102 2224.07 585.898 L2224.07 600.551 L2219.79 600.551 L2219.79 585.042 Q2219.79 581.292 2218.47 579.509 Q2217.15 577.704 2214.4 577.704 Q2211.14 577.704 2209.21 579.926 Q2207.29 582.125 2207.29 585.898 L2207.29 600.551 L2203.01 600.551 L2203.01 574.625 L2207.29 574.625 L2207.29 578.653 Q2208.75 576.268 2210.79 575.134 Q2212.82 574 2215.63 574 Q2218.45 574 2220.42 575.435 Q2222.41 576.87 2223.36 579.602 Z" fill="#000000" fill-rule="evenodd" fill-opacity="1" /><path clip-path="url(#clip800)" d="M2271.53 586.523 L2271.53 588.606 L2251.95 588.606 Q2252.22 593.004 2254.58 595.319 Q2256.97 597.611 2261.2 597.611 Q2263.66 597.611 2265.95 597.009 Q2268.26 596.407 2270.53 595.204 L2270.53 599.231 Q2268.24 600.203 2265.83 600.713 Q2263.43 601.222 2260.95 601.222 Q2254.75 601.222 2251.11 597.611 Q2247.5 594 2247.5 587.842 Q2247.5 581.477 2250.93 577.75 Q2254.38 574 2260.21 574 Q2265.44 574 2268.47 577.38 Q2271.53 580.736 2271.53 586.523 M2267.27 585.273 Q2267.22 581.778 2265.3 579.694 Q2263.4 577.611 2260.26 577.611 Q2256.69 577.611 2254.54 579.625 Q2252.41 581.639 2252.08 585.296 L2267.27 585.273 Z" fill="#000000" fill-rule="evenodd" fill-opacity="1" /><path clip-path="url(#clip800)" d="M2290.3 587.518 Q2285.14 587.518 2283.15 588.699 Q2281.16 589.879 2281.16 592.727 Q2281.16 594.995 2282.64 596.338 Q2284.14 597.657 2286.71 597.657 Q2290.26 597.657 2292.38 595.157 Q2294.54 592.634 2294.54 588.467 L2294.54 587.518 L2290.3 587.518 M2298.8 585.759 L2298.8 600.551 L2294.54 600.551 L2294.54 596.616 Q2293.08 598.977 2290.9 600.111 Q2288.73 601.222 2285.58 601.222 Q2281.6 601.222 2279.24 599 Q2276.9 596.754 2276.9 593.004 Q2276.9 588.629 2279.82 586.407 Q2282.76 584.185 2288.57 584.185 L2294.54 584.185 L2294.54 583.768 Q2294.54 580.829 2292.59 579.231 Q2290.67 577.611 2287.18 577.611 Q2284.95 577.611 2282.85 578.143 Q2280.74 578.676 2278.8 579.741 L2278.8 575.805 Q2281.13 574.903 2283.33 574.463 Q2285.53 574 2287.62 574 Q2293.24 574 2296.02 576.917 Q2298.8 579.833 2298.8 585.759 Z" fill="#000000" fill-rule="evenodd" fill-opacity="1" /><path clip-path="url(#clip800)" d="M2324.1 575.389 L2324.1 579.417 Q2322.29 578.491 2320.35 578.028 Q2318.4 577.565 2316.32 577.565 Q2313.15 577.565 2311.55 578.537 Q2309.98 579.509 2309.98 581.454 Q2309.98 582.935 2311.11 583.792 Q2312.25 584.625 2315.67 585.389 L2317.13 585.713 Q2321.67 586.685 2323.57 588.467 Q2325.49 590.227 2325.49 593.398 Q2325.49 597.009 2322.62 599.116 Q2319.77 601.222 2314.77 601.222 Q2312.69 601.222 2310.42 600.805 Q2308.17 600.412 2305.67 599.602 L2305.67 595.204 Q2308.03 596.43 2310.32 597.055 Q2312.62 597.657 2314.86 597.657 Q2317.87 597.657 2319.49 596.639 Q2321.11 595.597 2321.11 593.722 Q2321.11 591.986 2319.93 591.06 Q2318.77 590.134 2314.82 589.278 L2313.33 588.93 Q2309.38 588.097 2307.62 586.384 Q2305.86 584.648 2305.86 581.639 Q2305.86 577.981 2308.45 575.991 Q2311.04 574 2315.81 574 Q2318.17 574 2320.25 574.347 Q2322.34 574.694 2324.1 575.389 Z" fill="#000000" fill-rule="evenodd" fill-opacity="1" /><polyline clip-path="url(#clip802)" style="stroke:#ff0000; stroke-linecap:butt; stroke-linejoin:round; stroke-width:4; stroke-opacity:1; fill:none" points="
  323.566,1050.73 407.12,1113.49 515.615,1106.43 708.986,1152.28 910.363,1184.84 1045.68,1234.46 1189.01,1222.54 1321.13,1262.08 1512.89,1233.74 1523.7,1258.15 
  1658.62,1268.66 1725.48,1270 1835.98,1286.2 2032.55,1298.96 
  "/>
<path clip-path="url(#clip800)" d="M2056.55 1281.68 L2061.23 1281.68 L2061.23 1295.85 L2078.22 1295.85 L2078.22 1281.68 L2082.9 1281.68 L2082.9 1316.24 L2078.22 1316.24 L2078.22 1299.78 L2061.23 1299.78 L2061.23 1316.24 L2056.55 1316.24 L2056.55 1281.68 Z" fill="#000000" fill-rule="evenodd" fill-opacity="1" /><path clip-path="url(#clip800)" d="M2123.61 1291.08 L2123.61 1295.11 Q2121.81 1294.18 2119.86 1293.72 Q2117.92 1293.26 2115.83 1293.26 Q2112.66 1293.26 2111.07 1294.23 Q2109.49 1295.2 2109.49 1297.14 Q2109.49 1298.63 2110.63 1299.48 Q2111.76 1300.32 2115.19 1301.08 L2116.64 1301.4 Q2121.18 1302.38 2123.08 1304.16 Q2125 1305.92 2125 1309.09 Q2125 1312.7 2122.13 1314.81 Q2119.28 1316.91 2114.28 1316.91 Q2112.2 1316.91 2109.93 1316.5 Q2107.69 1316.1 2105.19 1315.29 L2105.19 1310.89 Q2107.55 1312.12 2109.84 1312.75 Q2112.13 1313.35 2114.38 1313.35 Q2117.39 1313.35 2119.01 1312.33 Q2120.63 1311.29 2120.63 1309.41 Q2120.63 1307.68 2119.45 1306.75 Q2118.29 1305.83 2114.33 1304.97 L2112.85 1304.62 Q2108.89 1303.79 2107.13 1302.08 Q2105.37 1300.34 2105.37 1297.33 Q2105.37 1293.67 2107.96 1291.68 Q2110.56 1289.69 2115.33 1289.69 Q2117.69 1289.69 2119.77 1290.04 Q2121.85 1290.39 2123.61 1291.08 Z" fill="#000000" fill-rule="evenodd" fill-opacity="1" /><path clip-path="url(#clip800)" d="M2131.78 1290.32 L2136.04 1290.32 L2136.04 1316.24 L2131.78 1316.24 L2131.78 1290.32 M2131.78 1280.22 L2136.04 1280.22 L2136.04 1285.62 L2131.78 1285.62 L2131.78 1280.22 Z" fill="#000000" fill-rule="evenodd" fill-opacity="1" /><path clip-path="url(#clip800)" d="M2165.14 1295.29 Q2166.74 1292.42 2168.96 1291.06 Q2171.18 1289.69 2174.19 1289.69 Q2178.24 1289.69 2180.44 1292.54 Q2182.64 1295.36 2182.64 1300.59 L2182.64 1316.24 L2178.36 1316.24 L2178.36 1300.73 Q2178.36 1297.01 2177.04 1295.2 Q2175.72 1293.39 2173.01 1293.39 Q2169.7 1293.39 2167.78 1295.59 Q2165.86 1297.79 2165.86 1301.59 L2165.86 1316.24 L2161.58 1316.24 L2161.58 1300.73 Q2161.58 1296.98 2160.26 1295.2 Q2158.94 1293.39 2156.18 1293.39 Q2152.92 1293.39 2151 1295.62 Q2149.08 1297.82 2149.08 1301.59 L2149.08 1316.24 L2144.79 1316.24 L2144.79 1290.32 L2149.08 1290.32 L2149.08 1294.34 Q2150.53 1291.96 2152.57 1290.83 Q2154.61 1289.69 2157.41 1289.69 Q2160.23 1289.69 2162.2 1291.13 Q2164.19 1292.56 2165.14 1295.29 Z" fill="#000000" fill-rule="evenodd" fill-opacity="1" /><polyline clip-path="url(#clip802)" style="stroke:#0000ff; stroke-linecap:butt; stroke-linejoin:round; stroke-width:4; stroke-opacity:1; fill:none" points="
  323.566,355.586 407.12,285.773 515.615,300.192 708.986,254.74 910.363,223.281 1045.68,171.808 1189.01,189.663 1321.13,147.937 1512.89,183.075 1523.7,156.371 
  1658.62,147.141 1725.48,146.041 1835.98,130.847 2032.55,119.338 
  "/>
<path clip-path="url(#clip800)" d="M2056.55 102.058 L2061.23 102.058 L2061.23 132.683 L2078.06 132.683 L2078.06 136.618 L2056.55 136.618 L2056.55 102.058 Z" fill="#000000" fill-rule="evenodd" fill-opacity="1" /><path clip-path="url(#clip800)" d="M2082.96 102.058 L2104.82 102.058 L2104.82 105.994 L2087.64 105.994 L2087.64 116.225 L2104.1 116.225 L2104.1 120.16 L2087.64 120.16 L2087.64 132.683 L2105.23 132.683 L2105.23 136.618 L2082.96 136.618 L2082.96 102.058 Z" fill="#000000" fill-rule="evenodd" fill-opacity="1" /><path clip-path="url(#clip800)" d="M2144.33 111.457 L2144.33 115.484 Q2142.52 114.558 2140.58 114.095 Q2138.64 113.632 2136.55 113.632 Q2133.38 113.632 2131.78 114.605 Q2130.21 115.577 2130.21 117.521 Q2130.21 119.003 2131.34 119.859 Q2132.48 120.693 2135.9 121.456 L2137.36 121.781 Q2141.9 122.753 2143.8 124.535 Q2145.72 126.294 2145.72 129.466 Q2145.72 133.077 2142.85 135.183 Q2140 137.29 2135 137.29 Q2132.92 137.29 2130.65 136.873 Q2128.4 136.48 2125.9 135.669 L2125.9 131.271 Q2128.27 132.498 2130.56 133.123 Q2132.85 133.725 2135.09 133.725 Q2138.1 133.725 2139.72 132.706 Q2141.34 131.665 2141.34 129.79 Q2141.34 128.054 2140.16 127.128 Q2139.01 126.202 2135.05 125.345 L2133.57 124.998 Q2129.61 124.165 2127.85 122.452 Q2126.09 120.716 2126.09 117.706 Q2126.09 114.049 2128.68 112.058 Q2131.27 110.068 2136.04 110.068 Q2138.4 110.068 2140.49 110.415 Q2142.57 110.762 2144.33 111.457 Z" fill="#000000" fill-rule="evenodd" fill-opacity="1" /><path clip-path="url(#clip800)" d="M2152.5 110.693 L2156.76 110.693 L2156.76 136.618 L2152.5 136.618 L2152.5 110.693 M2152.5 100.6 L2156.76 100.6 L2156.76 105.994 L2152.5 105.994 L2152.5 100.6 Z" fill="#000000" fill-rule="evenodd" fill-opacity="1" /><path clip-path="url(#clip800)" d="M2185.86 115.669 Q2187.45 112.799 2189.68 111.433 Q2191.9 110.068 2194.91 110.068 Q2198.96 110.068 2201.16 112.915 Q2203.36 115.739 2203.36 120.97 L2203.36 136.618 L2199.07 136.618 L2199.07 121.109 Q2199.07 117.382 2197.76 115.577 Q2196.44 113.771 2193.73 113.771 Q2190.42 113.771 2188.5 115.97 Q2186.58 118.169 2186.58 121.966 L2186.58 136.618 L2182.29 136.618 L2182.29 121.109 Q2182.29 117.359 2180.97 115.577 Q2179.65 113.771 2176.9 113.771 Q2173.64 113.771 2171.71 115.994 Q2169.79 118.193 2169.79 121.966 L2169.79 136.618 L2165.51 136.618 L2165.51 110.693 L2169.79 110.693 L2169.79 114.72 Q2171.25 112.336 2173.29 111.202 Q2175.33 110.068 2178.13 110.068 Q2180.95 110.068 2182.92 111.503 Q2184.91 112.938 2185.86 115.669 Z" fill="#000000" fill-rule="evenodd" fill-opacity="1" /><polyline clip-path="url(#clip802)" style="stroke:#008000; stroke-linecap:butt; stroke-linejoin:round; stroke-width:4; stroke-opacity:1; fill:none" points="
  323.566,671.101 407.12,664.051 515.615,671.408 708.986,671.809 910.363,672.911 1045.68,671.055 1189.01,676.988 1321.13,674.804 1512.89,681.602 1523.7,679.304 
  1658.62,680.587 1725.48,680.826 1835.98,681.839 2032.55,683.088 
  "/>
<path clip-path="url(#clip800)" d="M2072.94 684.165 Q2074.45 684.674 2075.86 686.341 Q2077.29 688.007 2078.73 690.924 L2083.47 700.368 L2078.45 700.368 L2074.03 691.503 Q2072.32 688.03 2070.7 686.896 Q2069.1 685.762 2066.32 685.762 L2061.23 685.762 L2061.23 700.368 L2056.55 700.368 L2056.55 665.808 L2067.11 665.808 Q2073.03 665.808 2075.95 668.285 Q2078.87 670.762 2078.87 675.762 Q2078.87 679.026 2077.34 681.179 Q2075.83 683.331 2072.94 684.165 M2061.23 669.651 L2061.23 681.919 L2067.11 681.919 Q2070.49 681.919 2072.2 680.368 Q2073.94 678.794 2073.94 675.762 Q2073.94 672.73 2072.2 671.202 Q2070.49 669.651 2067.11 669.651 L2061.23 669.651 Z" fill="#000000" fill-rule="evenodd" fill-opacity="1" /><path clip-path="url(#clip800)" d="M2110.86 684.72 L2110.86 700.368 L2106.6 700.368 L2106.6 684.859 Q2106.6 681.179 2105.16 679.35 Q2103.73 677.521 2100.86 677.521 Q2097.41 677.521 2095.42 679.72 Q2093.43 681.919 2093.43 685.716 L2093.43 700.368 L2089.14 700.368 L2089.14 674.443 L2093.43 674.443 L2093.43 678.47 Q2094.96 676.132 2097.02 674.975 Q2099.1 673.818 2101.81 673.818 Q2106.27 673.818 2108.57 676.595 Q2110.86 679.35 2110.86 684.72 Z" fill="#000000" fill-rule="evenodd" fill-opacity="1" /><path clip-path="url(#clip800)" d="M2150.95 675.206 L2150.95 679.234 Q2149.14 678.308 2147.2 677.845 Q2145.26 677.382 2143.17 677.382 Q2140 677.382 2138.4 678.355 Q2136.83 679.327 2136.83 681.271 Q2136.83 682.753 2137.96 683.609 Q2139.1 684.442 2142.52 685.206 L2143.98 685.53 Q2148.52 686.503 2150.42 688.285 Q2152.34 690.044 2152.34 693.216 Q2152.34 696.827 2149.47 698.933 Q2146.62 701.04 2141.62 701.04 Q2139.54 701.04 2137.27 700.623 Q2135.02 700.229 2132.52 699.419 L2132.52 695.021 Q2134.89 696.248 2137.18 696.873 Q2139.47 697.475 2141.71 697.475 Q2144.72 697.475 2146.34 696.456 Q2147.96 695.415 2147.96 693.54 Q2147.96 691.804 2146.78 690.878 Q2145.63 689.952 2141.67 689.095 L2140.19 688.748 Q2136.23 687.915 2134.47 686.202 Q2132.71 684.466 2132.71 681.456 Q2132.71 677.799 2135.3 675.808 Q2137.89 673.818 2142.66 673.818 Q2145.02 673.818 2147.11 674.165 Q2149.19 674.512 2150.95 675.206 Z" fill="#000000" fill-rule="evenodd" fill-opacity="1" /><path clip-path="url(#clip800)" d="M2159.12 674.443 L2163.38 674.443 L2163.38 700.368 L2159.12 700.368 L2159.12 674.443 M2159.12 664.35 L2163.38 664.35 L2163.38 669.743 L2159.12 669.743 L2159.12 664.35 Z" fill="#000000" fill-rule="evenodd" fill-opacity="1" /><path clip-path="url(#clip800)" d="M2192.48 679.419 Q2194.07 676.549 2196.3 675.183 Q2198.52 673.818 2201.53 673.818 Q2205.58 673.818 2207.78 676.665 Q2209.98 679.489 2209.98 684.72 L2209.98 700.368 L2205.7 700.368 L2205.7 684.859 Q2205.7 681.132 2204.38 679.327 Q2203.06 677.521 2200.35 677.521 Q2197.04 677.521 2195.12 679.72 Q2193.2 681.919 2193.2 685.716 L2193.2 700.368 L2188.91 700.368 L2188.91 684.859 Q2188.91 681.109 2187.59 679.327 Q2186.27 677.521 2183.52 677.521 Q2180.26 677.521 2178.33 679.743 Q2176.41 681.942 2176.41 685.716 L2176.41 700.368 L2172.13 700.368 L2172.13 674.443 L2176.41 674.443 L2176.41 678.47 Q2177.87 676.086 2179.91 674.952 Q2181.95 673.818 2184.75 673.818 Q2187.57 673.818 2189.54 675.253 Q2191.53 676.688 2192.48 679.419 Z" fill="#000000" fill-rule="evenodd" fill-opacity="1" /></svg>
