<?xml version="1.0" encoding="utf-8"?>
<svg xmlns="http://www.w3.org/2000/svg" xmlns:xlink="http://www.w3.org/1999/xlink" width="600" height="400" viewBox="0 0 2400 1600">
<defs>
  <clipPath id="clip460">
    <rect x="0" y="0" width="2400" height="1600"/>
  </clipPath>
</defs>
<path clip-path="url(#clip460)" d="
M0 1600 L2400 1600 L2400 0 L0 0  Z
  " fill="#ffffff" fill-rule="evenodd" fill-opacity="1"/>
<defs>
  <clipPath id="clip461">
    <rect x="480" y="0" width="1681" height="1600"/>
  </clipPath>
</defs>
<path clip-path="url(#clip460)" d="
M261.463 1423.18 L2107.64 1423.18 L2107.64 47.2441 L261.463 47.2441  Z
  " fill="#ffffff" fill-rule="evenodd" fill-opacity="1"/>
<defs>
  <clipPath id="clip462">
    <rect x="261" y="47" width="1847" height="1377"/>
  </clipPath>
</defs>
<polyline clip-path="url(#clip462)" style="stroke:#000000; stroke-width:2; stroke-opacity:0.1; fill:none" points="
  381.729,1423.18 381.729,47.2441 
  "/>
<polyline clip-path="url(#clip462)" style="stroke:#000000; stroke-width:2; stroke-opacity:0.1; fill:none" points="
  789.74,1423.18 789.74,47.2441 
  "/>
<polyline clip-path="url(#clip462)" style="stroke:#000000; stroke-width:2; stroke-opacity:0.1; fill:none" points="
  1197.75,1423.18 1197.75,47.2441 
  "/>
<polyline clip-path="url(#clip462)" style="stroke:#000000; stroke-width:2; stroke-opacity:0.1; fill:none" points="
  1605.76,1423.18 1605.76,47.2441 
  "/>
<polyline clip-path="url(#clip462)" style="stroke:#000000; stroke-width:2; stroke-opacity:0.1; fill:none" points="
  2013.77,1423.18 2013.77,47.2441 
  "/>
<polyline clip-path="url(#clip460)" style="stroke:#000000; stroke-width:4; stroke-opacity:1; fill:none" points="
  261.463,1423.18 2107.64,1423.18 
  "/>
<polyline clip-path="url(#clip460)" style="stroke:#000000; stroke-width:4; stroke-opacity:1; fill:none" points="
  381.729,1423.18 381.729,1406.67 
  "/>
<polyline clip-path="url(#clip460)" style="stroke:#000000; stroke-width:4; stroke-opacity:1; fill:none" points="
  789.74,1423.18 789.74,1406.67 
  "/>
<polyline clip-path="url(#clip460)" style="stroke:#000000; stroke-width:4; stroke-opacity:1; fill:none" points="
  1197.75,1423.18 1197.75,1406.67 
  "/>
<polyline clip-path="url(#clip460)" style="stroke:#000000; stroke-width:4; stroke-opacity:1; fill:none" points="
  1605.76,1423.18 1605.76,1406.67 
  "/>
<polyline clip-path="url(#clip460)" style="stroke:#000000; stroke-width:4; stroke-opacity:1; fill:none" points="
  2013.77,1423.18 2013.77,1406.67 
  "/>
<path clip-path="url(#clip460)" d="M 0 0 M372.111 1479.92 L379.75 1479.92 L379.75 1453.55 L371.44 1455.22 L371.44 1450.96 L379.704 1449.29 L384.38 1449.29 L384.38 1479.92 L392.018 1479.92 L392.018 1483.85 L372.111 1483.85 L372.111 1479.92 Z" fill="#000000" fill-rule="evenodd" fill-opacity="1" /><path clip-path="url(#clip460)" d="M 0 0 M784.393 1479.92 L800.712 1479.92 L800.712 1483.85 L778.768 1483.85 L778.768 1479.92 Q781.43 1477.16 786.013 1472.53 Q790.62 1467.88 791.8 1466.54 Q794.046 1464.01 794.925 1462.28 Q795.828 1460.52 795.828 1458.83 Q795.828 1456.07 793.884 1454.34 Q791.963 1452.6 788.861 1452.6 Q786.662 1452.6 784.208 1453.37 Q781.777 1454.13 779 1455.68 L779 1450.96 Q781.824 1449.82 784.277 1449.25 Q786.731 1448.67 788.768 1448.67 Q794.138 1448.67 797.333 1451.35 Q800.527 1454.04 800.527 1458.53 Q800.527 1460.66 799.717 1462.58 Q798.93 1464.48 796.824 1467.07 Q796.245 1467.74 793.143 1470.96 Q790.041 1474.15 784.393 1479.92 Z" fill="#000000" fill-rule="evenodd" fill-opacity="1" /><path clip-path="url(#clip460)" d="M 0 0 M1202 1465.22 Q1205.36 1465.94 1207.23 1468.2 Q1209.13 1470.47 1209.13 1473.81 Q1209.13 1478.92 1205.61 1481.72 Q1202.09 1484.52 1195.61 1484.52 Q1193.43 1484.52 1191.12 1484.08 Q1188.83 1483.67 1186.37 1482.81 L1186.37 1478.3 Q1188.32 1479.43 1190.63 1480.01 Q1192.95 1480.59 1195.47 1480.59 Q1199.87 1480.59 1202.16 1478.85 Q1204.48 1477.12 1204.48 1473.81 Q1204.48 1470.75 1202.32 1469.04 Q1200.19 1467.3 1196.37 1467.3 L1192.35 1467.3 L1192.35 1463.46 L1196.56 1463.46 Q1200.01 1463.46 1201.84 1462.09 Q1203.67 1460.7 1203.67 1458.11 Q1203.67 1455.45 1201.77 1454.04 Q1199.89 1452.6 1196.37 1452.6 Q1194.45 1452.6 1192.25 1453.02 Q1190.05 1453.44 1187.42 1454.31 L1187.42 1450.15 Q1190.08 1449.41 1192.39 1449.04 Q1194.73 1448.67 1196.79 1448.67 Q1202.11 1448.67 1205.22 1451.1 Q1208.32 1453.5 1208.32 1457.63 Q1208.32 1460.5 1206.68 1462.49 Q1205.03 1464.45 1202 1465.22 Z" fill="#000000" fill-rule="evenodd" fill-opacity="1" /><path clip-path="url(#clip460)" d="M 0 0 M1608.77 1453.37 L1596.97 1471.81 L1608.77 1471.81 L1608.77 1453.37 M1607.55 1449.29 L1613.42 1449.29 L1613.42 1471.81 L1618.36 1471.81 L1618.36 1475.7 L1613.42 1475.7 L1613.42 1483.85 L1608.77 1483.85 L1608.77 1475.7 L1593.17 1475.7 L1593.17 1471.19 L1607.55 1449.29 Z" fill="#000000" fill-rule="evenodd" fill-opacity="1" /><path clip-path="url(#clip460)" d="M 0 0 M2004.05 1449.29 L2022.41 1449.29 L2022.41 1453.23 L2008.33 1453.23 L2008.33 1461.7 Q2009.35 1461.35 2010.37 1461.19 Q2011.39 1461 2012.41 1461 Q2018.2 1461 2021.57 1464.18 Q2024.95 1467.35 2024.95 1472.76 Q2024.95 1478.34 2021.48 1481.44 Q2018.01 1484.52 2011.69 1484.52 Q2009.51 1484.52 2007.25 1484.15 Q2005 1483.78 2002.59 1483.04 L2002.59 1478.34 Q2004.68 1479.48 2006.9 1480.03 Q2009.12 1480.59 2011.6 1480.59 Q2015.6 1480.59 2017.94 1478.48 Q2020.28 1476.38 2020.28 1472.76 Q2020.28 1469.15 2017.94 1467.05 Q2015.6 1464.94 2011.6 1464.94 Q2009.72 1464.94 2007.85 1465.36 Q2006 1465.77 2004.05 1466.65 L2004.05 1449.29 Z" fill="#000000" fill-rule="evenodd" fill-opacity="1" /><path clip-path="url(#clip460)" d="M 0 0 M901.549 1520.52 L908.042 1520.52 L918.036 1560.69 L927.998 1520.52 L935.224 1520.52 L945.218 1560.69 L955.18 1520.52 L961.705 1520.52 L949.769 1568.04 L941.685 1568.04 L931.659 1526.79 L921.537 1568.04 L913.453 1568.04 L901.549 1520.52 Z" fill="#000000" fill-rule="evenodd" fill-opacity="1" /><path clip-path="url(#clip460)" d="M 0 0 M966.416 1532.4 L972.272 1532.4 L972.272 1568.04 L966.416 1568.04 L966.416 1532.4 M966.416 1518.52 L972.272 1518.52 L972.272 1525.93 L966.416 1525.93 L966.416 1518.52 Z" fill="#000000" fill-rule="evenodd" fill-opacity="1" /><path clip-path="url(#clip460)" d="M 0 0 M1008.05 1546.53 L1008.05 1568.04 L1002.19 1568.04 L1002.19 1546.72 Q1002.19 1541.66 1000.22 1539.14 Q998.244 1536.63 994.297 1536.63 Q989.555 1536.63 986.818 1539.65 Q984.08 1542.68 984.08 1547.9 L984.08 1568.04 L978.192 1568.04 L978.192 1532.4 L984.08 1532.4 L984.08 1537.93 Q986.181 1534.72 989.014 1533.13 Q991.878 1531.54 995.602 1531.54 Q1001.75 1531.54 1004.9 1535.36 Q1008.05 1539.14 1008.05 1546.53 Z" fill="#000000" fill-rule="evenodd" fill-opacity="1" /><path clip-path="url(#clip460)" d="M 0 0 M1037.65 1537.81 L1037.65 1518.52 L1043.5 1518.52 L1043.5 1568.04 L1037.65 1568.04 L1037.65 1562.7 Q1035.8 1565.88 1032.97 1567.44 Q1030.17 1568.97 1026.22 1568.97 Q1019.76 1568.97 1015.69 1563.81 Q1011.64 1558.65 1011.64 1550.25 Q1011.64 1541.85 1015.69 1536.69 Q1019.76 1531.54 1026.22 1531.54 Q1030.17 1531.54 1032.97 1533.1 Q1035.8 1534.62 1037.65 1537.81 M1017.69 1550.25 Q1017.69 1556.71 1020.33 1560.4 Q1023.01 1564.07 1027.65 1564.07 Q1032.3 1564.07 1034.97 1560.4 Q1037.65 1556.71 1037.65 1550.25 Q1037.65 1543.79 1034.97 1540.13 Q1032.3 1536.44 1027.65 1536.44 Q1023.01 1536.44 1020.33 1540.13 Q1017.69 1543.79 1017.69 1550.25 Z" fill="#000000" fill-rule="evenodd" fill-opacity="1" /><path clip-path="url(#clip460)" d="M 0 0 M1093.09 1533.45 L1093.09 1538.98 Q1090.61 1537.71 1087.94 1537.07 Q1085.26 1536.44 1082.4 1536.44 Q1078.04 1536.44 1075.84 1537.77 Q1073.68 1539.11 1073.68 1541.79 Q1073.68 1543.82 1075.24 1545 Q1076.8 1546.15 1081.51 1547.2 L1083.51 1547.64 Q1089.75 1548.98 1092.36 1551.43 Q1095 1553.85 1095 1558.21 Q1095 1563.17 1091.06 1566.07 Q1087.14 1568.97 1080.27 1568.97 Q1077.4 1568.97 1074.28 1568.39 Q1071.2 1567.85 1067.76 1566.74 L1067.76 1560.69 Q1071 1562.38 1074.16 1563.24 Q1077.31 1564.07 1080.39 1564.07 Q1084.53 1564.07 1086.76 1562.66 Q1088.99 1561.23 1088.99 1558.65 Q1088.99 1556.27 1087.36 1554.99 Q1085.77 1553.72 1080.33 1552.54 L1078.29 1552.07 Q1072.85 1550.92 1070.43 1548.56 Q1068.01 1546.18 1068.01 1542.04 Q1068.01 1537.01 1071.58 1534.27 Q1075.14 1531.54 1081.7 1531.54 Q1084.94 1531.54 1087.81 1532.01 Q1090.67 1532.49 1093.09 1533.45 Z" fill="#000000" fill-rule="evenodd" fill-opacity="1" /><path clip-path="url(#clip460)" d="M 0 0 M1106.81 1562.7 L1106.81 1581.6 L1100.92 1581.6 L1100.92 1532.4 L1106.81 1532.4 L1106.81 1537.81 Q1108.66 1534.62 1111.46 1533.1 Q1114.29 1531.54 1118.21 1531.54 Q1124.7 1531.54 1128.74 1536.69 Q1132.82 1541.85 1132.82 1550.25 Q1132.82 1558.65 1128.74 1563.81 Q1124.7 1568.97 1118.21 1568.97 Q1114.29 1568.97 1111.46 1567.44 Q1108.66 1565.88 1106.81 1562.7 M1126.74 1550.25 Q1126.74 1543.79 1124.06 1540.13 Q1121.42 1536.44 1116.77 1536.44 Q1112.13 1536.44 1109.45 1540.13 Q1106.81 1543.79 1106.81 1550.25 Q1106.81 1556.71 1109.45 1560.4 Q1112.13 1564.07 1116.77 1564.07 Q1121.42 1564.07 1124.06 1560.4 Q1126.74 1556.71 1126.74 1550.25 Z" fill="#000000" fill-rule="evenodd" fill-opacity="1" /><path clip-path="url(#clip460)" d="M 0 0 M1169.45 1548.76 L1169.45 1551.62 L1142.52 1551.62 Q1142.9 1557.67 1146.15 1560.85 Q1149.43 1564 1155.25 1564 Q1158.63 1564 1161.78 1563.17 Q1164.96 1562.35 1168.08 1560.69 L1168.08 1566.23 Q1164.93 1567.57 1161.62 1568.27 Q1158.31 1568.97 1154.9 1568.97 Q1146.37 1568.97 1141.38 1564 Q1136.41 1559.04 1136.41 1550.57 Q1136.41 1541.82 1141.12 1536.69 Q1145.86 1531.54 1153.89 1531.54 Q1161.08 1531.54 1165.25 1536.18 Q1169.45 1540.8 1169.45 1548.76 M1163.59 1547.04 Q1163.53 1542.23 1160.89 1539.37 Q1158.28 1536.5 1153.95 1536.5 Q1149.05 1536.5 1146.09 1539.27 Q1143.16 1542.04 1142.71 1547.07 L1163.59 1547.04 Z" fill="#000000" fill-rule="evenodd" fill-opacity="1" /><path clip-path="url(#clip460)" d="M 0 0 M1206.08 1548.76 L1206.08 1551.62 L1179.16 1551.62 Q1179.54 1557.67 1182.79 1560.85 Q1186.06 1564 1191.89 1564 Q1195.26 1564 1198.41 1563.17 Q1201.6 1562.35 1204.72 1560.69 L1204.72 1566.23 Q1201.56 1567.57 1198.25 1568.27 Q1194.94 1568.97 1191.54 1568.97 Q1183.01 1568.97 1178.01 1564 Q1173.05 1559.04 1173.05 1550.57 Q1173.05 1541.82 1177.76 1536.69 Q1182.5 1531.54 1190.52 1531.54 Q1197.71 1531.54 1201.88 1536.18 Q1206.08 1540.8 1206.08 1548.76 M1200.23 1547.04 Q1200.16 1542.23 1197.52 1539.37 Q1194.91 1536.5 1190.58 1536.5 Q1185.68 1536.5 1182.72 1539.27 Q1179.79 1542.04 1179.35 1547.07 L1200.23 1547.04 Z" fill="#000000" fill-rule="evenodd" fill-opacity="1" /><path clip-path="url(#clip460)" d="M 0 0 M1235.68 1537.81 L1235.68 1518.52 L1241.54 1518.52 L1241.54 1568.04 L1235.68 1568.04 L1235.68 1562.7 Q1233.84 1565.88 1231.01 1567.44 Q1228.21 1568.97 1224.26 1568.97 Q1217.8 1568.97 1213.72 1563.81 Q1209.68 1558.65 1209.68 1550.25 Q1209.68 1541.85 1213.72 1536.69 Q1217.8 1531.54 1224.26 1531.54 Q1228.21 1531.54 1231.01 1533.1 Q1233.84 1534.62 1235.68 1537.81 M1215.73 1550.25 Q1215.73 1556.71 1218.37 1560.4 Q1221.04 1564.07 1225.69 1564.07 Q1230.34 1564.07 1233.01 1560.4 Q1235.68 1556.71 1235.68 1550.25 Q1235.68 1543.79 1233.01 1540.13 Q1230.34 1536.44 1225.69 1536.44 Q1221.04 1536.44 1218.37 1540.13 Q1215.73 1543.79 1215.73 1550.25 Z" fill="#000000" fill-rule="evenodd" fill-opacity="1" /><path clip-path="url(#clip460)" d="M 0 0 M1282.47 1518.58 Q1278.21 1525.9 1276.14 1533.06 Q1274.07 1540.23 1274.07 1547.58 Q1274.07 1554.93 1276.14 1562.16 Q1278.24 1569.35 1282.47 1576.64 L1277.38 1576.64 Q1272.61 1569.16 1270.22 1561.93 Q1267.86 1554.71 1267.86 1547.58 Q1267.86 1540.48 1270.22 1533.29 Q1272.57 1526.09 1277.38 1518.58 L1282.47 1518.58 Z" fill="#000000" fill-rule="evenodd" fill-opacity="1" /><path clip-path="url(#clip460)" d="M 0 0 M1316.37 1539.24 Q1318.57 1535.29 1321.62 1533.41 Q1324.68 1531.54 1328.82 1531.54 Q1334.39 1531.54 1337.41 1535.45 Q1340.43 1539.33 1340.43 1546.53 L1340.43 1568.04 L1334.54 1568.04 L1334.54 1546.72 Q1334.54 1541.59 1332.73 1539.11 Q1330.92 1536.63 1327.19 1536.63 Q1322.64 1536.63 1320 1539.65 Q1317.36 1542.68 1317.36 1547.9 L1317.36 1568.04 L1311.47 1568.04 L1311.47 1546.72 Q1311.47 1541.56 1309.65 1539.11 Q1307.84 1536.63 1304.05 1536.63 Q1299.56 1536.63 1296.92 1539.68 Q1294.28 1542.71 1294.28 1547.9 L1294.28 1568.04 L1288.39 1568.04 L1288.39 1532.4 L1294.28 1532.4 L1294.28 1537.93 Q1296.29 1534.66 1299.09 1533.1 Q1301.89 1531.54 1305.74 1531.54 Q1309.62 1531.54 1312.33 1533.51 Q1315.07 1535.48 1316.37 1539.24 Z" fill="#000000" fill-rule="evenodd" fill-opacity="1" /><path clip-path="url(#clip460)" d="M 0 0 M1390.02 1533.45 L1390.02 1538.98 Q1387.54 1537.71 1384.87 1537.07 Q1382.19 1536.44 1379.33 1536.44 Q1374.97 1536.44 1372.77 1537.77 Q1370.61 1539.11 1370.61 1541.79 Q1370.61 1543.82 1372.17 1545 Q1373.73 1546.15 1378.44 1547.2 L1380.44 1547.64 Q1386.68 1548.98 1389.29 1551.43 Q1391.93 1553.85 1391.93 1558.21 Q1391.93 1563.17 1387.98 1566.07 Q1384.07 1568.97 1377.19 1568.97 Q1374.33 1568.97 1371.21 1568.39 Q1368.12 1567.85 1364.69 1566.74 L1364.69 1560.69 Q1367.93 1562.38 1371.08 1563.24 Q1374.23 1564.07 1377.32 1564.07 Q1381.46 1564.07 1383.69 1562.66 Q1385.92 1561.23 1385.92 1558.65 Q1385.92 1556.27 1384.29 1554.99 Q1382.7 1553.72 1377.26 1552.54 L1375.22 1552.07 Q1369.78 1550.92 1367.36 1548.56 Q1364.94 1546.18 1364.94 1542.04 Q1364.94 1537.01 1368.51 1534.27 Q1372.07 1531.54 1378.63 1531.54 Q1381.87 1531.54 1384.74 1532.01 Q1387.6 1532.49 1390.02 1533.45 Z" fill="#000000" fill-rule="evenodd" fill-opacity="1" /><path clip-path="url(#clip460)" d="M 0 0 M1395.11 1547.58 L1412.27 1547.58 L1412.27 1552.8 L1395.11 1552.8 L1395.11 1547.58 Z" fill="#000000" fill-rule="evenodd" fill-opacity="1" /><path clip-path="url(#clip460)" d="M 0 0 M1420.35 1562.63 L1430.86 1562.63 L1430.86 1526.38 L1419.43 1528.67 L1419.43 1522.82 L1430.79 1520.52 L1437.22 1520.52 L1437.22 1562.63 L1447.73 1562.63 L1447.73 1568.04 L1420.35 1568.04 L1420.35 1562.63 Z" fill="#000000" fill-rule="evenodd" fill-opacity="1" /><path clip-path="url(#clip460)" d="M 0 0 M1452.95 1518.58 L1458.04 1518.58 Q1462.81 1526.09 1465.17 1533.29 Q1467.56 1540.48 1467.56 1547.58 Q1467.56 1554.71 1465.17 1561.93 Q1462.81 1569.16 1458.04 1576.64 L1452.95 1576.64 Q1457.18 1569.35 1459.25 1562.16 Q1461.35 1554.93 1461.35 1547.58 Q1461.35 1540.23 1459.25 1533.06 Q1457.18 1525.9 1452.95 1518.58 Z" fill="#000000" fill-rule="evenodd" fill-opacity="1" /><polyline clip-path="url(#clip462)" style="stroke:#000000; stroke-width:2; stroke-opacity:0.1; fill:none" points="
  261.463,1423.18 2107.64,1423.18 
  "/>
<polyline clip-path="url(#clip462)" style="stroke:#000000; stroke-width:2; stroke-opacity:0.1; fill:none" points="
  261.463,1079.2 2107.64,1079.2 
  "/>
<polyline clip-path="url(#clip462)" style="stroke:#000000; stroke-width:2; stroke-opacity:0.1; fill:none" points="
  261.463,735.212 2107.64,735.212 
  "/>
<polyline clip-path="url(#clip462)" style="stroke:#000000; stroke-width:2; stroke-opacity:0.1; fill:none" points="
  261.463,391.228 2107.64,391.228 
  "/>
<polyline clip-path="url(#clip462)" style="stroke:#000000; stroke-width:2; stroke-opacity:0.1; fill:none" points="
  261.463,47.2441 2107.64,47.2441 
  "/>
<polyline clip-path="url(#clip460)" style="stroke:#000000; stroke-width:4; stroke-opacity:1; fill:none" points="
  261.463,1423.18 261.463,47.2441 
  "/>
<polyline clip-path="url(#clip460)" style="stroke:#000000; stroke-width:4; stroke-opacity:1; fill:none" points="
  261.463,1423.18 283.617,1423.18 
  "/>
<polyline clip-path="url(#clip460)" style="stroke:#000000; stroke-width:4; stroke-opacity:1; fill:none" points="
  261.463,1079.2 283.617,1079.2 
  "/>
<polyline clip-path="url(#clip460)" style="stroke:#000000; stroke-width:4; stroke-opacity:1; fill:none" points="
  261.463,735.212 283.617,735.212 
  "/>
<polyline clip-path="url(#clip460)" style="stroke:#000000; stroke-width:4; stroke-opacity:1; fill:none" points="
  261.463,391.228 283.617,391.228 
  "/>
<polyline clip-path="url(#clip460)" style="stroke:#000000; stroke-width:4; stroke-opacity:1; fill:none" points="
  261.463,47.2441 283.617,47.2441 
  "/>
<path clip-path="url(#clip460)" d="M 0 0 M114.26 1423.63 L143.936 1423.63 L143.936 1427.57 L114.26 1427.57 L114.26 1423.63 Z" fill="#000000" fill-rule="evenodd" fill-opacity="1" /><path clip-path="url(#clip460)" d="M 0 0 M161.852 1409.97 L150.047 1428.42 L161.852 1428.42 L161.852 1409.97 M160.626 1405.9 L166.505 1405.9 L166.505 1428.42 L171.436 1428.42 L171.436 1432.31 L166.505 1432.31 L166.505 1440.46 L161.852 1440.46 L161.852 1432.31 L146.251 1432.31 L146.251 1427.8 L160.626 1405.9 Z" fill="#000000" fill-rule="evenodd" fill-opacity="1" /><path clip-path="url(#clip460)" d="M 0 0 M186.505 1408.98 Q182.894 1408.98 181.065 1412.54 Q179.26 1416.08 179.26 1423.21 Q179.26 1430.32 181.065 1433.89 Q182.894 1437.43 186.505 1437.43 Q190.139 1437.43 191.945 1433.89 Q193.774 1430.32 193.774 1423.21 Q193.774 1416.08 191.945 1412.54 Q190.139 1408.98 186.505 1408.98 M186.505 1405.27 Q192.315 1405.27 195.371 1409.88 Q198.45 1414.46 198.45 1423.21 Q198.45 1431.94 195.371 1436.55 Q192.315 1441.13 186.505 1441.13 Q180.695 1441.13 177.616 1436.55 Q174.561 1431.94 174.561 1423.21 Q174.561 1414.46 177.616 1409.88 Q180.695 1405.27 186.505 1405.27 Z" fill="#000000" fill-rule="evenodd" fill-opacity="1" /><path clip-path="url(#clip460)" d="M 0 0 M213.519 1408.98 Q209.908 1408.98 208.079 1412.54 Q206.274 1416.08 206.274 1423.21 Q206.274 1430.32 208.079 1433.89 Q209.908 1437.43 213.519 1437.43 Q217.153 1437.43 218.959 1433.89 Q220.787 1430.32 220.787 1423.21 Q220.787 1416.08 218.959 1412.54 Q217.153 1408.98 213.519 1408.98 M213.519 1405.27 Q219.329 1405.27 222.385 1409.88 Q225.463 1414.46 225.463 1423.21 Q225.463 1431.94 222.385 1436.55 Q219.329 1441.13 213.519 1441.13 Q207.709 1441.13 204.63 1436.55 Q201.575 1431.94 201.575 1423.21 Q201.575 1414.46 204.63 1409.88 Q207.709 1405.27 213.519 1405.27 Z" fill="#000000" fill-rule="evenodd" fill-opacity="1" /><path clip-path="url(#clip460)" d="M 0 0 M116.343 1079.65 L146.019 1079.65 L146.019 1083.58 L116.343 1083.58 L116.343 1079.65 Z" fill="#000000" fill-rule="evenodd" fill-opacity="1" /><path clip-path="url(#clip460)" d="M 0 0 M155.116 1092.54 L171.436 1092.54 L171.436 1096.48 L149.491 1096.48 L149.491 1092.54 Q152.153 1089.79 156.737 1085.16 Q161.343 1080.5 162.524 1079.16 Q164.769 1076.64 165.649 1074.9 Q166.552 1073.14 166.552 1071.45 Q166.552 1068.7 164.607 1066.96 Q162.686 1065.23 159.584 1065.23 Q157.385 1065.23 154.931 1065.99 Q152.501 1066.75 149.723 1068.3 L149.723 1063.58 Q152.547 1062.45 155.001 1061.87 Q157.454 1061.29 159.491 1061.29 Q164.862 1061.29 168.056 1063.98 Q171.251 1066.66 171.251 1071.15 Q171.251 1073.28 170.44 1075.2 Q169.653 1077.1 167.547 1079.69 Q166.968 1080.36 163.866 1083.58 Q160.765 1086.78 155.116 1092.54 Z" fill="#000000" fill-rule="evenodd" fill-opacity="1" /><path clip-path="url(#clip460)" d="M 0 0 M186.505 1064.99 Q182.894 1064.99 181.065 1068.56 Q179.26 1072.1 179.26 1079.23 Q179.26 1086.34 181.065 1089.9 Q182.894 1093.44 186.505 1093.44 Q190.139 1093.44 191.945 1089.9 Q193.774 1086.34 193.774 1079.23 Q193.774 1072.1 191.945 1068.56 Q190.139 1064.99 186.505 1064.99 M186.505 1061.29 Q192.315 1061.29 195.371 1065.9 Q198.45 1070.48 198.45 1079.23 Q198.45 1087.96 195.371 1092.56 Q192.315 1097.15 186.505 1097.15 Q180.695 1097.15 177.616 1092.56 Q174.561 1087.96 174.561 1079.23 Q174.561 1070.48 177.616 1065.9 Q180.695 1061.29 186.505 1061.29 Z" fill="#000000" fill-rule="evenodd" fill-opacity="1" /><path clip-path="url(#clip460)" d="M 0 0 M213.519 1064.99 Q209.908 1064.99 208.079 1068.56 Q206.274 1072.1 206.274 1079.23 Q206.274 1086.34 208.079 1089.9 Q209.908 1093.44 213.519 1093.44 Q217.153 1093.44 218.959 1089.9 Q220.787 1086.34 220.787 1079.23 Q220.787 1072.1 218.959 1068.56 Q217.153 1064.99 213.519 1064.99 M213.519 1061.29 Q219.329 1061.29 222.385 1065.9 Q225.463 1070.48 225.463 1079.23 Q225.463 1087.96 222.385 1092.56 Q219.329 1097.15 213.519 1097.15 Q207.709 1097.15 204.63 1092.56 Q201.575 1087.96 201.575 1079.23 Q201.575 1070.48 204.63 1065.9 Q207.709 1061.29 213.519 1061.29 Z" fill="#000000" fill-rule="evenodd" fill-opacity="1" /><path clip-path="url(#clip460)" d="M 0 0 M213.519 721.011 Q209.908 721.011 208.079 724.575 Q206.274 728.117 206.274 735.247 Q206.274 742.353 208.079 745.918 Q209.908 749.46 213.519 749.46 Q217.153 749.46 218.959 745.918 Q220.787 742.353 220.787 735.247 Q220.787 728.117 218.959 724.575 Q217.153 721.011 213.519 721.011 M213.519 717.307 Q219.329 717.307 222.385 721.913 Q225.463 726.497 225.463 735.247 Q225.463 743.973 222.385 748.58 Q219.329 753.163 213.519 753.163 Q207.709 753.163 204.63 748.58 Q201.575 743.973 201.575 735.247 Q201.575 726.497 204.63 721.913 Q207.709 717.307 213.519 717.307 Z" fill="#000000" fill-rule="evenodd" fill-opacity="1" /><path clip-path="url(#clip460)" d="M 0 0 M155.116 404.573 L171.436 404.573 L171.436 408.508 L149.491 408.508 L149.491 404.573 Q152.153 401.818 156.737 397.189 Q161.343 392.536 162.524 391.193 Q164.769 388.67 165.649 386.934 Q166.552 385.175 166.552 383.485 Q166.552 380.73 164.607 378.994 Q162.686 377.258 159.584 377.258 Q157.385 377.258 154.931 378.022 Q152.501 378.786 149.723 380.337 L149.723 375.615 Q152.547 374.48 155.001 373.902 Q157.454 373.323 159.491 373.323 Q164.862 373.323 168.056 376.008 Q171.251 378.693 171.251 383.184 Q171.251 385.314 170.44 387.235 Q169.653 389.133 167.547 391.726 Q166.968 392.397 163.866 395.615 Q160.765 398.809 155.116 404.573 Z" fill="#000000" fill-rule="evenodd" fill-opacity="1" /><path clip-path="url(#clip460)" d="M 0 0 M186.505 377.027 Q182.894 377.027 181.065 380.592 Q179.26 384.133 179.26 391.263 Q179.26 398.369 181.065 401.934 Q182.894 405.476 186.505 405.476 Q190.139 405.476 191.945 401.934 Q193.774 398.369 193.774 391.263 Q193.774 384.133 191.945 380.592 Q190.139 377.027 186.505 377.027 M186.505 373.323 Q192.315 373.323 195.371 377.929 Q198.45 382.513 198.45 391.263 Q198.45 399.99 195.371 404.596 Q192.315 409.179 186.505 409.179 Q180.695 409.179 177.616 404.596 Q174.561 399.99 174.561 391.263 Q174.561 382.513 177.616 377.929 Q180.695 373.323 186.505 373.323 Z" fill="#000000" fill-rule="evenodd" fill-opacity="1" /><path clip-path="url(#clip460)" d="M 0 0 M213.519 377.027 Q209.908 377.027 208.079 380.592 Q206.274 384.133 206.274 391.263 Q206.274 398.369 208.079 401.934 Q209.908 405.476 213.519 405.476 Q217.153 405.476 218.959 401.934 Q220.787 398.369 220.787 391.263 Q220.787 384.133 218.959 380.592 Q217.153 377.027 213.519 377.027 M213.519 373.323 Q219.329 373.323 222.385 377.929 Q225.463 382.513 225.463 391.263 Q225.463 399.99 222.385 404.596 Q219.329 409.179 213.519 409.179 Q207.709 409.179 204.63 404.596 Q201.575 399.99 201.575 391.263 Q201.575 382.513 204.63 377.929 Q207.709 373.323 213.519 373.323 Z" fill="#000000" fill-rule="evenodd" fill-opacity="1" /><path clip-path="url(#clip460)" d="M 0 0 M161.852 34.0381 L150.047 52.4871 L161.852 52.4871 L161.852 34.0381 M160.626 29.9641 L166.505 29.9641 L166.505 52.4871 L171.436 52.4871 L171.436 56.376 L166.505 56.376 L166.505 64.5241 L161.852 64.5241 L161.852 56.376 L146.251 56.376 L146.251 51.8621 L160.626 29.9641 Z" fill="#000000" fill-rule="evenodd" fill-opacity="1" /><path clip-path="url(#clip460)" d="M 0 0 M186.505 33.0428 Q182.894 33.0428 181.065 36.6076 Q179.26 40.1492 179.26 47.2788 Q179.26 54.3853 181.065 57.9501 Q182.894 61.4917 186.505 61.4917 Q190.139 61.4917 191.945 57.9501 Q193.774 54.3853 193.774 47.2788 Q193.774 40.1492 191.945 36.6076 Q190.139 33.0428 186.505 33.0428 M186.505 29.3391 Q192.315 29.3391 195.371 33.9456 Q198.45 38.5289 198.45 47.2788 Q198.45 56.0056 195.371 60.6121 Q192.315 65.1954 186.505 65.1954 Q180.695 65.1954 177.616 60.6121 Q174.561 56.0056 174.561 47.2788 Q174.561 38.5289 177.616 33.9456 Q180.695 29.3391 186.505 29.3391 Z" fill="#000000" fill-rule="evenodd" fill-opacity="1" /><path clip-path="url(#clip460)" d="M 0 0 M213.519 33.0428 Q209.908 33.0428 208.079 36.6076 Q206.274 40.1492 206.274 47.2788 Q206.274 54.3853 208.079 57.9501 Q209.908 61.4917 213.519 61.4917 Q217.153 61.4917 218.959 57.9501 Q220.787 54.3853 220.787 47.2788 Q220.787 40.1492 218.959 36.6076 Q217.153 33.0428 213.519 33.0428 M213.519 29.3391 Q219.329 29.3391 222.385 33.9456 Q225.463 38.5289 225.463 47.2788 Q225.463 56.0056 222.385 60.6121 Q219.329 65.1954 213.519 65.1954 Q207.709 65.1954 204.63 60.6121 Q201.575 56.0056 201.575 47.2788 Q201.575 38.5289 204.63 33.9456 Q207.709 29.3391 213.519 29.3391 Z" fill="#000000" fill-rule="evenodd" fill-opacity="1" /><path clip-path="url(#clip460)" d="M 0 0 M16.4842 1174.56 L16.4842 1144.51 L21.895 1144.51 L21.895 1168.13 L35.9632 1168.13 L35.9632 1145.5 L41.3741 1145.5 L41.3741 1168.13 L58.5933 1168.13 L58.5933 1143.94 L64.0042 1143.94 L64.0042 1174.56 L16.4842 1174.56 Z" fill="#000000" fill-rule="evenodd" fill-opacity="1" /><path clip-path="url(#clip460)" d="M 0 0 M42.4881 1108.16 L64.0042 1108.16 L64.0042 1114.02 L42.679 1114.02 Q37.6183 1114.02 35.1038 1115.99 Q32.5894 1117.97 32.5894 1121.91 Q32.5894 1126.66 35.6131 1129.39 Q38.6368 1132.13 43.8567 1132.13 L64.0042 1132.13 L64.0042 1138.02 L28.3562 1138.02 L28.3562 1132.13 L33.8944 1132.13 Q30.6797 1130.03 29.0883 1127.2 Q27.4968 1124.33 27.4968 1120.61 Q27.4968 1114.46 31.3163 1111.31 Q35.1038 1108.16 42.4881 1108.16 Z" fill="#000000" fill-rule="evenodd" fill-opacity="1" /><path clip-path="url(#clip460)" d="M 0 0 M44.7161 1071.53 L47.5806 1071.53 L47.5806 1098.46 Q53.6281 1098.07 56.8109 1094.83 Q59.9619 1091.55 59.9619 1085.72 Q59.9619 1082.35 59.1344 1079.2 Q58.3069 1076.02 56.6518 1072.9 L62.1899 1072.9 Q63.5267 1076.05 64.227 1079.36 Q64.9272 1082.67 64.9272 1086.07 Q64.9272 1094.6 59.9619 1099.6 Q54.9967 1104.57 46.5303 1104.57 Q37.7774 1104.57 32.6531 1099.86 Q27.4968 1095.11 27.4968 1087.09 Q27.4968 1079.9 32.1438 1075.73 Q36.7589 1071.53 44.7161 1071.53 M42.9973 1077.38 Q38.1912 1077.45 35.3266 1080.09 Q32.4621 1082.7 32.4621 1087.03 Q32.4621 1091.93 35.2312 1094.89 Q38.0002 1097.82 43.0292 1098.26 L42.9973 1077.38 Z" fill="#000000" fill-rule="evenodd" fill-opacity="1" /><path clip-path="url(#clip460)" d="M 0 0 M33.8307 1044.73 Q33.2578 1045.72 33.0032 1046.89 Q32.7167 1048.04 32.7167 1049.44 Q32.7167 1054.4 35.9632 1057.08 Q39.1779 1059.72 45.2253 1059.72 L64.0042 1059.72 L64.0042 1065.61 L28.3562 1065.61 L28.3562 1059.72 L33.8944 1059.72 Q30.6479 1057.87 29.0883 1054.91 Q27.4968 1051.95 27.4968 1047.72 Q27.4968 1047.12 27.5923 1046.38 Q27.656 1045.65 27.8151 1044.76 L33.8307 1044.73 Z" fill="#000000" fill-rule="evenodd" fill-opacity="1" /><path clip-path="url(#clip460)" d="M 0 0 M45.7664 1016.27 Q39.4007 1016.27 35.8996 1018.92 Q32.3984 1021.53 32.3984 1026.27 Q32.3984 1030.98 35.8996 1033.62 Q39.4007 1036.23 45.7664 1036.23 Q52.1003 1036.23 55.6014 1033.62 Q59.1026 1030.98 59.1026 1026.27 Q59.1026 1021.53 55.6014 1018.92 Q52.1003 1016.27 45.7664 1016.27 M59.58 1010.42 Q68.683 1010.42 73.1071 1014.46 Q77.5631 1018.5 77.5631 1026.84 Q77.5631 1029.93 77.0857 1032.67 Q76.6401 1035.4 75.6852 1037.98 L69.9879 1037.98 Q71.3884 1035.4 72.0568 1032.89 Q72.7252 1030.37 72.7252 1027.76 Q72.7252 1022 69.7015 1019.14 Q66.7096 1016.27 60.6303 1016.27 L57.7339 1016.27 Q60.885 1018.09 62.4446 1020.92 Q64.0042 1023.75 64.0042 1027.7 Q64.0042 1034.26 59.0071 1038.27 Q54.01 1042.28 45.7664 1042.28 Q37.491 1042.28 32.4939 1038.27 Q27.4968 1034.26 27.4968 1027.7 Q27.4968 1023.75 29.0564 1020.92 Q30.616 1018.09 33.7671 1016.27 L28.3562 1016.27 L28.3562 1010.42 L59.58 1010.42 Z" fill="#000000" fill-rule="evenodd" fill-opacity="1" /><path clip-path="url(#clip460)" d="M 0 0 M67.3143 989.442 Q73.68 991.925 75.6216 994.28 Q77.5631 996.636 77.5631 1000.58 L77.5631 1005.26 L72.6615 1005.26 L72.6615 1001.82 Q72.6615 999.405 71.5157 998.068 Q70.3699 996.731 66.1048 995.108 L63.4312 994.058 L28.3562 1008.48 L28.3562 1002.27 L56.238 991.129 L28.3562 979.989 L28.3562 973.783 L67.3143 989.442 Z" fill="#000000" fill-rule="evenodd" fill-opacity="1" /><path clip-path="url(#clip460)" d="M 0 0 M14.479 928.873 L19.3487 928.873 L19.3487 934.475 Q19.3487 937.626 20.6219 938.867 Q21.895 940.076 25.2052 940.076 L28.3562 940.076 L28.3562 930.432 L32.9077 930.432 L32.9077 940.076 L64.0042 940.076 L64.0042 945.965 L32.9077 945.965 L32.9077 951.566 L28.3562 951.566 L28.3562 945.965 L25.8736 945.965 Q19.9216 945.965 17.2162 943.196 Q14.479 940.426 14.479 934.411 L14.479 928.873 Z" fill="#000000" fill-rule="evenodd" fill-opacity="1" /><path clip-path="url(#clip460)" d="M 0 0 M14.479 922.73 L14.479 916.873 L64.0042 916.873 L64.0042 922.73 L14.479 922.73 Z" fill="#000000" fill-rule="evenodd" fill-opacity="1" /><path clip-path="url(#clip460)" d="M 0 0 M49.9359 911.335 L28.3562 911.335 L28.3562 905.479 L49.7131 905.479 Q54.7739 905.479 57.3202 903.505 Q59.8346 901.532 59.8346 897.585 Q59.8346 892.843 56.8109 890.106 Q53.7872 887.336 48.5673 887.336 L28.3562 887.336 L28.3562 881.48 L64.0042 881.48 L64.0042 887.336 L58.5296 887.336 Q61.7762 889.469 63.3676 892.302 Q64.9272 895.103 64.9272 898.827 Q64.9272 904.969 61.1078 908.152 Q57.2883 911.335 49.9359 911.335 M27.4968 896.599 L27.4968 896.599 Z" fill="#000000" fill-rule="evenodd" fill-opacity="1" /><path clip-path="url(#clip460)" d="M 0 0 M28.3562 845.705 L45.7028 858.595 L64.0042 845.036 L64.0042 851.943 L49.9996 862.319 L64.0042 872.695 L64.0042 879.602 L45.3526 865.757 L28.3562 878.424 L28.3562 871.518 L41.0558 862.065 L28.3562 852.612 L28.3562 845.705 Z" fill="#000000" fill-rule="evenodd" fill-opacity="1" /><path clip-path="url(#clip460)" d="M 0 0 M14.479 800.126 L19.3487 800.126 L19.3487 805.728 Q19.3487 808.879 20.6219 810.12 Q21.895 811.33 25.2052 811.33 L28.3562 811.33 L28.3562 801.686 L32.9077 801.686 L32.9077 811.33 L64.0042 811.33 L64.0042 817.218 L32.9077 817.218 L32.9077 822.82 L28.3562 822.82 L28.3562 817.218 L25.8736 817.218 Q19.9216 817.218 17.2162 814.449 Q14.479 811.68 14.479 805.664 L14.479 800.126 Z" fill="#000000" fill-rule="evenodd" fill-opacity="1" /><path clip-path="url(#clip460)" d="M 0 0 M33.8307 773.327 Q33.2578 774.313 33.0032 775.491 Q32.7167 776.637 32.7167 778.037 Q32.7167 783.003 35.9632 785.676 Q39.1779 788.318 45.2253 788.318 L64.0042 788.318 L64.0042 794.206 L28.3562 794.206 L28.3562 788.318 L33.8944 788.318 Q30.6479 786.472 29.0883 783.512 Q27.4968 780.552 27.4968 776.319 Q27.4968 775.714 27.5923 774.982 Q27.656 774.25 27.8151 773.358 L33.8307 773.327 Z" fill="#000000" fill-rule="evenodd" fill-opacity="1" /><path clip-path="url(#clip460)" d="M 0 0 M32.4621 754.802 Q32.4621 759.513 36.1542 762.25 Q39.8145 764.988 46.212 764.988 Q52.6095 764.988 56.3017 762.282 Q59.9619 759.545 59.9619 754.802 Q59.9619 750.124 56.2698 747.386 Q52.5777 744.649 46.212 744.649 Q39.8781 744.649 36.186 747.386 Q32.4621 750.124 32.4621 754.802 M27.4968 754.802 Q27.4968 747.164 32.4621 742.803 Q37.4273 738.443 46.212 738.443 Q54.9649 738.443 59.9619 742.803 Q64.9272 747.164 64.9272 754.802 Q64.9272 762.473 59.9619 766.834 Q54.9649 771.162 46.212 771.162 Q37.4273 771.162 32.4621 766.834 Q27.4968 762.473 27.4968 754.802 Z" fill="#000000" fill-rule="evenodd" fill-opacity="1" /><path clip-path="url(#clip460)" d="M 0 0 M35.1993 704.545 Q31.2526 702.349 29.3747 699.293 Q27.4968 696.238 27.4968 692.1 Q27.4968 686.53 31.4117 683.507 Q35.2948 680.483 42.4881 680.483 L64.0042 680.483 L64.0042 686.371 L42.679 686.371 Q37.5546 686.371 35.072 688.185 Q32.5894 690 32.5894 693.723 Q32.5894 698.275 35.6131 700.917 Q38.6368 703.558 43.8567 703.558 L64.0042 703.558 L64.0042 709.447 L42.679 709.447 Q37.5228 709.447 35.072 711.261 Q32.5894 713.075 32.5894 716.863 Q32.5894 721.351 35.6449 723.992 Q38.6686 726.634 43.8567 726.634 L64.0042 726.634 L64.0042 732.522 L28.3562 732.522 L28.3562 726.634 L33.8944 726.634 Q30.616 724.629 29.0564 721.828 Q27.4968 719.027 27.4968 715.176 Q27.4968 711.293 29.4702 708.587 Q31.4436 705.85 35.1993 704.545 Z" fill="#000000" fill-rule="evenodd" fill-opacity="1" /><path clip-path="url(#clip460)" d="M 0 0 M14.479 653.62 L14.479 647.763 L64.0042 647.763 L64.0042 653.62 L14.479 653.62 Z" fill="#000000" fill-rule="evenodd" fill-opacity="1" /><path clip-path="url(#clip460)" d="M 0 0 M44.7161 611.128 L47.5806 611.128 L47.5806 638.055 Q53.6281 637.673 56.8109 634.427 Q59.9619 631.149 59.9619 625.324 Q59.9619 621.95 59.1344 618.799 Q58.3069 615.616 56.6518 612.497 L62.1899 612.497 Q63.5267 615.648 64.227 618.958 Q64.9272 622.268 64.9272 625.674 Q64.9272 634.204 59.9619 639.201 Q54.9967 644.166 46.5303 644.166 Q37.7774 644.166 32.6531 639.456 Q27.4968 634.713 27.4968 626.693 Q27.4968 619.499 32.1438 615.33 Q36.7589 611.128 44.7161 611.128 M42.9973 616.985 Q38.1912 617.049 35.3266 619.69 Q32.4621 622.3 32.4621 626.629 Q32.4621 631.531 35.2312 634.491 Q38.0002 637.419 43.0292 637.864 L42.9973 616.985 Z" fill="#000000" fill-rule="evenodd" fill-opacity="1" /><path clip-path="url(#clip460)" d="M 0 0 M46.0847 588.785 Q46.0847 595.883 47.7079 598.62 Q49.3312 601.357 53.2461 601.357 Q56.3653 601.357 58.2114 599.32 Q60.0256 597.251 60.0256 593.718 Q60.0256 588.848 56.5881 585.92 Q53.1188 582.96 47.3897 582.96 L46.0847 582.96 L46.0847 588.785 M43.6657 577.104 L64.0042 577.104 L64.0042 582.96 L58.5933 582.96 Q61.8398 584.965 63.3994 587.957 Q64.9272 590.949 64.9272 595.278 Q64.9272 600.752 61.8716 603.999 Q58.7843 607.214 53.6281 607.214 Q47.6125 607.214 44.5569 603.203 Q41.5014 599.161 41.5014 591.172 L41.5014 582.96 L40.9285 582.96 Q36.8862 582.96 34.6901 585.634 Q32.4621 588.276 32.4621 593.082 Q32.4621 596.137 33.1941 599.034 Q33.9262 601.93 35.3903 604.604 L29.9795 604.604 Q28.7381 601.389 28.1334 598.365 Q27.4968 595.341 27.4968 592.477 Q27.4968 584.743 31.5072 580.923 Q35.5176 577.104 43.6657 577.104 Z" fill="#000000" fill-rule="evenodd" fill-opacity="1" /><path clip-path="url(#clip460)" d="M 0 0 M14.479 552.914 L19.3487 552.914 L19.3487 558.516 Q19.3487 561.667 20.6219 562.908 Q21.895 564.118 25.2052 564.118 L28.3562 564.118 L28.3562 554.474 L32.9077 554.474 L32.9077 564.118 L64.0042 564.118 L64.0042 570.006 L32.9077 570.006 L32.9077 575.608 L28.3562 575.608 L28.3562 570.006 L25.8736 570.006 Q19.9216 570.006 17.2162 567.237 Q14.479 564.468 14.479 558.452 L14.479 552.914 Z" fill="#000000" fill-rule="evenodd" fill-opacity="1" /><path clip-path="url(#clip460)" d="M 0 0 M14.5426 511.983 Q21.8632 516.248 29.0246 518.316 Q36.186 520.385 43.5384 520.385 Q50.8908 520.385 58.1159 518.316 Q65.3091 516.216 72.5979 511.983 L72.5979 517.075 Q65.1182 521.849 57.8931 524.237 Q50.668 526.592 43.5384 526.592 Q36.4406 526.592 29.2474 524.237 Q22.0542 521.881 14.5426 517.075 L14.5426 511.983 Z" fill="#000000" fill-rule="evenodd" fill-opacity="1" /><path clip-path="url(#clip460)" d="M 0 0 M16.4842 509.818 L16.4842 503.325 L56.6518 493.331 L16.4842 483.369 L16.4842 476.144 L56.6518 466.149 L16.4842 456.187 L16.4842 449.662 L64.0042 461.598 L64.0042 469.682 L22.7544 479.708 L64.0042 489.83 L64.0042 497.914 L16.4842 509.818 Z" fill="#000000" fill-rule="evenodd" fill-opacity="1" /><path clip-path="url(#clip460)" d="M 0 0 M35.1993 395.045 Q31.2526 392.848 29.3747 389.793 Q27.4968 386.737 27.4968 382.6 Q27.4968 377.03 31.4117 374.006 Q35.2948 370.982 42.4881 370.982 L64.0042 370.982 L64.0042 376.87 L42.679 376.87 Q37.5546 376.87 35.072 378.685 Q32.5894 380.499 32.5894 384.223 Q32.5894 388.774 35.6131 391.416 Q38.6368 394.058 43.8567 394.058 L64.0042 394.058 L64.0042 399.946 L42.679 399.946 Q37.5228 399.946 35.072 401.76 Q32.5894 403.575 32.5894 407.362 Q32.5894 411.85 35.6449 414.492 Q38.6686 417.134 43.8567 417.134 L64.0042 417.134 L64.0042 423.022 L28.3562 423.022 L28.3562 417.134 L33.8944 417.134 Q30.616 415.128 29.0564 412.327 Q27.4968 409.527 27.4968 405.675 Q27.4968 401.792 29.4702 399.087 Q31.4436 396.349 35.1993 395.045 Z" fill="#000000" fill-rule="evenodd" fill-opacity="1" /><path clip-path="url(#clip460)" d="M 0 0 M43.5384 367.799 L43.5384 350.644 L48.7583 350.644 L48.7583 367.799 L43.5384 367.799 Z" fill="#000000" fill-rule="evenodd" fill-opacity="1" /><path clip-path="url(#clip460)" d="M 0 0 M58.5933 338.135 L58.5933 315.696 L64.0042 315.696 L64.0042 345.869 L58.5933 345.869 Q54.8057 342.209 48.44 335.907 Q42.0425 329.573 40.1964 327.95 Q36.7271 324.863 34.34 323.653 Q31.921 322.412 29.5975 322.412 Q25.8099 322.412 23.4228 325.085 Q21.0356 327.727 21.0356 331.992 Q21.0356 335.016 22.086 338.39 Q23.1363 341.732 25.2688 345.551 L18.7758 345.551 Q17.2162 341.668 16.4205 338.294 Q15.6248 334.92 15.6248 332.12 Q15.6248 324.735 19.3169 320.343 Q23.009 315.951 29.1837 315.951 Q32.112 315.951 34.7537 317.065 Q37.3637 318.147 40.9285 321.043 Q41.8515 321.839 46.2757 326.104 Q50.668 330.369 58.5933 338.135 Z" fill="#000000" fill-rule="evenodd" fill-opacity="1" /><path clip-path="url(#clip460)" d="M 0 0 M14.5426 310.476 L14.5426 305.384 Q22.0542 300.609 29.2474 298.254 Q36.4406 295.867 43.5384 295.867 Q50.668 295.867 57.8931 298.254 Q65.1182 300.609 72.5979 305.384 L72.5979 310.476 Q65.3091 306.243 58.1159 304.174 Q50.8908 302.073 43.5384 302.073 Q36.186 302.073 29.0246 304.174 Q21.8632 306.243 14.5426 310.476 Z" fill="#000000" fill-rule="evenodd" fill-opacity="1" /><circle clip-path="url(#clip462)" cx="313.714" cy="358.701" r="14" fill="#0000ff" fill-rule="evenodd" fill-opacity="1" stroke="#000000" stroke-opacity="1" stroke-width="3.2"/>
<circle clip-path="url(#clip462)" cx="398.866" cy="335.681" r="14" fill="#0000ff" fill-rule="evenodd" fill-opacity="1" stroke="#000000" stroke-opacity="1" stroke-width="3.2"/>
<circle clip-path="url(#clip462)" cx="509.437" cy="302.673" r="14" fill="#0000ff" fill-rule="evenodd" fill-opacity="1" stroke="#000000" stroke-opacity="1" stroke-width="3.2"/>
<circle clip-path="url(#clip462)" cx="706.506" cy="257.335" r="14" fill="#0000ff" fill-rule="evenodd" fill-opacity="1" stroke="#000000" stroke-opacity="1" stroke-width="3.2"/>
<circle clip-path="url(#clip462)" cx="911.736" cy="221.518" r="14" fill="#0000ff" fill-rule="evenodd" fill-opacity="1" stroke="#000000" stroke-opacity="1" stroke-width="3.2"/>
<circle clip-path="url(#clip462)" cx="1049.64" cy="186.481" r="14" fill="#0000ff" fill-rule="evenodd" fill-opacity="1" stroke="#000000" stroke-opacity="1" stroke-width="3.2"/>
<circle clip-path="url(#clip462)" cx="1195.71" cy="169.08" r="14" fill="#0000ff" fill-rule="evenodd" fill-opacity="1" stroke="#000000" stroke-opacity="1" stroke-width="3.2"/>
<circle clip-path="url(#clip462)" cx="1330.36" cy="151.21" r="14" fill="#0000ff" fill-rule="evenodd" fill-opacity="1" stroke="#000000" stroke-opacity="1" stroke-width="3.2"/>
<circle clip-path="url(#clip462)" cx="1525.79" cy="131.546" r="14" fill="#0000ff" fill-rule="evenodd" fill-opacity="1" stroke="#000000" stroke-opacity="1" stroke-width="3.2"/>
<circle clip-path="url(#clip462)" cx="1536.81" cy="110.477" r="14" fill="#0000ff" fill-rule="evenodd" fill-opacity="1" stroke="#000000" stroke-opacity="1" stroke-width="3.2"/>
<circle clip-path="url(#clip462)" cx="1674.31" cy="112.584" r="14" fill="#0000ff" fill-rule="evenodd" fill-opacity="1" stroke="#000000" stroke-opacity="1" stroke-width="3.2"/>
<circle clip-path="url(#clip462)" cx="1742.45" cy="112.193" r="14" fill="#0000ff" fill-rule="evenodd" fill-opacity="1" stroke="#000000" stroke-opacity="1" stroke-width="3.2"/>
<circle clip-path="url(#clip462)" cx="1855.06" cy="93.8555" r="14" fill="#0000ff" fill-rule="evenodd" fill-opacity="1" stroke="#000000" stroke-opacity="1" stroke-width="3.2"/>
<circle clip-path="url(#clip462)" cx="2055.39" cy="71.538" r="14" fill="#0000ff" fill-rule="evenodd" fill-opacity="1" stroke="#000000" stroke-opacity="1" stroke-width="3.2"/>
<path clip-path="url(#clip460)" d="M 0 0 M2079.39 54.258 L2084.07 54.258 L2084.07 84.8828 L2100.9 84.8828 L2100.9 88.818 L2079.39 88.818 L2079.39 54.258 Z" fill="#000000" fill-rule="evenodd" fill-opacity="1" /><path clip-path="url(#clip460)" d="M 0 0 M2105.55 54.258 L2127.4 54.258 L2127.4 58.1931 L2110.22 58.1931 L2110.22 68.4246 L2126.68 68.4246 L2126.68 72.3597 L2110.22 72.3597 L2110.22 84.8828 L2127.82 84.8828 L2127.82 88.818 L2105.55 88.818 L2105.55 54.258 Z" fill="#000000" fill-rule="evenodd" fill-opacity="1" /><path clip-path="url(#clip460)" d="M 0 0 M2167.54 67.869 Q2169.14 64.9986 2171.36 63.6329 Q2173.58 62.2672 2176.59 62.2672 Q2180.64 62.2672 2182.84 65.1144 Q2185.04 67.9384 2185.04 73.1699 L2185.04 88.818 L2180.76 88.818 L2180.76 73.3088 Q2180.76 69.582 2179.44 67.7764 Q2178.12 65.9709 2175.41 65.9709 Q2172.1 65.9709 2170.18 68.1699 Q2168.26 70.369 2168.26 74.1653 L2168.26 88.818 L2163.97 88.818 L2163.97 73.3088 Q2163.97 69.5588 2162.65 67.7764 Q2161.34 65.9709 2158.58 65.9709 Q2155.32 65.9709 2153.4 68.1931 Q2151.47 70.3921 2151.47 74.1653 L2151.47 88.818 L2147.19 88.818 L2147.19 62.8922 L2151.47 62.8922 L2151.47 66.9199 Q2152.93 64.5357 2154.97 63.4014 Q2157.01 62.2672 2159.81 62.2672 Q2162.63 62.2672 2164.6 63.7024 Q2166.59 65.1375 2167.54 67.869 Z" fill="#000000" fill-rule="evenodd" fill-opacity="1" /><path clip-path="url(#clip460)" d="M 0 0 M2211.68 74.7903 L2211.68 76.8736 L2192.1 76.8736 Q2192.38 81.2717 2194.74 83.5865 Q2197.12 85.8782 2201.36 85.8782 Q2203.81 85.8782 2206.1 85.2763 Q2208.42 84.6745 2210.69 83.4708 L2210.69 87.4985 Q2208.4 88.4707 2205.99 88.98 Q2203.58 89.4893 2201.1 89.4893 Q2194.9 89.4893 2191.27 85.8782 Q2187.65 82.2671 2187.65 76.1097 Q2187.65 69.744 2191.08 66.0172 Q2194.53 62.2672 2200.36 62.2672 Q2205.59 62.2672 2208.63 65.6468 Q2211.68 69.0033 2211.68 74.7903 M2207.42 73.5403 Q2207.38 70.0449 2205.46 67.9616 Q2203.56 65.8783 2200.41 65.8783 Q2196.84 65.8783 2194.69 67.8921 Q2192.56 69.906 2192.24 73.5634 L2207.42 73.5403 Z" fill="#000000" fill-rule="evenodd" fill-opacity="1" /><path clip-path="url(#clip460)" d="M 0 0 M2227.93 75.7856 Q2222.77 75.7856 2220.78 76.9662 Q2218.79 78.1467 2218.79 80.9939 Q2218.79 83.2624 2220.27 84.605 Q2221.77 85.9245 2224.34 85.9245 Q2227.89 85.9245 2230.02 83.4245 Q2232.17 80.9013 2232.17 76.7347 L2232.17 75.7856 L2227.93 75.7856 M2236.43 74.0264 L2236.43 88.818 L2232.17 88.818 L2232.17 84.8828 Q2230.71 87.2439 2228.53 88.3781 Q2226.36 89.4893 2223.21 89.4893 Q2219.23 89.4893 2216.87 87.267 Q2214.53 85.0217 2214.53 81.2717 Q2214.53 76.8967 2217.45 74.6745 Q2220.39 72.4523 2226.2 72.4523 L2232.17 72.4523 L2232.17 72.0356 Q2232.17 69.0958 2230.22 67.4986 Q2228.3 65.8783 2224.81 65.8783 Q2222.58 65.8783 2220.48 66.4107 Q2218.37 66.9431 2216.43 68.0079 L2216.43 64.0727 Q2218.77 63.1699 2220.96 62.7301 Q2223.16 62.2672 2225.25 62.2672 Q2230.87 62.2672 2233.65 65.1838 Q2236.43 68.1005 2236.43 74.0264 Z" fill="#000000" fill-rule="evenodd" fill-opacity="1" /><path clip-path="url(#clip460)" d="M 0 0 M2257.42 63.6561 L2257.42 67.6838 Q2255.62 66.7579 2253.67 66.2949 Q2251.73 65.832 2249.64 65.832 Q2246.47 65.832 2244.88 66.8042 Q2243.3 67.7764 2243.3 69.7208 Q2243.3 71.2023 2244.44 72.0588 Q2245.57 72.8921 2249 73.656 L2250.46 73.9801 Q2254.99 74.9523 2256.89 76.7347 Q2258.81 78.4939 2258.81 81.6652 Q2258.81 85.2763 2255.94 87.3828 Q2253.09 89.4893 2248.09 89.4893 Q2246.01 89.4893 2243.74 89.0726 Q2241.5 88.6791 2239 87.8689 L2239 83.4708 Q2241.36 84.6976 2243.65 85.3226 Q2245.94 85.9245 2248.19 85.9245 Q2251.2 85.9245 2252.82 84.9059 Q2254.44 83.8643 2254.44 81.9893 Q2254.44 80.2532 2253.26 79.3273 Q2252.1 78.4013 2248.14 77.5449 L2246.66 77.1977 Q2242.7 76.3643 2240.94 74.6514 Q2239.18 72.9153 2239.18 69.906 Q2239.18 66.2486 2241.77 64.2579 Q2244.37 62.2672 2249.14 62.2672 Q2251.5 62.2672 2253.58 62.6144 Q2255.66 62.9616 2257.42 63.6561 Z" fill="#000000" fill-rule="evenodd" fill-opacity="1" /><circle clip-path="url(#clip462)" cx="313.714" cy="1008.57" r="14" fill="#ff0000" fill-rule="evenodd" fill-opacity="1" stroke="#000000" stroke-opacity="1" stroke-width="3.2"/>
<circle clip-path="url(#clip462)" cx="398.866" cy="1024.62" r="14" fill="#ff0000" fill-rule="evenodd" fill-opacity="1" stroke="#000000" stroke-opacity="1" stroke-width="3.2"/>
<circle clip-path="url(#clip462)" cx="509.437" cy="1087.41" r="14" fill="#ff0000" fill-rule="evenodd" fill-opacity="1" stroke="#000000" stroke-opacity="1" stroke-width="3.2"/>
<circle clip-path="url(#clip462)" cx="706.506" cy="1115.87" r="14" fill="#ff0000" fill-rule="evenodd" fill-opacity="1" stroke="#000000" stroke-opacity="1" stroke-width="3.2"/>
<circle clip-path="url(#clip462)" cx="911.736" cy="1126.88" r="14" fill="#ff0000" fill-rule="evenodd" fill-opacity="1" stroke="#000000" stroke-opacity="1" stroke-width="3.2"/>
<circle clip-path="url(#clip462)" cx="1049.64" cy="1209.91" r="14" fill="#ff0000" fill-rule="evenodd" fill-opacity="1" stroke="#000000" stroke-opacity="1" stroke-width="3.2"/>
<circle clip-path="url(#clip462)" cx="1195.71" cy="1180.6" r="14" fill="#ff0000" fill-rule="evenodd" fill-opacity="1" stroke="#000000" stroke-opacity="1" stroke-width="3.2"/>
<circle clip-path="url(#clip462)" cx="1330.36" cy="1256.73" r="14" fill="#ff0000" fill-rule="evenodd" fill-opacity="1" stroke="#000000" stroke-opacity="1" stroke-width="3.2"/>
<circle clip-path="url(#clip462)" cx="1525.79" cy="1160.89" r="14" fill="#ff0000" fill-rule="evenodd" fill-opacity="1" stroke="#000000" stroke-opacity="1" stroke-width="3.2"/>
<circle clip-path="url(#clip462)" cx="1536.81" cy="1209.04" r="14" fill="#ff0000" fill-rule="evenodd" fill-opacity="1" stroke="#000000" stroke-opacity="1" stroke-width="3.2"/>
<circle clip-path="url(#clip462)" cx="1674.31" cy="1184.56" r="14" fill="#ff0000" fill-rule="evenodd" fill-opacity="1" stroke="#000000" stroke-opacity="1" stroke-width="3.2"/>
<circle clip-path="url(#clip462)" cx="1742.45" cy="1228.25" r="14" fill="#ff0000" fill-rule="evenodd" fill-opacity="1" stroke="#000000" stroke-opacity="1" stroke-width="3.2"/>
<circle clip-path="url(#clip462)" cx="1855.06" cy="1220.46" r="14" fill="#ff0000" fill-rule="evenodd" fill-opacity="1" stroke="#000000" stroke-opacity="1" stroke-width="3.2"/>
<circle clip-path="url(#clip462)" cx="2055.39" cy="1246.94" r="14" fill="#ff0000" fill-rule="evenodd" fill-opacity="1" stroke="#000000" stroke-opacity="1" stroke-width="3.2"/>
<path clip-path="url(#clip460)" d="M 0 0 M2079.39 1229.66 L2084.07 1229.66 L2084.07 1243.83 L2101.06 1243.83 L2101.06 1229.66 L2105.73 1229.66 L2105.73 1264.22 L2101.06 1264.22 L2101.06 1247.77 L2084.07 1247.77 L2084.07 1264.22 L2079.39 1264.22 L2079.39 1229.66 Z" fill="#000000" fill-rule="evenodd" fill-opacity="1" /><path clip-path="url(#clip460)" d="M 0 0 M2145.46 1243.28 Q2147.05 1240.41 2149.28 1239.04 Q2151.5 1237.67 2154.51 1237.67 Q2158.56 1237.67 2160.76 1240.52 Q2162.96 1243.35 2162.96 1248.58 L2162.96 1264.22 L2158.67 1264.22 L2158.67 1248.72 Q2158.67 1244.99 2157.35 1243.18 Q2156.03 1241.38 2153.33 1241.38 Q2150.02 1241.38 2148.09 1243.58 Q2146.17 1245.78 2146.17 1249.57 L2146.17 1264.22 L2141.89 1264.22 L2141.89 1248.72 Q2141.89 1244.97 2140.57 1243.18 Q2139.25 1241.38 2136.5 1241.38 Q2133.23 1241.38 2131.31 1243.6 Q2129.39 1245.8 2129.39 1249.57 L2129.39 1264.22 L2125.11 1264.22 L2125.11 1238.3 L2129.39 1238.3 L2129.39 1242.33 Q2130.85 1239.94 2132.89 1238.81 Q2134.92 1237.67 2137.72 1237.67 Q2140.55 1237.67 2142.52 1239.11 Q2144.51 1240.54 2145.46 1243.28 Z" fill="#000000" fill-rule="evenodd" fill-opacity="1" /><path clip-path="url(#clip460)" d="M 0 0 M2189.6 1250.2 L2189.6 1252.28 L2170.02 1252.28 Q2170.29 1256.68 2172.65 1258.99 Q2175.04 1261.28 2179.27 1261.28 Q2181.73 1261.28 2184.02 1260.68 Q2186.34 1260.08 2188.6 1258.88 L2188.6 1262.91 Q2186.31 1263.88 2183.9 1264.39 Q2181.5 1264.9 2179.02 1264.9 Q2172.82 1264.9 2169.18 1261.28 Q2165.57 1257.67 2165.57 1251.52 Q2165.57 1245.15 2169 1241.42 Q2172.45 1237.67 2178.28 1237.67 Q2183.51 1237.67 2186.54 1241.05 Q2189.6 1244.41 2189.6 1250.2 M2185.34 1248.95 Q2185.29 1245.45 2183.37 1243.37 Q2181.47 1241.29 2178.33 1241.29 Q2174.76 1241.29 2172.61 1243.3 Q2170.48 1245.31 2170.15 1248.97 L2185.34 1248.95 Z" fill="#000000" fill-rule="evenodd" fill-opacity="1" /><path clip-path="url(#clip460)" d="M 0 0 M2205.85 1251.19 Q2200.69 1251.19 2198.7 1252.37 Q2196.71 1253.55 2196.71 1256.4 Q2196.71 1258.67 2198.19 1260.01 Q2199.69 1261.33 2202.26 1261.33 Q2205.8 1261.33 2207.93 1258.83 Q2210.08 1256.31 2210.08 1252.14 L2210.08 1251.19 L2205.85 1251.19 M2214.34 1249.43 L2214.34 1264.22 L2210.08 1264.22 L2210.08 1260.29 Q2208.63 1262.65 2206.45 1263.78 Q2204.27 1264.9 2201.13 1264.9 Q2197.15 1264.9 2194.78 1262.67 Q2192.45 1260.43 2192.45 1256.68 Q2192.45 1252.3 2195.36 1250.08 Q2198.3 1247.86 2204.11 1247.86 L2210.08 1247.86 L2210.08 1247.44 Q2210.08 1244.5 2208.14 1242.91 Q2206.22 1241.29 2202.72 1241.29 Q2200.5 1241.29 2198.4 1241.82 Q2196.29 1242.35 2194.34 1243.41 L2194.34 1239.48 Q2196.68 1238.58 2198.88 1238.14 Q2201.08 1237.67 2203.16 1237.67 Q2208.79 1237.67 2211.57 1240.59 Q2214.34 1243.51 2214.34 1249.43 Z" fill="#000000" fill-rule="evenodd" fill-opacity="1" /><path clip-path="url(#clip460)" d="M 0 0 M2235.34 1239.06 L2235.34 1243.09 Q2233.53 1242.16 2231.59 1241.7 Q2229.64 1241.24 2227.56 1241.24 Q2224.39 1241.24 2222.79 1242.21 Q2221.22 1243.18 2221.22 1245.13 Q2221.22 1246.61 2222.35 1247.47 Q2223.49 1248.3 2226.91 1249.06 L2228.37 1249.39 Q2232.91 1250.36 2234.81 1252.14 Q2236.73 1253.9 2236.73 1257.07 Q2236.73 1260.68 2233.86 1262.79 Q2231.01 1264.9 2226.01 1264.9 Q2223.93 1264.9 2221.66 1264.48 Q2219.41 1264.09 2216.91 1263.28 L2216.91 1258.88 Q2219.27 1260.1 2221.57 1260.73 Q2223.86 1261.33 2226.1 1261.33 Q2229.11 1261.33 2230.73 1260.31 Q2232.35 1259.27 2232.35 1257.4 Q2232.35 1255.66 2231.17 1254.73 Q2230.02 1253.81 2226.06 1252.95 L2224.58 1252.6 Q2220.62 1251.77 2218.86 1250.06 Q2217.1 1248.32 2217.1 1245.31 Q2217.1 1241.66 2219.69 1239.66 Q2222.28 1237.67 2227.05 1237.67 Q2229.41 1237.67 2231.5 1238.02 Q2233.58 1238.37 2235.34 1239.06 Z" fill="#000000" fill-rule="evenodd" fill-opacity="1" /><circle clip-path="url(#clip462)" cx="313.714" cy="711.568" r="14" fill="#008000" fill-rule="evenodd" fill-opacity="1" stroke="#000000" stroke-opacity="1" stroke-width="3.2"/>
<circle clip-path="url(#clip462)" cx="398.866" cy="709.024" r="14" fill="#008000" fill-rule="evenodd" fill-opacity="1" stroke="#000000" stroke-opacity="1" stroke-width="3.2"/>
<circle clip-path="url(#clip462)" cx="509.437" cy="711.386" r="14" fill="#008000" fill-rule="evenodd" fill-opacity="1" stroke="#000000" stroke-opacity="1" stroke-width="3.2"/>
<circle clip-path="url(#clip462)" cx="706.506" cy="711.475" r="14" fill="#008000" fill-rule="evenodd" fill-opacity="1" stroke="#000000" stroke-opacity="1" stroke-width="3.2"/>
<circle clip-path="url(#clip462)" cx="911.736" cy="711.546" r="14" fill="#008000" fill-rule="evenodd" fill-opacity="1" stroke="#000000" stroke-opacity="1" stroke-width="3.2"/>
<circle clip-path="url(#clip462)" cx="1049.64" cy="711.957" r="14" fill="#008000" fill-rule="evenodd" fill-opacity="1" stroke="#000000" stroke-opacity="1" stroke-width="3.2"/>
<circle clip-path="url(#clip462)" cx="1195.71" cy="714.516" r="14" fill="#008000" fill-rule="evenodd" fill-opacity="1" stroke="#000000" stroke-opacity="1" stroke-width="3.2"/>
<circle clip-path="url(#clip462)" cx="1330.36" cy="713.911" r="14" fill="#008000" fill-rule="evenodd" fill-opacity="1" stroke="#000000" stroke-opacity="1" stroke-width="3.2"/>
<circle clip-path="url(#clip462)" cx="1525.79" cy="715.951" r="14" fill="#008000" fill-rule="evenodd" fill-opacity="1" stroke="#000000" stroke-opacity="1" stroke-width="3.2"/>
<circle clip-path="url(#clip462)" cx="1536.81" cy="715.488" r="14" fill="#008000" fill-rule="evenodd" fill-opacity="1" stroke="#000000" stroke-opacity="1" stroke-width="3.2"/>
<circle clip-path="url(#clip462)" cx="1674.31" cy="716.099" r="14" fill="#008000" fill-rule="evenodd" fill-opacity="1" stroke="#000000" stroke-opacity="1" stroke-width="3.2"/>
<circle clip-path="url(#clip462)" cx="1742.45" cy="715.803" r="14" fill="#008000" fill-rule="evenodd" fill-opacity="1" stroke="#000000" stroke-opacity="1" stroke-width="3.2"/>
<circle clip-path="url(#clip462)" cx="1855.06" cy="716.972" r="14" fill="#008000" fill-rule="evenodd" fill-opacity="1" stroke="#000000" stroke-opacity="1" stroke-width="3.2"/>
<circle clip-path="url(#clip462)" cx="2055.39" cy="717.474" r="14" fill="#008000" fill-rule="evenodd" fill-opacity="1" stroke="#000000" stroke-opacity="1" stroke-width="3.2"/>
<path clip-path="url(#clip460)" d="M 0 0 M2095.78 718.551 Q2097.28 719.06 2098.7 720.727 Q2100.13 722.393 2101.57 725.31 L2106.31 734.754 L2101.29 734.754 L2096.87 725.889 Q2095.15 722.417 2093.53 721.282 Q2091.94 720.148 2089.16 720.148 L2084.07 720.148 L2084.07 734.754 L2079.39 734.754 L2079.39 700.194 L2089.95 700.194 Q2095.87 700.194 2098.79 702.671 Q2101.71 705.148 2101.71 710.148 Q2101.71 713.412 2100.18 715.565 Q2098.67 717.717 2095.78 718.551 M2084.07 704.037 L2084.07 716.305 L2089.95 716.305 Q2093.33 716.305 2095.04 714.755 Q2096.78 713.18 2096.78 710.148 Q2096.78 707.116 2095.04 705.588 Q2093.33 704.037 2089.95 704.037 L2084.07 704.037 Z" fill="#000000" fill-rule="evenodd" fill-opacity="1" /><path clip-path="url(#clip460)" d="M 0 0 M2132.33 719.106 L2132.33 734.754 L2128.07 734.754 L2128.07 719.245 Q2128.07 715.565 2126.64 713.736 Q2125.2 711.907 2122.33 711.907 Q2118.88 711.907 2116.89 714.106 Q2114.9 716.305 2114.9 720.102 L2114.9 734.754 L2110.62 734.754 L2110.62 708.829 L2114.9 708.829 L2114.9 712.856 Q2116.43 710.518 2118.49 709.361 Q2120.57 708.204 2123.28 708.204 Q2127.75 708.204 2130.04 710.981 Q2132.33 713.736 2132.33 719.106 Z" fill="#000000" fill-rule="evenodd" fill-opacity="1" /><path clip-path="url(#clip460)" d="M 0 0 M2172.05 713.805 Q2173.65 710.935 2175.87 709.569 Q2178.09 708.204 2181.1 708.204 Q2185.15 708.204 2187.35 711.051 Q2189.55 713.875 2189.55 719.106 L2189.55 734.754 L2185.27 734.754 L2185.27 719.245 Q2185.27 715.518 2183.95 713.713 Q2182.63 711.907 2179.92 711.907 Q2176.61 711.907 2174.69 714.106 Q2172.77 716.305 2172.77 720.102 L2172.77 734.754 L2168.49 734.754 L2168.49 719.245 Q2168.49 715.495 2167.17 713.713 Q2165.85 711.907 2163.09 711.907 Q2159.83 711.907 2157.91 714.13 Q2155.99 716.329 2155.99 720.102 L2155.99 734.754 L2151.71 734.754 L2151.71 708.829 L2155.99 708.829 L2155.99 712.856 Q2157.45 710.472 2159.48 709.338 Q2161.52 708.204 2164.32 708.204 Q2167.15 708.204 2169.11 709.639 Q2171.1 711.074 2172.05 713.805 Z" fill="#000000" fill-rule="evenodd" fill-opacity="1" /><path clip-path="url(#clip460)" d="M 0 0 M2216.2 720.727 L2216.2 722.81 L2196.61 722.81 Q2196.89 727.208 2199.25 729.523 Q2201.64 731.815 2205.87 731.815 Q2208.33 731.815 2210.62 731.213 Q2212.93 730.611 2215.2 729.407 L2215.2 733.435 Q2212.91 734.407 2210.5 734.916 Q2208.09 735.426 2205.62 735.426 Q2199.41 735.426 2195.78 731.815 Q2192.17 728.204 2192.17 722.046 Q2192.17 715.68 2195.59 711.954 Q2199.04 708.204 2204.88 708.204 Q2210.11 708.204 2213.14 711.583 Q2216.2 714.94 2216.2 720.727 M2211.94 719.477 Q2211.89 715.981 2209.97 713.898 Q2208.07 711.815 2204.92 711.815 Q2201.36 711.815 2199.21 713.829 Q2197.08 715.843 2196.75 719.5 L2211.94 719.477 Z" fill="#000000" fill-rule="evenodd" fill-opacity="1" /><path clip-path="url(#clip460)" d="M 0 0 M2232.45 721.722 Q2227.28 721.722 2225.29 722.903 Q2223.3 724.083 2223.3 726.93 Q2223.3 729.199 2224.78 730.541 Q2226.29 731.861 2228.86 731.861 Q2232.4 731.861 2234.53 729.361 Q2236.68 726.838 2236.68 722.671 L2236.68 721.722 L2232.45 721.722 M2240.94 719.963 L2240.94 734.754 L2236.68 734.754 L2236.68 730.819 Q2235.22 733.18 2233.05 734.315 Q2230.87 735.426 2227.72 735.426 Q2223.74 735.426 2221.38 733.204 Q2219.04 730.958 2219.04 727.208 Q2219.04 722.833 2221.96 720.611 Q2224.9 718.389 2230.71 718.389 L2236.68 718.389 L2236.68 717.972 Q2236.68 715.032 2234.74 713.435 Q2232.82 711.815 2229.32 711.815 Q2227.1 711.815 2224.99 712.347 Q2222.89 712.88 2220.94 713.944 L2220.94 710.009 Q2223.28 709.106 2225.48 708.667 Q2227.68 708.204 2229.76 708.204 Q2235.39 708.204 2238.16 711.12 Q2240.94 714.037 2240.94 719.963 Z" fill="#000000" fill-rule="evenodd" fill-opacity="1" /><path clip-path="url(#clip460)" d="M 0 0 M2261.94 709.593 L2261.94 713.62 Q2260.13 712.694 2258.19 712.231 Q2256.24 711.768 2254.16 711.768 Q2250.99 711.768 2249.39 712.741 Q2247.82 713.713 2247.82 715.657 Q2247.82 717.139 2248.95 717.995 Q2250.08 718.829 2253.51 719.592 L2254.97 719.917 Q2259.51 720.889 2261.4 722.671 Q2263.33 724.43 2263.33 727.602 Q2263.33 731.213 2260.45 733.319 Q2257.61 735.426 2252.61 735.426 Q2250.52 735.426 2248.26 735.009 Q2246.01 734.616 2243.51 733.805 L2243.51 729.407 Q2245.87 730.634 2248.16 731.259 Q2250.46 731.861 2252.7 731.861 Q2255.71 731.861 2257.33 730.842 Q2258.95 729.801 2258.95 727.926 Q2258.95 726.19 2257.77 725.264 Q2256.61 724.338 2252.65 723.481 L2251.17 723.134 Q2247.21 722.301 2245.46 720.588 Q2243.7 718.852 2243.7 715.843 Q2243.7 712.185 2246.29 710.194 Q2248.88 708.204 2253.65 708.204 Q2256.01 708.204 2258.09 708.551 Q2260.18 708.898 2261.94 709.593 Z" fill="#000000" fill-rule="evenodd" fill-opacity="1" /><path clip-path="url(#clip462)" d="M313.714 616.063 L309.954 626.879 L298.498 627.119 L307.634 634.047 L304.306 645.007 L313.714 638.463 L323.122 645.007 L319.794 634.047 L328.93 627.119 L317.474 626.879 L313.714 616.063 Z" fill="#008000" fill-rule="evenodd" fill-opacity="1" stroke="#000000" stroke-opacity="1" stroke-width="3.2"/>
<path clip-path="url(#clip462)" d="M398.866 609.093 L395.106 619.909 L383.65 620.149 L392.786 627.077 L389.458 638.037 L398.866 631.493 L408.274 638.037 L404.946 627.077 L414.082 620.149 L402.626 619.909 L398.866 609.093 Z" fill="#008000" fill-rule="evenodd" fill-opacity="1" stroke="#000000" stroke-opacity="1" stroke-width="3.2"/>
<path clip-path="url(#clip462)" d="M509.437 638.871 L505.677 649.687 L494.221 649.927 L503.357 656.855 L500.029 667.815 L509.437 661.271 L518.845 667.815 L515.517 656.855 L524.653 649.927 L513.197 649.687 L509.437 638.871 Z" fill="#008000" fill-rule="evenodd" fill-opacity="1" stroke="#000000" stroke-opacity="1" stroke-width="3.2"/>
<path clip-path="url(#clip462)" d="M706.506 621.989 L702.746 632.805 L691.29 633.045 L700.426 639.973 L697.098 650.933 L706.506 644.389 L715.914 650.933 L712.586 639.973 L721.722 633.045 L710.266 632.805 L706.506 621.989 Z" fill="#008000" fill-rule="evenodd" fill-opacity="1" stroke="#000000" stroke-opacity="1" stroke-width="3.2"/>
<path clip-path="url(#clip462)" d="M911.736 597.184 L907.976 608 L896.52 608.24 L905.656 615.168 L902.328 626.128 L911.736 619.584 L921.144 626.128 L917.816 615.168 L926.952 608.24 L915.496 608 L911.736 597.184 Z" fill="#008000" fill-rule="evenodd" fill-opacity="1" stroke="#000000" stroke-opacity="1" stroke-width="3.2"/>
<path clip-path="url(#clip462)" d="M1049.64 645.182 L1045.88 655.998 L1034.43 656.238 L1043.56 663.166 L1040.24 674.126 L1049.64 667.582 L1059.05 674.126 L1055.72 663.166 L1064.86 656.238 L1053.4 655.998 L1049.64 645.182 Z" fill="#008000" fill-rule="evenodd" fill-opacity="1" stroke="#000000" stroke-opacity="1" stroke-width="3.2"/>
<path clip-path="url(#clip462)" d="M1195.71 598.467 L1191.95 609.283 L1180.5 609.523 L1189.63 616.451 L1186.3 627.411 L1195.71 620.867 L1205.12 627.411 L1201.79 616.451 L1210.93 609.523 L1199.47 609.283 L1195.71 598.467 Z" fill="#008000" fill-rule="evenodd" fill-opacity="1" stroke="#000000" stroke-opacity="1" stroke-width="3.2"/>
<path clip-path="url(#clip462)" d="M1330.36 656.724 L1326.6 667.54 L1315.14 667.78 L1324.28 674.708 L1320.95 685.668 L1330.36 679.124 L1339.76 685.668 L1336.44 674.708 L1345.57 667.78 L1334.12 667.54 L1330.36 656.724 Z" fill="#008000" fill-rule="evenodd" fill-opacity="1" stroke="#000000" stroke-opacity="1" stroke-width="3.2"/>
<path clip-path="url(#clip462)" d="M1525.79 541.228 L1522.03 552.044 L1510.58 552.284 L1519.71 559.212 L1516.38 570.172 L1525.79 563.628 L1535.2 570.172 L1531.87 559.212 L1541.01 552.284 L1529.55 552.044 L1525.79 541.228 Z" fill="#008000" fill-rule="evenodd" fill-opacity="1" stroke="#000000" stroke-opacity="1" stroke-width="3.2"/>
<path clip-path="url(#clip462)" d="M1536.81 568.304 L1533.05 579.12 L1521.59 579.36 L1530.73 586.288 L1527.4 597.248 L1536.81 590.704 L1546.22 597.248 L1542.89 586.288 L1552.02 579.36 L1540.57 579.12 L1536.81 568.304 Z" fill="#008000" fill-rule="evenodd" fill-opacity="1" stroke="#000000" stroke-opacity="1" stroke-width="3.2"/>
<path clip-path="url(#clip462)" d="M1674.31 545.932 L1670.55 556.748 L1659.09 556.988 L1668.23 563.916 L1664.9 574.876 L1674.31 568.332 L1683.72 574.876 L1680.39 563.916 L1689.52 556.988 L1678.07 556.748 L1674.31 545.932 Z" fill="#008000" fill-rule="evenodd" fill-opacity="1" stroke="#000000" stroke-opacity="1" stroke-width="3.2"/>
<path clip-path="url(#clip462)" d="M1742.45 589.233 L1738.69 600.049 L1727.23 600.289 L1736.37 607.217 L1733.04 618.177 L1742.45 611.633 L1751.85 618.177 L1748.53 607.217 L1757.66 600.289 L1746.21 600.049 L1742.45 589.233 Z" fill="#008000" fill-rule="evenodd" fill-opacity="1" stroke="#000000" stroke-opacity="1" stroke-width="3.2"/>
<path clip-path="url(#clip462)" d="M1855.06 563.104 L1851.3 573.92 L1839.84 574.16 L1848.98 581.088 L1845.65 592.048 L1855.06 585.504 L1864.47 592.048 L1861.14 581.088 L1870.27 574.16 L1858.82 573.92 L1855.06 563.104 Z" fill="#008000" fill-rule="evenodd" fill-opacity="1" stroke="#000000" stroke-opacity="1" stroke-width="3.2"/>
<path clip-path="url(#clip462)" d="M2055.39 567.271 L2051.63 578.087 L2040.18 578.327 L2049.31 585.255 L2045.98 596.215 L2055.39 589.671 L2064.8 596.215 L2061.47 585.255 L2070.61 578.327 L2059.15 578.087 L2055.39 567.271 Z" fill="#008000" fill-rule="evenodd" fill-opacity="1" stroke="#000000" stroke-opacity="1" stroke-width="3.2"/>
<path clip-path="url(#clip460)" d="M 0 0 M2079.39 565.991 L2084.07 565.991 L2084.07 580.157 L2101.06 580.157 L2101.06 565.991 L2105.73 565.991 L2105.73 600.551 L2101.06 600.551 L2101.06 584.092 L2084.07 584.092 L2084.07 600.551 L2079.39 600.551 L2079.39 565.991 Z" fill="#000000" fill-rule="evenodd" fill-opacity="1" /><path clip-path="url(#clip460)" d="M 0 0 M2127.54 570.829 L2127.54 583.722 L2140.43 583.722 L2140.43 587.657 L2127.54 587.657 L2127.54 600.551 L2123.65 600.551 L2123.65 587.657 L2110.76 587.657 L2110.76 583.722 L2123.65 583.722 L2123.65 570.829 L2127.54 570.829 Z" fill="#000000" fill-rule="evenodd" fill-opacity="1" /><path clip-path="url(#clip460)" d="M 0 0 M2145.09 565.991 L2149.76 565.991 L2149.76 596.616 L2166.59 596.616 L2166.59 600.551 L2145.09 600.551 L2145.09 565.991 Z" fill="#000000" fill-rule="evenodd" fill-opacity="1" /><path clip-path="url(#clip460)" d="M 0 0 M2171.24 565.991 L2193.09 565.991 L2193.09 569.926 L2175.92 569.926 L2175.92 580.157 L2192.38 580.157 L2192.38 584.092 L2175.92 584.092 L2175.92 596.616 L2193.51 596.616 L2193.51 600.551 L2171.24 600.551 L2171.24 565.991 Z" fill="#000000" fill-rule="evenodd" fill-opacity="1" /><path clip-path="url(#clip460)" d="M 0 0 M2233.23 579.602 Q2234.83 576.731 2237.05 575.366 Q2239.27 574 2242.28 574 Q2246.33 574 2248.53 576.847 Q2250.73 579.671 2250.73 584.903 L2250.73 600.551 L2246.45 600.551 L2246.45 585.042 Q2246.45 581.315 2245.13 579.509 Q2243.81 577.704 2241.1 577.704 Q2237.79 577.704 2235.87 579.903 Q2233.95 582.102 2233.95 585.898 L2233.95 600.551 L2229.67 600.551 L2229.67 585.042 Q2229.67 581.292 2228.35 579.509 Q2227.03 577.704 2224.27 577.704 Q2221.01 577.704 2219.09 579.926 Q2217.17 582.125 2217.17 585.898 L2217.17 600.551 L2212.89 600.551 L2212.89 574.625 L2217.17 574.625 L2217.17 578.653 Q2218.63 576.268 2220.66 575.134 Q2222.7 574 2225.5 574 Q2228.33 574 2230.29 575.435 Q2232.28 576.87 2233.23 579.602 Z" fill="#000000" fill-rule="evenodd" fill-opacity="1" /><path clip-path="url(#clip460)" d="M 0 0 M2277.38 586.523 L2277.38 588.606 L2257.79 588.606 Q2258.07 593.004 2260.43 595.319 Q2262.82 597.611 2267.05 597.611 Q2269.51 597.611 2271.8 597.009 Q2274.11 596.407 2276.38 595.204 L2276.38 599.231 Q2274.09 600.203 2271.68 600.713 Q2269.27 601.222 2266.8 601.222 Q2260.59 601.222 2256.96 597.611 Q2253.35 594 2253.35 587.842 Q2253.35 581.477 2256.77 577.75 Q2260.22 574 2266.06 574 Q2271.29 574 2274.32 577.38 Q2277.38 580.736 2277.38 586.523 M2273.12 585.273 Q2273.07 581.778 2271.15 579.694 Q2269.25 577.611 2266.1 577.611 Q2262.54 577.611 2260.39 579.625 Q2258.26 581.639 2257.93 585.296 L2273.12 585.273 Z" fill="#000000" fill-rule="evenodd" fill-opacity="1" /><path clip-path="url(#clip460)" d="M 0 0 M2293.63 587.518 Q2288.46 587.518 2286.47 588.699 Q2284.48 589.879 2284.48 592.727 Q2284.48 594.995 2285.96 596.338 Q2287.47 597.657 2290.04 597.657 Q2293.58 597.657 2295.71 595.157 Q2297.86 592.634 2297.86 588.467 L2297.86 587.518 L2293.63 587.518 M2302.12 585.759 L2302.12 600.551 L2297.86 600.551 L2297.86 596.616 Q2296.4 598.977 2294.23 600.111 Q2292.05 601.222 2288.9 601.222 Q2284.92 601.222 2282.56 599 Q2280.22 596.754 2280.22 593.004 Q2280.22 588.629 2283.14 586.407 Q2286.08 584.185 2291.89 584.185 L2297.86 584.185 L2297.86 583.768 Q2297.86 580.829 2295.92 579.231 Q2294 577.611 2290.5 577.611 Q2288.28 577.611 2286.17 578.143 Q2284.07 578.676 2282.12 579.741 L2282.12 575.805 Q2284.46 574.903 2286.66 574.463 Q2288.86 574 2290.94 574 Q2296.57 574 2299.34 576.917 Q2302.12 579.833 2302.12 585.759 Z" fill="#000000" fill-rule="evenodd" fill-opacity="1" /><path clip-path="url(#clip460)" d="M 0 0 M2323.12 575.389 L2323.12 579.417 Q2321.31 578.491 2319.37 578.028 Q2317.42 577.565 2315.34 577.565 Q2312.17 577.565 2310.57 578.537 Q2309 579.509 2309 581.454 Q2309 582.935 2310.13 583.792 Q2311.26 584.625 2314.69 585.389 L2316.15 585.713 Q2320.69 586.685 2322.58 588.467 Q2324.51 590.227 2324.51 593.398 Q2324.51 597.009 2321.64 599.116 Q2318.79 601.222 2313.79 601.222 Q2311.7 601.222 2309.44 600.805 Q2307.19 600.412 2304.69 599.602 L2304.69 595.204 Q2307.05 596.43 2309.34 597.055 Q2311.64 597.657 2313.88 597.657 Q2316.89 597.657 2318.51 596.639 Q2320.13 595.597 2320.13 593.722 Q2320.13 591.986 2318.95 591.06 Q2317.79 590.134 2313.83 589.278 L2312.35 588.93 Q2308.39 588.097 2306.64 586.384 Q2304.88 584.648 2304.88 581.639 Q2304.88 577.981 2307.47 575.991 Q2310.06 574 2314.83 574 Q2317.19 574 2319.27 574.347 Q2321.36 574.694 2323.12 575.389 Z" fill="#000000" fill-rule="evenodd" fill-opacity="1" /><polyline clip-path="url(#clip462)" style="stroke:#ff0000; stroke-width:4; stroke-opacity:1; fill:none" points="
  313.714,1050.73 398.866,1113.49 509.437,1106.43 706.506,1152.28 911.736,1184.84 1049.64,1234.46 1195.71,1222.54 1330.36,1262.08 1525.79,1233.74 1536.81,1258.15 
  1674.31,1268.66 1742.45,1270 1855.06,1286.2 2055.39,1298.96 
  "/>
<path clip-path="url(#clip460)" d="M 0 0 M2079.39 1281.68 L2084.07 1281.68 L2084.07 1295.85 L2101.06 1295.85 L2101.06 1281.68 L2105.73 1281.68 L2105.73 1316.24 L2101.06 1316.24 L2101.06 1299.78 L2084.07 1299.78 L2084.07 1316.24 L2079.39 1316.24 L2079.39 1281.68 Z" fill="#000000" fill-rule="evenodd" fill-opacity="1" /><path clip-path="url(#clip460)" d="M 0 0 M2141.8 1291.08 L2141.8 1295.11 Q2139.99 1294.18 2138.05 1293.72 Q2136.1 1293.26 2134.02 1293.26 Q2130.85 1293.26 2129.25 1294.23 Q2127.68 1295.2 2127.68 1297.14 Q2127.68 1298.63 2128.81 1299.48 Q2129.95 1300.32 2133.37 1301.08 L2134.83 1301.4 Q2139.37 1302.38 2141.27 1304.16 Q2143.19 1305.92 2143.19 1309.09 Q2143.19 1312.7 2140.32 1314.81 Q2137.47 1316.91 2132.47 1316.91 Q2130.39 1316.91 2128.12 1316.5 Q2125.87 1316.1 2123.37 1315.29 L2123.37 1310.89 Q2125.73 1312.12 2128.03 1312.75 Q2130.32 1313.35 2132.56 1313.35 Q2135.57 1313.35 2137.19 1312.33 Q2138.81 1311.29 2138.81 1309.41 Q2138.81 1307.68 2137.63 1306.75 Q2136.47 1305.83 2132.52 1304.97 L2131.03 1304.62 Q2127.08 1303.79 2125.32 1302.08 Q2123.56 1300.34 2123.56 1297.33 Q2123.56 1293.67 2126.15 1291.68 Q2128.74 1289.69 2133.51 1289.69 Q2135.87 1289.69 2137.96 1290.04 Q2140.04 1290.39 2141.8 1291.08 Z" fill="#000000" fill-rule="evenodd" fill-opacity="1" /><path clip-path="url(#clip460)" d="M 0 0 M2147.65 1290.32 L2151.91 1290.32 L2151.91 1316.24 L2147.65 1316.24 L2147.65 1290.32 M2147.65 1280.22 L2151.91 1280.22 L2151.91 1285.62 L2147.65 1285.62 L2147.65 1280.22 Z" fill="#000000" fill-rule="evenodd" fill-opacity="1" /><path clip-path="url(#clip460)" d="M 0 0 M2176.57 1295.29 Q2178.16 1292.42 2180.39 1291.06 Q2182.61 1289.69 2185.62 1289.69 Q2189.67 1289.69 2191.87 1292.54 Q2194.07 1295.36 2194.07 1300.59 L2194.07 1316.24 L2189.78 1316.24 L2189.78 1300.73 Q2189.78 1297.01 2188.46 1295.2 Q2187.15 1293.39 2184.44 1293.39 Q2181.13 1293.39 2179.21 1295.59 Q2177.28 1297.79 2177.28 1301.59 L2177.28 1316.24 L2173 1316.24 L2173 1300.73 Q2173 1296.98 2171.68 1295.2 Q2170.36 1293.39 2167.61 1293.39 Q2164.34 1293.39 2162.42 1295.62 Q2160.5 1297.82 2160.5 1301.59 L2160.5 1316.24 L2156.22 1316.24 L2156.22 1290.32 L2160.5 1290.32 L2160.5 1294.34 Q2161.96 1291.96 2164 1290.83 Q2166.03 1289.69 2168.84 1289.69 Q2171.66 1289.69 2173.63 1291.13 Q2175.62 1292.56 2176.57 1295.29 Z" fill="#000000" fill-rule="evenodd" fill-opacity="1" /><polyline clip-path="url(#clip462)" style="stroke:#0000ff; stroke-width:4; stroke-opacity:1; fill:none" points="
  313.714,355.586 398.866,285.773 509.437,300.192 706.506,254.74 911.736,223.281 1049.64,171.808 1195.71,189.663 1330.36,147.937 1525.79,183.075 1536.81,156.371 
  1674.31,147.141 1742.45,146.041 1855.06,130.847 2055.39,119.338 
  "/>
<path clip-path="url(#clip460)" d="M 0 0 M2079.39 102.058 L2084.07 102.058 L2084.07 132.683 L2100.9 132.683 L2100.9 136.618 L2079.39 136.618 L2079.39 102.058 Z" fill="#000000" fill-rule="evenodd" fill-opacity="1" /><path clip-path="url(#clip460)" d="M 0 0 M2105.55 102.058 L2127.4 102.058 L2127.4 105.994 L2110.22 105.994 L2110.22 116.225 L2126.68 116.225 L2126.68 120.16 L2110.22 120.16 L2110.22 132.683 L2127.82 132.683 L2127.82 136.618 L2105.55 136.618 L2105.55 102.058 Z" fill="#000000" fill-rule="evenodd" fill-opacity="1" /><path clip-path="url(#clip460)" d="M 0 0 M2163.88 111.457 L2163.88 115.484 Q2162.08 114.558 2160.13 114.095 Q2158.19 113.632 2156.1 113.632 Q2152.93 113.632 2151.34 114.605 Q2149.76 115.577 2149.76 117.521 Q2149.76 119.003 2150.9 119.859 Q2152.03 120.693 2155.46 121.456 L2156.91 121.781 Q2161.45 122.753 2163.35 124.535 Q2165.27 126.294 2165.27 129.466 Q2165.27 133.077 2162.4 135.183 Q2159.55 137.29 2154.55 137.29 Q2152.47 137.29 2150.2 136.873 Q2147.96 136.48 2145.46 135.669 L2145.46 131.271 Q2147.82 132.498 2150.11 133.123 Q2152.4 133.725 2154.65 133.725 Q2157.65 133.725 2159.27 132.706 Q2160.9 131.665 2160.9 129.79 Q2160.9 128.054 2159.71 127.128 Q2158.56 126.202 2154.6 125.345 L2153.12 124.998 Q2149.16 124.165 2147.4 122.452 Q2145.64 120.716 2145.64 117.706 Q2145.64 114.049 2148.23 112.058 Q2150.83 110.068 2155.59 110.068 Q2157.96 110.068 2160.04 110.415 Q2162.12 110.762 2163.88 111.457 Z" fill="#000000" fill-rule="evenodd" fill-opacity="1" /><path clip-path="url(#clip460)" d="M 0 0 M2169.74 110.693 L2174 110.693 L2174 136.618 L2169.74 136.618 L2169.74 110.693 M2169.74 100.6 L2174 100.6 L2174 105.994 L2169.74 105.994 L2169.74 100.6 Z" fill="#000000" fill-rule="evenodd" fill-opacity="1" /><path clip-path="url(#clip460)" d="M 0 0 M2198.65 115.669 Q2200.25 112.799 2202.47 111.433 Q2204.69 110.068 2207.7 110.068 Q2211.75 110.068 2213.95 112.915 Q2216.15 115.739 2216.15 120.97 L2216.15 136.618 L2211.87 136.618 L2211.87 121.109 Q2211.87 117.382 2210.55 115.577 Q2209.23 113.771 2206.52 113.771 Q2203.21 113.771 2201.29 115.97 Q2199.37 118.169 2199.37 121.966 L2199.37 136.618 L2195.08 136.618 L2195.08 121.109 Q2195.08 117.359 2193.77 115.577 Q2192.45 113.771 2189.69 113.771 Q2186.43 113.771 2184.51 115.994 Q2182.59 118.193 2182.59 121.966 L2182.59 136.618 L2178.3 136.618 L2178.3 110.693 L2182.59 110.693 L2182.59 114.72 Q2184.04 112.336 2186.08 111.202 Q2188.12 110.068 2190.92 110.068 Q2193.74 110.068 2195.71 111.503 Q2197.7 112.938 2198.65 115.669 Z" fill="#000000" fill-rule="evenodd" fill-opacity="1" /><polyline clip-path="url(#clip462)" style="stroke:#008000; stroke-width:4; stroke-opacity:1; fill:none" points="
  313.714,671.101 398.866,664.051 509.437,671.408 706.506,671.809 911.736,672.911 1049.64,671.055 1195.71,676.988 1330.36,674.804 1525.79,681.602 1536.81,679.304 
  1674.31,680.587 1742.45,680.826 1855.06,681.839 2055.39,683.088 
  "/>
<path clip-path="url(#clip460)" d="M 0 0 M2095.78 684.165 Q2097.28 684.674 2098.7 686.341 Q2100.13 688.007 2101.57 690.924 L2106.31 700.368 L2101.29 700.368 L2096.87 691.503 Q2095.15 688.03 2093.53 686.896 Q2091.94 685.762 2089.16 685.762 L2084.07 685.762 L2084.07 700.368 L2079.39 700.368 L2079.39 665.808 L2089.95 665.808 Q2095.87 665.808 2098.79 668.285 Q2101.71 670.762 2101.71 675.762 Q2101.71 679.026 2100.18 681.179 Q2098.67 683.331 2095.78 684.165 M2084.07 669.651 L2084.07 681.919 L2089.95 681.919 Q2093.33 681.919 2095.04 680.368 Q2096.78 678.794 2096.78 675.762 Q2096.78 672.73 2095.04 671.202 Q2093.33 669.651 2089.95 669.651 L2084.07 669.651 Z" fill="#000000" fill-rule="evenodd" fill-opacity="1" /><path clip-path="url(#clip460)" d="M 0 0 M2132.33 684.72 L2132.33 700.368 L2128.07 700.368 L2128.07 684.859 Q2128.07 681.179 2126.64 679.35 Q2125.2 677.521 2122.33 677.521 Q2118.88 677.521 2116.89 679.72 Q2114.9 681.919 2114.9 685.716 L2114.9 700.368 L2110.62 700.368 L2110.62 674.443 L2114.9 674.443 L2114.9 678.47 Q2116.43 676.132 2118.49 674.975 Q2120.57 673.818 2123.28 673.818 Q2127.75 673.818 2130.04 676.595 Q2132.33 679.35 2132.33 684.72 Z" fill="#000000" fill-rule="evenodd" fill-opacity="1" /><path clip-path="url(#clip460)" d="M 0 0 M2168.4 675.206 L2168.4 679.234 Q2166.59 678.308 2164.65 677.845 Q2162.7 677.382 2160.62 677.382 Q2157.45 677.382 2155.85 678.355 Q2154.28 679.327 2154.28 681.271 Q2154.28 682.753 2155.41 683.609 Q2156.54 684.442 2159.97 685.206 L2161.43 685.53 Q2165.96 686.503 2167.86 688.285 Q2169.78 690.044 2169.78 693.216 Q2169.78 696.827 2166.91 698.933 Q2164.07 701.04 2159.07 701.04 Q2156.98 701.04 2154.71 700.623 Q2152.47 700.229 2149.97 699.419 L2149.97 695.021 Q2152.33 696.248 2154.62 696.873 Q2156.91 697.475 2159.16 697.475 Q2162.17 697.475 2163.79 696.456 Q2165.41 695.415 2165.41 693.54 Q2165.41 691.804 2164.23 690.878 Q2163.07 689.952 2159.11 689.095 L2157.63 688.748 Q2153.67 687.915 2151.91 686.202 Q2150.15 684.466 2150.15 681.456 Q2150.15 677.799 2152.75 675.808 Q2155.34 673.818 2160.11 673.818 Q2162.47 673.818 2164.55 674.165 Q2166.64 674.512 2168.4 675.206 Z" fill="#000000" fill-rule="evenodd" fill-opacity="1" /><path clip-path="url(#clip460)" d="M 0 0 M2174.25 674.443 L2178.51 674.443 L2178.51 700.368 L2174.25 700.368 L2174.25 674.443 M2174.25 664.35 L2178.51 664.35 L2178.51 669.743 L2174.25 669.743 L2174.25 664.35 Z" fill="#000000" fill-rule="evenodd" fill-opacity="1" /><path clip-path="url(#clip460)" d="M 0 0 M2203.16 679.419 Q2204.76 676.549 2206.98 675.183 Q2209.21 673.818 2212.21 673.818 Q2216.27 673.818 2218.46 676.665 Q2220.66 679.489 2220.66 684.72 L2220.66 700.368 L2216.38 700.368 L2216.38 684.859 Q2216.38 681.132 2215.06 679.327 Q2213.74 677.521 2211.03 677.521 Q2207.72 677.521 2205.8 679.72 Q2203.88 681.919 2203.88 685.716 L2203.88 700.368 L2199.6 700.368 L2199.6 684.859 Q2199.6 681.109 2198.28 679.327 Q2196.96 677.521 2194.21 677.521 Q2190.94 677.521 2189.02 679.743 Q2187.1 681.942 2187.1 685.716 L2187.1 700.368 L2182.82 700.368 L2182.82 674.443 L2187.1 674.443 L2187.1 678.47 Q2188.56 676.086 2190.59 674.952 Q2192.63 673.818 2195.43 673.818 Q2198.26 673.818 2200.22 675.253 Q2202.21 676.688 2203.16 679.419 Z" fill="#000000" fill-rule="evenodd" fill-opacity="1" /></svg>
