<?xml version="1.0" encoding="utf-8"?>
<svg xmlns="http://www.w3.org/2000/svg" xmlns:xlink="http://www.w3.org/1999/xlink" width="600" height="400" viewBox="0 0 2400 1600">
<defs>
  <clipPath id="clip810">
    <rect x="0" y="0" width="2400" height="1600"/>
  </clipPath>
</defs>
<path clip-path="url(#clip810)" d="
M0 1600 L2400 1600 L2400 0 L0 0  Z
  " fill="#ffffff" fill-rule="evenodd" fill-opacity="1"/>
<defs>
  <clipPath id="clip811">
    <rect x="480" y="0" width="1681" height="1600"/>
  </clipPath>
</defs>
<path clip-path="url(#clip810)" d="
M234.125 1423.18 L2352.76 1423.18 L2352.76 47.2441 L234.125 47.2441  Z
  " fill="#ffffff" fill-rule="evenodd" fill-opacity="1"/>
<defs>
  <clipPath id="clip812">
    <rect x="234" y="47" width="2120" height="1377"/>
  </clipPath>
</defs>
<polyline clip-path="url(#clip812)" style="stroke:#000000; stroke-linecap:butt; stroke-linejoin:round; stroke-width:2; stroke-opacity:0.1; fill:none" points="
  294.087,1423.18 294.087,47.2441 
  "/>
<polyline clip-path="url(#clip812)" style="stroke:#000000; stroke-linecap:butt; stroke-linejoin:round; stroke-width:2; stroke-opacity:0.1; fill:none" points="
  793.764,1423.18 793.764,47.2441 
  "/>
<polyline clip-path="url(#clip812)" style="stroke:#000000; stroke-linecap:butt; stroke-linejoin:round; stroke-width:2; stroke-opacity:0.1; fill:none" points="
  1293.44,1423.18 1293.44,47.2441 
  "/>
<polyline clip-path="url(#clip812)" style="stroke:#000000; stroke-linecap:butt; stroke-linejoin:round; stroke-width:2; stroke-opacity:0.1; fill:none" points="
  1793.12,1423.18 1793.12,47.2441 
  "/>
<polyline clip-path="url(#clip812)" style="stroke:#000000; stroke-linecap:butt; stroke-linejoin:round; stroke-width:2; stroke-opacity:0.1; fill:none" points="
  2292.79,1423.18 2292.79,47.2441 
  "/>
<polyline clip-path="url(#clip810)" style="stroke:#000000; stroke-linecap:butt; stroke-linejoin:round; stroke-width:4; stroke-opacity:1; fill:none" points="
  234.125,1423.18 2352.76,1423.18 
  "/>
<polyline clip-path="url(#clip810)" style="stroke:#000000; stroke-linecap:butt; stroke-linejoin:round; stroke-width:4; stroke-opacity:1; fill:none" points="
  294.087,1423.18 294.087,1404.28 
  "/>
<polyline clip-path="url(#clip810)" style="stroke:#000000; stroke-linecap:butt; stroke-linejoin:round; stroke-width:4; stroke-opacity:1; fill:none" points="
  793.764,1423.18 793.764,1404.28 
  "/>
<polyline clip-path="url(#clip810)" style="stroke:#000000; stroke-linecap:butt; stroke-linejoin:round; stroke-width:4; stroke-opacity:1; fill:none" points="
  1293.44,1423.18 1293.44,1404.28 
  "/>
<polyline clip-path="url(#clip810)" style="stroke:#000000; stroke-linecap:butt; stroke-linejoin:round; stroke-width:4; stroke-opacity:1; fill:none" points="
  1793.12,1423.18 1793.12,1404.28 
  "/>
<polyline clip-path="url(#clip810)" style="stroke:#000000; stroke-linecap:butt; stroke-linejoin:round; stroke-width:4; stroke-opacity:1; fill:none" points="
  2292.79,1423.18 2292.79,1404.28 
  "/>
<path clip-path="url(#clip810)" d="M294.087 1454.1 Q290.476 1454.1 288.647 1457.66 Q286.841 1461.2 286.841 1468.33 Q286.841 1475.44 288.647 1479.01 Q290.476 1482.55 294.087 1482.55 Q297.721 1482.55 299.526 1479.01 Q301.355 1475.44 301.355 1468.33 Q301.355 1461.2 299.526 1457.66 Q297.721 1454.1 294.087 1454.1 M294.087 1450.39 Q299.897 1450.39 302.952 1455 Q306.031 1459.58 306.031 1468.33 Q306.031 1477.06 302.952 1481.67 Q299.897 1486.25 294.087 1486.25 Q288.277 1486.25 285.198 1481.67 Q282.142 1477.06 282.142 1468.33 Q282.142 1459.58 285.198 1455 Q288.277 1450.39 294.087 1450.39 Z" fill="#000000" fill-rule="evenodd" fill-opacity="1" /><path clip-path="url(#clip810)" d="M753.382 1451.02 L771.738 1451.02 L771.738 1454.96 L757.664 1454.96 L757.664 1463.43 Q758.683 1463.08 759.701 1462.92 Q760.72 1462.73 761.738 1462.73 Q767.525 1462.73 770.905 1465.9 Q774.285 1469.08 774.285 1474.49 Q774.285 1480.07 770.812 1483.17 Q767.34 1486.25 761.021 1486.25 Q758.845 1486.25 756.576 1485.88 Q754.331 1485.51 751.924 1484.77 L751.924 1480.07 Q754.007 1481.2 756.229 1481.76 Q758.451 1482.32 760.928 1482.32 Q764.933 1482.32 767.271 1480.21 Q769.609 1478.1 769.609 1474.49 Q769.609 1470.88 767.271 1468.77 Q764.933 1466.67 760.928 1466.67 Q759.053 1466.67 757.178 1467.08 Q755.326 1467.5 753.382 1468.38 L753.382 1451.02 Z" fill="#000000" fill-rule="evenodd" fill-opacity="1" /><path clip-path="url(#clip810)" d="M793.497 1454.1 Q789.886 1454.1 788.058 1457.66 Q786.252 1461.2 786.252 1468.33 Q786.252 1475.44 788.058 1479.01 Q789.886 1482.55 793.497 1482.55 Q797.132 1482.55 798.937 1479.01 Q800.766 1475.44 800.766 1468.33 Q800.766 1461.2 798.937 1457.66 Q797.132 1454.1 793.497 1454.1 M793.497 1450.39 Q799.308 1450.39 802.363 1455 Q805.442 1459.58 805.442 1468.33 Q805.442 1477.06 802.363 1481.67 Q799.308 1486.25 793.497 1486.25 Q787.687 1486.25 784.609 1481.67 Q781.553 1477.06 781.553 1468.33 Q781.553 1459.58 784.609 1455 Q787.687 1450.39 793.497 1450.39 Z" fill="#000000" fill-rule="evenodd" fill-opacity="1" /><path clip-path="url(#clip810)" d="M823.659 1454.1 Q820.048 1454.1 818.22 1457.66 Q816.414 1461.2 816.414 1468.33 Q816.414 1475.44 818.22 1479.01 Q820.048 1482.55 823.659 1482.55 Q827.294 1482.55 829.099 1479.01 Q830.928 1475.44 830.928 1468.33 Q830.928 1461.2 829.099 1457.66 Q827.294 1454.1 823.659 1454.1 M823.659 1450.39 Q829.47 1450.39 832.525 1455 Q835.604 1459.58 835.604 1468.33 Q835.604 1477.06 832.525 1481.67 Q829.47 1486.25 823.659 1486.25 Q817.849 1486.25 814.771 1481.67 Q811.715 1477.06 811.715 1468.33 Q811.715 1459.58 814.771 1455 Q817.849 1450.39 823.659 1450.39 Z" fill="#000000" fill-rule="evenodd" fill-opacity="1" /><path clip-path="url(#clip810)" d="M1237.97 1481.64 L1245.61 1481.64 L1245.61 1455.28 L1237.3 1456.95 L1237.3 1452.69 L1245.56 1451.02 L1250.23 1451.02 L1250.23 1481.64 L1257.87 1481.64 L1257.87 1485.58 L1237.97 1485.58 L1237.97 1481.64 Z" fill="#000000" fill-rule="evenodd" fill-opacity="1" /><path clip-path="url(#clip810)" d="M1277.32 1454.1 Q1273.71 1454.1 1271.88 1457.66 Q1270.07 1461.2 1270.07 1468.33 Q1270.07 1475.44 1271.88 1479.01 Q1273.71 1482.55 1277.32 1482.55 Q1280.95 1482.55 1282.76 1479.01 Q1284.59 1475.44 1284.59 1468.33 Q1284.59 1461.2 1282.76 1457.66 Q1280.95 1454.1 1277.32 1454.1 M1277.32 1450.39 Q1283.13 1450.39 1286.18 1455 Q1289.26 1459.58 1289.26 1468.33 Q1289.26 1477.06 1286.18 1481.67 Q1283.13 1486.25 1277.32 1486.25 Q1271.51 1486.25 1268.43 1481.67 Q1265.37 1477.06 1265.37 1468.33 Q1265.37 1459.58 1268.43 1455 Q1271.51 1450.39 1277.32 1450.39 Z" fill="#000000" fill-rule="evenodd" fill-opacity="1" /><path clip-path="url(#clip810)" d="M1307.48 1454.1 Q1303.87 1454.1 1302.04 1457.66 Q1300.23 1461.2 1300.23 1468.33 Q1300.23 1475.44 1302.04 1479.01 Q1303.87 1482.55 1307.48 1482.55 Q1311.11 1482.55 1312.92 1479.01 Q1314.75 1475.44 1314.75 1468.33 Q1314.75 1461.2 1312.92 1457.66 Q1311.11 1454.1 1307.48 1454.1 M1307.48 1450.39 Q1313.29 1450.39 1316.35 1455 Q1319.42 1459.58 1319.42 1468.33 Q1319.42 1477.06 1316.35 1481.67 Q1313.29 1486.25 1307.48 1486.25 Q1301.67 1486.25 1298.59 1481.67 Q1295.54 1477.06 1295.54 1468.33 Q1295.54 1459.58 1298.59 1455 Q1301.67 1450.39 1307.48 1450.39 Z" fill="#000000" fill-rule="evenodd" fill-opacity="1" /><path clip-path="url(#clip810)" d="M1337.64 1454.1 Q1334.03 1454.1 1332.2 1457.66 Q1330.4 1461.2 1330.4 1468.33 Q1330.4 1475.44 1332.2 1479.01 Q1334.03 1482.55 1337.64 1482.55 Q1341.28 1482.55 1343.08 1479.01 Q1344.91 1475.44 1344.91 1468.33 Q1344.91 1461.2 1343.08 1457.66 Q1341.28 1454.1 1337.64 1454.1 M1337.64 1450.39 Q1343.45 1450.39 1346.51 1455 Q1349.59 1459.58 1349.59 1468.33 Q1349.59 1477.06 1346.51 1481.67 Q1343.45 1486.25 1337.64 1486.25 Q1331.83 1486.25 1328.75 1481.67 Q1325.7 1477.06 1325.7 1468.33 Q1325.7 1459.58 1328.75 1455 Q1331.83 1450.39 1337.64 1450.39 Z" fill="#000000" fill-rule="evenodd" fill-opacity="1" /><path clip-path="url(#clip810)" d="M1737.64 1481.64 L1745.28 1481.64 L1745.28 1455.28 L1736.97 1456.95 L1736.97 1452.69 L1745.24 1451.02 L1749.91 1451.02 L1749.91 1481.64 L1757.55 1481.64 L1757.55 1485.58 L1737.64 1485.58 L1737.64 1481.64 Z" fill="#000000" fill-rule="evenodd" fill-opacity="1" /><path clip-path="url(#clip810)" d="M1767.04 1451.02 L1785.4 1451.02 L1785.4 1454.96 L1771.32 1454.96 L1771.32 1463.43 Q1772.34 1463.08 1773.36 1462.92 Q1774.38 1462.73 1775.4 1462.73 Q1781.18 1462.73 1784.56 1465.9 Q1787.94 1469.08 1787.94 1474.49 Q1787.94 1480.07 1784.47 1483.17 Q1781 1486.25 1774.68 1486.25 Q1772.5 1486.25 1770.24 1485.88 Q1767.99 1485.51 1765.58 1484.77 L1765.58 1480.07 Q1767.67 1481.2 1769.89 1481.76 Q1772.11 1482.32 1774.59 1482.32 Q1778.59 1482.32 1780.93 1480.21 Q1783.27 1478.1 1783.27 1474.49 Q1783.27 1470.88 1780.93 1468.77 Q1778.59 1466.67 1774.59 1466.67 Q1772.71 1466.67 1770.84 1467.08 Q1768.99 1467.5 1767.04 1468.38 L1767.04 1451.02 Z" fill="#000000" fill-rule="evenodd" fill-opacity="1" /><path clip-path="url(#clip810)" d="M1807.16 1454.1 Q1803.55 1454.1 1801.72 1457.66 Q1799.91 1461.2 1799.91 1468.33 Q1799.91 1475.44 1801.72 1479.01 Q1803.55 1482.55 1807.16 1482.55 Q1810.79 1482.55 1812.6 1479.01 Q1814.43 1475.44 1814.43 1468.33 Q1814.43 1461.2 1812.6 1457.66 Q1810.79 1454.1 1807.16 1454.1 M1807.16 1450.39 Q1812.97 1450.39 1816.02 1455 Q1819.1 1459.58 1819.1 1468.33 Q1819.1 1477.06 1816.02 1481.67 Q1812.97 1486.25 1807.16 1486.25 Q1801.35 1486.25 1798.27 1481.67 Q1795.21 1477.06 1795.21 1468.33 Q1795.21 1459.58 1798.27 1455 Q1801.35 1450.39 1807.16 1450.39 Z" fill="#000000" fill-rule="evenodd" fill-opacity="1" /><path clip-path="url(#clip810)" d="M1837.32 1454.1 Q1833.71 1454.1 1831.88 1457.66 Q1830.07 1461.2 1830.07 1468.33 Q1830.07 1475.44 1831.88 1479.01 Q1833.71 1482.55 1837.32 1482.55 Q1840.95 1482.55 1842.76 1479.01 Q1844.59 1475.44 1844.59 1468.33 Q1844.59 1461.2 1842.76 1457.66 Q1840.95 1454.1 1837.32 1454.1 M1837.32 1450.39 Q1843.13 1450.39 1846.18 1455 Q1849.26 1459.58 1849.26 1468.33 Q1849.26 1477.06 1846.18 1481.67 Q1843.13 1486.25 1837.32 1486.25 Q1831.51 1486.25 1828.43 1481.67 Q1825.37 1477.06 1825.37 1468.33 Q1825.37 1459.58 1828.43 1455 Q1831.51 1450.39 1837.32 1450.39 Z" fill="#000000" fill-rule="evenodd" fill-opacity="1" /><path clip-path="url(#clip810)" d="M2241.41 1481.64 L2257.73 1481.64 L2257.73 1485.58 L2235.78 1485.58 L2235.78 1481.64 Q2238.44 1478.89 2243.03 1474.26 Q2247.63 1469.61 2248.81 1468.27 Q2251.06 1465.74 2251.94 1464.01 Q2252.84 1462.25 2252.84 1460.56 Q2252.84 1457.8 2250.9 1456.07 Q2248.98 1454.33 2245.87 1454.33 Q2243.67 1454.33 2241.22 1455.09 Q2238.79 1455.86 2236.01 1457.41 L2236.01 1452.69 Q2238.84 1451.55 2241.29 1450.97 Q2243.74 1450.39 2245.78 1450.39 Q2251.15 1450.39 2254.35 1453.08 Q2257.54 1455.77 2257.54 1460.26 Q2257.54 1462.39 2256.73 1464.31 Q2255.94 1466.2 2253.84 1468.8 Q2253.26 1469.47 2250.16 1472.69 Q2247.05 1475.88 2241.41 1481.64 Z" fill="#000000" fill-rule="evenodd" fill-opacity="1" /><path clip-path="url(#clip810)" d="M2277.54 1454.1 Q2273.93 1454.1 2272.1 1457.66 Q2270.29 1461.2 2270.29 1468.33 Q2270.29 1475.44 2272.1 1479.01 Q2273.93 1482.55 2277.54 1482.55 Q2281.17 1482.55 2282.98 1479.01 Q2284.81 1475.44 2284.81 1468.33 Q2284.81 1461.2 2282.98 1457.66 Q2281.17 1454.1 2277.54 1454.1 M2277.54 1450.39 Q2283.35 1450.39 2286.41 1455 Q2289.48 1459.58 2289.48 1468.33 Q2289.48 1477.06 2286.41 1481.67 Q2283.35 1486.25 2277.54 1486.25 Q2271.73 1486.25 2268.65 1481.67 Q2265.6 1477.06 2265.6 1468.33 Q2265.6 1459.58 2268.65 1455 Q2271.73 1450.39 2277.54 1450.39 Z" fill="#000000" fill-rule="evenodd" fill-opacity="1" /><path clip-path="url(#clip810)" d="M2307.7 1454.1 Q2304.09 1454.1 2302.26 1457.66 Q2300.46 1461.2 2300.46 1468.33 Q2300.46 1475.44 2302.26 1479.01 Q2304.09 1482.55 2307.7 1482.55 Q2311.34 1482.55 2313.14 1479.01 Q2314.97 1475.44 2314.97 1468.33 Q2314.97 1461.2 2313.14 1457.66 Q2311.34 1454.1 2307.7 1454.1 M2307.7 1450.39 Q2313.51 1450.39 2316.57 1455 Q2319.65 1459.58 2319.65 1468.33 Q2319.65 1477.06 2316.57 1481.67 Q2313.51 1486.25 2307.7 1486.25 Q2301.89 1486.25 2298.81 1481.67 Q2295.76 1477.06 2295.76 1468.33 Q2295.76 1459.58 2298.81 1455 Q2301.89 1450.39 2307.7 1450.39 Z" fill="#000000" fill-rule="evenodd" fill-opacity="1" /><path clip-path="url(#clip810)" d="M2337.86 1454.1 Q2334.25 1454.1 2332.42 1457.66 Q2330.62 1461.2 2330.62 1468.33 Q2330.62 1475.44 2332.42 1479.01 Q2334.25 1482.55 2337.86 1482.55 Q2341.5 1482.55 2343.3 1479.01 Q2345.13 1475.44 2345.13 1468.33 Q2345.13 1461.2 2343.3 1457.66 Q2341.5 1454.1 2337.86 1454.1 M2337.86 1450.39 Q2343.67 1450.39 2346.73 1455 Q2349.81 1459.58 2349.81 1468.33 Q2349.81 1477.06 2346.73 1481.67 Q2343.67 1486.25 2337.86 1486.25 Q2332.05 1486.25 2328.98 1481.67 Q2325.92 1477.06 2325.92 1468.33 Q2325.92 1459.58 2328.98 1455 Q2332.05 1450.39 2337.86 1450.39 Z" fill="#000000" fill-rule="evenodd" fill-opacity="1" /><path clip-path="url(#clip810)" d="M975.458 1525.81 L975.458 1543.66 L983.542 1543.66 Q988.03 1543.66 990.481 1541.34 Q992.932 1539.02 992.932 1534.72 Q992.932 1530.45 990.481 1528.13 Q988.03 1525.81 983.542 1525.81 L975.458 1525.81 M969.028 1520.52 L983.542 1520.52 Q991.531 1520.52 995.605 1524.15 Q999.711 1527.75 999.711 1534.72 Q999.711 1541.75 995.605 1545.35 Q991.531 1548.95 983.542 1548.95 L975.458 1548.95 L975.458 1568.04 L969.028 1568.04 L969.028 1520.52 Z" fill="#000000" fill-rule="evenodd" fill-opacity="1" /><path clip-path="url(#clip810)" d="M1014.77 1525.81 L1014.77 1543.66 L1022.85 1543.66 Q1027.34 1543.66 1029.79 1541.34 Q1032.24 1539.02 1032.24 1534.72 Q1032.24 1530.45 1029.79 1528.13 Q1027.34 1525.81 1022.85 1525.81 L1014.77 1525.81 M1008.34 1520.52 L1022.85 1520.52 Q1030.84 1520.52 1034.91 1524.15 Q1039.02 1527.75 1039.02 1534.72 Q1039.02 1541.75 1034.91 1545.35 Q1030.84 1548.95 1022.85 1548.95 L1014.77 1548.95 L1014.77 1568.04 L1008.34 1568.04 L1008.34 1520.52 Z" fill="#000000" fill-rule="evenodd" fill-opacity="1" /><path clip-path="url(#clip810)" d="M1047.64 1520.52 L1074.95 1520.52 L1074.95 1525.93 L1054.07 1525.93 L1054.07 1539.94 L1072.92 1539.94 L1072.92 1545.35 L1054.07 1545.35 L1054.07 1568.04 L1047.64 1568.04 L1047.64 1520.52 Z" fill="#000000" fill-rule="evenodd" fill-opacity="1" /><path clip-path="url(#clip810)" d="M1091.57 1525.81 L1091.57 1562.76 L1099.33 1562.76 Q1109.17 1562.76 1113.72 1558.3 Q1118.3 1553.85 1118.3 1544.24 Q1118.3 1534.69 1113.72 1530.26 Q1109.17 1525.81 1099.33 1525.81 L1091.57 1525.81 M1085.14 1520.52 L1098.35 1520.52 Q1112.16 1520.52 1118.62 1526.28 Q1125.08 1532.01 1125.08 1544.24 Q1125.08 1556.52 1118.59 1562.28 Q1112.1 1568.04 1098.35 1568.04 L1085.14 1568.04 L1085.14 1520.52 Z" fill="#000000" fill-rule="evenodd" fill-opacity="1" /><path clip-path="url(#clip810)" d="M1169.87 1518.58 Q1165.6 1525.9 1163.53 1533.06 Q1161.46 1540.23 1161.46 1547.58 Q1161.46 1554.93 1163.53 1562.16 Q1165.63 1569.35 1169.87 1576.64 L1164.77 1576.64 Q1160 1569.16 1157.61 1561.93 Q1155.26 1554.71 1155.26 1547.58 Q1155.26 1540.48 1157.61 1533.29 Q1159.97 1526.09 1164.77 1518.58 L1169.87 1518.58 Z" fill="#000000" fill-rule="evenodd" fill-opacity="1" /><path clip-path="url(#clip810)" d="M1180.62 1581.6 L1180.62 1532.4 L1186.48 1532.4 L1186.48 1554.55 Q1186.48 1559.16 1188.68 1561.52 Q1190.87 1563.87 1195.17 1563.87 Q1199.88 1563.87 1202.24 1561.2 Q1204.62 1558.53 1204.62 1553.18 L1204.62 1532.4 L1210.48 1532.4 L1210.48 1559.83 Q1210.48 1561.74 1211.02 1562.66 Q1211.59 1563.56 1212.77 1563.56 Q1213.06 1563.56 1213.57 1563.4 Q1214.08 1563.21 1214.97 1562.82 L1214.97 1567.53 Q1213.66 1568.27 1212.48 1568.62 Q1211.34 1568.97 1210.22 1568.97 Q1208.03 1568.97 1206.72 1567.73 Q1205.42 1566.48 1204.94 1563.94 Q1203.35 1566.45 1201.03 1567.73 Q1198.73 1568.97 1195.62 1568.97 Q1192.37 1568.97 1190.08 1567.73 Q1187.82 1566.48 1186.48 1564 L1186.48 1581.6 L1180.62 1581.6 Z" fill="#000000" fill-rule="evenodd" fill-opacity="1" /><path clip-path="url(#clip810)" d="M1250.46 1539.24 Q1252.65 1535.29 1255.71 1533.41 Q1258.76 1531.54 1262.9 1531.54 Q1268.47 1531.54 1271.49 1535.45 Q1274.52 1539.33 1274.52 1546.53 L1274.52 1568.04 L1268.63 1568.04 L1268.63 1546.72 Q1268.63 1541.59 1266.82 1539.11 Q1265 1536.63 1261.28 1536.63 Q1256.73 1536.63 1254.08 1539.65 Q1251.44 1542.68 1251.44 1547.9 L1251.44 1568.04 L1245.55 1568.04 L1245.55 1546.72 Q1245.55 1541.56 1243.74 1539.11 Q1241.93 1536.63 1238.14 1536.63 Q1233.65 1536.63 1231.01 1539.68 Q1228.37 1542.71 1228.37 1547.9 L1228.37 1568.04 L1222.48 1568.04 L1222.48 1532.4 L1228.37 1532.4 L1228.37 1537.93 Q1230.37 1534.66 1233.17 1533.1 Q1235.97 1531.54 1239.83 1531.54 Q1243.71 1531.54 1246.41 1533.51 Q1249.15 1535.48 1250.46 1539.24 Z" fill="#000000" fill-rule="evenodd" fill-opacity="1" /><path clip-path="url(#clip810)" d="M1300.01 1536.5 Q1295.3 1536.5 1292.57 1540.19 Q1289.83 1543.85 1289.83 1550.25 Q1289.83 1556.65 1292.53 1560.34 Q1295.27 1564 1300.01 1564 Q1304.69 1564 1307.43 1560.31 Q1310.17 1556.62 1310.17 1550.25 Q1310.17 1543.92 1307.43 1540.23 Q1304.69 1536.5 1300.01 1536.5 M1300.01 1531.54 Q1307.65 1531.54 1312.01 1536.5 Q1316.37 1541.47 1316.37 1550.25 Q1316.37 1559 1312.01 1564 Q1307.65 1568.97 1300.01 1568.97 Q1292.34 1568.97 1287.98 1564 Q1283.65 1559 1283.65 1550.25 Q1283.65 1541.47 1287.98 1536.5 Q1292.34 1531.54 1300.01 1531.54 Z" fill="#000000" fill-rule="evenodd" fill-opacity="1" /><path clip-path="url(#clip810)" d="M1326.08 1518.52 L1331.94 1518.52 L1331.94 1568.04 L1326.08 1568.04 L1326.08 1518.52 Z" fill="#000000" fill-rule="evenodd" fill-opacity="1" /><path clip-path="url(#clip810)" d="M1392.67 1539.24 Q1394.86 1535.29 1397.92 1533.41 Q1400.97 1531.54 1405.11 1531.54 Q1410.68 1531.54 1413.7 1535.45 Q1416.73 1539.33 1416.73 1546.53 L1416.73 1568.04 L1410.84 1568.04 L1410.84 1546.72 Q1410.84 1541.59 1409.03 1539.11 Q1407.21 1536.63 1403.49 1536.63 Q1398.94 1536.63 1396.29 1539.65 Q1393.65 1542.68 1393.65 1547.9 L1393.65 1568.04 L1387.76 1568.04 L1387.76 1546.72 Q1387.76 1541.56 1385.95 1539.11 Q1384.14 1536.63 1380.35 1536.63 Q1375.86 1536.63 1373.22 1539.68 Q1370.58 1542.71 1370.58 1547.9 L1370.58 1568.04 L1364.69 1568.04 L1364.69 1532.4 L1370.58 1532.4 L1370.58 1537.93 Q1372.58 1534.66 1375.38 1533.1 Q1378.18 1531.54 1382.04 1531.54 Q1385.92 1531.54 1388.62 1533.51 Q1391.36 1535.48 1392.67 1539.24 Z" fill="#000000" fill-rule="evenodd" fill-opacity="1" /><path clip-path="url(#clip810)" d="M1426.63 1533.83 L1452.31 1533.83 L1452.31 1536.85 L1426.63 1536.85 L1426.63 1533.83 Z" fill="#000000" fill-rule="evenodd" fill-opacity="1" /><path clip-path="url(#clip810)" d="M1465.2 1543.15 L1478.7 1543.15 L1478.7 1546.78 L1459.67 1546.78 L1459.67 1543.28 Q1460.75 1542.29 1462.75 1540.51 Q1473.7 1530.8 1473.7 1527.81 Q1473.7 1525.71 1472.05 1524.44 Q1470.39 1523.13 1467.69 1523.13 Q1466.03 1523.13 1464.09 1523.71 Q1462.15 1524.25 1459.86 1525.36 L1459.86 1521.45 Q1462.31 1520.56 1464.41 1520.11 Q1466.54 1519.66 1468.35 1519.66 Q1472.97 1519.66 1475.74 1521.77 Q1478.51 1523.87 1478.51 1527.3 Q1478.51 1531.73 1467.97 1540.77 Q1466.19 1542.29 1465.2 1543.15 Z" fill="#000000" fill-rule="evenodd" fill-opacity="1" /><path clip-path="url(#clip810)" d="M1532.39 1533.45 L1532.39 1538.98 Q1529.91 1537.71 1527.24 1537.07 Q1524.56 1536.44 1521.7 1536.44 Q1517.34 1536.44 1515.14 1537.77 Q1512.98 1539.11 1512.98 1541.79 Q1512.98 1543.82 1514.54 1545 Q1516.1 1546.15 1520.81 1547.2 L1522.81 1547.64 Q1529.05 1548.98 1531.66 1551.43 Q1534.3 1553.85 1534.3 1558.21 Q1534.3 1563.17 1530.36 1566.07 Q1526.44 1568.97 1519.57 1568.97 Q1516.7 1568.97 1513.58 1568.39 Q1510.5 1567.85 1507.06 1566.74 L1507.06 1560.69 Q1510.3 1562.38 1513.46 1563.24 Q1516.61 1564.07 1519.69 1564.07 Q1523.83 1564.07 1526.06 1562.66 Q1528.29 1561.23 1528.29 1558.65 Q1528.29 1556.27 1526.66 1554.99 Q1525.07 1553.72 1519.63 1552.54 L1517.59 1552.07 Q1512.15 1550.92 1509.73 1548.56 Q1507.31 1546.18 1507.31 1542.04 Q1507.31 1537.01 1510.88 1534.27 Q1514.44 1531.54 1521 1531.54 Q1524.25 1531.54 1527.11 1532.01 Q1529.97 1532.49 1532.39 1533.45 Z" fill="#000000" fill-rule="evenodd" fill-opacity="1" /><path clip-path="url(#clip810)" d="M1541.85 1533.83 L1567.53 1533.83 L1567.53 1536.85 L1541.85 1536.85 L1541.85 1533.83 Z" fill="#000000" fill-rule="evenodd" fill-opacity="1" /><path clip-path="url(#clip810)" d="M1576.86 1543.28 L1583.35 1543.28 L1583.35 1523.83 L1576.25 1525.14 L1576.25 1521.45 L1583.57 1520.21 L1587.93 1520.21 L1587.93 1543.28 L1594.46 1543.28 L1594.46 1546.78 L1576.86 1546.78 L1576.86 1543.28 Z" fill="#000000" fill-rule="evenodd" fill-opacity="1" /><path clip-path="url(#clip810)" d="M1603.24 1518.58 L1608.34 1518.58 Q1613.11 1526.09 1615.47 1533.29 Q1617.85 1540.48 1617.85 1547.58 Q1617.85 1554.71 1615.47 1561.93 Q1613.11 1569.16 1608.34 1576.64 L1603.24 1576.64 Q1607.48 1569.35 1609.55 1562.16 Q1611.65 1554.93 1611.65 1547.58 Q1611.65 1540.23 1609.55 1533.06 Q1607.48 1525.9 1603.24 1518.58 Z" fill="#000000" fill-rule="evenodd" fill-opacity="1" /><polyline clip-path="url(#clip812)" style="stroke:#000000; stroke-linecap:butt; stroke-linejoin:round; stroke-width:2; stroke-opacity:0.1; fill:none" points="
  234.125,1384.24 2352.76,1384.24 
  "/>
<polyline clip-path="url(#clip812)" style="stroke:#000000; stroke-linecap:butt; stroke-linejoin:round; stroke-width:2; stroke-opacity:0.1; fill:none" points="
  234.125,1066.83 2352.76,1066.83 
  "/>
<polyline clip-path="url(#clip812)" style="stroke:#000000; stroke-linecap:butt; stroke-linejoin:round; stroke-width:2; stroke-opacity:0.1; fill:none" points="
  234.125,749.418 2352.76,749.418 
  "/>
<polyline clip-path="url(#clip812)" style="stroke:#000000; stroke-linecap:butt; stroke-linejoin:round; stroke-width:2; stroke-opacity:0.1; fill:none" points="
  234.125,432.008 2352.76,432.008 
  "/>
<polyline clip-path="url(#clip812)" style="stroke:#000000; stroke-linecap:butt; stroke-linejoin:round; stroke-width:2; stroke-opacity:0.1; fill:none" points="
  234.125,114.598 2352.76,114.598 
  "/>
<polyline clip-path="url(#clip810)" style="stroke:#000000; stroke-linecap:butt; stroke-linejoin:round; stroke-width:4; stroke-opacity:1; fill:none" points="
  234.125,1423.18 234.125,47.2441 
  "/>
<polyline clip-path="url(#clip810)" style="stroke:#000000; stroke-linecap:butt; stroke-linejoin:round; stroke-width:4; stroke-opacity:1; fill:none" points="
  234.125,1384.24 253.023,1384.24 
  "/>
<polyline clip-path="url(#clip810)" style="stroke:#000000; stroke-linecap:butt; stroke-linejoin:round; stroke-width:4; stroke-opacity:1; fill:none" points="
  234.125,1066.83 253.023,1066.83 
  "/>
<polyline clip-path="url(#clip810)" style="stroke:#000000; stroke-linecap:butt; stroke-linejoin:round; stroke-width:4; stroke-opacity:1; fill:none" points="
  234.125,749.418 253.023,749.418 
  "/>
<polyline clip-path="url(#clip810)" style="stroke:#000000; stroke-linecap:butt; stroke-linejoin:round; stroke-width:4; stroke-opacity:1; fill:none" points="
  234.125,432.008 253.023,432.008 
  "/>
<polyline clip-path="url(#clip810)" style="stroke:#000000; stroke-linecap:butt; stroke-linejoin:round; stroke-width:4; stroke-opacity:1; fill:none" points="
  234.125,114.598 253.023,114.598 
  "/>
<path clip-path="url(#clip810)" d="M186.181 1370.04 Q182.57 1370.04 180.741 1373.6 Q178.936 1377.14 178.936 1384.27 Q178.936 1391.38 180.741 1394.94 Q182.57 1398.49 186.181 1398.49 Q189.815 1398.49 191.621 1394.94 Q193.45 1391.38 193.45 1384.27 Q193.45 1377.14 191.621 1373.6 Q189.815 1370.04 186.181 1370.04 M186.181 1366.33 Q191.991 1366.33 195.047 1370.94 Q198.125 1375.52 198.125 1384.27 Q198.125 1393 195.047 1397.61 Q191.991 1402.19 186.181 1402.19 Q180.371 1402.19 177.292 1397.61 Q174.237 1393 174.237 1384.27 Q174.237 1375.52 177.292 1370.94 Q180.371 1366.33 186.181 1366.33 Z" fill="#000000" fill-rule="evenodd" fill-opacity="1" /><path clip-path="url(#clip810)" d="M146.066 1049.55 L164.422 1049.55 L164.422 1053.48 L150.348 1053.48 L150.348 1061.96 Q151.366 1061.61 152.385 1061.45 Q153.403 1061.26 154.422 1061.26 Q160.209 1061.26 163.589 1064.43 Q166.968 1067.6 166.968 1073.02 Q166.968 1078.6 163.496 1081.7 Q160.024 1084.78 153.704 1084.78 Q151.528 1084.78 149.26 1084.41 Q147.015 1084.04 144.607 1083.3 L144.607 1078.6 Q146.691 1079.73 148.913 1080.29 Q151.135 1080.84 153.612 1080.84 Q157.616 1080.84 159.954 1078.74 Q162.292 1076.63 162.292 1073.02 Q162.292 1069.41 159.954 1067.3 Q157.616 1065.2 153.612 1065.2 Q151.737 1065.2 149.862 1065.61 Q148.01 1066.03 146.066 1066.91 L146.066 1049.55 Z" fill="#000000" fill-rule="evenodd" fill-opacity="1" /><path clip-path="url(#clip810)" d="M186.181 1052.63 Q182.57 1052.63 180.741 1056.19 Q178.936 1059.73 178.936 1066.86 Q178.936 1073.97 180.741 1077.53 Q182.57 1081.08 186.181 1081.08 Q189.815 1081.08 191.621 1077.53 Q193.45 1073.97 193.45 1066.86 Q193.45 1059.73 191.621 1056.19 Q189.815 1052.63 186.181 1052.63 M186.181 1048.92 Q191.991 1048.92 195.047 1053.53 Q198.125 1058.11 198.125 1066.86 Q198.125 1075.59 195.047 1080.2 Q191.991 1084.78 186.181 1084.78 Q180.371 1084.78 177.292 1080.2 Q174.237 1075.59 174.237 1066.86 Q174.237 1058.11 177.292 1053.53 Q180.371 1048.92 186.181 1048.92 Z" fill="#000000" fill-rule="evenodd" fill-opacity="1" /><path clip-path="url(#clip810)" d="M116.668 762.763 L124.306 762.763 L124.306 736.397 L115.996 738.064 L115.996 733.805 L124.26 732.138 L128.936 732.138 L128.936 762.763 L136.575 762.763 L136.575 766.698 L116.668 766.698 L116.668 762.763 Z" fill="#000000" fill-rule="evenodd" fill-opacity="1" /><path clip-path="url(#clip810)" d="M156.019 735.217 Q152.408 735.217 150.579 738.781 Q148.774 742.323 148.774 749.453 Q148.774 756.559 150.579 760.124 Q152.408 763.666 156.019 763.666 Q159.653 763.666 161.459 760.124 Q163.288 756.559 163.288 749.453 Q163.288 742.323 161.459 738.781 Q159.653 735.217 156.019 735.217 M156.019 731.513 Q161.829 731.513 164.885 736.119 Q167.964 740.703 167.964 749.453 Q167.964 758.18 164.885 762.786 Q161.829 767.369 156.019 767.369 Q150.209 767.369 147.13 762.786 Q144.075 758.18 144.075 749.453 Q144.075 740.703 147.13 736.119 Q150.209 731.513 156.019 731.513 Z" fill="#000000" fill-rule="evenodd" fill-opacity="1" /><path clip-path="url(#clip810)" d="M186.181 735.217 Q182.57 735.217 180.741 738.781 Q178.936 742.323 178.936 749.453 Q178.936 756.559 180.741 760.124 Q182.57 763.666 186.181 763.666 Q189.815 763.666 191.621 760.124 Q193.45 756.559 193.45 749.453 Q193.45 742.323 191.621 738.781 Q189.815 735.217 186.181 735.217 M186.181 731.513 Q191.991 731.513 195.047 736.119 Q198.125 740.703 198.125 749.453 Q198.125 758.18 195.047 762.786 Q191.991 767.369 186.181 767.369 Q180.371 767.369 177.292 762.786 Q174.237 758.18 174.237 749.453 Q174.237 740.703 177.292 736.119 Q180.371 731.513 186.181 731.513 Z" fill="#000000" fill-rule="evenodd" fill-opacity="1" /><path clip-path="url(#clip810)" d="M116.668 445.353 L124.306 445.353 L124.306 418.987 L115.996 420.654 L115.996 416.395 L124.26 414.728 L128.936 414.728 L128.936 445.353 L136.575 445.353 L136.575 449.288 L116.668 449.288 L116.668 445.353 Z" fill="#000000" fill-rule="evenodd" fill-opacity="1" /><path clip-path="url(#clip810)" d="M146.066 414.728 L164.422 414.728 L164.422 418.663 L150.348 418.663 L150.348 427.135 Q151.366 426.788 152.385 426.626 Q153.403 426.441 154.422 426.441 Q160.209 426.441 163.589 429.612 Q166.968 432.783 166.968 438.2 Q166.968 443.779 163.496 446.88 Q160.024 449.959 153.704 449.959 Q151.528 449.959 149.26 449.589 Q147.015 449.218 144.607 448.478 L144.607 443.779 Q146.691 444.913 148.913 445.468 Q151.135 446.024 153.612 446.024 Q157.616 446.024 159.954 443.918 Q162.292 441.811 162.292 438.2 Q162.292 434.589 159.954 432.482 Q157.616 430.376 153.612 430.376 Q151.737 430.376 149.862 430.793 Q148.01 431.209 146.066 432.089 L146.066 414.728 Z" fill="#000000" fill-rule="evenodd" fill-opacity="1" /><path clip-path="url(#clip810)" d="M186.181 417.807 Q182.57 417.807 180.741 421.371 Q178.936 424.913 178.936 432.043 Q178.936 439.149 180.741 442.714 Q182.57 446.255 186.181 446.255 Q189.815 446.255 191.621 442.714 Q193.45 439.149 193.45 432.043 Q193.45 424.913 191.621 421.371 Q189.815 417.807 186.181 417.807 M186.181 414.103 Q191.991 414.103 195.047 418.709 Q198.125 423.293 198.125 432.043 Q198.125 440.769 195.047 445.376 Q191.991 449.959 186.181 449.959 Q180.371 449.959 177.292 445.376 Q174.237 440.769 174.237 432.043 Q174.237 423.293 177.292 418.709 Q180.371 414.103 186.181 414.103 Z" fill="#000000" fill-rule="evenodd" fill-opacity="1" /><path clip-path="url(#clip810)" d="M119.885 127.943 L136.204 127.943 L136.204 131.878 L114.26 131.878 L114.26 127.943 Q116.922 125.188 121.505 120.558 Q126.112 115.906 127.292 114.563 Q129.538 112.04 130.417 110.304 Q131.32 108.545 131.32 106.855 Q131.32 104.1 129.376 102.364 Q127.455 100.628 124.353 100.628 Q122.154 100.628 119.7 101.392 Q117.269 102.156 114.492 103.707 L114.492 98.9844 Q117.316 97.8501 119.769 97.2714 Q122.223 96.6927 124.26 96.6927 Q129.63 96.6927 132.825 99.3779 Q136.019 102.063 136.019 106.554 Q136.019 108.683 135.209 110.605 Q134.422 112.503 132.316 115.095 Q131.737 115.767 128.635 118.984 Q125.533 122.179 119.885 127.943 Z" fill="#000000" fill-rule="evenodd" fill-opacity="1" /><path clip-path="url(#clip810)" d="M156.019 100.396 Q152.408 100.396 150.579 103.961 Q148.774 107.503 148.774 114.632 Q148.774 121.739 150.579 125.304 Q152.408 128.845 156.019 128.845 Q159.653 128.845 161.459 125.304 Q163.288 121.739 163.288 114.632 Q163.288 107.503 161.459 103.961 Q159.653 100.396 156.019 100.396 M156.019 96.6927 Q161.829 96.6927 164.885 101.299 Q167.964 105.882 167.964 114.632 Q167.964 123.359 164.885 127.966 Q161.829 132.549 156.019 132.549 Q150.209 132.549 147.13 127.966 Q144.075 123.359 144.075 114.632 Q144.075 105.882 147.13 101.299 Q150.209 96.6927 156.019 96.6927 Z" fill="#000000" fill-rule="evenodd" fill-opacity="1" /><path clip-path="url(#clip810)" d="M186.181 100.396 Q182.57 100.396 180.741 103.961 Q178.936 107.503 178.936 114.632 Q178.936 121.739 180.741 125.304 Q182.57 128.845 186.181 128.845 Q189.815 128.845 191.621 125.304 Q193.45 121.739 193.45 114.632 Q193.45 107.503 191.621 103.961 Q189.815 100.396 186.181 100.396 M186.181 96.6927 Q191.991 96.6927 195.047 101.299 Q198.125 105.882 198.125 114.632 Q198.125 123.359 195.047 127.966 Q191.991 132.549 186.181 132.549 Q180.371 132.549 177.292 127.966 Q174.237 123.359 174.237 114.632 Q174.237 105.882 177.292 101.299 Q180.371 96.6927 186.181 96.6927 Z" fill="#000000" fill-rule="evenodd" fill-opacity="1" /><path clip-path="url(#clip810)" d="M16.4842 981.199 L16.4842 974.769 L60.694 974.769 Q69.2877 974.769 73.1708 978.048 Q77.0539 981.294 77.0539 988.519 L77.0539 990.97 L71.643 990.97 L71.643 988.965 Q71.643 984.7 69.2559 982.949 Q66.8687 981.199 60.694 981.199 L16.4842 981.199 Z" fill="#000000" fill-rule="evenodd" fill-opacity="1" /><path clip-path="url(#clip810)" d="M14.5426 927.44 Q21.8632 931.705 29.0246 933.774 Q36.186 935.843 43.5384 935.843 Q50.8908 935.843 58.1159 933.774 Q65.3091 931.674 72.5979 927.44 L72.5979 932.533 Q65.1182 937.307 57.8931 939.694 Q50.668 942.05 43.5384 942.05 Q36.4406 942.05 29.2474 939.694 Q22.0542 937.339 14.5426 932.533 L14.5426 927.44 Z" fill="#000000" fill-rule="evenodd" fill-opacity="1" /><path clip-path="url(#clip810)" d="M77.5631 916.682 L28.3562 916.682 L28.3562 910.826 L50.5089 910.826 Q55.124 910.826 57.4793 908.63 Q59.8346 906.434 59.8346 902.137 Q59.8346 897.426 57.161 895.071 Q54.4874 892.684 49.1402 892.684 L28.3562 892.684 L28.3562 886.827 L55.7924 886.827 Q57.7021 886.827 58.6251 886.286 Q59.5163 885.713 59.5163 884.536 Q59.5163 884.249 59.3572 883.74 Q59.1662 883.231 58.7843 882.339 L63.4949 882.339 Q64.227 883.644 64.5771 884.822 Q64.9272 885.968 64.9272 887.082 Q64.9272 889.278 63.6859 890.583 Q62.4446 891.888 59.8983 892.365 Q62.4127 893.957 63.6859 896.28 Q64.9272 898.572 64.9272 901.691 Q64.9272 904.938 63.6859 907.229 Q62.4446 909.489 59.9619 910.826 L77.5631 910.826 L77.5631 916.682 Z" fill="#000000" fill-rule="evenodd" fill-opacity="1" /><path clip-path="url(#clip810)" d="M35.1993 846.851 Q31.2526 844.654 29.3747 841.599 Q27.4968 838.543 27.4968 834.406 Q27.4968 828.836 31.4117 825.812 Q35.2948 822.788 42.4881 822.788 L64.0042 822.788 L64.0042 828.676 L42.679 828.676 Q37.5546 828.676 35.072 830.491 Q32.5894 832.305 32.5894 836.029 Q32.5894 840.58 35.6131 843.222 Q38.6368 845.864 43.8567 845.864 L64.0042 845.864 L64.0042 851.752 L42.679 851.752 Q37.5228 851.752 35.072 853.566 Q32.5894 855.381 32.5894 859.168 Q32.5894 863.656 35.6449 866.298 Q38.6686 868.94 43.8567 868.94 L64.0042 868.94 L64.0042 874.828 L28.3562 874.828 L28.3562 868.94 L33.8944 868.94 Q30.616 866.934 29.0564 864.133 Q27.4968 861.333 27.4968 857.481 Q27.4968 853.598 29.4702 850.893 Q31.4436 848.156 35.1993 846.851 Z" fill="#000000" fill-rule="evenodd" fill-opacity="1" /><path clip-path="url(#clip810)" d="M32.4621 797.294 Q32.4621 802.004 36.1542 804.741 Q39.8145 807.479 46.212 807.479 Q52.6095 807.479 56.3017 804.773 Q59.9619 802.036 59.9619 797.294 Q59.9619 792.615 56.2698 789.877 Q52.5777 787.14 46.212 787.14 Q39.8781 787.14 36.186 789.877 Q32.4621 792.615 32.4621 797.294 M27.4968 797.294 Q27.4968 789.655 32.4621 785.294 Q37.4273 780.934 46.212 780.934 Q54.9649 780.934 59.9619 785.294 Q64.9272 789.655 64.9272 797.294 Q64.9272 804.964 59.9619 809.325 Q54.9649 813.653 46.212 813.653 Q37.4273 813.653 32.4621 809.325 Q27.4968 804.964 27.4968 797.294 Z" fill="#000000" fill-rule="evenodd" fill-opacity="1" /><path clip-path="url(#clip810)" d="M14.479 771.226 L14.479 765.37 L64.0042 765.37 L64.0042 771.226 L14.479 771.226 Z" fill="#000000" fill-rule="evenodd" fill-opacity="1" /><path clip-path="url(#clip810)" d="M35.1993 704.641 Q31.2526 702.444 29.3747 699.389 Q27.4968 696.333 27.4968 692.196 Q27.4968 686.626 31.4117 683.602 Q35.2948 680.578 42.4881 680.578 L64.0042 680.578 L64.0042 686.467 L42.679 686.467 Q37.5546 686.467 35.072 688.281 Q32.5894 690.095 32.5894 693.819 Q32.5894 698.37 35.6131 701.012 Q38.6368 703.654 43.8567 703.654 L64.0042 703.654 L64.0042 709.542 L42.679 709.542 Q37.5228 709.542 35.072 711.356 Q32.5894 713.171 32.5894 716.958 Q32.5894 721.446 35.6449 724.088 Q38.6686 726.73 43.8567 726.73 L64.0042 726.73 L64.0042 732.618 L28.3562 732.618 L28.3562 726.73 L33.8944 726.73 Q30.616 724.724 29.0564 721.924 Q27.4968 719.123 27.4968 715.271 Q27.4968 711.388 29.4702 708.683 Q31.4436 705.946 35.1993 704.641 Z" fill="#000000" fill-rule="evenodd" fill-opacity="1" /><path clip-path="url(#clip810)" d="M29.7885 670.68 L29.7885 644.994 L32.8122 644.994 L32.8122 670.68 L29.7885 670.68 Z" fill="#000000" fill-rule="evenodd" fill-opacity="1" /><path clip-path="url(#clip810)" d="M39.1142 632.103 L39.1142 618.608 L42.7427 618.608 L42.7427 637.642 L39.2416 637.642 Q38.2549 636.559 36.4725 634.554 Q26.7648 623.605 23.7729 623.605 Q21.6722 623.605 20.3991 625.26 Q19.0941 626.915 19.0941 629.621 Q19.0941 631.276 19.667 633.217 Q20.2081 635.159 21.3221 637.451 L17.4072 637.451 Q16.516 635 16.0704 632.899 Q15.6248 630.767 15.6248 628.952 Q15.6248 624.337 17.7255 621.568 Q19.8262 618.799 23.2636 618.799 Q27.6878 618.799 36.7271 629.334 Q38.2549 631.117 39.1142 632.103 Z" fill="#000000" fill-rule="evenodd" fill-opacity="1" /><path clip-path="url(#clip810)" d="M29.4065 564.913 L34.9447 564.913 Q33.6716 567.396 33.035 570.07 Q32.3984 572.743 32.3984 575.608 Q32.3984 579.968 33.7352 582.164 Q35.072 584.329 37.7456 584.329 Q39.7826 584.329 40.9603 582.769 Q42.1061 581.21 43.1565 576.499 L43.6021 574.494 Q44.9389 568.255 47.3897 565.645 Q49.8086 563.004 54.1691 563.004 Q59.1344 563.004 62.0308 566.95 Q64.9272 570.865 64.9272 577.74 Q64.9272 580.605 64.3543 583.724 Q63.8132 586.811 62.6992 590.249 L56.6518 590.249 Q58.3387 587.002 59.198 583.851 Q60.0256 580.7 60.0256 577.613 Q60.0256 573.475 58.6251 571.247 Q57.1929 569.019 54.6147 569.019 Q52.2276 569.019 50.9545 570.643 Q49.6813 572.234 48.5037 577.677 L48.0262 579.714 Q46.8804 585.156 44.5251 587.575 Q42.138 589.994 38.0002 589.994 Q32.9713 589.994 30.2341 586.429 Q27.4968 582.865 27.4968 576.308 Q27.4968 573.062 27.9743 570.197 Q28.4517 567.332 29.4065 564.913 Z" fill="#000000" fill-rule="evenodd" fill-opacity="1" /><path clip-path="url(#clip810)" d="M29.7885 555.46 L29.7885 529.775 L32.8122 529.775 L32.8122 555.46 L29.7885 555.46 Z" fill="#000000" fill-rule="evenodd" fill-opacity="1" /><path clip-path="url(#clip810)" d="M39.2416 520.449 L39.2416 513.956 L19.7943 513.956 L21.0993 521.054 L17.4072 521.054 L16.1659 513.733 L16.1659 509.373 L39.2416 509.373 L39.2416 502.848 L42.7427 502.848 L42.7427 520.449 L39.2416 520.449 Z" fill="#000000" fill-rule="evenodd" fill-opacity="1" /><path clip-path="url(#clip810)" d="M14.5426 494.063 L14.5426 488.971 Q22.0542 484.196 29.2474 481.841 Q36.4406 479.454 43.5384 479.454 Q50.668 479.454 57.8931 481.841 Q65.1182 484.196 72.5979 488.971 L72.5979 494.063 Q65.3091 489.83 58.1159 487.761 Q50.8908 485.66 43.5384 485.66 Q36.186 485.66 29.0246 487.761 Q21.8632 489.83 14.5426 494.063 Z" fill="#000000" fill-rule="evenodd" fill-opacity="1" /><polyline clip-path="url(#clip812)" style="stroke:#009af9; stroke-linecap:butt; stroke-linejoin:round; stroke-width:4; stroke-opacity:1; fill:none" points="
  294.087,1384.24 394.022,1236.43 493.957,1098.37 593.893,970.849 693.828,854.452 793.764,749.418 893.699,655.624 993.634,572.604 1093.57,499.611 1193.51,435.722 
  1293.44,379.927 1393.38,331.221 1493.31,288.651 1593.25,251.357 1693.18,218.579 1793.12,189.663 1893.05,164.048 1992.99,141.261 2092.92,120.903 2192.86,102.639 
  2292.79,86.1857 
  "/>
<polyline clip-path="url(#clip812)" style="stroke:#e26f46; stroke-linecap:butt; stroke-linejoin:round; stroke-width:4; stroke-opacity:1; fill:none" points="
  294.087,1384.24 394.022,1241.1 493.957,1115.22 593.893,1004.71 693.828,907.717 793.764,822.499 893.699,747.458 993.634,681.185 1093.57,622.454 1193.51,570.211 
  1293.44,523.557 1393.38,481.731 1493.31,444.085 1593.25,410.071 1693.18,379.227 1793.12,351.156 1893.05,325.523 1992.99,302.04 2092.92,280.46 2192.86,260.572 
  2292.79,242.192 
  "/>
<polyline clip-path="url(#clip812)" style="stroke:#3da44d; stroke-linecap:butt; stroke-linejoin:round; stroke-width:4; stroke-opacity:1; fill:none" points="
  294.087,1384.24 394.022,1309.18 493.957,1236.43 593.893,1166.13 693.828,1098.37 793.764,1033.25 893.699,970.849 993.634,911.237 1093.57,854.452 1193.51,800.514 
  1293.44,749.418 1393.38,701.138 1493.31,655.624 1593.25,612.809 1693.18,572.604 1793.12,534.909 1893.05,499.611 1992.99,466.591 2092.92,435.722 2192.86,406.876 
  2292.79,379.927 
  "/>
<path clip-path="url(#clip810)" d="
M1711.22 1377.32 L2282.13 1377.32 L2282.13 1169.96 L1711.22 1169.96  Z
  " fill="#ffffff" fill-rule="evenodd" fill-opacity="1"/>
<polyline clip-path="url(#clip810)" style="stroke:#000000; stroke-linecap:butt; stroke-linejoin:round; stroke-width:4; stroke-opacity:1; fill:none" points="
  1711.22,1377.32 2282.13,1377.32 2282.13,1169.96 1711.22,1169.96 1711.22,1377.32 
  "/>
<polyline clip-path="url(#clip810)" style="stroke:#009af9; stroke-linecap:butt; stroke-linejoin:round; stroke-width:4; stroke-opacity:1; fill:none" points="
  1734.76,1221.8 1876.01,1221.8 
  "/>
<path clip-path="url(#clip810)" d="M1904.22 1208.36 L1904.22 1235.23 L1909.87 1235.23 Q1917.02 1235.23 1920.33 1231.99 Q1923.67 1228.75 1923.67 1221.76 Q1923.67 1214.82 1920.33 1211.6 Q1917.02 1208.36 1909.87 1208.36 L1904.22 1208.36 M1899.55 1204.52 L1909.15 1204.52 Q1919.2 1204.52 1923.9 1208.71 Q1928.6 1212.87 1928.6 1221.76 Q1928.6 1230.7 1923.88 1234.89 Q1919.15 1239.08 1909.15 1239.08 L1899.55 1239.08 L1899.55 1204.52 Z" fill="#000000" fill-rule="evenodd" fill-opacity="1" /><path clip-path="url(#clip810)" d="M1958.04 1225.05 L1958.04 1227.13 L1938.46 1227.13 Q1938.74 1231.53 1941.1 1233.84 Q1943.48 1236.14 1947.72 1236.14 Q1950.17 1236.14 1952.46 1235.53 Q1954.78 1234.93 1957.05 1233.73 L1957.05 1237.76 Q1954.75 1238.73 1952.35 1239.24 Q1949.94 1239.75 1947.46 1239.75 Q1941.26 1239.75 1937.63 1236.14 Q1934.01 1232.52 1934.01 1226.37 Q1934.01 1220 1937.44 1216.27 Q1940.89 1212.52 1946.72 1212.52 Q1951.95 1212.52 1954.99 1215.9 Q1958.04 1219.26 1958.04 1225.05 M1953.78 1223.8 Q1953.74 1220.3 1951.81 1218.22 Q1949.92 1216.14 1946.77 1216.14 Q1943.2 1216.14 1941.05 1218.15 Q1938.92 1220.16 1938.6 1223.82 L1953.78 1223.8 Z" fill="#000000" fill-rule="evenodd" fill-opacity="1" /><path clip-path="url(#clip810)" d="M1978.16 1203.06 L1978.16 1206.6 L1974.08 1206.6 Q1971.79 1206.6 1970.89 1207.52 Q1970.01 1208.45 1970.01 1210.86 L1970.01 1213.15 L1977.02 1213.15 L1977.02 1216.46 L1970.01 1216.46 L1970.01 1239.08 L1965.73 1239.08 L1965.73 1216.46 L1961.65 1216.46 L1961.65 1213.15 L1965.73 1213.15 L1965.73 1211.34 Q1965.73 1207.02 1967.74 1205.05 Q1969.75 1203.06 1974.13 1203.06 L1978.16 1203.06 Z" fill="#000000" fill-rule="evenodd" fill-opacity="1" /><path clip-path="url(#clip810)" d="M1993.5 1226.04 Q1988.34 1226.04 1986.35 1227.22 Q1984.36 1228.4 1984.36 1231.25 Q1984.36 1233.52 1985.84 1234.86 Q1987.35 1236.18 1989.92 1236.18 Q1993.46 1236.18 1995.59 1233.68 Q1997.74 1231.16 1997.74 1226.99 L1997.74 1226.04 L1993.5 1226.04 M2002 1224.28 L2002 1239.08 L1997.74 1239.08 L1997.74 1235.14 Q1996.28 1237.5 1994.11 1238.64 Q1991.93 1239.75 1988.78 1239.75 Q1984.8 1239.75 1982.44 1237.52 Q1980.1 1235.28 1980.1 1231.53 Q1980.1 1227.15 1983.02 1224.93 Q1985.96 1222.71 1991.77 1222.71 L1997.74 1222.71 L1997.74 1222.29 Q1997.74 1219.35 1995.8 1217.76 Q1993.87 1216.14 1990.38 1216.14 Q1988.16 1216.14 1986.05 1216.67 Q1983.94 1217.2 1982 1218.27 L1982 1214.33 Q1984.34 1213.43 1986.54 1212.99 Q1988.74 1212.52 1990.82 1212.52 Q1996.44 1212.52 1999.22 1215.44 Q2002 1218.36 2002 1224.28 Z" fill="#000000" fill-rule="evenodd" fill-opacity="1" /><path clip-path="url(#clip810)" d="M2010.33 1228.84 L2010.33 1213.15 L2014.59 1213.15 L2014.59 1228.68 Q2014.59 1232.36 2016.03 1234.21 Q2017.46 1236.04 2020.33 1236.04 Q2023.78 1236.04 2025.77 1233.84 Q2027.79 1231.64 2027.79 1227.85 L2027.79 1213.15 L2032.05 1213.15 L2032.05 1239.08 L2027.79 1239.08 L2027.79 1235.09 Q2026.24 1237.45 2024.18 1238.61 Q2022.14 1239.75 2019.43 1239.75 Q2014.96 1239.75 2012.65 1236.97 Q2010.33 1234.19 2010.33 1228.84 M2021.05 1212.52 L2021.05 1212.52 Z" fill="#000000" fill-rule="evenodd" fill-opacity="1" /><path clip-path="url(#clip810)" d="M2040.82 1203.06 L2045.08 1203.06 L2045.08 1239.08 L2040.82 1239.08 L2040.82 1203.06 Z" fill="#000000" fill-rule="evenodd" fill-opacity="1" /><path clip-path="url(#clip810)" d="M2058.2 1205.79 L2058.2 1213.15 L2066.98 1213.15 L2066.98 1216.46 L2058.2 1216.46 L2058.2 1230.53 Q2058.2 1233.7 2059.06 1234.61 Q2059.94 1235.51 2062.6 1235.51 L2066.98 1235.51 L2066.98 1239.08 L2062.6 1239.08 Q2057.67 1239.08 2055.8 1237.25 Q2053.92 1235.39 2053.92 1230.53 L2053.92 1216.46 L2050.8 1216.46 L2050.8 1213.15 L2053.92 1213.15 L2053.92 1205.79 L2058.2 1205.79 Z" fill="#000000" fill-rule="evenodd" fill-opacity="1" /><path clip-path="url(#clip810)" d="M2084.59 1213.15 L2089.11 1213.15 L2097.21 1234.91 L2105.31 1213.15 L2109.82 1213.15 L2100.1 1239.08 L2094.31 1239.08 L2084.59 1213.15 Z" fill="#000000" fill-rule="evenodd" fill-opacity="1" /><path clip-path="url(#clip810)" d="M2127.49 1226.04 Q2122.32 1226.04 2120.33 1227.22 Q2118.34 1228.4 2118.34 1231.25 Q2118.34 1233.52 2119.82 1234.86 Q2121.33 1236.18 2123.9 1236.18 Q2127.44 1236.18 2129.57 1233.68 Q2131.72 1231.16 2131.72 1226.99 L2131.72 1226.04 L2127.49 1226.04 M2135.98 1224.28 L2135.98 1239.08 L2131.72 1239.08 L2131.72 1235.14 Q2130.26 1237.5 2128.09 1238.64 Q2125.91 1239.75 2122.76 1239.75 Q2118.78 1239.75 2116.42 1237.52 Q2114.08 1235.28 2114.08 1231.53 Q2114.08 1227.15 2117 1224.93 Q2119.94 1222.71 2125.75 1222.71 L2131.72 1222.71 L2131.72 1222.29 Q2131.72 1219.35 2129.78 1217.76 Q2127.86 1216.14 2124.36 1216.14 Q2122.14 1216.14 2120.03 1216.67 Q2117.93 1217.2 2115.98 1218.27 L2115.98 1214.33 Q2118.32 1213.43 2120.52 1212.99 Q2122.72 1212.52 2124.8 1212.52 Q2130.43 1212.52 2133.2 1215.44 Q2135.98 1218.36 2135.98 1224.28 Z" fill="#000000" fill-rule="evenodd" fill-opacity="1" /><path clip-path="url(#clip810)" d="M2144.75 1203.06 L2149.01 1203.06 L2149.01 1239.08 L2144.75 1239.08 L2144.75 1203.06 Z" fill="#000000" fill-rule="evenodd" fill-opacity="1" /><path clip-path="url(#clip810)" d="M2157.49 1228.84 L2157.49 1213.15 L2161.74 1213.15 L2161.74 1228.68 Q2161.74 1232.36 2163.18 1234.21 Q2164.61 1236.04 2167.49 1236.04 Q2170.93 1236.04 2172.92 1233.84 Q2174.94 1231.64 2174.94 1227.85 L2174.94 1213.15 L2179.2 1213.15 L2179.2 1239.08 L2174.94 1239.08 L2174.94 1235.09 Q2173.39 1237.45 2171.33 1238.61 Q2169.29 1239.75 2166.58 1239.75 Q2162.11 1239.75 2159.8 1236.97 Q2157.49 1234.19 2157.49 1228.84 M2168.2 1212.52 L2168.2 1212.52 Z" fill="#000000" fill-rule="evenodd" fill-opacity="1" /><path clip-path="url(#clip810)" d="M2210.15 1225.05 L2210.15 1227.13 L2190.56 1227.13 Q2190.84 1231.53 2193.2 1233.84 Q2195.59 1236.14 2199.82 1236.14 Q2202.28 1236.14 2204.57 1235.53 Q2206.88 1234.93 2209.15 1233.73 L2209.15 1237.76 Q2206.86 1238.73 2204.45 1239.24 Q2202.05 1239.75 2199.57 1239.75 Q2193.36 1239.75 2189.73 1236.14 Q2186.12 1232.52 2186.12 1226.37 Q2186.12 1220 2189.55 1216.27 Q2192.99 1212.52 2198.83 1212.52 Q2204.06 1212.52 2207.09 1215.9 Q2210.15 1219.26 2210.15 1225.05 M2205.89 1223.8 Q2205.84 1220.3 2203.92 1218.22 Q2202.02 1216.14 2198.87 1216.14 Q2195.31 1216.14 2193.16 1218.15 Q2191.03 1220.16 2190.7 1223.82 L2205.89 1223.8 Z" fill="#000000" fill-rule="evenodd" fill-opacity="1" /><path clip-path="url(#clip810)" d="M2233.67 1213.91 L2233.67 1217.94 Q2231.86 1217.02 2229.92 1216.55 Q2227.97 1216.09 2225.89 1216.09 Q2222.72 1216.09 2221.12 1217.06 Q2219.55 1218.03 2219.55 1219.98 Q2219.55 1221.46 2220.68 1222.32 Q2221.81 1223.15 2225.24 1223.91 L2226.7 1224.24 Q2231.23 1225.21 2233.13 1226.99 Q2235.05 1228.75 2235.05 1231.92 Q2235.05 1235.53 2232.18 1237.64 Q2229.34 1239.75 2224.34 1239.75 Q2222.25 1239.75 2219.98 1239.33 Q2217.74 1238.94 2215.24 1238.13 L2215.24 1233.73 Q2217.6 1234.95 2219.89 1235.58 Q2222.18 1236.18 2224.43 1236.18 Q2227.44 1236.18 2229.06 1235.16 Q2230.68 1234.12 2230.68 1232.25 Q2230.68 1230.51 2229.5 1229.58 Q2228.34 1228.66 2224.38 1227.8 L2222.9 1227.46 Q2218.94 1226.62 2217.18 1224.91 Q2215.42 1223.17 2215.42 1220.16 Q2215.42 1216.51 2218.02 1214.52 Q2220.61 1212.52 2225.38 1212.52 Q2227.74 1212.52 2229.82 1212.87 Q2231.91 1213.22 2233.67 1213.91 Z" fill="#000000" fill-rule="evenodd" fill-opacity="1" /><polyline clip-path="url(#clip810)" style="stroke:#e26f46; stroke-linecap:butt; stroke-linejoin:round; stroke-width:4; stroke-opacity:1; fill:none" points="
  1734.76,1273.64 1876.01,1273.64 
  "/>
<path clip-path="url(#clip810)" d="M1918.81 1274.48 L1904.06 1274.48 Q1904.41 1281.4 1906.01 1284.34 Q1908 1287.95 1911.44 1287.95 Q1914.92 1287.95 1916.84 1284.32 Q1918.53 1281.12 1918.81 1274.48 M1918.74 1270.55 Q1918.09 1263.97 1916.84 1261.66 Q1914.85 1258 1911.44 1258 Q1907.9 1258 1906.03 1261.61 Q1904.55 1264.53 1904.11 1270.55 L1918.74 1270.55 M1911.44 1254.53 Q1917 1254.53 1920.17 1259.43 Q1923.34 1264.32 1923.34 1272.98 Q1923.34 1281.61 1920.17 1286.52 Q1917 1291.45 1911.44 1291.45 Q1905.87 1291.45 1902.72 1286.52 Q1899.55 1281.61 1899.55 1272.98 Q1899.55 1264.32 1902.72 1259.43 Q1905.87 1254.53 1911.44 1254.53 Z" fill="#000000" fill-rule="evenodd" fill-opacity="1" /><path clip-path="url(#clip810)" d="M1963.3 1262.05 L1954.99 1266.54 L1963.3 1271.05 L1961.95 1273.32 L1954.18 1268.62 L1954.18 1277.35 L1951.54 1277.35 L1951.54 1268.62 L1943.76 1273.32 L1942.42 1271.05 L1950.73 1266.54 L1942.42 1262.05 L1943.76 1259.76 L1951.54 1264.46 L1951.54 1255.73 L1954.18 1255.73 L1954.18 1264.46 L1961.95 1259.76 L1963.3 1262.05 Z" fill="#000000" fill-rule="evenodd" fill-opacity="1" /><path clip-path="url(#clip810)" d="M1994.85 1259.43 Q1991.24 1259.43 1989.41 1263 Q1987.6 1266.54 1987.6 1273.67 Q1987.6 1280.78 1989.41 1284.34 Q1991.24 1287.88 1994.85 1287.88 Q1998.48 1287.88 2000.29 1284.34 Q2002.12 1280.78 2002.12 1273.67 Q2002.12 1266.54 2000.29 1263 Q1998.48 1259.43 1994.85 1259.43 M1994.85 1255.73 Q2000.66 1255.73 2003.71 1260.34 Q2006.79 1264.92 2006.79 1273.67 Q2006.79 1282.4 2003.71 1287 Q2000.66 1291.59 1994.85 1291.59 Q1989.04 1291.59 1985.96 1287 Q1982.9 1282.4 1982.9 1273.67 Q1982.9 1264.92 1985.96 1260.34 Q1989.04 1255.73 1994.85 1255.73 Z" fill="#000000" fill-rule="evenodd" fill-opacity="1" /><path clip-path="url(#clip810)" d="M2015.01 1285.04 L2019.89 1285.04 L2019.89 1290.92 L2015.01 1290.92 L2015.01 1285.04 Z" fill="#000000" fill-rule="evenodd" fill-opacity="1" /><path clip-path="url(#clip810)" d="M2030.12 1256.36 L2048.48 1256.36 L2048.48 1260.29 L2034.41 1260.29 L2034.41 1268.76 Q2035.43 1268.42 2036.44 1268.25 Q2037.46 1268.07 2038.48 1268.07 Q2044.27 1268.07 2047.65 1271.24 Q2051.03 1274.41 2051.03 1279.83 Q2051.03 1285.41 2047.56 1288.51 Q2044.08 1291.59 2037.76 1291.59 Q2035.59 1291.59 2033.32 1291.22 Q2031.07 1290.85 2028.67 1290.11 L2028.67 1285.41 Q2030.75 1286.54 2032.97 1287.1 Q2035.19 1287.65 2037.67 1287.65 Q2041.68 1287.65 2044.01 1285.54 Q2046.35 1283.44 2046.35 1279.83 Q2046.35 1276.22 2044.01 1274.11 Q2041.68 1272 2037.67 1272 Q2035.8 1272 2033.92 1272.42 Q2032.07 1272.84 2030.12 1273.72 L2030.12 1256.36 Z" fill="#000000" fill-rule="evenodd" fill-opacity="1" /><polyline clip-path="url(#clip810)" style="stroke:#3da44d; stroke-linecap:butt; stroke-linejoin:round; stroke-width:4; stroke-opacity:1; fill:none" points="
  1734.76,1325.48 1876.01,1325.48 
  "/>
<path clip-path="url(#clip810)" d="M1916.51 1330.7 L1915.5 1325.35 Q1914.45 1319.86 1910.33 1319.86 Q1907.23 1319.86 1905.82 1322.41 Q1904.04 1325.6 1904.04 1329.82 Q1904.04 1334.91 1905.77 1337.34 Q1907.53 1339.82 1910.33 1339.82 Q1913.44 1339.82 1915.1 1334.88 L1916.51 1330.7 M1918.9 1323.61 L1921.19 1316.83 L1924.99 1316.83 L1920.24 1330.88 L1921.17 1335.95 Q1921.38 1337.08 1922.19 1338.03 Q1923.13 1339.14 1923.88 1339.14 L1925.91 1339.14 L1925.91 1342.76 L1923.37 1342.76 Q1921.19 1342.76 1919.25 1340.81 Q1918.3 1339.84 1917.9 1337.8 Q1916.84 1340.37 1914.66 1342.38 Q1913.64 1343.33 1910.33 1343.33 Q1904.89 1343.33 1902.26 1339.82 Q1899.55 1336.18 1899.55 1329.82 Q1899.55 1323.01 1902.49 1319.82 Q1905.75 1316.25 1910.33 1316.25 Q1917.53 1316.25 1918.9 1323.61 Z" fill="#000000" fill-rule="evenodd" fill-opacity="1" /><path clip-path="url(#clip810)" d="M1965.54 1313.89 L1957.23 1318.38 L1965.54 1322.89 L1964.2 1325.16 L1956.42 1320.46 L1956.42 1329.19 L1953.78 1329.19 L1953.78 1320.46 L1946 1325.16 L1944.66 1322.89 L1952.97 1318.38 L1944.66 1313.89 L1946 1311.6 L1953.78 1316.3 L1953.78 1307.57 L1956.42 1307.57 L1956.42 1316.3 L1964.2 1311.6 L1965.54 1313.89 Z" fill="#000000" fill-rule="evenodd" fill-opacity="1" /><path clip-path="url(#clip810)" d="M1997.09 1311.27 Q1993.48 1311.27 1991.65 1314.84 Q1989.85 1318.38 1989.85 1325.51 Q1989.85 1332.62 1991.65 1336.18 Q1993.48 1339.72 1997.09 1339.72 Q2000.73 1339.72 2002.53 1336.18 Q2004.36 1332.62 2004.36 1325.51 Q2004.36 1318.38 2002.53 1314.84 Q2000.73 1311.27 1997.09 1311.27 M1997.09 1307.57 Q2002.9 1307.57 2005.96 1312.18 Q2009.04 1316.76 2009.04 1325.51 Q2009.04 1334.24 2005.96 1338.84 Q2002.9 1343.43 1997.09 1343.43 Q1991.28 1343.43 1988.2 1338.84 Q1985.15 1334.24 1985.15 1325.51 Q1985.15 1316.76 1988.2 1312.18 Q1991.28 1307.57 1997.09 1307.57 Z" fill="#000000" fill-rule="evenodd" fill-opacity="1" /><path clip-path="url(#clip810)" d="M2017.25 1336.88 L2022.14 1336.88 L2022.14 1342.76 L2017.25 1342.76 L2017.25 1336.88 Z" fill="#000000" fill-rule="evenodd" fill-opacity="1" /><path clip-path="url(#clip810)" d="M2032.37 1308.2 L2050.73 1308.2 L2050.73 1312.13 L2036.65 1312.13 L2036.65 1320.6 Q2037.67 1320.26 2038.69 1320.09 Q2039.71 1319.91 2040.73 1319.91 Q2046.51 1319.91 2049.89 1323.08 Q2053.27 1326.25 2053.27 1331.67 Q2053.27 1337.25 2049.8 1340.35 Q2046.33 1343.43 2040.01 1343.43 Q2037.83 1343.43 2035.56 1343.06 Q2033.32 1342.69 2030.91 1341.95 L2030.91 1337.25 Q2033 1338.38 2035.22 1338.94 Q2037.44 1339.49 2039.92 1339.49 Q2043.92 1339.49 2046.26 1337.38 Q2048.6 1335.28 2048.6 1331.67 Q2048.6 1328.06 2046.26 1325.95 Q2043.92 1323.84 2039.92 1323.84 Q2038.04 1323.84 2036.17 1324.26 Q2034.31 1324.68 2032.37 1325.56 L2032.37 1308.2 Z" fill="#000000" fill-rule="evenodd" fill-opacity="1" /></svg>
